<?xml version="1.0" standalone="yes"?><svg xmlns="http://www.w3.org/2000/svg" version="1.1" width="441" height="441" viewBox="0 0 441 441" shape-rendering="crispEdges"><rect x="0" y="0" width="441" height="441" fill="#fff"/><path fill="#000" d="M0 0h9v9H0V0M9 0h9v9H9V0M18 0h9v9H18V0M27 0h9v9H27V0M36 0h9v9H36V0M45 0h9v9H45V0M54 0h9v9H54V0M72 0h9v9H72V0M81 0h9v9H81V0M90 0h9v9H90V0M108 0h9v9H108V0M144 0h9v9H144V0M153 0h9v9H153V0M162 0h9v9H162V0M243 0h9v9H243V0M252 0h9v9H252V0M261 0h9v9H261V0M279 0h9v9H279V0M288 0h9v9H288V0M315 0h9v9H315V0M360 0h9v9H360V0M378 0h9v9H378V0M387 0h9v9H387V0M396 0h9v9H396V0M405 0h9v9H405V0M414 0h9v9H414V0M423 0h9v9H423V0M432 0h9v9H432V0M0 9h9v9H0V9M54 9h9v9H54V9M72 9h9v9H72V9M90 9h9v9H90V9M108 9h9v9H108V9M117 9h9v9H117V9M126 9h9v9H126V9M135 9h9v9H135V9M144 9h9v9H144V9M153 9h9v9H153V9M180 9h9v9H180V9M189 9h9v9H189V9M198 9h9v9H198V9M234 9h9v9H234V9M261 9h9v9H261V9M288 9h9v9H288V9M306 9h9v9H306V9M315 9h9v9H315V9M324 9h9v9H324V9M342 9h9v9H342V9M351 9h9v9H351V9M360 9h9v9H360V9M378 9h9v9H378V9M432 9h9v9H432V9M0 18h9v9H0V18M18 18h9v9H18V18M27 18h9v9H27V18M36 18h9v9H36V18M54 18h9v9H54V18M90 18h9v9H90V18M117 18h9v9H117V18M126 18h9v9H126V18M153 18h9v9H153V18M171 18h9v9H171V18M180 18h9v9H180V18M189 18h9v9H189V18M198 18h9v9H198V18M225 18h9v9H225V18M234 18h9v9H234V18M252 18h9v9H252V18M261 18h9v9H261V18M279 18h9v9H279V18M288 18h9v9H288V18M297 18h9v9H297V18M306 18h9v9H306V18M333 18h9v9H333V18M351 18h9v9H351V18M360 18h9v9H360V18M378 18h9v9H378V18M396 18h9v9H396V18M405 18h9v9H405V18M414 18h9v9H414V18M432 18h9v9H432V18M0 27h9v9H0V27M18 27h9v9H18V27M27 27h9v9H27V27M36 27h9v9H36V27M54 27h9v9H54V27M72 27h9v9H72V27M81 27h9v9H81V27M99 27h9v9H99V27M108 27h9v9H108V27M117 27h9v9H117V27M135 27h9v9H135V27M153 27h9v9H153V27M162 27h9v9H162V27M189 27h9v9H189V27M198 27h9v9H198V27M207 27h9v9H207V27M234 27h9v9H234V27M270 27h9v9H270V27M297 27h9v9H297V27M306 27h9v9H306V27M315 27h9v9H315V27M324 27h9v9H324V27M333 27h9v9H333V27M351 27h9v9H351V27M378 27h9v9H378V27M396 27h9v9H396V27M405 27h9v9H405V27M414 27h9v9H414V27M432 27h9v9H432V27M0 36h9v9H0V36M18 36h9v9H18V36M27 36h9v9H27V36M36 36h9v9H36V36M54 36h9v9H54V36M81 36h9v9H81V36M90 36h9v9H90V36M99 36h9v9H99V36M108 36h9v9H108V36M126 36h9v9H126V36M135 36h9v9H135V36M144 36h9v9H144V36M171 36h9v9H171V36M198 36h9v9H198V36M207 36h9v9H207V36M216 36h9v9H216V36M225 36h9v9H225V36M234 36h9v9H234V36M243 36h9v9H243V36M261 36h9v9H261V36M279 36h9v9H279V36M297 36h9v9H297V36M315 36h9v9H315V36M378 36h9v9H378V36M396 36h9v9H396V36M405 36h9v9H405V36M414 36h9v9H414V36M432 36h9v9H432V36M0 45h9v9H0V45M54 45h9v9H54V45M81 45h9v9H81V45M90 45h9v9H90V45M99 45h9v9H99V45M108 45h9v9H108V45M117 45h9v9H117V45M126 45h9v9H126V45M162 45h9v9H162V45M171 45h9v9H171V45M180 45h9v9H180V45M189 45h9v9H189V45M198 45h9v9H198V45M234 45h9v9H234V45M261 45h9v9H261V45M270 45h9v9H270V45M297 45h9v9H297V45M342 45h9v9H342V45M378 45h9v9H378V45M432 45h9v9H432V45M0 54h9v9H0V54M9 54h9v9H9V54M18 54h9v9H18V54M27 54h9v9H27V54M36 54h9v9H36V54M45 54h9v9H45V54M54 54h9v9H54V54M72 54h9v9H72V54M90 54h9v9H90V54M108 54h9v9H108V54M126 54h9v9H126V54M144 54h9v9H144V54M162 54h9v9H162V54M180 54h9v9H180V54M198 54h9v9H198V54M216 54h9v9H216V54M234 54h9v9H234V54M252 54h9v9H252V54M270 54h9v9H270V54M288 54h9v9H288V54M306 54h9v9H306V54M324 54h9v9H324V54M342 54h9v9H342V54M360 54h9v9H360V54M378 54h9v9H378V54M387 54h9v9H387V54M396 54h9v9H396V54M405 54h9v9H405V54M414 54h9v9H414V54M423 54h9v9H423V54M432 54h9v9H432V54M72 63h9v9H72V63M90 63h9v9H90V63M117 63h9v9H117V63M126 63h9v9H126V63M135 63h9v9H135V63M144 63h9v9H144V63M162 63h9v9H162V63M171 63h9v9H171V63M198 63h9v9H198V63M234 63h9v9H234V63M252 63h9v9H252V63M261 63h9v9H261V63M279 63h9v9H279V63M306 63h9v9H306V63M315 63h9v9H315V63M324 63h9v9H324V63M351 63h9v9H351V63M0 72h9v9H0V72M18 72h9v9H18V72M27 72h9v9H27V72M45 72h9v9H45V72M54 72h9v9H54V72M63 72h9v9H63V72M90 72h9v9H90V72M108 72h9v9H108V72M126 72h9v9H126V72M144 72h9v9H144V72M153 72h9v9H153V72M171 72h9v9H171V72M180 72h9v9H180V72M189 72h9v9H189V72M198 72h9v9H198V72M207 72h9v9H207V72M216 72h9v9H216V72M225 72h9v9H225V72M234 72h9v9H234V72M243 72h9v9H243V72M252 72h9v9H252V72M297 72h9v9H297V72M315 72h9v9H315V72M342 72h9v9H342V72M351 72h9v9H351V72M360 72h9v9H360V72M378 72h9v9H378V72M405 72h9v9H405V72M423 72h9v9H423V72M432 72h9v9H432V72M9 81h9v9H9V81M18 81h9v9H18V81M45 81h9v9H45V81M90 81h9v9H90V81M99 81h9v9H99V81M117 81h9v9H117V81M144 81h9v9H144V81M171 81h9v9H171V81M225 81h9v9H225V81M243 81h9v9H243V81M261 81h9v9H261V81M270 81h9v9H270V81M279 81h9v9H279V81M333 81h9v9H333V81M351 81h9v9H351V81M360 81h9v9H360V81M378 81h9v9H378V81M396 81h9v9H396V81M423 81h9v9H423V81M432 81h9v9H432V81M0 90h9v9H0V90M18 90h9v9H18V90M27 90h9v9H27V90M54 90h9v9H54V90M81 90h9v9H81V90M90 90h9v9H90V90M99 90h9v9H99V90M117 90h9v9H117V90M135 90h9v9H135V90M171 90h9v9H171V90M189 90h9v9H189V90M198 90h9v9H198V90M216 90h9v9H216V90M225 90h9v9H225V90M234 90h9v9H234V90M252 90h9v9H252V90M297 90h9v9H297V90M306 90h9v9H306V90M315 90h9v9H315V90M351 90h9v9H351V90M360 90h9v9H360V90M378 90h9v9H378V90M387 90h9v9H387V90M396 90h9v9H396V90M405 90h9v9H405V90M0 99h9v9H0V99M18 99h9v9H18V99M36 99h9v9H36V99M81 99h9v9H81V99M108 99h9v9H108V99M144 99h9v9H144V99M198 99h9v9H198V99M207 99h9v9H207V99M261 99h9v9H261V99M270 99h9v9H270V99M288 99h9v9H288V99M315 99h9v9H315V99M324 99h9v9H324V99M333 99h9v9H333V99M342 99h9v9H342V99M369 99h9v9H369V99M378 99h9v9H378V99M387 99h9v9H387V99M396 99h9v9H396V99M405 99h9v9H405V99M414 99h9v9H414V99M423 99h9v9H423V99M45 108h9v9H45V108M54 108h9v9H54V108M72 108h9v9H72V108M90 108h9v9H90V108M99 108h9v9H99V108M108 108h9v9H108V108M144 108h9v9H144V108M162 108h9v9H162V108M171 108h9v9H171V108M198 108h9v9H198V108M207 108h9v9H207V108M216 108h9v9H216V108M225 108h9v9H225V108M261 108h9v9H261V108M324 108h9v9H324V108M333 108h9v9H333V108M351 108h9v9H351V108M360 108h9v9H360V108M369 108h9v9H369V108M387 108h9v9H387V108M414 108h9v9H414V108M423 108h9v9H423V108M432 108h9v9H432V108M18 117h9v9H18V117M36 117h9v9H36V117M63 117h9v9H63V117M99 117h9v9H99V117M108 117h9v9H108V117M117 117h9v9H117V117M126 117h9v9H126V117M144 117h9v9H144V117M180 117h9v9H180V117M225 117h9v9H225V117M234 117h9v9H234V117M288 117h9v9H288V117M297 117h9v9H297V117M324 117h9v9H324V117M333 117h9v9H333V117M342 117h9v9H342V117M351 117h9v9H351V117M387 117h9v9H387V117M414 117h9v9H414V117M423 117h9v9H423V117M432 117h9v9H432V117M0 126h9v9H0V126M18 126h9v9H18V126M27 126h9v9H27V126M45 126h9v9H45V126M54 126h9v9H54V126M63 126h9v9H63V126M72 126h9v9H72V126M81 126h9v9H81V126M117 126h9v9H117V126M153 126h9v9H153V126M162 126h9v9H162V126M189 126h9v9H189V126M198 126h9v9H198V126M225 126h9v9H225V126M234 126h9v9H234V126M243 126h9v9H243V126M288 126h9v9H288V126M297 126h9v9H297V126M306 126h9v9H306V126M351 126h9v9H351V126M360 126h9v9H360V126M396 126h9v9H396V126M423 126h9v9H423V126M9 135h9v9H9V135M18 135h9v9H18V135M27 135h9v9H27V135M63 135h9v9H63V135M72 135h9v9H72V135M81 135h9v9H81V135M90 135h9v9H90V135M99 135h9v9H99V135M108 135h9v9H108V135M117 135h9v9H117V135M126 135h9v9H126V135M135 135h9v9H135V135M189 135h9v9H189V135M207 135h9v9H207V135M216 135h9v9H216V135M225 135h9v9H225V135M234 135h9v9H234V135M243 135h9v9H243V135M252 135h9v9H252V135M279 135h9v9H279V135M297 135h9v9H297V135M315 135h9v9H315V135M342 135h9v9H342V135M351 135h9v9H351V135M369 135h9v9H369V135M396 135h9v9H396V135M423 135h9v9H423V135M36 144h9v9H36V144M45 144h9v9H45V144M54 144h9v9H54V144M63 144h9v9H63V144M72 144h9v9H72V144M108 144h9v9H108V144M126 144h9v9H126V144M153 144h9v9H153V144M189 144h9v9H189V144M225 144h9v9H225V144M261 144h9v9H261V144M270 144h9v9H270V144M279 144h9v9H279V144M297 144h9v9H297V144M333 144h9v9H333V144M360 144h9v9H360V144M387 144h9v9H387V144M396 144h9v9H396V144M405 144h9v9H405V144M414 144h9v9H414V144M423 144h9v9H423V144M0 153h9v9H0V153M18 153h9v9H18V153M27 153h9v9H27V153M36 153h9v9H36V153M99 153h9v9H99V153M117 153h9v9H117V153M126 153h9v9H126V153M135 153h9v9H135V153M198 153h9v9H198V153M207 153h9v9H207V153M261 153h9v9H261V153M270 153h9v9H270V153M288 153h9v9H288V153M360 153h9v9H360V153M369 153h9v9H369V153M387 153h9v9H387V153M432 153h9v9H432V153M18 162h9v9H18V162M45 162h9v9H45V162M54 162h9v9H54V162M63 162h9v9H63V162M72 162h9v9H72V162M81 162h9v9H81V162M108 162h9v9H108V162M144 162h9v9H144V162M162 162h9v9H162V162M171 162h9v9H171V162M180 162h9v9H180V162M189 162h9v9H189V162M207 162h9v9H207V162M225 162h9v9H225V162M243 162h9v9H243V162M270 162h9v9H270V162M288 162h9v9H288V162M306 162h9v9H306V162M324 162h9v9H324V162M333 162h9v9H333V162M360 162h9v9H360V162M387 162h9v9H387V162M423 162h9v9H423V162M432 162h9v9H432V162M27 171h9v9H27V171M36 171h9v9H36V171M45 171h9v9H45V171M81 171h9v9H81V171M90 171h9v9H90V171M108 171h9v9H108V171M117 171h9v9H117V171M126 171h9v9H126V171M135 171h9v9H135V171M144 171h9v9H144V171M153 171h9v9H153V171M171 171h9v9H171V171M180 171h9v9H180V171M189 171h9v9H189V171M207 171h9v9H207V171M216 171h9v9H216V171M243 171h9v9H243V171M252 171h9v9H252V171M261 171h9v9H261V171M270 171h9v9H270V171M288 171h9v9H288V171M306 171h9v9H306V171M324 171h9v9H324V171M333 171h9v9H333V171M342 171h9v9H342V171M378 171h9v9H378V171M405 171h9v9H405V171M0 180h9v9H0V180M9 180h9v9H9V180M18 180h9v9H18V180M54 180h9v9H54V180M72 180h9v9H72V180M90 180h9v9H90V180M108 180h9v9H108V180M126 180h9v9H126V180M135 180h9v9H135V180M162 180h9v9H162V180M180 180h9v9H180V180M207 180h9v9H207V180M252 180h9v9H252V180M261 180h9v9H261V180M297 180h9v9H297V180M306 180h9v9H306V180M360 180h9v9H360V180M369 180h9v9H369V180M378 180h9v9H378V180M387 180h9v9H387V180M414 180h9v9H414V180M423 180h9v9H423V180M0 189h9v9H0V189M18 189h9v9H18V189M27 189h9v9H27V189M36 189h9v9H36V189M63 189h9v9H63V189M90 189h9v9H90V189M144 189h9v9H144V189M207 189h9v9H207V189M216 189h9v9H216V189M225 189h9v9H225V189M234 189h9v9H234V189M243 189h9v9H243V189M252 189h9v9H252V189M261 189h9v9H261V189M270 189h9v9H270V189M279 189h9v9H279V189M333 189h9v9H333V189M369 189h9v9H369V189M378 189h9v9H378V189M387 189h9v9H387V189M396 189h9v9H396V189M405 189h9v9H405V189M414 189h9v9H414V189M423 189h9v9H423V189M432 189h9v9H432V189M0 198h9v9H0V198M9 198h9v9H9V198M18 198h9v9H18V198M36 198h9v9H36V198M45 198h9v9H45V198M54 198h9v9H54V198M63 198h9v9H63V198M72 198h9v9H72V198M108 198h9v9H108V198M135 198h9v9H135V198M153 198h9v9H153V198M162 198h9v9H162V198M198 198h9v9H198V198M207 198h9v9H207V198M216 198h9v9H216V198M225 198h9v9H225V198M234 198h9v9H234V198M252 198h9v9H252V198M333 198h9v9H333V198M360 198h9v9H360V198M369 198h9v9H369V198M378 198h9v9H378V198M387 198h9v9H387V198M396 198h9v9H396V198M414 198h9v9H414V198M9 207h9v9H9V207M36 207h9v9H36V207M72 207h9v9H72V207M108 207h9v9H108V207M117 207h9v9H117V207M126 207h9v9H126V207M171 207h9v9H171V207M198 207h9v9H198V207M234 207h9v9H234V207M243 207h9v9H243V207M270 207h9v9H270V207M279 207h9v9H279V207M288 207h9v9H288V207M306 207h9v9H306V207M342 207h9v9H342V207M351 207h9v9H351V207M360 207h9v9H360V207M396 207h9v9H396V207M405 207h9v9H405V207M414 207h9v9H414V207M432 207h9v9H432V207M0 216h9v9H0V216M27 216h9v9H27V216M36 216h9v9H36V216M54 216h9v9H54V216M72 216h9v9H72V216M81 216h9v9H81V216M108 216h9v9H108V216M117 216h9v9H117V216M135 216h9v9H135V216M162 216h9v9H162V216M189 216h9v9H189V216M198 216h9v9H198V216M216 216h9v9H216V216M234 216h9v9H234V216M270 216h9v9H270V216M279 216h9v9H279V216M297 216h9v9H297V216M315 216h9v9H315V216M324 216h9v9H324V216M342 216h9v9H342V216M360 216h9v9H360V216M378 216h9v9H378V216M396 216h9v9H396V216M405 216h9v9H405V216M423 216h9v9H423V216M432 216h9v9H432V216M36 225h9v9H36V225M72 225h9v9H72V225M99 225h9v9H99V225M117 225h9v9H117V225M144 225h9v9H144V225M171 225h9v9H171V225M180 225h9v9H180V225M198 225h9v9H198V225M234 225h9v9H234V225M252 225h9v9H252V225M261 225h9v9H261V225M279 225h9v9H279V225M288 225h9v9H288V225M297 225h9v9H297V225M315 225h9v9H315V225M342 225h9v9H342V225M360 225h9v9H360V225M396 225h9v9H396V225M405 225h9v9H405V225M423 225h9v9H423V225M432 225h9v9H432V225M9 234h9v9H9V234M36 234h9v9H36V234M45 234h9v9H45V234M54 234h9v9H54V234M63 234h9v9H63V234M72 234h9v9H72V234M90 234h9v9H90V234M135 234h9v9H135V234M144 234h9v9H144V234M171 234h9v9H171V234M180 234h9v9H180V234M189 234h9v9H189V234M198 234h9v9H198V234M207 234h9v9H207V234M216 234h9v9H216V234M225 234h9v9H225V234M234 234h9v9H234V234M243 234h9v9H243V234M261 234h9v9H261V234M270 234h9v9H270V234M306 234h9v9H306V234M315 234h9v9H315V234M342 234h9v9H342V234M351 234h9v9H351V234M360 234h9v9H360V234M369 234h9v9H369V234M378 234h9v9H378V234M387 234h9v9H387V234M396 234h9v9H396V234M405 234h9v9H405V234M414 234h9v9H414V234M423 234h9v9H423V234M18 243h9v9H18V243M27 243h9v9H27V243M81 243h9v9H81V243M90 243h9v9H90V243M99 243h9v9H99V243M108 243h9v9H108V243M117 243h9v9H117V243M144 243h9v9H144V243M153 243h9v9H153V243M189 243h9v9H189V243M198 243h9v9H198V243M216 243h9v9H216V243M234 243h9v9H234V243M243 243h9v9H243V243M252 243h9v9H252V243M261 243h9v9H261V243M288 243h9v9H288V243M360 243h9v9H360V243M423 243h9v9H423V243M18 252h9v9H18V252M36 252h9v9H36V252M45 252h9v9H45V252M54 252h9v9H54V252M99 252h9v9H99V252M126 252h9v9H126V252M135 252h9v9H135V252M144 252h9v9H144V252M180 252h9v9H180V252M207 252h9v9H207V252M234 252h9v9H234V252M243 252h9v9H243V252M261 252h9v9H261V252M279 252h9v9H279V252M288 252h9v9H288V252M306 252h9v9H306V252M333 252h9v9H333V252M351 252h9v9H351V252M360 252h9v9H360V252M405 252h9v9H405V252M423 252h9v9H423V252M432 252h9v9H432V252M0 261h9v9H0V261M18 261h9v9H18V261M45 261h9v9H45V261M72 261h9v9H72V261M81 261h9v9H81V261M117 261h9v9H117V261M126 261h9v9H126V261M135 261h9v9H135V261M144 261h9v9H144V261M153 261h9v9H153V261M162 261h9v9H162V261M180 261h9v9H180V261M198 261h9v9H198V261M243 261h9v9H243V261M279 261h9v9H279V261M288 261h9v9H288V261M297 261h9v9H297V261M306 261h9v9H306V261M315 261h9v9H315V261M360 261h9v9H360V261M369 261h9v9H369V261M405 261h9v9H405V261M414 261h9v9H414V261M9 270h9v9H9V270M18 270h9v9H18V270M54 270h9v9H54V270M63 270h9v9H63V270M81 270h9v9H81V270M90 270h9v9H90V270M108 270h9v9H108V270M117 270h9v9H117V270M126 270h9v9H126V270M144 270h9v9H144V270M162 270h9v9H162V270M180 270h9v9H180V270M216 270h9v9H216V270M225 270h9v9H225V270M252 270h9v9H252V270M261 270h9v9H261V270M279 270h9v9H279V270M288 270h9v9H288V270M297 270h9v9H297V270M342 270h9v9H342V270M351 270h9v9H351V270M360 270h9v9H360V270M378 270h9v9H378V270M414 270h9v9H414V270M423 270h9v9H423V270M432 270h9v9H432V270M0 279h9v9H0V279M27 279h9v9H27V279M45 279h9v9H45V279M63 279h9v9H63V279M72 279h9v9H72V279M81 279h9v9H81V279M90 279h9v9H90V279M108 279h9v9H108V279M117 279h9v9H117V279M144 279h9v9H144V279M153 279h9v9H153V279M171 279h9v9H171V279M189 279h9v9H189V279M198 279h9v9H198V279M207 279h9v9H207V279M216 279h9v9H216V279M234 279h9v9H234V279M243 279h9v9H243V279M252 279h9v9H252V279M261 279h9v9H261V279M270 279h9v9H270V279M279 279h9v9H279V279M315 279h9v9H315V279M324 279h9v9H324V279M333 279h9v9H333V279M342 279h9v9H342V279M351 279h9v9H351V279M369 279h9v9H369V279M378 279h9v9H378V279M387 279h9v9H387V279M396 279h9v9H396V279M405 279h9v9H405V279M9 288h9v9H9V288M27 288h9v9H27V288M36 288h9v9H36V288M45 288h9v9H45V288M54 288h9v9H54V288M63 288h9v9H63V288M99 288h9v9H99V288M117 288h9v9H117V288M126 288h9v9H126V288M144 288h9v9H144V288M153 288h9v9H153V288M189 288h9v9H189V288M207 288h9v9H207V288M216 288h9v9H216V288M225 288h9v9H225V288M261 288h9v9H261V288M270 288h9v9H270V288M297 288h9v9H297V288M324 288h9v9H324V288M342 288h9v9H342V288M360 288h9v9H360V288M369 288h9v9H369V288M378 288h9v9H378V288M387 288h9v9H387V288M396 288h9v9H396V288M414 288h9v9H414V288M432 288h9v9H432V288M0 297h9v9H0V297M18 297h9v9H18V297M36 297h9v9H36V297M45 297h9v9H45V297M63 297h9v9H63V297M72 297h9v9H72V297M90 297h9v9H90V297M99 297h9v9H99V297M126 297h9v9H126V297M135 297h9v9H135V297M144 297h9v9H144V297M153 297h9v9H153V297M171 297h9v9H171V297M216 297h9v9H216V297M225 297h9v9H225V297M261 297h9v9H261V297M270 297h9v9H270V297M279 297h9v9H279V297M297 297h9v9H297V297M315 297h9v9H315V297M333 297h9v9H333V297M369 297h9v9H369V297M387 297h9v9H387V297M405 297h9v9H405V297M432 297h9v9H432V297M0 306h9v9H0V306M27 306h9v9H27V306M45 306h9v9H45V306M54 306h9v9H54V306M72 306h9v9H72V306M81 306h9v9H81V306M90 306h9v9H90V306M108 306h9v9H108V306M117 306h9v9H117V306M126 306h9v9H126V306M135 306h9v9H135V306M162 306h9v9H162V306M171 306h9v9H171V306M180 306h9v9H180V306M198 306h9v9H198V306M207 306h9v9H207V306M216 306h9v9H216V306M225 306h9v9H225V306M234 306h9v9H234V306M252 306h9v9H252V306M261 306h9v9H261V306M270 306h9v9H270V306M297 306h9v9H297V306M315 306h9v9H315V306M324 306h9v9H324V306M333 306h9v9H333V306M342 306h9v9H342V306M414 306h9v9H414V306M18 315h9v9H18V315M36 315h9v9H36V315M45 315h9v9H45V315M72 315h9v9H72V315M81 315h9v9H81V315M90 315h9v9H90V315M108 315h9v9H108V315M135 315h9v9H135V315M171 315h9v9H171V315M180 315h9v9H180V315M189 315h9v9H189V315M198 315h9v9H198V315M234 315h9v9H234V315M288 315h9v9H288V315M306 315h9v9H306V315M315 315h9v9H315V315M324 315h9v9H324V315M333 315h9v9H333V315M378 315h9v9H378V315M405 315h9v9H405V315M414 315h9v9H414V315M423 315h9v9H423V315M0 324h9v9H0V324M9 324h9v9H9V324M18 324h9v9H18V324M45 324h9v9H45V324M54 324h9v9H54V324M72 324h9v9H72V324M99 324h9v9H99V324M126 324h9v9H126V324M144 324h9v9H144V324M153 324h9v9H153V324M180 324h9v9H180V324M189 324h9v9H189V324M216 324h9v9H216V324M225 324h9v9H225V324M270 324h9v9H270V324M315 324h9v9H315V324M324 324h9v9H324V324M333 324h9v9H333V324M342 324h9v9H342V324M351 324h9v9H351V324M369 324h9v9H369V324M378 324h9v9H378V324M396 324h9v9H396V324M405 324h9v9H405V324M414 324h9v9H414V324M432 324h9v9H432V324M9 333h9v9H9V333M18 333h9v9H18V333M36 333h9v9H36V333M45 333h9v9H45V333M63 333h9v9H63V333M72 333h9v9H72V333M108 333h9v9H108V333M117 333h9v9H117V333M126 333h9v9H126V333M135 333h9v9H135V333M144 333h9v9H144V333M171 333h9v9H171V333M180 333h9v9H180V333M225 333h9v9H225V333M234 333h9v9H234V333M243 333h9v9H243V333M252 333h9v9H252V333M279 333h9v9H279V333M333 333h9v9H333V333M342 333h9v9H342V333M351 333h9v9H351V333M387 333h9v9H387V333M396 333h9v9H396V333M405 333h9v9H405V333M9 342h9v9H9V342M45 342h9v9H45V342M54 342h9v9H54V342M99 342h9v9H99V342M207 342h9v9H207V342M243 342h9v9H243V342M270 342h9v9H270V342M279 342h9v9H279V342M297 342h9v9H297V342M315 342h9v9H315V342M369 342h9v9H369V342M405 342h9v9H405V342M414 342h9v9H414V342M423 342h9v9H423V342M9 351h9v9H9V351M18 351h9v9H18V351M27 351h9v9H27V351M81 351h9v9H81V351M90 351h9v9H90V351M117 351h9v9H117V351M135 351h9v9H135V351M180 351h9v9H180V351M189 351h9v9H189V351M207 351h9v9H207V351M216 351h9v9H216V351M225 351h9v9H225V351M234 351h9v9H234V351M243 351h9v9H243V351M252 351h9v9H252V351M270 351h9v9H270V351M279 351h9v9H279V351M288 351h9v9H288V351M297 351h9v9H297V351M342 351h9v9H342V351M351 351h9v9H351V351M360 351h9v9H360V351M378 351h9v9H378V351M0 360h9v9H0V360M9 360h9v9H9V360M18 360h9v9H18V360M54 360h9v9H54V360M63 360h9v9H63V360M72 360h9v9H72V360M81 360h9v9H81V360M99 360h9v9H99V360M117 360h9v9H117V360M126 360h9v9H126V360M135 360h9v9H135V360M144 360h9v9H144V360M162 360h9v9H162V360M180 360h9v9H180V360M189 360h9v9H189V360M198 360h9v9H198V360M207 360h9v9H207V360M216 360h9v9H216V360M225 360h9v9H225V360M234 360h9v9H234V360M243 360h9v9H243V360M270 360h9v9H270V360M279 360h9v9H279V360M288 360h9v9H288V360M297 360h9v9H297V360M333 360h9v9H333V360M342 360h9v9H342V360M360 360h9v9H360V360M369 360h9v9H369V360M378 360h9v9H378V360M387 360h9v9H387V360M396 360h9v9H396V360M423 360h9v9H423V360M72 369h9v9H72V369M81 369h9v9H81V369M90 369h9v9H90V369M99 369h9v9H99V369M117 369h9v9H117V369M126 369h9v9H126V369M153 369h9v9H153V369M198 369h9v9H198V369M234 369h9v9H234V369M288 369h9v9H288V369M297 369h9v9H297V369M306 369h9v9H306V369M315 369h9v9H315V369M351 369h9v9H351V369M360 369h9v9H360V369M396 369h9v9H396V369M405 369h9v9H405V369M414 369h9v9H414V369M0 378h9v9H0V378M9 378h9v9H9V378M18 378h9v9H18V378M27 378h9v9H27V378M36 378h9v9H36V378M45 378h9v9H45V378M54 378h9v9H54V378M72 378h9v9H72V378M90 378h9v9H90V378M99 378h9v9H99V378M108 378h9v9H108V378M144 378h9v9H144V378M153 378h9v9H153V378M189 378h9v9H189V378M198 378h9v9H198V378M216 378h9v9H216V378M234 378h9v9H234V378M261 378h9v9H261V378M279 378h9v9H279V378M297 378h9v9H297V378M306 378h9v9H306V378M342 378h9v9H342V378M360 378h9v9H360V378M378 378h9v9H378V378M396 378h9v9H396V378M405 378h9v9H405V378M414 378h9v9H414V378M423 378h9v9H423V378M432 378h9v9H432V378M0 387h9v9H0V387M54 387h9v9H54V387M72 387h9v9H72V387M99 387h9v9H99V387M108 387h9v9H108V387M126 387h9v9H126V387M135 387h9v9H135V387M144 387h9v9H144V387M153 387h9v9H153V387M162 387h9v9H162V387M171 387h9v9H171V387M198 387h9v9H198V387M234 387h9v9H234V387M261 387h9v9H261V387M288 387h9v9H288V387M297 387h9v9H297V387M306 387h9v9H306V387M324 387h9v9H324V387M333 387h9v9H333V387M351 387h9v9H351V387M360 387h9v9H360V387M396 387h9v9H396V387M405 387h9v9H405V387M432 387h9v9H432V387M0 396h9v9H0V396M18 396h9v9H18V396M27 396h9v9H27V396M36 396h9v9H36V396M54 396h9v9H54V396M81 396h9v9H81V396M126 396h9v9H126V396M135 396h9v9H135V396M162 396h9v9H162V396M189 396h9v9H189V396M198 396h9v9H198V396M207 396h9v9H207V396M216 396h9v9H216V396M225 396h9v9H225V396M234 396h9v9H234V396M243 396h9v9H243V396M252 396h9v9H252V396M261 396h9v9H261V396M306 396h9v9H306V396M360 396h9v9H360V396M369 396h9v9H369V396M378 396h9v9H378V396M387 396h9v9H387V396M396 396h9v9H396V396M405 396h9v9H405V396M414 396h9v9H414V396M432 396h9v9H432V396M0 405h9v9H0V405M18 405h9v9H18V405M27 405h9v9H27V405M36 405h9v9H36V405M54 405h9v9H54V405M72 405h9v9H72V405M81 405h9v9H81V405M90 405h9v9H90V405M99 405h9v9H99V405M144 405h9v9H144V405M162 405h9v9H162V405M207 405h9v9H207V405M216 405h9v9H216V405M234 405h9v9H234V405M252 405h9v9H252V405M270 405h9v9H270V405M315 405h9v9H315V405M324 405h9v9H324V405M333 405h9v9H333V405M351 405h9v9H351V405M369 405h9v9H369V405M378 405h9v9H378V405M396 405h9v9H396V405M423 405h9v9H423V405M0 414h9v9H0V414M18 414h9v9H18V414M27 414h9v9H27V414M36 414h9v9H36V414M54 414h9v9H54V414M72 414h9v9H72V414M108 414h9v9H108V414M117 414h9v9H117V414M126 414h9v9H126V414M135 414h9v9H135V414M144 414h9v9H144V414M153 414h9v9H153V414M162 414h9v9H162V414M171 414h9v9H171V414M180 414h9v9H180V414M189 414h9v9H189V414M225 414h9v9H225V414M234 414h9v9H234V414M243 414h9v9H243V414M252 414h9v9H252V414M261 414h9v9H261V414M270 414h9v9H270V414M288 414h9v9H288V414M297 414h9v9H297V414M333 414h9v9H333V414M351 414h9v9H351V414M387 414h9v9H387V414M396 414h9v9H396V414M405 414h9v9H405V414M0 423h9v9H0V423M54 423h9v9H54V423M81 423h9v9H81V423M90 423h9v9H90V423M99 423h9v9H99V423M108 423h9v9H108V423M126 423h9v9H126V423M171 423h9v9H171V423M207 423h9v9H207V423M234 423h9v9H234V423M243 423h9v9H243V423M252 423h9v9H252V423M306 423h9v9H306V423M315 423h9v9H315V423M324 423h9v9H324V423M342 423h9v9H342V423M360 423h9v9H360V423M369 423h9v9H369V423M387 423h9v9H387V423M396 423h9v9H396V423M405 423h9v9H405V423M414 423h9v9H414V423M0 432h9v9H0V432M9 432h9v9H9V432M18 432h9v9H18V432M27 432h9v9H27V432M36 432h9v9H36V432M45 432h9v9H45V432M54 432h9v9H54V432M72 432h9v9H72V432M81 432h9v9H81V432M90 432h9v9H90V432M99 432h9v9H99V432M126 432h9v9H126V432M135 432h9v9H135V432M144 432h9v9H144V432M153 432h9v9H153V432M180 432h9v9H180V432M234 432h9v9H234V432M243 432h9v9H243V432M252 432h9v9H252V432M288 432h9v9H288V432M351 432h9v9H351V432M387 432h9v9H387V432M396 432h9v9H396V432M405 432h9v9H405V432M414 432h9v9H414V432M423 432h9v9H423V432M432 432h9v9H432V432"/></svg>
