<?xml version="1.0" standalone="yes"?><svg xmlns="http://www.w3.org/2000/svg" version="1.1" width="424" height="424" viewBox="0 0 424 424" shape-rendering="crispEdges"><rect x="0" y="0" width="424" height="424" fill="#fff"/><path fill="#000" d="M0 0h8v8H0V0M8 0h8v8H8V0M16 0h8v8H16V0M24 0h8v8H24V0M32 0h8v8H32V0M40 0h8v8H40V0M48 0h8v8H48V0M96 0h8v8H96V0M128 0h8v8H128V0M144 0h8v8H144V0M160 0h8v8H160V0M176 0h8v8H176V0M184 0h8v8H184V0M200 0h8v8H200V0M216 0h8v8H216V0M232 0h8v8H232V0M240 0h8v8H240V0M248 0h8v8H248V0M264 0h8v8H264V0M272 0h8v8H272V0M288 0h8v8H288V0M296 0h8v8H296V0M304 0h8v8H304V0M312 0h8v8H312V0M320 0h8v8H320V0M336 0h8v8H336V0M368 0h8v8H368V0M376 0h8v8H376V0M384 0h8v8H384V0M392 0h8v8H392V0M400 0h8v8H400V0M408 0h8v8H408V0M416 0h8v8H416V0M0 8h8v8H0V8M48 8h8v8H48V8M72 8h8v8H72V8M80 8h8v8H80V8M88 8h8v8H88V8M104 8h8v8H104V8M112 8h8v8H112V8M120 8h8v8H120V8M128 8h8v8H128V8M136 8h8v8H136V8M144 8h8v8H144V8M168 8h8v8H168V8M176 8h8v8H176V8M184 8h8v8H184V8M192 8h8v8H192V8M208 8h8v8H208V8M216 8h8v8H216V8M224 8h8v8H224V8M232 8h8v8H232V8M240 8h8v8H240V8M248 8h8v8H248V8M256 8h8v8H256V8M264 8h8v8H264V8M272 8h8v8H272V8M280 8h8v8H280V8M304 8h8v8H304V8M320 8h8v8H320V8M328 8h8v8H328V8M336 8h8v8H336V8M344 8h8v8H344V8M368 8h8v8H368V8M416 8h8v8H416V8M0 16h8v8H0V16M16 16h8v8H16V16M24 16h8v8H24V16M32 16h8v8H32V16M48 16h8v8H48V16M72 16h8v8H72V16M80 16h8v8H80V16M96 16h8v8H96V16M104 16h8v8H104V16M128 16h8v8H128V16M176 16h8v8H176V16M200 16h8v8H200V16M208 16h8v8H208V16M224 16h8v8H224V16M232 16h8v8H232V16M256 16h8v8H256V16M264 16h8v8H264V16M280 16h8v8H280V16M288 16h8v8H288V16M304 16h8v8H304V16M320 16h8v8H320V16M328 16h8v8H328V16M344 16h8v8H344V16M368 16h8v8H368V16M384 16h8v8H384V16M392 16h8v8H392V16M400 16h8v8H400V16M416 16h8v8H416V16M0 24h8v8H0V24M16 24h8v8H16V24M24 24h8v8H24V24M32 24h8v8H32V24M48 24h8v8H48V24M72 24h8v8H72V24M80 24h8v8H80V24M88 24h8v8H88V24M96 24h8v8H96V24M104 24h8v8H104V24M120 24h8v8H120V24M136 24h8v8H136V24M144 24h8v8H144V24M160 24h8v8H160V24M192 24h8v8H192V24M200 24h8v8H200V24M216 24h8v8H216V24M224 24h8v8H224V24M272 24h8v8H272V24M336 24h8v8H336V24M352 24h8v8H352V24M368 24h8v8H368V24M384 24h8v8H384V24M392 24h8v8H392V24M400 24h8v8H400V24M416 24h8v8H416V24M0 32h8v8H0V32M16 32h8v8H16V32M24 32h8v8H24V32M32 32h8v8H32V32M48 32h8v8H48V32M72 32h8v8H72V32M80 32h8v8H80V32M104 32h8v8H104V32M120 32h8v8H120V32M136 32h8v8H136V32M152 32h8v8H152V32M176 32h8v8H176V32M192 32h8v8H192V32M200 32h8v8H200V32M208 32h8v8H208V32M216 32h8v8H216V32M224 32h8v8H224V32M240 32h8v8H240V32M248 32h8v8H248V32M256 32h8v8H256V32M264 32h8v8H264V32M280 32h8v8H280V32M304 32h8v8H304V32M336 32h8v8H336V32M368 32h8v8H368V32M384 32h8v8H384V32M392 32h8v8H392V32M400 32h8v8H400V32M416 32h8v8H416V32M0 40h8v8H0V40M48 40h8v8H48V40M64 40h8v8H64V40M80 40h8v8H80V40M88 40h8v8H88V40M104 40h8v8H104V40M120 40h8v8H120V40M160 40h8v8H160V40M192 40h8v8H192V40M224 40h8v8H224V40M232 40h8v8H232V40M240 40h8v8H240V40M248 40h8v8H248V40M256 40h8v8H256V40M280 40h8v8H280V40M288 40h8v8H288V40M296 40h8v8H296V40M312 40h8v8H312V40M328 40h8v8H328V40M336 40h8v8H336V40M368 40h8v8H368V40M416 40h8v8H416V40M0 48h8v8H0V48M8 48h8v8H8V48M16 48h8v8H16V48M24 48h8v8H24V48M32 48h8v8H32V48M40 48h8v8H40V48M48 48h8v8H48V48M64 48h8v8H64V48M80 48h8v8H80V48M96 48h8v8H96V48M112 48h8v8H112V48M128 48h8v8H128V48M144 48h8v8H144V48M160 48h8v8H160V48M176 48h8v8H176V48M192 48h8v8H192V48M208 48h8v8H208V48M224 48h8v8H224V48M240 48h8v8H240V48M256 48h8v8H256V48M272 48h8v8H272V48M288 48h8v8H288V48M304 48h8v8H304V48M320 48h8v8H320V48M336 48h8v8H336V48M352 48h8v8H352V48M368 48h8v8H368V48M376 48h8v8H376V48M384 48h8v8H384V48M392 48h8v8H392V48M400 48h8v8H400V48M408 48h8v8H408V48M416 48h8v8H416V48M72 56h8v8H72V56M80 56h8v8H80V56M88 56h8v8H88V56M96 56h8v8H96V56M112 56h8v8H112V56M128 56h8v8H128V56M136 56h8v8H136V56M152 56h8v8H152V56M168 56h8v8H168V56M176 56h8v8H176V56M184 56h8v8H184V56M192 56h8v8H192V56M224 56h8v8H224V56M232 56h8v8H232V56M288 56h8v8H288V56M304 56h8v8H304V56M312 56h8v8H312V56M320 56h8v8H320V56M344 56h8v8H344V56M0 64h8v8H0V64M24 64h8v8H24V64M40 64h8v8H40V64M48 64h8v8H48V64M64 64h8v8H64V64M88 64h8v8H88V64M96 64h8v8H96V64M104 64h8v8H104V64M112 64h8v8H112V64M128 64h8v8H128V64M136 64h8v8H136V64M144 64h8v8H144V64M168 64h8v8H168V64M176 64h8v8H176V64M192 64h8v8H192V64M200 64h8v8H200V64M208 64h8v8H208V64M216 64h8v8H216V64M224 64h8v8H224V64M240 64h8v8H240V64M264 64h8v8H264V64M288 64h8v8H288V64M304 64h8v8H304V64M312 64h8v8H312V64M320 64h8v8H320V64M328 64h8v8H328V64M352 64h8v8H352V64M360 64h8v8H360V64M376 64h8v8H376V64M0 72h8v8H0V72M24 72h8v8H24V72M40 72h8v8H40V72M56 72h8v8H56V72M64 72h8v8H64V72M80 72h8v8H80V72M88 72h8v8H88V72M96 72h8v8H96V72M128 72h8v8H128V72M136 72h8v8H136V72M144 72h8v8H144V72M184 72h8v8H184V72M192 72h8v8H192V72M200 72h8v8H200V72M216 72h8v8H216V72M224 72h8v8H224V72M248 72h8v8H248V72M256 72h8v8H256V72M264 72h8v8H264V72M288 72h8v8H288V72M360 72h8v8H360V72M384 72h8v8H384V72M392 72h8v8H392V72M400 72h8v8H400V72M408 72h8v8H408V72M416 72h8v8H416V72M16 80h8v8H16V80M40 80h8v8H40V80M48 80h8v8H48V80M64 80h8v8H64V80M72 80h8v8H72V80M80 80h8v8H80V80M96 80h8v8H96V80M104 80h8v8H104V80M128 80h8v8H128V80M144 80h8v8H144V80M160 80h8v8H160V80M184 80h8v8H184V80M192 80h8v8H192V80M208 80h8v8H208V80M216 80h8v8H216V80M232 80h8v8H232V80M264 80h8v8H264V80M272 80h8v8H272V80M280 80h8v8H280V80M304 80h8v8H304V80M320 80h8v8H320V80M336 80h8v8H336V80M368 80h8v8H368V80M384 80h8v8H384V80M408 80h8v8H408V80M8 88h8v8H8V88M32 88h8v8H32V88M64 88h8v8H64V88M72 88h8v8H72V88M88 88h8v8H88V88M104 88h8v8H104V88M120 88h8v8H120V88M144 88h8v8H144V88M152 88h8v8H152V88M168 88h8v8H168V88M184 88h8v8H184V88M208 88h8v8H208V88M232 88h8v8H232V88M240 88h8v8H240V88M256 88h8v8H256V88M264 88h8v8H264V88M272 88h8v8H272V88M288 88h8v8H288V88M296 88h8v8H296V88M304 88h8v8H304V88M312 88h8v8H312V88M328 88h8v8H328V88M352 88h8v8H352V88M384 88h8v8H384V88M400 88h8v8H400V88M416 88h8v8H416V88M24 96h8v8H24V96M40 96h8v8H40V96M48 96h8v8H48V96M80 96h8v8H80V96M88 96h8v8H88V96M136 96h8v8H136V96M144 96h8v8H144V96M168 96h8v8H168V96M176 96h8v8H176V96M184 96h8v8H184V96M192 96h8v8H192V96M208 96h8v8H208V96M216 96h8v8H216V96M248 96h8v8H248V96M256 96h8v8H256V96M280 96h8v8H280V96M288 96h8v8H288V96M312 96h8v8H312V96M320 96h8v8H320V96M328 96h8v8H328V96M336 96h8v8H336V96M344 96h8v8H344V96M352 96h8v8H352V96M360 96h8v8H360V96M368 96h8v8H368V96M384 96h8v8H384V96M400 96h8v8H400V96M416 96h8v8H416V96M16 104h8v8H16V104M24 104h8v8H24V104M32 104h8v8H32V104M40 104h8v8H40V104M56 104h8v8H56V104M72 104h8v8H72V104M104 104h8v8H104V104M112 104h8v8H112V104M136 104h8v8H136V104M160 104h8v8H160V104M176 104h8v8H176V104M184 104h8v8H184V104M192 104h8v8H192V104M208 104h8v8H208V104M216 104h8v8H216V104M224 104h8v8H224V104M240 104h8v8H240V104M248 104h8v8H248V104M272 104h8v8H272V104M296 104h8v8H296V104M312 104h8v8H312V104M344 104h8v8H344V104M368 104h8v8H368V104M376 104h8v8H376V104M384 104h8v8H384V104M416 104h8v8H416V104M8 112h8v8H8V112M16 112h8v8H16V112M48 112h8v8H48V112M64 112h8v8H64V112M72 112h8v8H72V112M80 112h8v8H80V112M88 112h8v8H88V112M128 112h8v8H128V112M160 112h8v8H160V112M168 112h8v8H168V112M176 112h8v8H176V112M184 112h8v8H184V112M200 112h8v8H200V112M216 112h8v8H216V112M224 112h8v8H224V112M232 112h8v8H232V112M240 112h8v8H240V112M280 112h8v8H280V112M328 112h8v8H328V112M336 112h8v8H336V112M368 112h8v8H368V112M376 112h8v8H376V112M392 112h8v8H392V112M408 112h8v8H408V112M416 112h8v8H416V112M0 120h8v8H0V120M8 120h8v8H8V120M16 120h8v8H16V120M56 120h8v8H56V120M64 120h8v8H64V120M80 120h8v8H80V120M112 120h8v8H112V120M128 120h8v8H128V120M136 120h8v8H136V120M160 120h8v8H160V120M216 120h8v8H216V120M240 120h8v8H240V120M256 120h8v8H256V120M264 120h8v8H264V120M280 120h8v8H280V120M288 120h8v8H288V120M296 120h8v8H296V120M320 120h8v8H320V120M328 120h8v8H328V120M344 120h8v8H344V120M360 120h8v8H360V120M368 120h8v8H368V120M376 120h8v8H376V120M384 120h8v8H384V120M0 128h8v8H0V128M32 128h8v8H32V128M40 128h8v8H40V128M48 128h8v8H48V128M56 128h8v8H56V128M64 128h8v8H64V128M88 128h8v8H88V128M128 128h8v8H128V128M136 128h8v8H136V128M152 128h8v8H152V128M168 128h8v8H168V128M200 128h8v8H200V128M208 128h8v8H208V128M216 128h8v8H216V128M224 128h8v8H224V128M232 128h8v8H232V128M256 128h8v8H256V128M264 128h8v8H264V128M280 128h8v8H280V128M288 128h8v8H288V128M328 128h8v8H328V128M344 128h8v8H344V128M360 128h8v8H360V128M376 128h8v8H376V128M384 128h8v8H384V128M400 128h8v8H400V128M8 136h8v8H8V136M24 136h8v8H24V136M32 136h8v8H32V136M56 136h8v8H56V136M88 136h8v8H88V136M96 136h8v8H96V136M104 136h8v8H104V136M112 136h8v8H112V136M120 136h8v8H120V136M128 136h8v8H128V136M136 136h8v8H136V136M144 136h8v8H144V136M152 136h8v8H152V136M160 136h8v8H160V136M176 136h8v8H176V136M184 136h8v8H184V136M232 136h8v8H232V136M248 136h8v8H248V136M288 136h8v8H288V136M304 136h8v8H304V136M328 136h8v8H328V136M352 136h8v8H352V136M384 136h8v8H384V136M400 136h8v8H400V136M408 136h8v8H408V136M48 144h8v8H48V144M56 144h8v8H56V144M72 144h8v8H72V144M96 144h8v8H96V144M104 144h8v8H104V144M128 144h8v8H128V144M144 144h8v8H144V144M160 144h8v8H160V144M176 144h8v8H176V144M184 144h8v8H184V144M208 144h8v8H208V144M216 144h8v8H216V144M224 144h8v8H224V144M240 144h8v8H240V144M264 144h8v8H264V144M272 144h8v8H272V144M288 144h8v8H288V144M296 144h8v8H296V144M312 144h8v8H312V144M320 144h8v8H320V144M344 144h8v8H344V144M352 144h8v8H352V144M368 144h8v8H368V144M376 144h8v8H376V144M384 144h8v8H384V144M392 144h8v8H392V144M408 144h8v8H408V144M416 144h8v8H416V144M8 152h8v8H8V152M56 152h8v8H56V152M64 152h8v8H64V152M80 152h8v8H80V152M88 152h8v8H88V152M96 152h8v8H96V152M104 152h8v8H104V152M112 152h8v8H112V152M120 152h8v8H120V152M144 152h8v8H144V152M160 152h8v8H160V152M176 152h8v8H176V152M216 152h8v8H216V152M232 152h8v8H232V152M256 152h8v8H256V152M288 152h8v8H288V152M304 152h8v8H304V152M320 152h8v8H320V152M336 152h8v8H336V152M344 152h8v8H344V152M352 152h8v8H352V152M368 152h8v8H368V152M376 152h8v8H376V152M408 152h8v8H408V152M416 152h8v8H416V152M0 160h8v8H0V160M16 160h8v8H16V160M40 160h8v8H40V160M48 160h8v8H48V160M56 160h8v8H56V160M64 160h8v8H64V160M80 160h8v8H80V160M88 160h8v8H88V160M104 160h8v8H104V160M128 160h8v8H128V160M144 160h8v8H144V160M152 160h8v8H152V160M160 160h8v8H160V160M176 160h8v8H176V160M184 160h8v8H184V160M208 160h8v8H208V160M232 160h8v8H232V160M248 160h8v8H248V160M280 160h8v8H280V160M288 160h8v8H288V160M304 160h8v8H304V160M312 160h8v8H312V160M320 160h8v8H320V160M328 160h8v8H328V160M344 160h8v8H344V160M360 160h8v8H360V160M384 160h8v8H384V160M392 160h8v8H392V160M400 160h8v8H400V160M24 168h8v8H24V168M40 168h8v8H40V168M104 168h8v8H104V168M112 168h8v8H112V168M136 168h8v8H136V168M144 168h8v8H144V168M152 168h8v8H152V168M232 168h8v8H232V168M248 168h8v8H248V168M256 168h8v8H256V168M360 168h8v8H360V168M376 168h8v8H376V168M392 168h8v8H392V168M408 168h8v8H408V168M416 168h8v8H416V168M0 176h8v8H0V176M16 176h8v8H16V176M40 176h8v8H40V176M48 176h8v8H48V176M64 176h8v8H64V176M96 176h8v8H96V176M104 176h8v8H104V176M128 176h8v8H128V176M136 176h8v8H136V176M152 176h8v8H152V176M160 176h8v8H160V176M176 176h8v8H176V176M184 176h8v8H184V176M192 176h8v8H192V176M200 176h8v8H200V176M208 176h8v8H208V176M232 176h8v8H232V176M248 176h8v8H248V176M256 176h8v8H256V176M272 176h8v8H272V176M288 176h8v8H288V176M336 176h8v8H336V176M368 176h8v8H368V176M376 176h8v8H376V176M408 176h8v8H408V176M0 184h8v8H0V184M16 184h8v8H16V184M24 184h8v8H24V184M40 184h8v8H40V184M56 184h8v8H56V184M64 184h8v8H64V184M72 184h8v8H72V184M80 184h8v8H80V184M96 184h8v8H96V184M144 184h8v8H144V184M160 184h8v8H160V184M168 184h8v8H168V184M208 184h8v8H208V184M256 184h8v8H256V184M264 184h8v8H264V184M296 184h8v8H296V184M304 184h8v8H304V184M320 184h8v8H320V184M336 184h8v8H336V184M352 184h8v8H352V184M360 184h8v8H360V184M368 184h8v8H368V184M392 184h8v8H392V184M400 184h8v8H400V184M416 184h8v8H416V184M0 192h8v8H0V192M8 192h8v8H8V192M16 192h8v8H16V192M24 192h8v8H24V192M32 192h8v8H32V192M40 192h8v8H40V192M48 192h8v8H48V192M56 192h8v8H56V192M64 192h8v8H64V192M72 192h8v8H72V192M120 192h8v8H120V192M168 192h8v8H168V192M176 192h8v8H176V192M184 192h8v8H184V192M192 192h8v8H192V192M200 192h8v8H200V192M208 192h8v8H208V192M216 192h8v8H216V192M224 192h8v8H224V192M232 192h8v8H232V192M240 192h8v8H240V192M248 192h8v8H248V192M256 192h8v8H256V192M264 192h8v8H264V192M280 192h8v8H280V192M288 192h8v8H288V192M296 192h8v8H296V192M312 192h8v8H312V192M320 192h8v8H320V192M336 192h8v8H336V192M352 192h8v8H352V192M360 192h8v8H360V192M368 192h8v8H368V192M376 192h8v8H376V192M384 192h8v8H384V192M392 192h8v8H392V192M416 192h8v8H416V192M16 200h8v8H16V200M32 200h8v8H32V200M64 200h8v8H64V200M72 200h8v8H72V200M80 200h8v8H80V200M88 200h8v8H88V200M96 200h8v8H96V200M112 200h8v8H112V200M120 200h8v8H120V200M160 200h8v8H160V200M168 200h8v8H168V200M176 200h8v8H176V200M184 200h8v8H184V200M192 200h8v8H192V200M224 200h8v8H224V200M248 200h8v8H248V200M272 200h8v8H272V200M288 200h8v8H288V200M352 200h8v8H352V200M384 200h8v8H384V200M400 200h8v8H400V200M408 200h8v8H408V200M416 200h8v8H416V200M32 208h8v8H32V208M48 208h8v8H48V208M64 208h8v8H64V208M72 208h8v8H72V208M104 208h8v8H104V208M128 208h8v8H128V208M136 208h8v8H136V208M144 208h8v8H144V208M176 208h8v8H176V208M184 208h8v8H184V208M192 208h8v8H192V208M208 208h8v8H208V208M224 208h8v8H224V208M256 208h8v8H256V208M264 208h8v8H264V208M272 208h8v8H272V208M288 208h8v8H288V208M296 208h8v8H296V208M304 208h8v8H304V208M320 208h8v8H320V208M328 208h8v8H328V208M344 208h8v8H344V208M352 208h8v8H352V208M368 208h8v8H368V208M384 208h8v8H384V208M392 208h8v8H392V208M408 208h8v8H408V208M416 208h8v8H416V208M0 216h8v8H0V216M8 216h8v8H8V216M24 216h8v8H24V216M32 216h8v8H32V216M64 216h8v8H64V216M72 216h8v8H72V216M88 216h8v8H88V216M104 216h8v8H104V216M136 216h8v8H136V216M152 216h8v8H152V216M176 216h8v8H176V216M184 216h8v8H184V216M192 216h8v8H192V216M224 216h8v8H224V216M232 216h8v8H232V216M248 216h8v8H248V216M264 216h8v8H264V216M280 216h8v8H280V216M288 216h8v8H288V216M296 216h8v8H296V216M312 216h8v8H312V216M344 216h8v8H344V216M352 216h8v8H352V216M384 216h8v8H384V216M408 216h8v8H408V216M416 216h8v8H416V216M0 224h8v8H0V224M16 224h8v8H16V224M32 224h8v8H32V224M40 224h8v8H40V224M48 224h8v8H48V224M56 224h8v8H56V224M64 224h8v8H64V224M72 224h8v8H72V224M80 224h8v8H80V224M88 224h8v8H88V224M96 224h8v8H96V224M104 224h8v8H104V224M112 224h8v8H112V224M120 224h8v8H120V224M136 224h8v8H136V224M168 224h8v8H168V224M192 224h8v8H192V224M200 224h8v8H200V224M208 224h8v8H208V224M216 224h8v8H216V224M224 224h8v8H224V224M232 224h8v8H232V224M240 224h8v8H240V224M256 224h8v8H256V224M264 224h8v8H264V224M280 224h8v8H280V224M288 224h8v8H288V224M296 224h8v8H296V224M304 224h8v8H304V224M312 224h8v8H312V224M336 224h8v8H336V224M344 224h8v8H344V224M352 224h8v8H352V224M360 224h8v8H360V224M368 224h8v8H368V224M376 224h8v8H376V224M384 224h8v8H384V224M392 224h8v8H392V224M400 224h8v8H400V224M56 232h8v8H56V232M128 232h8v8H128V232M136 232h8v8H136V232M144 232h8v8H144V232M160 232h8v8H160V232M168 232h8v8H168V232M192 232h8v8H192V232M200 232h8v8H200V232M208 232h8v8H208V232M216 232h8v8H216V232M232 232h8v8H232V232M280 232h8v8H280V232M304 232h8v8H304V232M320 232h8v8H320V232M328 232h8v8H328V232M352 232h8v8H352V232M368 232h8v8H368V232M376 232h8v8H376V232M392 232h8v8H392V232M408 232h8v8H408V232M0 240h8v8H0V240M24 240h8v8H24V240M48 240h8v8H48V240M72 240h8v8H72V240M104 240h8v8H104V240M120 240h8v8H120V240M136 240h8v8H136V240M144 240h8v8H144V240M160 240h8v8H160V240M176 240h8v8H176V240M192 240h8v8H192V240M208 240h8v8H208V240M216 240h8v8H216V240M224 240h8v8H224V240M232 240h8v8H232V240M248 240h8v8H248V240M256 240h8v8H256V240M264 240h8v8H264V240M288 240h8v8H288V240M296 240h8v8H296V240M304 240h8v8H304V240M312 240h8v8H312V240M320 240h8v8H320V240M328 240h8v8H328V240M336 240h8v8H336V240M352 240h8v8H352V240M360 240h8v8H360V240M368 240h8v8H368V240M392 240h8v8H392V240M408 240h8v8H408V240M416 240h8v8H416V240M0 248h8v8H0V248M16 248h8v8H16V248M24 248h8v8H24V248M40 248h8v8H40V248M56 248h8v8H56V248M64 248h8v8H64V248M72 248h8v8H72V248M88 248h8v8H88V248M96 248h8v8H96V248M104 248h8v8H104V248M112 248h8v8H112V248M120 248h8v8H120V248M128 248h8v8H128V248M136 248h8v8H136V248M144 248h8v8H144V248M160 248h8v8H160V248M168 248h8v8H168V248M184 248h8v8H184V248M192 248h8v8H192V248M200 248h8v8H200V248M224 248h8v8H224V248M232 248h8v8H232V248M248 248h8v8H248V248M256 248h8v8H256V248M272 248h8v8H272V248M288 248h8v8H288V248M328 248h8v8H328V248M352 248h8v8H352V248M360 248h8v8H360V248M368 248h8v8H368V248M376 248h8v8H376V248M384 248h8v8H384V248M392 248h8v8H392V248M408 248h8v8H408V248M416 248h8v8H416V248M16 256h8v8H16V256M48 256h8v8H48V256M72 256h8v8H72V256M120 256h8v8H120V256M136 256h8v8H136V256M160 256h8v8H160V256M168 256h8v8H168V256M176 256h8v8H176V256M184 256h8v8H184V256M192 256h8v8H192V256M216 256h8v8H216V256M224 256h8v8H224V256M240 256h8v8H240V256M248 256h8v8H248V256M264 256h8v8H264V256M272 256h8v8H272V256M288 256h8v8H288V256M296 256h8v8H296V256M304 256h8v8H304V256M312 256h8v8H312V256M320 256h8v8H320V256M328 256h8v8H328V256M352 256h8v8H352V256M360 256h8v8H360V256M376 256h8v8H376V256M400 256h8v8H400V256M64 264h8v8H64V264M80 264h8v8H80V264M88 264h8v8H88V264M104 264h8v8H104V264M112 264h8v8H112V264M136 264h8v8H136V264M176 264h8v8H176V264M192 264h8v8H192V264M224 264h8v8H224V264M232 264h8v8H232V264M256 264h8v8H256V264M344 264h8v8H344V264M368 264h8v8H368V264M408 264h8v8H408V264M416 264h8v8H416V264M16 272h8v8H16V272M32 272h8v8H32V272M40 272h8v8H40V272M48 272h8v8H48V272M72 272h8v8H72V272M104 272h8v8H104V272M112 272h8v8H112V272M128 272h8v8H128V272M136 272h8v8H136V272M144 272h8v8H144V272M152 272h8v8H152V272M168 272h8v8H168V272M192 272h8v8H192V272M200 272h8v8H200V272M224 272h8v8H224V272M232 272h8v8H232V272M240 272h8v8H240V272M248 272h8v8H248V272M304 272h8v8H304V272M312 272h8v8H312V272M336 272h8v8H336V272M344 272h8v8H344V272M360 272h8v8H360V272M408 272h8v8H408V272M0 280h8v8H0V280M16 280h8v8H16V280M24 280h8v8H24V280M32 280h8v8H32V280M72 280h8v8H72V280M96 280h8v8H96V280M104 280h8v8H104V280M112 280h8v8H112V280M136 280h8v8H136V280M144 280h8v8H144V280M208 280h8v8H208V280M232 280h8v8H232V280M240 280h8v8H240V280M248 280h8v8H248V280M256 280h8v8H256V280M280 280h8v8H280V280M304 280h8v8H304V280M336 280h8v8H336V280M352 280h8v8H352V280M360 280h8v8H360V280M376 280h8v8H376V280M384 280h8v8H384V280M400 280h8v8H400V280M408 280h8v8H408V280M416 280h8v8H416V280M0 288h8v8H0V288M8 288h8v8H8V288M16 288h8v8H16V288M48 288h8v8H48V288M80 288h8v8H80V288M88 288h8v8H88V288M104 288h8v8H104V288M112 288h8v8H112V288M120 288h8v8H120V288M128 288h8v8H128V288M136 288h8v8H136V288M168 288h8v8H168V288M176 288h8v8H176V288M184 288h8v8H184V288M200 288h8v8H200V288M208 288h8v8H208V288M232 288h8v8H232V288M248 288h8v8H248V288M256 288h8v8H256V288M272 288h8v8H272V288M280 288h8v8H280V288M288 288h8v8H288V288M312 288h8v8H312V288M320 288h8v8H320V288M328 288h8v8H328V288M352 288h8v8H352V288M368 288h8v8H368V288M376 288h8v8H376V288M392 288h8v8H392V288M0 296h8v8H0V296M24 296h8v8H24V296M56 296h8v8H56V296M64 296h8v8H64V296M80 296h8v8H80V296M88 296h8v8H88V296M112 296h8v8H112V296M120 296h8v8H120V296M136 296h8v8H136V296M160 296h8v8H160V296M168 296h8v8H168V296M192 296h8v8H192V296M200 296h8v8H200V296M224 296h8v8H224V296M248 296h8v8H248V296M256 296h8v8H256V296M272 296h8v8H272V296M280 296h8v8H280V296M296 296h8v8H296V296M352 296h8v8H352V296M368 296h8v8H368V296M416 296h8v8H416V296M8 304h8v8H8V304M16 304h8v8H16V304M24 304h8v8H24V304M40 304h8v8H40V304M48 304h8v8H48V304M56 304h8v8H56V304M64 304h8v8H64V304M88 304h8v8H88V304M112 304h8v8H112V304M128 304h8v8H128V304M136 304h8v8H136V304M160 304h8v8H160V304M168 304h8v8H168V304M184 304h8v8H184V304M192 304h8v8H192V304M208 304h8v8H208V304M232 304h8v8H232V304M264 304h8v8H264V304M280 304h8v8H280V304M320 304h8v8H320V304M328 304h8v8H328V304M336 304h8v8H336V304M344 304h8v8H344V304M360 304h8v8H360V304M368 304h8v8H368V304M392 304h8v8H392V304M400 304h8v8H400V304M408 304h8v8H408V304M416 304h8v8H416V304M8 312h8v8H8V312M16 312h8v8H16V312M24 312h8v8H24V312M56 312h8v8H56V312M72 312h8v8H72V312M128 312h8v8H128V312M160 312h8v8H160V312M168 312h8v8H168V312M176 312h8v8H176V312M184 312h8v8H184V312M192 312h8v8H192V312M200 312h8v8H200V312M232 312h8v8H232V312M248 312h8v8H248V312M272 312h8v8H272V312M280 312h8v8H280V312M296 312h8v8H296V312M336 312h8v8H336V312M352 312h8v8H352V312M360 312h8v8H360V312M368 312h8v8H368V312M384 312h8v8H384V312M416 312h8v8H416V312M32 320h8v8H32V320M48 320h8v8H48V320M64 320h8v8H64V320M72 320h8v8H72V320M104 320h8v8H104V320M112 320h8v8H112V320M136 320h8v8H136V320M144 320h8v8H144V320M152 320h8v8H152V320M168 320h8v8H168V320M176 320h8v8H176V320M184 320h8v8H184V320M192 320h8v8H192V320M208 320h8v8H208V320M224 320h8v8H224V320M232 320h8v8H232V320M256 320h8v8H256V320M280 320h8v8H280V320M288 320h8v8H288V320M296 320h8v8H296V320M312 320h8v8H312V320M336 320h8v8H336V320M344 320h8v8H344V320M352 320h8v8H352V320M360 320h8v8H360V320M376 320h8v8H376V320M384 320h8v8H384V320M8 328h8v8H8V328M24 328h8v8H24V328M40 328h8v8H40V328M80 328h8v8H80V328M96 328h8v8H96V328M104 328h8v8H104V328M112 328h8v8H112V328M120 328h8v8H120V328M128 328h8v8H128V328M136 328h8v8H136V328M160 328h8v8H160V328M168 328h8v8H168V328M184 328h8v8H184V328M192 328h8v8H192V328M200 328h8v8H200V328M216 328h8v8H216V328M232 328h8v8H232V328M264 328h8v8H264V328M280 328h8v8H280V328M296 328h8v8H296V328M304 328h8v8H304V328M312 328h8v8H312V328M328 328h8v8H328V328M344 328h8v8H344V328M368 328h8v8H368V328M376 328h8v8H376V328M392 328h8v8H392V328M416 328h8v8H416V328M0 336h8v8H0V336M8 336h8v8H8V336M24 336h8v8H24V336M32 336h8v8H32V336M40 336h8v8H40V336M48 336h8v8H48V336M64 336h8v8H64V336M120 336h8v8H120V336M128 336h8v8H128V336M136 336h8v8H136V336M144 336h8v8H144V336M152 336h8v8H152V336M176 336h8v8H176V336M200 336h8v8H200V336M240 336h8v8H240V336M256 336h8v8H256V336M264 336h8v8H264V336M296 336h8v8H296V336M312 336h8v8H312V336M320 336h8v8H320V336M336 336h8v8H336V336M352 336h8v8H352V336M360 336h8v8H360V336M368 336h8v8H368V336M376 336h8v8H376V336M392 336h8v8H392V336M400 336h8v8H400V336M408 336h8v8H408V336M416 336h8v8H416V336M8 344h8v8H8V344M16 344h8v8H16V344M64 344h8v8H64V344M80 344h8v8H80V344M88 344h8v8H88V344M96 344h8v8H96V344M112 344h8v8H112V344M120 344h8v8H120V344M128 344h8v8H128V344M136 344h8v8H136V344M160 344h8v8H160V344M168 344h8v8H168V344M184 344h8v8H184V344M200 344h8v8H200V344M208 344h8v8H208V344M224 344h8v8H224V344M232 344h8v8H232V344M248 344h8v8H248V344M256 344h8v8H256V344M264 344h8v8H264V344M272 344h8v8H272V344M288 344h8v8H288V344M296 344h8v8H296V344M312 344h8v8H312V344M328 344h8v8H328V344M344 344h8v8H344V344M352 344h8v8H352V344M360 344h8v8H360V344M376 344h8v8H376V344M408 344h8v8H408V344M24 352h8v8H24V352M48 352h8v8H48V352M72 352h8v8H72V352M88 352h8v8H88V352M112 352h8v8H112V352M120 352h8v8H120V352M128 352h8v8H128V352M136 352h8v8H136V352M168 352h8v8H168V352M176 352h8v8H176V352M184 352h8v8H184V352M192 352h8v8H192V352M200 352h8v8H200V352M208 352h8v8H208V352M216 352h8v8H216V352M224 352h8v8H224V352M264 352h8v8H264V352M288 352h8v8H288V352M304 352h8v8H304V352M312 352h8v8H312V352M320 352h8v8H320V352M352 352h8v8H352V352M360 352h8v8H360V352M368 352h8v8H368V352M376 352h8v8H376V352M384 352h8v8H384V352M400 352h8v8H400V352M416 352h8v8H416V352M64 360h8v8H64V360M72 360h8v8H72V360M80 360h8v8H80V360M96 360h8v8H96V360M104 360h8v8H104V360M152 360h8v8H152V360M160 360h8v8H160V360M176 360h8v8H176V360M184 360h8v8H184V360M192 360h8v8H192V360M224 360h8v8H224V360M248 360h8v8H248V360M280 360h8v8H280V360M352 360h8v8H352V360M384 360h8v8H384V360M392 360h8v8H392V360M408 360h8v8H408V360M0 368h8v8H0V368M8 368h8v8H8V368M16 368h8v8H16V368M24 368h8v8H24V368M32 368h8v8H32V368M40 368h8v8H40V368M48 368h8v8H48V368M80 368h8v8H80V368M136 368h8v8H136V368M152 368h8v8H152V368M160 368h8v8H160V368M192 368h8v8H192V368M208 368h8v8H208V368M224 368h8v8H224V368M232 368h8v8H232V368M256 368h8v8H256V368M264 368h8v8H264V368M312 368h8v8H312V368M336 368h8v8H336V368M352 368h8v8H352V368M368 368h8v8H368V368M384 368h8v8H384V368M392 368h8v8H392V368M408 368h8v8H408V368M0 376h8v8H0V376M48 376h8v8H48V376M64 376h8v8H64V376M72 376h8v8H72V376M80 376h8v8H80V376M88 376h8v8H88V376M112 376h8v8H112V376M128 376h8v8H128V376M136 376h8v8H136V376M144 376h8v8H144V376M160 376h8v8H160V376M184 376h8v8H184V376M192 376h8v8H192V376M224 376h8v8H224V376M240 376h8v8H240V376M248 376h8v8H248V376M264 376h8v8H264V376M280 376h8v8H280V376M288 376h8v8H288V376M296 376h8v8H296V376M304 376h8v8H304V376M320 376h8v8H320V376M328 376h8v8H328V376M352 376h8v8H352V376M384 376h8v8H384V376M400 376h8v8H400V376M408 376h8v8H408V376M0 384h8v8H0V384M16 384h8v8H16V384M24 384h8v8H24V384M32 384h8v8H32V384M48 384h8v8H48V384M72 384h8v8H72V384M80 384h8v8H80V384M88 384h8v8H88V384M96 384h8v8H96V384M112 384h8v8H112V384M136 384h8v8H136V384M144 384h8v8H144V384M160 384h8v8H160V384M176 384h8v8H176V384M184 384h8v8H184V384M192 384h8v8H192V384M200 384h8v8H200V384M208 384h8v8H208V384M216 384h8v8H216V384M224 384h8v8H224V384M248 384h8v8H248V384M256 384h8v8H256V384M264 384h8v8H264V384M288 384h8v8H288V384M296 384h8v8H296V384M312 384h8v8H312V384M320 384h8v8H320V384M328 384h8v8H328V384M336 384h8v8H336V384M344 384h8v8H344V384M352 384h8v8H352V384M360 384h8v8H360V384M368 384h8v8H368V384M376 384h8v8H376V384M384 384h8v8H384V384M408 384h8v8H408V384M0 392h8v8H0V392M16 392h8v8H16V392M24 392h8v8H24V392M32 392h8v8H32V392M48 392h8v8H48V392M64 392h8v8H64V392M72 392h8v8H72V392M96 392h8v8H96V392M104 392h8v8H104V392M112 392h8v8H112V392M120 392h8v8H120V392M128 392h8v8H128V392M144 392h8v8H144V392M160 392h8v8H160V392M176 392h8v8H176V392M184 392h8v8H184V392M192 392h8v8H192V392M200 392h8v8H200V392M216 392h8v8H216V392M224 392h8v8H224V392M248 392h8v8H248V392M272 392h8v8H272V392M296 392h8v8H296V392M312 392h8v8H312V392M352 392h8v8H352V392M360 392h8v8H360V392M376 392h8v8H376V392M384 392h8v8H384V392M392 392h8v8H392V392M408 392h8v8H408V392M0 400h8v8H0V400M16 400h8v8H16V400M24 400h8v8H24V400M32 400h8v8H32V400M48 400h8v8H48V400M72 400h8v8H72V400M80 400h8v8H80V400M112 400h8v8H112V400M120 400h8v8H120V400M128 400h8v8H128V400M136 400h8v8H136V400M168 400h8v8H168V400M176 400h8v8H176V400M200 400h8v8H200V400M208 400h8v8H208V400M216 400h8v8H216V400M232 400h8v8H232V400M272 400h8v8H272V400M288 400h8v8H288V400M320 400h8v8H320V400M344 400h8v8H344V400M360 400h8v8H360V400M384 400h8v8H384V400M392 400h8v8H392V400M0 408h8v8H0V408M48 408h8v8H48V408M80 408h8v8H80V408M88 408h8v8H88V408M96 408h8v8H96V408M104 408h8v8H104V408M128 408h8v8H128V408M144 408h8v8H144V408M160 408h8v8H160V408M184 408h8v8H184V408M192 408h8v8H192V408M200 408h8v8H200V408M216 408h8v8H216V408M240 408h8v8H240V408M248 408h8v8H248V408M256 408h8v8H256V408M264 408h8v8H264V408M272 408h8v8H272V408M280 408h8v8H280V408M288 408h8v8H288V408M296 408h8v8H296V408M312 408h8v8H312V408M320 408h8v8H320V408M328 408h8v8H328V408M376 408h8v8H376V408M408 408h8v8H408V408M0 416h8v8H0V416M8 416h8v8H8V416M16 416h8v8H16V416M24 416h8v8H24V416M32 416h8v8H32V416M40 416h8v8H40V416M48 416h8v8H48V416M64 416h8v8H64V416M72 416h8v8H72V416M88 416h8v8H88V416M112 416h8v8H112V416M120 416h8v8H120V416M136 416h8v8H136V416M144 416h8v8H144V416M168 416h8v8H168V416M184 416h8v8H184V416M192 416h8v8H192V416M200 416h8v8H200V416M216 416h8v8H216V416M224 416h8v8H224V416M248 416h8v8H248V416M256 416h8v8H256V416M272 416h8v8H272V416M280 416h8v8H280V416M288 416h8v8H288V416M296 416h8v8H296V416M312 416h8v8H312V416M328 416h8v8H328V416M344 416h8v8H344V416M352 416h8v8H352V416M360 416h8v8H360V416M368 416h8v8H368V416M376 416h8v8H376V416M384 416h8v8H384V416M400 416h8v8H400V416M408 416h8v8H408V416"/></svg>
