<?xml version="1.0" standalone="yes"?><svg xmlns="http://www.w3.org/2000/svg" version="1.1" width="441" height="441" viewBox="0 0 441 441" shape-rendering="crispEdges"><rect x="0" y="0" width="441" height="441" fill="#fff"/><path fill="#000" d="M0 0h9v9H0V0M9 0h9v9H9V0M18 0h9v9H18V0M27 0h9v9H27V0M36 0h9v9H36V0M45 0h9v9H45V0M54 0h9v9H54V0M72 0h9v9H72V0M99 0h9v9H99V0M117 0h9v9H117V0M162 0h9v9H162V0M171 0h9v9H171V0M198 0h9v9H198V0M207 0h9v9H207V0M234 0h9v9H234V0M252 0h9v9H252V0M270 0h9v9H270V0M279 0h9v9H279V0M306 0h9v9H306V0M315 0h9v9H315V0M324 0h9v9H324V0M333 0h9v9H333V0M360 0h9v9H360V0M378 0h9v9H378V0M387 0h9v9H387V0M396 0h9v9H396V0M405 0h9v9H405V0M414 0h9v9H414V0M423 0h9v9H423V0M432 0h9v9H432V0M0 9h9v9H0V9M54 9h9v9H54V9M81 9h9v9H81V9M90 9h9v9H90V9M99 9h9v9H99V9M135 9h9v9H135V9M153 9h9v9H153V9M162 9h9v9H162V9M180 9h9v9H180V9M189 9h9v9H189V9M198 9h9v9H198V9M207 9h9v9H207V9M234 9h9v9H234V9M252 9h9v9H252V9M261 9h9v9H261V9M270 9h9v9H270V9M288 9h9v9H288V9M297 9h9v9H297V9M306 9h9v9H306V9M324 9h9v9H324V9M342 9h9v9H342V9M351 9h9v9H351V9M360 9h9v9H360V9M378 9h9v9H378V9M432 9h9v9H432V9M0 18h9v9H0V18M18 18h9v9H18V18M27 18h9v9H27V18M36 18h9v9H36V18M54 18h9v9H54V18M72 18h9v9H72V18M99 18h9v9H99V18M108 18h9v9H108V18M171 18h9v9H171V18M225 18h9v9H225V18M243 18h9v9H243V18M252 18h9v9H252V18M270 18h9v9H270V18M279 18h9v9H279V18M306 18h9v9H306V18M324 18h9v9H324V18M333 18h9v9H333V18M351 18h9v9H351V18M360 18h9v9H360V18M378 18h9v9H378V18M396 18h9v9H396V18M405 18h9v9H405V18M414 18h9v9H414V18M432 18h9v9H432V18M0 27h9v9H0V27M18 27h9v9H18V27M27 27h9v9H27V27M36 27h9v9H36V27M54 27h9v9H54V27M108 27h9v9H108V27M135 27h9v9H135V27M153 27h9v9H153V27M171 27h9v9H171V27M234 27h9v9H234V27M243 27h9v9H243V27M279 27h9v9H279V27M306 27h9v9H306V27M315 27h9v9H315V27M333 27h9v9H333V27M351 27h9v9H351V27M378 27h9v9H378V27M396 27h9v9H396V27M405 27h9v9H405V27M414 27h9v9H414V27M432 27h9v9H432V27M0 36h9v9H0V36M18 36h9v9H18V36M27 36h9v9H27V36M36 36h9v9H36V36M54 36h9v9H54V36M81 36h9v9H81V36M90 36h9v9H90V36M99 36h9v9H99V36M117 36h9v9H117V36M126 36h9v9H126V36M135 36h9v9H135V36M171 36h9v9H171V36M180 36h9v9H180V36M189 36h9v9H189V36M198 36h9v9H198V36M207 36h9v9H207V36M216 36h9v9H216V36M225 36h9v9H225V36M234 36h9v9H234V36M261 36h9v9H261V36M270 36h9v9H270V36M279 36h9v9H279V36M288 36h9v9H288V36M306 36h9v9H306V36M315 36h9v9H315V36M324 36h9v9H324V36M333 36h9v9H333V36M378 36h9v9H378V36M396 36h9v9H396V36M405 36h9v9H405V36M414 36h9v9H414V36M432 36h9v9H432V36M0 45h9v9H0V45M54 45h9v9H54V45M72 45h9v9H72V45M81 45h9v9H81V45M108 45h9v9H108V45M117 45h9v9H117V45M126 45h9v9H126V45M144 45h9v9H144V45M162 45h9v9H162V45M171 45h9v9H171V45M189 45h9v9H189V45M198 45h9v9H198V45M234 45h9v9H234V45M261 45h9v9H261V45M270 45h9v9H270V45M297 45h9v9H297V45M306 45h9v9H306V45M315 45h9v9H315V45M324 45h9v9H324V45M333 45h9v9H333V45M342 45h9v9H342V45M378 45h9v9H378V45M432 45h9v9H432V45M0 54h9v9H0V54M9 54h9v9H9V54M18 54h9v9H18V54M27 54h9v9H27V54M36 54h9v9H36V54M45 54h9v9H45V54M54 54h9v9H54V54M72 54h9v9H72V54M90 54h9v9H90V54M108 54h9v9H108V54M126 54h9v9H126V54M144 54h9v9H144V54M162 54h9v9H162V54M180 54h9v9H180V54M198 54h9v9H198V54M216 54h9v9H216V54M234 54h9v9H234V54M252 54h9v9H252V54M270 54h9v9H270V54M288 54h9v9H288V54M306 54h9v9H306V54M324 54h9v9H324V54M342 54h9v9H342V54M360 54h9v9H360V54M378 54h9v9H378V54M387 54h9v9H387V54M396 54h9v9H396V54M405 54h9v9H405V54M414 54h9v9H414V54M423 54h9v9H423V54M432 54h9v9H432V54M90 63h9v9H90V63M99 63h9v9H99V63M117 63h9v9H117V63M135 63h9v9H135V63M198 63h9v9H198V63M234 63h9v9H234V63M252 63h9v9H252V63M306 63h9v9H306V63M324 63h9v9H324V63M351 63h9v9H351V63M0 72h9v9H0V72M18 72h9v9H18V72M54 72h9v9H54V72M63 72h9v9H63V72M99 72h9v9H99V72M108 72h9v9H108V72M135 72h9v9H135V72M144 72h9v9H144V72M162 72h9v9H162V72M189 72h9v9H189V72M198 72h9v9H198V72M207 72h9v9H207V72M216 72h9v9H216V72M225 72h9v9H225V72M234 72h9v9H234V72M252 72h9v9H252V72M270 72h9v9H270V72M288 72h9v9H288V72M324 72h9v9H324V72M342 72h9v9H342V72M351 72h9v9H351V72M387 72h9v9H387V72M414 72h9v9H414V72M432 72h9v9H432V72M0 81h9v9H0V81M18 81h9v9H18V81M36 81h9v9H36V81M45 81h9v9H45V81M63 81h9v9H63V81M81 81h9v9H81V81M108 81h9v9H108V81M126 81h9v9H126V81M171 81h9v9H171V81M198 81h9v9H198V81M207 81h9v9H207V81M216 81h9v9H216V81M225 81h9v9H225V81M261 81h9v9H261V81M297 81h9v9H297V81M324 81h9v9H324V81M351 81h9v9H351V81M369 81h9v9H369V81M387 81h9v9H387V81M405 81h9v9H405V81M423 81h9v9H423V81M9 90h9v9H9V90M36 90h9v9H36V90M54 90h9v9H54V90M81 90h9v9H81V90M90 90h9v9H90V90M135 90h9v9H135V90M144 90h9v9H144V90M153 90h9v9H153V90M162 90h9v9H162V90M189 90h9v9H189V90M198 90h9v9H198V90M216 90h9v9H216V90M234 90h9v9H234V90M252 90h9v9H252V90M270 90h9v9H270V90M279 90h9v9H279V90M288 90h9v9H288V90M297 90h9v9H297V90M306 90h9v9H306V90M315 90h9v9H315V90M324 90h9v9H324V90M360 90h9v9H360V90M369 90h9v9H369V90M387 90h9v9H387V90M405 90h9v9H405V90M432 90h9v9H432V90M0 99h9v9H0V99M9 99h9v9H9V99M18 99h9v9H18V99M27 99h9v9H27V99M63 99h9v9H63V99M90 99h9v9H90V99M99 99h9v9H99V99M117 99h9v9H117V99M135 99h9v9H135V99M153 99h9v9H153V99M171 99h9v9H171V99M189 99h9v9H189V99M207 99h9v9H207V99M216 99h9v9H216V99M225 99h9v9H225V99M252 99h9v9H252V99M270 99h9v9H270V99M279 99h9v9H279V99M288 99h9v9H288V99M297 99h9v9H297V99M315 99h9v9H315V99M324 99h9v9H324V99M333 99h9v9H333V99M342 99h9v9H342V99M351 99h9v9H351V99M360 99h9v9H360V99M369 99h9v9H369V99M378 99h9v9H378V99M396 99h9v9H396V99M405 99h9v9H405V99M423 99h9v9H423V99M0 108h9v9H0V108M9 108h9v9H9V108M27 108h9v9H27V108M36 108h9v9H36V108M54 108h9v9H54V108M81 108h9v9H81V108M99 108h9v9H99V108M108 108h9v9H108V108M126 108h9v9H126V108M135 108h9v9H135V108M171 108h9v9H171V108M180 108h9v9H180V108M189 108h9v9H189V108M198 108h9v9H198V108M207 108h9v9H207V108M216 108h9v9H216V108M225 108h9v9H225V108M234 108h9v9H234V108M252 108h9v9H252V108M279 108h9v9H279V108M288 108h9v9H288V108M306 108h9v9H306V108M315 108h9v9H315V108M324 108h9v9H324V108M342 108h9v9H342V108M351 108h9v9H351V108M396 108h9v9H396V108M405 108h9v9H405V108M432 108h9v9H432V108M9 117h9v9H9V117M63 117h9v9H63V117M90 117h9v9H90V117M117 117h9v9H117V117M126 117h9v9H126V117M135 117h9v9H135V117M171 117h9v9H171V117M180 117h9v9H180V117M189 117h9v9H189V117M198 117h9v9H198V117M225 117h9v9H225V117M261 117h9v9H261V117M297 117h9v9H297V117M315 117h9v9H315V117M324 117h9v9H324V117M333 117h9v9H333V117M351 117h9v9H351V117M369 117h9v9H369V117M396 117h9v9H396V117M432 117h9v9H432V117M18 126h9v9H18V126M27 126h9v9H27V126M54 126h9v9H54V126M99 126h9v9H99V126M117 126h9v9H117V126M126 126h9v9H126V126M144 126h9v9H144V126M153 126h9v9H153V126M171 126h9v9H171V126M198 126h9v9H198V126M216 126h9v9H216V126M234 126h9v9H234V126M306 126h9v9H306V126M315 126h9v9H315V126M324 126h9v9H324V126M369 126h9v9H369V126M378 126h9v9H378V126M387 126h9v9H387V126M396 126h9v9H396V126M414 126h9v9H414V126M432 126h9v9H432V126M0 135h9v9H0V135M18 135h9v9H18V135M36 135h9v9H36V135M45 135h9v9H45V135M63 135h9v9H63V135M90 135h9v9H90V135M99 135h9v9H99V135M126 135h9v9H126V135M135 135h9v9H135V135M171 135h9v9H171V135M180 135h9v9H180V135M216 135h9v9H216V135M225 135h9v9H225V135M243 135h9v9H243V135M279 135h9v9H279V135M297 135h9v9H297V135M324 135h9v9H324V135M333 135h9v9H333V135M351 135h9v9H351V135M360 135h9v9H360V135M369 135h9v9H369V135M378 135h9v9H378V135M396 135h9v9H396V135M423 135h9v9H423V135M432 135h9v9H432V135M9 144h9v9H9V144M18 144h9v9H18V144M36 144h9v9H36V144M54 144h9v9H54V144M63 144h9v9H63V144M81 144h9v9H81V144M90 144h9v9H90V144M99 144h9v9H99V144M135 144h9v9H135V144M144 144h9v9H144V144M216 144h9v9H216V144M225 144h9v9H225V144M252 144h9v9H252V144M261 144h9v9H261V144M288 144h9v9H288V144M306 144h9v9H306V144M324 144h9v9H324V144M351 144h9v9H351V144M378 144h9v9H378V144M396 144h9v9H396V144M423 144h9v9H423V144M432 144h9v9H432V144M0 153h9v9H0V153M9 153h9v9H9V153M45 153h9v9H45V153M63 153h9v9H63V153M99 153h9v9H99V153M108 153h9v9H108V153M117 153h9v9H117V153M126 153h9v9H126V153M207 153h9v9H207V153M243 153h9v9H243V153M252 153h9v9H252V153M261 153h9v9H261V153M297 153h9v9H297V153M324 153h9v9H324V153M333 153h9v9H333V153M351 153h9v9H351V153M369 153h9v9H369V153M414 153h9v9H414V153M0 162h9v9H0V162M36 162h9v9H36V162M54 162h9v9H54V162M90 162h9v9H90V162M99 162h9v9H99V162M108 162h9v9H108V162M117 162h9v9H117V162M126 162h9v9H126V162M135 162h9v9H135V162M144 162h9v9H144V162M162 162h9v9H162V162M189 162h9v9H189V162M198 162h9v9H198V162M207 162h9v9H207V162M261 162h9v9H261V162M279 162h9v9H279V162M288 162h9v9H288V162M297 162h9v9H297V162M324 162h9v9H324V162M333 162h9v9H333V162M369 162h9v9H369V162M396 162h9v9H396V162M414 162h9v9H414V162M432 162h9v9H432V162M0 171h9v9H0V171M9 171h9v9H9V171M27 171h9v9H27V171M36 171h9v9H36V171M45 171h9v9H45V171M72 171h9v9H72V171M81 171h9v9H81V171M90 171h9v9H90V171M99 171h9v9H99V171M108 171h9v9H108V171M117 171h9v9H117V171M126 171h9v9H126V171M144 171h9v9H144V171M153 171h9v9H153V171M171 171h9v9H171V171M189 171h9v9H189V171M216 171h9v9H216V171M225 171h9v9H225V171M270 171h9v9H270V171M279 171h9v9H279V171M306 171h9v9H306V171M324 171h9v9H324V171M333 171h9v9H333V171M396 171h9v9H396V171M405 171h9v9H405V171M423 171h9v9H423V171M0 180h9v9H0V180M18 180h9v9H18V180M27 180h9v9H27V180M45 180h9v9H45V180M54 180h9v9H54V180M63 180h9v9H63V180M108 180h9v9H108V180M117 180h9v9H117V180M126 180h9v9H126V180M144 180h9v9H144V180M171 180h9v9H171V180M180 180h9v9H180V180M189 180h9v9H189V180M216 180h9v9H216V180M234 180h9v9H234V180M252 180h9v9H252V180M270 180h9v9H270V180M288 180h9v9H288V180M306 180h9v9H306V180M324 180h9v9H324V180M342 180h9v9H342V180M351 180h9v9H351V180M360 180h9v9H360V180M387 180h9v9H387V180M396 180h9v9H396V180M405 180h9v9H405V180M414 180h9v9H414V180M423 180h9v9H423V180M0 189h9v9H0V189M27 189h9v9H27V189M36 189h9v9H36V189M45 189h9v9H45V189M81 189h9v9H81V189M135 189h9v9H135V189M153 189h9v9H153V189M162 189h9v9H162V189M171 189h9v9H171V189M198 189h9v9H198V189M207 189h9v9H207V189M261 189h9v9H261V189M279 189h9v9H279V189M288 189h9v9H288V189M297 189h9v9H297V189M324 189h9v9H324V189M333 189h9v9H333V189M351 189h9v9H351V189M369 189h9v9H369V189M387 189h9v9H387V189M396 189h9v9H396V189M414 189h9v9H414V189M423 189h9v9H423V189M432 189h9v9H432V189M0 198h9v9H0V198M9 198h9v9H9V198M27 198h9v9H27V198M36 198h9v9H36V198M45 198h9v9H45V198M54 198h9v9H54V198M63 198h9v9H63V198M72 198h9v9H72V198M81 198h9v9H81V198M108 198h9v9H108V198M126 198h9v9H126V198M153 198h9v9H153V198M189 198h9v9H189V198M198 198h9v9H198V198M207 198h9v9H207V198M216 198h9v9H216V198M225 198h9v9H225V198M234 198h9v9H234V198M270 198h9v9H270V198M279 198h9v9H279V198M288 198h9v9H288V198M297 198h9v9H297V198M306 198h9v9H306V198M315 198h9v9H315V198M324 198h9v9H324V198M351 198h9v9H351V198M360 198h9v9H360V198M369 198h9v9H369V198M378 198h9v9H378V198M387 198h9v9H387V198M396 198h9v9H396V198M405 198h9v9H405V198M432 198h9v9H432V198M0 207h9v9H0V207M9 207h9v9H9V207M18 207h9v9H18V207M27 207h9v9H27V207M36 207h9v9H36V207M72 207h9v9H72V207M90 207h9v9H90V207M99 207h9v9H99V207M117 207h9v9H117V207M135 207h9v9H135V207M162 207h9v9H162V207M198 207h9v9H198V207M234 207h9v9H234V207M243 207h9v9H243V207M261 207h9v9H261V207M279 207h9v9H279V207M288 207h9v9H288V207M351 207h9v9H351V207M360 207h9v9H360V207M396 207h9v9H396V207M405 207h9v9H405V207M432 207h9v9H432V207M0 216h9v9H0V216M18 216h9v9H18V216M27 216h9v9H27V216M36 216h9v9H36V216M54 216h9v9H54V216M72 216h9v9H72V216M81 216h9v9H81V216M126 216h9v9H126V216M153 216h9v9H153V216M171 216h9v9H171V216M180 216h9v9H180V216M189 216h9v9H189V216M198 216h9v9H198V216M216 216h9v9H216V216M234 216h9v9H234V216M252 216h9v9H252V216M261 216h9v9H261V216M288 216h9v9H288V216M324 216h9v9H324V216M333 216h9v9H333V216M342 216h9v9H342V216M360 216h9v9H360V216M378 216h9v9H378V216M396 216h9v9H396V216M405 216h9v9H405V216M414 216h9v9H414V216M423 216h9v9H423V216M432 216h9v9H432V216M0 225h9v9H0V225M18 225h9v9H18V225M36 225h9v9H36V225M72 225h9v9H72V225M81 225h9v9H81V225M99 225h9v9H99V225M108 225h9v9H108V225M126 225h9v9H126V225M144 225h9v9H144V225M153 225h9v9H153V225M171 225h9v9H171V225M189 225h9v9H189V225M198 225h9v9H198V225M234 225h9v9H234V225M243 225h9v9H243V225M261 225h9v9H261V225M279 225h9v9H279V225M297 225h9v9H297V225M333 225h9v9H333V225M360 225h9v9H360V225M396 225h9v9H396V225M405 225h9v9H405V225M414 225h9v9H414V225M432 225h9v9H432V225M27 234h9v9H27V234M36 234h9v9H36V234M45 234h9v9H45V234M54 234h9v9H54V234M63 234h9v9H63V234M72 234h9v9H72V234M81 234h9v9H81V234M99 234h9v9H99V234M171 234h9v9H171V234M189 234h9v9H189V234M198 234h9v9H198V234M207 234h9v9H207V234M216 234h9v9H216V234M225 234h9v9H225V234M234 234h9v9H234V234M252 234h9v9H252V234M270 234h9v9H270V234M288 234h9v9H288V234M297 234h9v9H297V234M324 234h9v9H324V234M333 234h9v9H333V234M351 234h9v9H351V234M360 234h9v9H360V234M369 234h9v9H369V234M378 234h9v9H378V234M387 234h9v9H387V234M396 234h9v9H396V234M414 234h9v9H414V234M432 234h9v9H432V234M9 243h9v9H9V243M45 243h9v9H45V243M99 243h9v9H99V243M108 243h9v9H108V243M117 243h9v9H117V243M144 243h9v9H144V243M162 243h9v9H162V243M225 243h9v9H225V243M234 243h9v9H234V243M252 243h9v9H252V243M261 243h9v9H261V243M288 243h9v9H288V243M297 243h9v9H297V243M324 243h9v9H324V243M342 243h9v9H342V243M360 243h9v9H360V243M378 243h9v9H378V243M405 243h9v9H405V243M423 243h9v9H423V243M432 243h9v9H432V243M9 252h9v9H9V252M18 252h9v9H18V252M36 252h9v9H36V252M45 252h9v9H45V252M54 252h9v9H54V252M81 252h9v9H81V252M99 252h9v9H99V252M108 252h9v9H108V252M117 252h9v9H117V252M135 252h9v9H135V252M144 252h9v9H144V252M162 252h9v9H162V252M180 252h9v9H180V252M189 252h9v9H189V252M207 252h9v9H207V252M225 252h9v9H225V252M234 252h9v9H234V252M252 252h9v9H252V252M288 252h9v9H288V252M324 252h9v9H324V252M333 252h9v9H333V252M342 252h9v9H342V252M351 252h9v9H351V252M360 252h9v9H360V252M369 252h9v9H369V252M387 252h9v9H387V252M405 252h9v9H405V252M423 252h9v9H423V252M27 261h9v9H27V261M36 261h9v9H36V261M63 261h9v9H63V261M72 261h9v9H72V261M81 261h9v9H81V261M99 261h9v9H99V261M108 261h9v9H108V261M126 261h9v9H126V261M144 261h9v9H144V261M162 261h9v9H162V261M207 261h9v9H207V261M225 261h9v9H225V261M243 261h9v9H243V261M252 261h9v9H252V261M261 261h9v9H261V261M288 261h9v9H288V261M297 261h9v9H297V261M315 261h9v9H315V261M333 261h9v9H333V261M360 261h9v9H360V261M369 261h9v9H369V261M378 261h9v9H378V261M387 261h9v9H387V261M0 270h9v9H0V270M9 270h9v9H9V270M18 270h9v9H18V270M27 270h9v9H27V270M36 270h9v9H36V270M54 270h9v9H54V270M81 270h9v9H81V270M153 270h9v9H153V270M180 270h9v9H180V270M189 270h9v9H189V270M207 270h9v9H207V270M234 270h9v9H234V270M261 270h9v9H261V270M270 270h9v9H270V270M306 270h9v9H306V270M315 270h9v9H315V270M333 270h9v9H333V270M342 270h9v9H342V270M351 270h9v9H351V270M360 270h9v9H360V270M378 270h9v9H378V270M387 270h9v9H387V270M432 270h9v9H432V270M9 279h9v9H9V279M36 279h9v9H36V279M72 279h9v9H72V279M117 279h9v9H117V279M126 279h9v9H126V279M135 279h9v9H135V279M144 279h9v9H144V279M153 279h9v9H153V279M189 279h9v9H189V279M261 279h9v9H261V279M270 279h9v9H270V279M279 279h9v9H279V279M297 279h9v9H297V279M306 279h9v9H306V279M315 279h9v9H315V279M333 279h9v9H333V279M342 279h9v9H342V279M351 279h9v9H351V279M360 279h9v9H360V279M369 279h9v9H369V279M378 279h9v9H378V279M396 279h9v9H396V279M405 279h9v9H405V279M0 288h9v9H0V288M9 288h9v9H9V288M18 288h9v9H18V288M45 288h9v9H45V288M54 288h9v9H54V288M81 288h9v9H81V288M90 288h9v9H90V288M99 288h9v9H99V288M108 288h9v9H108V288M117 288h9v9H117V288M126 288h9v9H126V288M135 288h9v9H135V288M171 288h9v9H171V288M180 288h9v9H180V288M189 288h9v9H189V288M216 288h9v9H216V288M234 288h9v9H234V288M252 288h9v9H252V288M288 288h9v9H288V288M306 288h9v9H306V288M324 288h9v9H324V288M351 288h9v9H351V288M405 288h9v9H405V288M432 288h9v9H432V288M9 297h9v9H9V297M18 297h9v9H18V297M27 297h9v9H27V297M36 297h9v9H36V297M45 297h9v9H45V297M63 297h9v9H63V297M72 297h9v9H72V297M108 297h9v9H108V297M117 297h9v9H117V297M126 297h9v9H126V297M144 297h9v9H144V297M153 297h9v9H153V297M162 297h9v9H162V297M171 297h9v9H171V297M198 297h9v9H198V297M207 297h9v9H207V297M225 297h9v9H225V297M261 297h9v9H261V297M297 297h9v9H297V297M324 297h9v9H324V297M333 297h9v9H333V297M369 297h9v9H369V297M378 297h9v9H378V297M387 297h9v9H387V297M423 297h9v9H423V297M0 306h9v9H0V306M36 306h9v9H36V306M54 306h9v9H54V306M81 306h9v9H81V306M99 306h9v9H99V306M108 306h9v9H108V306M117 306h9v9H117V306M135 306h9v9H135V306M144 306h9v9H144V306M153 306h9v9H153V306M171 306h9v9H171V306M189 306h9v9H189V306M198 306h9v9H198V306M207 306h9v9H207V306M216 306h9v9H216V306M234 306h9v9H234V306M243 306h9v9H243V306M252 306h9v9H252V306M270 306h9v9H270V306M288 306h9v9H288V306M297 306h9v9H297V306M306 306h9v9H306V306M324 306h9v9H324V306M351 306h9v9H351V306M360 306h9v9H360V306M378 306h9v9H378V306M387 306h9v9H387V306M396 306h9v9H396V306M405 306h9v9H405V306M432 306h9v9H432V306M0 315h9v9H0V315M9 315h9v9H9V315M36 315h9v9H36V315M63 315h9v9H63V315M72 315h9v9H72V315M81 315h9v9H81V315M117 315h9v9H117V315M144 315h9v9H144V315M153 315h9v9H153V315M162 315h9v9H162V315M189 315h9v9H189V315M207 315h9v9H207V315M252 315h9v9H252V315M279 315h9v9H279V315M288 315h9v9H288V315M324 315h9v9H324V315M360 315h9v9H360V315M378 315h9v9H378V315M405 315h9v9H405V315M432 315h9v9H432V315M0 324h9v9H0V324M18 324h9v9H18V324M45 324h9v9H45V324M54 324h9v9H54V324M63 324h9v9H63V324M72 324h9v9H72V324M81 324h9v9H81V324M99 324h9v9H99V324M108 324h9v9H108V324M171 324h9v9H171V324M180 324h9v9H180V324M189 324h9v9H189V324M198 324h9v9H198V324M216 324h9v9H216V324M225 324h9v9H225V324M234 324h9v9H234V324M252 324h9v9H252V324M261 324h9v9H261V324M270 324h9v9H270V324M279 324h9v9H279V324M288 324h9v9H288V324M306 324h9v9H306V324M324 324h9v9H324V324M351 324h9v9H351V324M360 324h9v9H360V324M378 324h9v9H378V324M387 324h9v9H387V324M405 324h9v9H405V324M423 324h9v9H423V324M0 333h9v9H0V333M9 333h9v9H9V333M36 333h9v9H36V333M72 333h9v9H72V333M81 333h9v9H81V333M99 333h9v9H99V333M108 333h9v9H108V333M117 333h9v9H117V333M153 333h9v9H153V333M162 333h9v9H162V333M171 333h9v9H171V333M207 333h9v9H207V333M243 333h9v9H243V333M252 333h9v9H252V333M261 333h9v9H261V333M279 333h9v9H279V333M333 333h9v9H333V333M351 333h9v9H351V333M369 333h9v9H369V333M387 333h9v9H387V333M405 333h9v9H405V333M432 333h9v9H432V333M9 342h9v9H9V342M45 342h9v9H45V342M54 342h9v9H54V342M99 342h9v9H99V342M144 342h9v9H144V342M153 342h9v9H153V342M180 342h9v9H180V342M189 342h9v9H189V342M207 342h9v9H207V342M234 342h9v9H234V342M261 342h9v9H261V342M288 342h9v9H288V342M315 342h9v9H315V342M342 342h9v9H342V342M351 342h9v9H351V342M378 342h9v9H378V342M396 342h9v9H396V342M414 342h9v9H414V342M432 342h9v9H432V342M9 351h9v9H9V351M18 351h9v9H18V351M27 351h9v9H27V351M63 351h9v9H63V351M81 351h9v9H81V351M90 351h9v9H90V351M108 351h9v9H108V351M117 351h9v9H117V351M135 351h9v9H135V351M207 351h9v9H207V351M216 351h9v9H216V351M225 351h9v9H225V351M234 351h9v9H234V351M243 351h9v9H243V351M252 351h9v9H252V351M261 351h9v9H261V351M279 351h9v9H279V351M324 351h9v9H324V351M333 351h9v9H333V351M360 351h9v9H360V351M405 351h9v9H405V351M423 351h9v9H423V351M0 360h9v9H0V360M9 360h9v9H9V360M18 360h9v9H18V360M54 360h9v9H54V360M63 360h9v9H63V360M81 360h9v9H81V360M90 360h9v9H90V360M99 360h9v9H99V360M108 360h9v9H108V360M117 360h9v9H117V360M135 360h9v9H135V360M144 360h9v9H144V360M153 360h9v9H153V360M162 360h9v9H162V360M171 360h9v9H171V360M180 360h9v9H180V360M198 360h9v9H198V360M207 360h9v9H207V360M216 360h9v9H216V360M225 360h9v9H225V360M234 360h9v9H234V360M252 360h9v9H252V360M270 360h9v9H270V360M288 360h9v9H288V360M306 360h9v9H306V360M324 360h9v9H324V360M333 360h9v9H333V360M342 360h9v9H342V360M351 360h9v9H351V360M360 360h9v9H360V360M369 360h9v9H369V360M378 360h9v9H378V360M387 360h9v9H387V360M396 360h9v9H396V360M405 360h9v9H405V360M414 360h9v9H414V360M423 360h9v9H423V360M72 369h9v9H72V369M81 369h9v9H81V369M117 369h9v9H117V369M126 369h9v9H126V369M153 369h9v9H153V369M171 369h9v9H171V369M198 369h9v9H198V369M234 369h9v9H234V369M252 369h9v9H252V369M261 369h9v9H261V369M288 369h9v9H288V369M297 369h9v9H297V369M315 369h9v9H315V369M333 369h9v9H333V369M351 369h9v9H351V369M360 369h9v9H360V369M396 369h9v9H396V369M405 369h9v9H405V369M414 369h9v9H414V369M0 378h9v9H0V378M9 378h9v9H9V378M18 378h9v9H18V378M27 378h9v9H27V378M36 378h9v9H36V378M45 378h9v9H45V378M54 378h9v9H54V378M72 378h9v9H72V378M81 378h9v9H81V378M90 378h9v9H90V378M99 378h9v9H99V378M126 378h9v9H126V378M162 378h9v9H162V378M171 378h9v9H171V378M180 378h9v9H180V378M189 378h9v9H189V378M198 378h9v9H198V378M216 378h9v9H216V378M234 378h9v9H234V378M243 378h9v9H243V378M252 378h9v9H252V378M270 378h9v9H270V378M279 378h9v9H279V378M288 378h9v9H288V378M297 378h9v9H297V378M306 378h9v9H306V378M315 378h9v9H315V378M333 378h9v9H333V378M360 378h9v9H360V378M378 378h9v9H378V378M396 378h9v9H396V378M432 378h9v9H432V378M0 387h9v9H0V387M54 387h9v9H54V387M81 387h9v9H81V387M99 387h9v9H99V387M108 387h9v9H108V387M117 387h9v9H117V387M126 387h9v9H126V387M135 387h9v9H135V387M171 387h9v9H171V387M180 387h9v9H180V387M198 387h9v9H198V387M234 387h9v9H234V387M270 387h9v9H270V387M297 387h9v9H297V387M315 387h9v9H315V387M324 387h9v9H324V387M342 387h9v9H342V387M351 387h9v9H351V387M360 387h9v9H360V387M396 387h9v9H396V387M423 387h9v9H423V387M432 387h9v9H432V387M0 396h9v9H0V396M18 396h9v9H18V396M27 396h9v9H27V396M36 396h9v9H36V396M54 396h9v9H54V396M81 396h9v9H81V396M90 396h9v9H90V396M153 396h9v9H153V396M162 396h9v9H162V396M171 396h9v9H171V396M180 396h9v9H180V396M198 396h9v9H198V396M207 396h9v9H207V396M216 396h9v9H216V396M225 396h9v9H225V396M234 396h9v9H234V396M252 396h9v9H252V396M288 396h9v9H288V396M306 396h9v9H306V396M315 396h9v9H315V396M324 396h9v9H324V396M333 396h9v9H333V396M351 396h9v9H351V396M360 396h9v9H360V396M369 396h9v9H369V396M378 396h9v9H378V396M387 396h9v9H387V396M396 396h9v9H396V396M423 396h9v9H423V396M0 405h9v9H0V405M18 405h9v9H18V405M27 405h9v9H27V405M36 405h9v9H36V405M54 405h9v9H54V405M90 405h9v9H90V405M99 405h9v9H99V405M108 405h9v9H108V405M117 405h9v9H117V405M171 405h9v9H171V405M180 405h9v9H180V405M207 405h9v9H207V405M225 405h9v9H225V405M243 405h9v9H243V405M252 405h9v9H252V405M261 405h9v9H261V405M315 405h9v9H315V405M333 405h9v9H333V405M351 405h9v9H351V405M360 405h9v9H360V405M396 405h9v9H396V405M405 405h9v9H405V405M414 405h9v9H414V405M423 405h9v9H423V405M0 414h9v9H0V414M18 414h9v9H18V414M27 414h9v9H27V414M36 414h9v9H36V414M54 414h9v9H54V414M72 414h9v9H72V414M81 414h9v9H81V414M108 414h9v9H108V414M117 414h9v9H117V414M126 414h9v9H126V414M144 414h9v9H144V414M162 414h9v9H162V414M171 414h9v9H171V414M216 414h9v9H216V414M225 414h9v9H225V414M234 414h9v9H234V414M261 414h9v9H261V414M270 414h9v9H270V414M279 414h9v9H279V414M288 414h9v9H288V414M324 414h9v9H324V414M342 414h9v9H342V414M360 414h9v9H360V414M369 414h9v9H369V414M396 414h9v9H396V414M405 414h9v9H405V414M414 414h9v9H414V414M423 414h9v9H423V414M0 423h9v9H0V423M54 423h9v9H54V423M99 423h9v9H99V423M108 423h9v9H108V423M144 423h9v9H144V423M153 423h9v9H153V423M162 423h9v9H162V423M171 423h9v9H171V423M180 423h9v9H180V423M198 423h9v9H198V423M207 423h9v9H207V423M225 423h9v9H225V423M243 423h9v9H243V423M252 423h9v9H252V423M279 423h9v9H279V423M306 423h9v9H306V423M315 423h9v9H315V423M324 423h9v9H324V423M333 423h9v9H333V423M351 423h9v9H351V423M360 423h9v9H360V423M396 423h9v9H396V423M405 423h9v9H405V423M0 432h9v9H0V432M9 432h9v9H9V432M18 432h9v9H18V432M27 432h9v9H27V432M36 432h9v9H36V432M45 432h9v9H45V432M54 432h9v9H54V432M72 432h9v9H72V432M81 432h9v9H81V432M90 432h9v9H90V432M99 432h9v9H99V432M135 432h9v9H135V432M162 432h9v9H162V432M171 432h9v9H171V432M198 432h9v9H198V432M207 432h9v9H207V432M225 432h9v9H225V432M234 432h9v9H234V432M243 432h9v9H243V432M252 432h9v9H252V432M261 432h9v9H261V432M288 432h9v9H288V432M315 432h9v9H315V432M324 432h9v9H324V432M333 432h9v9H333V432M351 432h9v9H351V432M360 432h9v9H360V432M405 432h9v9H405V432M414 432h9v9H414V432M432 432h9v9H432V432"/></svg>
