<?xml version="1.0" standalone="yes"?><svg xmlns="http://www.w3.org/2000/svg" version="1.1" width="462" height="462" viewBox="0 0 462 462" shape-rendering="crispEdges"><rect x="0" y="0" width="462" height="462" fill="#fff"/><path fill="#000" d="M0 0h6v6H0V0M6 0h6v6H6V0M12 0h6v6H12V0M18 0h6v6H18V0M24 0h6v6H24V0M30 0h6v6H30V0M36 0h6v6H36V0M54 0h6v6H54V0M60 0h6v6H60V0M78 0h6v6H78V0M84 0h6v6H84V0M108 0h6v6H108V0M114 0h6v6H114V0M126 0h6v6H126V0M144 0h6v6H144V0M150 0h6v6H150V0M162 0h6v6H162V0M168 0h6v6H168V0M174 0h6v6H174V0M192 0h6v6H192V0M198 0h6v6H198V0M204 0h6v6H204V0M216 0h6v6H216V0M246 0h6v6H246V0M252 0h6v6H252V0M264 0h6v6H264V0M276 0h6v6H276V0M294 0h6v6H294V0M306 0h6v6H306V0M312 0h6v6H312V0M342 0h6v6H342V0M360 0h6v6H360V0M372 0h6v6H372V0M378 0h6v6H378V0M384 0h6v6H384V0M390 0h6v6H390V0M420 0h6v6H420V0M426 0h6v6H426V0M432 0h6v6H432V0M438 0h6v6H438V0M444 0h6v6H444V0M450 0h6v6H450V0M456 0h6v6H456V0M0 6h6v6H0V6M36 6h6v6H36V6M54 6h6v6H54V6M66 6h6v6H66V6M72 6h6v6H72V6M102 6h6v6H102V6M108 6h6v6H108V6M114 6h6v6H114V6M120 6h6v6H120V6M138 6h6v6H138V6M144 6h6v6H144V6M150 6h6v6H150V6M156 6h6v6H156V6M192 6h6v6H192V6M216 6h6v6H216V6M222 6h6v6H222V6M234 6h6v6H234V6M246 6h6v6H246V6M252 6h6v6H252V6M258 6h6v6H258V6M264 6h6v6H264V6M276 6h6v6H276V6M282 6h6v6H282V6M288 6h6v6H288V6M294 6h6v6H294V6M300 6h6v6H300V6M312 6h6v6H312V6M324 6h6v6H324V6M336 6h6v6H336V6M348 6h6v6H348V6M354 6h6v6H354V6M372 6h6v6H372V6M378 6h6v6H378V6M384 6h6v6H384V6M390 6h6v6H390V6M396 6h6v6H396V6M408 6h6v6H408V6M420 6h6v6H420V6M456 6h6v6H456V6M0 12h6v6H0V12M12 12h6v6H12V12M18 12h6v6H18V12M24 12h6v6H24V12M36 12h6v6H36V12M48 12h6v6H48V12M54 12h6v6H54V12M66 12h6v6H66V12M114 12h6v6H114V12M126 12h6v6H126V12M138 12h6v6H138V12M144 12h6v6H144V12M168 12h6v6H168V12M192 12h6v6H192V12M198 12h6v6H198V12M210 12h6v6H210V12M234 12h6v6H234V12M240 12h6v6H240V12M246 12h6v6H246V12M252 12h6v6H252V12M264 12h6v6H264V12M288 12h6v6H288V12M294 12h6v6H294V12M306 12h6v6H306V12M312 12h6v6H312V12M318 12h6v6H318V12M342 12h6v6H342V12M354 12h6v6H354V12M360 12h6v6H360V12M372 12h6v6H372V12M384 12h6v6H384V12M408 12h6v6H408V12M420 12h6v6H420V12M432 12h6v6H432V12M438 12h6v6H438V12M444 12h6v6H444V12M456 12h6v6H456V12M0 18h6v6H0V18M12 18h6v6H12V18M18 18h6v6H18V18M24 18h6v6H24V18M36 18h6v6H36V18M48 18h6v6H48V18M54 18h6v6H54V18M60 18h6v6H60V18M72 18h6v6H72V18M96 18h6v6H96V18M102 18h6v6H102V18M126 18h6v6H126V18M132 18h6v6H132V18M150 18h6v6H150V18M168 18h6v6H168V18M192 18h6v6H192V18M210 18h6v6H210V18M222 18h6v6H222V18M234 18h6v6H234V18M258 18h6v6H258V18M270 18h6v6H270V18M288 18h6v6H288V18M294 18h6v6H294V18M324 18h6v6H324V18M342 18h6v6H342V18M372 18h6v6H372V18M378 18h6v6H378V18M390 18h6v6H390V18M408 18h6v6H408V18M420 18h6v6H420V18M432 18h6v6H432V18M438 18h6v6H438V18M444 18h6v6H444V18M456 18h6v6H456V18M0 24h6v6H0V24M12 24h6v6H12V24M18 24h6v6H18V24M24 24h6v6H24V24M36 24h6v6H36V24M48 24h6v6H48V24M54 24h6v6H54V24M60 24h6v6H60V24M66 24h6v6H66V24M78 24h6v6H78V24M84 24h6v6H84V24M90 24h6v6H90V24M96 24h6v6H96V24M102 24h6v6H102V24M108 24h6v6H108V24M114 24h6v6H114V24M138 24h6v6H138V24M144 24h6v6H144V24M150 24h6v6H150V24M156 24h6v6H156V24M162 24h6v6H162V24M168 24h6v6H168V24M174 24h6v6H174V24M192 24h6v6H192V24M198 24h6v6H198V24M204 24h6v6H204V24M222 24h6v6H222V24M240 24h6v6H240V24M252 24h6v6H252V24M276 24h6v6H276V24M282 24h6v6H282V24M288 24h6v6H288V24M294 24h6v6H294V24M300 24h6v6H300V24M306 24h6v6H306V24M342 24h6v6H342V24M366 24h6v6H366V24M384 24h6v6H384V24M390 24h6v6H390V24M396 24h6v6H396V24M402 24h6v6H402V24M408 24h6v6H408V24M420 24h6v6H420V24M432 24h6v6H432V24M438 24h6v6H438V24M444 24h6v6H444V24M456 24h6v6H456V24M0 30h6v6H0V30M36 30h6v6H36V30M48 30h6v6H48V30M78 30h6v6H78V30M84 30h6v6H84V30M96 30h6v6H96V30M102 30h6v6H102V30M108 30h6v6H108V30M120 30h6v6H120V30M132 30h6v6H132V30M138 30h6v6H138V30M144 30h6v6H144V30M168 30h6v6H168V30M174 30h6v6H174V30M198 30h6v6H198V30M204 30h6v6H204V30M210 30h6v6H210V30M216 30h6v6H216V30M228 30h6v6H228V30M234 30h6v6H234V30M252 30h6v6H252V30M258 30h6v6H258V30M264 30h6v6H264V30M276 30h6v6H276V30M300 30h6v6H300V30M336 30h6v6H336V30M342 30h6v6H342V30M360 30h6v6H360V30M366 30h6v6H366V30M378 30h6v6H378V30M396 30h6v6H396V30M420 30h6v6H420V30M456 30h6v6H456V30M0 36h6v6H0V36M6 36h6v6H6V36M12 36h6v6H12V36M18 36h6v6H18V36M24 36h6v6H24V36M30 36h6v6H30V36M36 36h6v6H36V36M48 36h6v6H48V36M60 36h6v6H60V36M72 36h6v6H72V36M84 36h6v6H84V36M96 36h6v6H96V36M108 36h6v6H108V36M120 36h6v6H120V36M132 36h6v6H132V36M144 36h6v6H144V36M156 36h6v6H156V36M168 36h6v6H168V36M180 36h6v6H180V36M192 36h6v6H192V36M204 36h6v6H204V36M216 36h6v6H216V36M228 36h6v6H228V36M240 36h6v6H240V36M252 36h6v6H252V36M264 36h6v6H264V36M276 36h6v6H276V36M288 36h6v6H288V36M300 36h6v6H300V36M312 36h6v6H312V36M324 36h6v6H324V36M336 36h6v6H336V36M348 36h6v6H348V36M360 36h6v6H360V36M372 36h6v6H372V36M384 36h6v6H384V36M396 36h6v6H396V36M408 36h6v6H408V36M420 36h6v6H420V36M426 36h6v6H426V36M432 36h6v6H432V36M438 36h6v6H438V36M444 36h6v6H444V36M450 36h6v6H450V36M456 36h6v6H456V36M48 42h6v6H48V42M54 42h6v6H54V42M66 42h6v6H66V42M72 42h6v6H72V42M78 42h6v6H78V42M108 42h6v6H108V42M120 42h6v6H120V42M126 42h6v6H126V42M138 42h6v6H138V42M144 42h6v6H144V42M168 42h6v6H168V42M174 42h6v6H174V42M180 42h6v6H180V42M198 42h6v6H198V42M234 42h6v6H234V42M240 42h6v6H240V42M246 42h6v6H246V42M258 42h6v6H258V42M276 42h6v6H276V42M300 42h6v6H300V42M318 42h6v6H318V42M324 42h6v6H324V42M330 42h6v6H330V42M336 42h6v6H336V42M342 42h6v6H342V42M354 42h6v6H354V42M360 42h6v6H360V42M366 42h6v6H366V42M372 42h6v6H372V42M384 42h6v6H384V42M396 42h6v6H396V42M408 42h6v6H408V42M0 48h6v6H0V48M12 48h6v6H12V48M18 48h6v6H18V48M24 48h6v6H24V48M30 48h6v6H30V48M36 48h6v6H36V48M78 48h6v6H78V48M102 48h6v6H102V48M108 48h6v6H108V48M120 48h6v6H120V48M126 48h6v6H126V48M132 48h6v6H132V48M138 48h6v6H138V48M144 48h6v6H144V48M150 48h6v6H150V48M156 48h6v6H156V48M162 48h6v6H162V48M168 48h6v6H168V48M180 48h6v6H180V48M222 48h6v6H222V48M234 48h6v6H234V48M240 48h6v6H240V48M276 48h6v6H276V48M282 48h6v6H282V48M288 48h6v6H288V48M294 48h6v6H294V48M300 48h6v6H300V48M324 48h6v6H324V48M330 48h6v6H330V48M342 48h6v6H342V48M348 48h6v6H348V48M354 48h6v6H354V48M360 48h6v6H360V48M378 48h6v6H378V48M402 48h6v6H402V48M420 48h6v6H420V48M426 48h6v6H426V48M432 48h6v6H432V48M438 48h6v6H438V48M444 48h6v6H444V48M0 54h6v6H0V54M6 54h6v6H6V54M12 54h6v6H12V54M18 54h6v6H18V54M24 54h6v6H24V54M42 54h6v6H42V54M60 54h6v6H60V54M90 54h6v6H90V54M96 54h6v6H96V54M114 54h6v6H114V54M120 54h6v6H120V54M150 54h6v6H150V54M168 54h6v6H168V54M174 54h6v6H174V54M198 54h6v6H198V54M216 54h6v6H216V54M222 54h6v6H222V54M234 54h6v6H234V54M240 54h6v6H240V54M252 54h6v6H252V54M258 54h6v6H258V54M282 54h6v6H282V54M288 54h6v6H288V54M294 54h6v6H294V54M300 54h6v6H300V54M306 54h6v6H306V54M324 54h6v6H324V54M330 54h6v6H330V54M336 54h6v6H336V54M366 54h6v6H366V54M378 54h6v6H378V54M384 54h6v6H384V54M396 54h6v6H396V54M402 54h6v6H402V54M414 54h6v6H414V54M420 54h6v6H420V54M432 54h6v6H432V54M450 54h6v6H450V54M456 54h6v6H456V54M12 60h6v6H12V60M18 60h6v6H18V60M36 60h6v6H36V60M60 60h6v6H60V60M66 60h6v6H66V60M78 60h6v6H78V60M84 60h6v6H84V60M90 60h6v6H90V60M96 60h6v6H96V60M102 60h6v6H102V60M108 60h6v6H108V60M114 60h6v6H114V60M126 60h6v6H126V60M138 60h6v6H138V60M150 60h6v6H150V60M156 60h6v6H156V60M180 60h6v6H180V60M192 60h6v6H192V60M216 60h6v6H216V60M222 60h6v6H222V60M234 60h6v6H234V60M240 60h6v6H240V60M246 60h6v6H246V60M252 60h6v6H252V60M270 60h6v6H270V60M282 60h6v6H282V60M288 60h6v6H288V60M300 60h6v6H300V60M318 60h6v6H318V60M336 60h6v6H336V60M342 60h6v6H342V60M348 60h6v6H348V60M360 60h6v6H360V60M366 60h6v6H366V60M378 60h6v6H378V60M390 60h6v6H390V60M402 60h6v6H402V60M420 60h6v6H420V60M426 60h6v6H426V60M432 60h6v6H432V60M444 60h6v6H444V60M450 60h6v6H450V60M456 60h6v6H456V60M0 66h6v6H0V66M24 66h6v6H24V66M42 66h6v6H42V66M48 66h6v6H48V66M54 66h6v6H54V66M66 66h6v6H66V66M72 66h6v6H72V66M78 66h6v6H78V66M84 66h6v6H84V66M96 66h6v6H96V66M102 66h6v6H102V66M108 66h6v6H108V66M114 66h6v6H114V66M132 66h6v6H132V66M138 66h6v6H138V66M144 66h6v6H144V66M150 66h6v6H150V66M156 66h6v6H156V66M168 66h6v6H168V66M174 66h6v6H174V66M180 66h6v6H180V66M204 66h6v6H204V66M210 66h6v6H210V66M216 66h6v6H216V66M222 66h6v6H222V66M228 66h6v6H228V66M240 66h6v6H240V66M246 66h6v6H246V66M258 66h6v6H258V66M270 66h6v6H270V66M276 66h6v6H276V66M288 66h6v6H288V66M306 66h6v6H306V66M312 66h6v6H312V66M318 66h6v6H318V66M324 66h6v6H324V66M348 66h6v6H348V66M354 66h6v6H354V66M360 66h6v6H360V66M378 66h6v6H378V66M384 66h6v6H384V66M396 66h6v6H396V66M402 66h6v6H402V66M414 66h6v6H414V66M444 66h6v6H444V66M450 66h6v6H450V66M0 72h6v6H0V72M6 72h6v6H6V72M18 72h6v6H18V72M24 72h6v6H24V72M30 72h6v6H30V72M36 72h6v6H36V72M60 72h6v6H60V72M72 72h6v6H72V72M90 72h6v6H90V72M96 72h6v6H96V72M102 72h6v6H102V72M108 72h6v6H108V72M120 72h6v6H120V72M138 72h6v6H138V72M144 72h6v6H144V72M168 72h6v6H168V72M174 72h6v6H174V72M186 72h6v6H186V72M192 72h6v6H192V72M198 72h6v6H198V72M210 72h6v6H210V72M240 72h6v6H240V72M270 72h6v6H270V72M282 72h6v6H282V72M318 72h6v6H318V72M324 72h6v6H324V72M330 72h6v6H330V72M348 72h6v6H348V72M354 72h6v6H354V72M360 72h6v6H360V72M378 72h6v6H378V72M396 72h6v6H396V72M450 72h6v6H450V72M42 78h6v6H42V78M54 78h6v6H54V78M60 78h6v6H60V78M66 78h6v6H66V78M72 78h6v6H72V78M78 78h6v6H78V78M96 78h6v6H96V78M108 78h6v6H108V78M114 78h6v6H114V78M120 78h6v6H120V78M126 78h6v6H126V78M138 78h6v6H138V78M162 78h6v6H162V78M168 78h6v6H168V78M180 78h6v6H180V78M186 78h6v6H186V78M216 78h6v6H216V78M222 78h6v6H222V78M234 78h6v6H234V78M258 78h6v6H258V78M270 78h6v6H270V78M300 78h6v6H300V78M312 78h6v6H312V78M324 78h6v6H324V78M366 78h6v6H366V78M384 78h6v6H384V78M390 78h6v6H390V78M396 78h6v6H396V78M414 78h6v6H414V78M432 78h6v6H432V78M6 84h6v6H6V84M18 84h6v6H18V84M24 84h6v6H24V84M36 84h6v6H36V84M42 84h6v6H42V84M48 84h6v6H48V84M66 84h6v6H66V84M72 84h6v6H72V84M78 84h6v6H78V84M84 84h6v6H84V84M90 84h6v6H90V84M102 84h6v6H102V84M114 84h6v6H114V84M132 84h6v6H132V84M156 84h6v6H156V84M168 84h6v6H168V84M192 84h6v6H192V84M198 84h6v6H198V84M210 84h6v6H210V84M222 84h6v6H222V84M246 84h6v6H246V84M258 84h6v6H258V84M270 84h6v6H270V84M312 84h6v6H312V84M318 84h6v6H318V84M330 84h6v6H330V84M336 84h6v6H336V84M342 84h6v6H342V84M360 84h6v6H360V84M378 84h6v6H378V84M384 84h6v6H384V84M396 84h6v6H396V84M426 84h6v6H426V84M432 84h6v6H432V84M444 84h6v6H444V84M450 84h6v6H450V84M456 84h6v6H456V84M0 90h6v6H0V90M6 90h6v6H6V90M30 90h6v6H30V90M42 90h6v6H42V90M66 90h6v6H66V90M72 90h6v6H72V90M78 90h6v6H78V90M84 90h6v6H84V90M96 90h6v6H96V90M114 90h6v6H114V90M120 90h6v6H120V90M144 90h6v6H144V90M150 90h6v6H150V90M168 90h6v6H168V90M180 90h6v6H180V90M210 90h6v6H210V90M216 90h6v6H216V90M222 90h6v6H222V90M228 90h6v6H228V90M234 90h6v6H234V90M240 90h6v6H240V90M252 90h6v6H252V90M264 90h6v6H264V90M282 90h6v6H282V90M288 90h6v6H288V90M294 90h6v6H294V90M300 90h6v6H300V90M306 90h6v6H306V90M312 90h6v6H312V90M318 90h6v6H318V90M324 90h6v6H324V90M336 90h6v6H336V90M348 90h6v6H348V90M354 90h6v6H354V90M378 90h6v6H378V90M396 90h6v6H396V90M402 90h6v6H402V90M408 90h6v6H408V90M414 90h6v6H414V90M420 90h6v6H420V90M426 90h6v6H426V90M438 90h6v6H438V90M450 90h6v6H450V90M6 96h6v6H6V96M18 96h6v6H18V96M24 96h6v6H24V96M30 96h6v6H30V96M36 96h6v6H36V96M60 96h6v6H60V96M66 96h6v6H66V96M78 96h6v6H78V96M90 96h6v6H90V96M126 96h6v6H126V96M138 96h6v6H138V96M156 96h6v6H156V96M162 96h6v6H162V96M168 96h6v6H168V96M174 96h6v6H174V96M180 96h6v6H180V96M186 96h6v6H186V96M198 96h6v6H198V96M204 96h6v6H204V96M216 96h6v6H216V96M234 96h6v6H234V96M240 96h6v6H240V96M264 96h6v6H264V96M276 96h6v6H276V96M282 96h6v6H282V96M300 96h6v6H300V96M318 96h6v6H318V96M324 96h6v6H324V96M330 96h6v6H330V96M354 96h6v6H354V96M360 96h6v6H360V96M366 96h6v6H366V96M372 96h6v6H372V96M396 96h6v6H396V96M408 96h6v6H408V96M414 96h6v6H414V96M420 96h6v6H420V96M438 96h6v6H438V96M450 96h6v6H450V96M18 102h6v6H18V102M24 102h6v6H24V102M30 102h6v6H30V102M60 102h6v6H60V102M66 102h6v6H66V102M72 102h6v6H72V102M84 102h6v6H84V102M90 102h6v6H90V102M108 102h6v6H108V102M120 102h6v6H120V102M126 102h6v6H126V102M132 102h6v6H132V102M138 102h6v6H138V102M162 102h6v6H162V102M180 102h6v6H180V102M228 102h6v6H228V102M234 102h6v6H234V102M246 102h6v6H246V102M264 102h6v6H264V102M288 102h6v6H288V102M306 102h6v6H306V102M312 102h6v6H312V102M318 102h6v6H318V102M324 102h6v6H324V102M336 102h6v6H336V102M354 102h6v6H354V102M360 102h6v6H360V102M366 102h6v6H366V102M378 102h6v6H378V102M384 102h6v6H384V102M408 102h6v6H408V102M414 102h6v6H414V102M420 102h6v6H420V102M444 102h6v6H444V102M450 102h6v6H450V102M456 102h6v6H456V102M0 108h6v6H0V108M6 108h6v6H6V108M12 108h6v6H12V108M18 108h6v6H18V108M30 108h6v6H30V108M36 108h6v6H36V108M42 108h6v6H42V108M54 108h6v6H54V108M60 108h6v6H60V108M78 108h6v6H78V108M90 108h6v6H90V108M102 108h6v6H102V108M126 108h6v6H126V108M132 108h6v6H132V108M138 108h6v6H138V108M144 108h6v6H144V108M150 108h6v6H150V108M162 108h6v6H162V108M174 108h6v6H174V108M180 108h6v6H180V108M186 108h6v6H186V108M192 108h6v6H192V108M210 108h6v6H210V108M216 108h6v6H216V108M222 108h6v6H222V108M258 108h6v6H258V108M264 108h6v6H264V108M270 108h6v6H270V108M276 108h6v6H276V108M294 108h6v6H294V108M306 108h6v6H306V108M324 108h6v6H324V108M330 108h6v6H330V108M342 108h6v6H342V108M360 108h6v6H360V108M378 108h6v6H378V108M390 108h6v6H390V108M396 108h6v6H396V108M402 108h6v6H402V108M414 108h6v6H414V108M420 108h6v6H420V108M426 108h6v6H426V108M432 108h6v6H432V108M438 108h6v6H438V108M444 108h6v6H444V108M450 108h6v6H450V108M0 114h6v6H0V114M6 114h6v6H6V114M12 114h6v6H12V114M18 114h6v6H18V114M30 114h6v6H30V114M60 114h6v6H60V114M66 114h6v6H66V114M78 114h6v6H78V114M84 114h6v6H84V114M90 114h6v6H90V114M96 114h6v6H96V114M102 114h6v6H102V114M114 114h6v6H114V114M120 114h6v6H120V114M132 114h6v6H132V114M138 114h6v6H138V114M150 114h6v6H150V114M174 114h6v6H174V114M192 114h6v6H192V114M198 114h6v6H198V114M204 114h6v6H204V114M210 114h6v6H210V114M216 114h6v6H216V114M222 114h6v6H222V114M228 114h6v6H228V114M258 114h6v6H258V114M270 114h6v6H270V114M288 114h6v6H288V114M300 114h6v6H300V114M306 114h6v6H306V114M330 114h6v6H330V114M336 114h6v6H336V114M342 114h6v6H342V114M354 114h6v6H354V114M384 114h6v6H384V114M390 114h6v6H390V114M456 114h6v6H456V114M12 120h6v6H12V120M30 120h6v6H30V120M36 120h6v6H36V120M42 120h6v6H42V120M54 120h6v6H54V120M60 120h6v6H60V120M72 120h6v6H72V120M78 120h6v6H78V120M84 120h6v6H84V120M96 120h6v6H96V120M102 120h6v6H102V120M114 120h6v6H114V120M132 120h6v6H132V120M150 120h6v6H150V120M180 120h6v6H180V120M186 120h6v6H186V120M240 120h6v6H240V120M252 120h6v6H252V120M258 120h6v6H258V120M264 120h6v6H264V120M270 120h6v6H270V120M282 120h6v6H282V120M288 120h6v6H288V120M294 120h6v6H294V120M300 120h6v6H300V120M306 120h6v6H306V120M348 120h6v6H348V120M360 120h6v6H360V120M366 120h6v6H366V120M378 120h6v6H378V120M390 120h6v6H390V120M408 120h6v6H408V120M414 120h6v6H414V120M426 120h6v6H426V120M432 120h6v6H432V120M444 120h6v6H444V120M24 126h6v6H24V126M30 126h6v6H30V126M42 126h6v6H42V126M60 126h6v6H60V126M66 126h6v6H66V126M90 126h6v6H90V126M150 126h6v6H150V126M156 126h6v6H156V126M162 126h6v6H162V126M174 126h6v6H174V126M186 126h6v6H186V126M192 126h6v6H192V126M198 126h6v6H198V126M204 126h6v6H204V126M216 126h6v6H216V126M228 126h6v6H228V126M234 126h6v6H234V126M240 126h6v6H240V126M264 126h6v6H264V126M270 126h6v6H270V126M282 126h6v6H282V126M300 126h6v6H300V126M306 126h6v6H306V126M318 126h6v6H318V126M324 126h6v6H324V126M366 126h6v6H366V126M414 126h6v6H414V126M420 126h6v6H420V126M432 126h6v6H432V126M438 126h6v6H438V126M444 126h6v6H444V126M450 126h6v6H450V126M0 132h6v6H0V132M18 132h6v6H18V132M24 132h6v6H24V132M30 132h6v6H30V132M36 132h6v6H36V132M48 132h6v6H48V132M54 132h6v6H54V132M60 132h6v6H60V132M66 132h6v6H66V132M90 132h6v6H90V132M126 132h6v6H126V132M138 132h6v6H138V132M144 132h6v6H144V132M150 132h6v6H150V132M162 132h6v6H162V132M174 132h6v6H174V132M192 132h6v6H192V132M210 132h6v6H210V132M216 132h6v6H216V132M234 132h6v6H234V132M246 132h6v6H246V132M252 132h6v6H252V132M264 132h6v6H264V132M276 132h6v6H276V132M288 132h6v6H288V132M300 132h6v6H300V132M306 132h6v6H306V132M312 132h6v6H312V132M324 132h6v6H324V132M330 132h6v6H330V132M336 132h6v6H336V132M342 132h6v6H342V132M360 132h6v6H360V132M366 132h6v6H366V132M372 132h6v6H372V132M378 132h6v6H378V132M384 132h6v6H384V132M426 132h6v6H426V132M432 132h6v6H432V132M444 132h6v6H444V132M450 132h6v6H450V132M0 138h6v6H0V138M18 138h6v6H18V138M24 138h6v6H24V138M42 138h6v6H42V138M54 138h6v6H54V138M60 138h6v6H60V138M72 138h6v6H72V138M78 138h6v6H78V138M96 138h6v6H96V138M102 138h6v6H102V138M108 138h6v6H108V138M114 138h6v6H114V138M120 138h6v6H120V138M144 138h6v6H144V138M150 138h6v6H150V138M156 138h6v6H156V138M168 138h6v6H168V138M174 138h6v6H174V138M180 138h6v6H180V138M228 138h6v6H228V138M246 138h6v6H246V138M264 138h6v6H264V138M270 138h6v6H270V138M282 138h6v6H282V138M288 138h6v6H288V138M294 138h6v6H294V138M300 138h6v6H300V138M306 138h6v6H306V138M312 138h6v6H312V138M318 138h6v6H318V138M342 138h6v6H342V138M348 138h6v6H348V138M366 138h6v6H366V138M378 138h6v6H378V138M384 138h6v6H384V138M396 138h6v6H396V138M414 138h6v6H414V138M420 138h6v6H420V138M438 138h6v6H438V138M456 138h6v6H456V138M6 144h6v6H6V144M12 144h6v6H12V144M24 144h6v6H24V144M30 144h6v6H30V144M36 144h6v6H36V144M42 144h6v6H42V144M48 144h6v6H48V144M60 144h6v6H60V144M66 144h6v6H66V144M72 144h6v6H72V144M84 144h6v6H84V144M114 144h6v6H114V144M120 144h6v6H120V144M132 144h6v6H132V144M144 144h6v6H144V144M150 144h6v6H150V144M156 144h6v6H156V144M162 144h6v6H162V144M168 144h6v6H168V144M180 144h6v6H180V144M186 144h6v6H186V144M192 144h6v6H192V144M210 144h6v6H210V144M216 144h6v6H216V144M228 144h6v6H228V144M234 144h6v6H234V144M240 144h6v6H240V144M258 144h6v6H258V144M270 144h6v6H270V144M276 144h6v6H276V144M282 144h6v6H282V144M288 144h6v6H288V144M294 144h6v6H294V144M300 144h6v6H300V144M306 144h6v6H306V144M336 144h6v6H336V144M342 144h6v6H342V144M354 144h6v6H354V144M360 144h6v6H360V144M390 144h6v6H390V144M396 144h6v6H396V144M408 144h6v6H408V144M414 144h6v6H414V144M420 144h6v6H420V144M426 144h6v6H426V144M432 144h6v6H432V144M450 144h6v6H450V144M456 144h6v6H456V144M0 150h6v6H0V150M12 150h6v6H12V150M24 150h6v6H24V150M48 150h6v6H48V150M54 150h6v6H54V150M66 150h6v6H66V150M114 150h6v6H114V150M126 150h6v6H126V150M138 150h6v6H138V150M144 150h6v6H144V150M168 150h6v6H168V150M192 150h6v6H192V150M198 150h6v6H198V150M204 150h6v6H204V150M210 150h6v6H210V150M216 150h6v6H216V150M222 150h6v6H222V150M228 150h6v6H228V150M234 150h6v6H234V150M240 150h6v6H240V150M246 150h6v6H246V150M264 150h6v6H264V150M276 150h6v6H276V150M300 150h6v6H300V150M318 150h6v6H318V150M324 150h6v6H324V150M330 150h6v6H330V150M342 150h6v6H342V150M354 150h6v6H354V150M360 150h6v6H360V150M402 150h6v6H402V150M408 150h6v6H408V150M432 150h6v6H432V150M438 150h6v6H438V150M456 150h6v6H456V150M24 156h6v6H24V156M36 156h6v6H36V156M48 156h6v6H48V156M54 156h6v6H54V156M60 156h6v6H60V156M66 156h6v6H66V156M72 156h6v6H72V156M84 156h6v6H84V156M90 156h6v6H90V156M96 156h6v6H96V156M108 156h6v6H108V156M114 156h6v6H114V156M120 156h6v6H120V156M126 156h6v6H126V156M132 156h6v6H132V156M144 156h6v6H144V156M156 156h6v6H156V156M168 156h6v6H168V156M186 156h6v6H186V156M192 156h6v6H192V156M216 156h6v6H216V156M240 156h6v6H240V156M246 156h6v6H246V156M252 156h6v6H252V156M258 156h6v6H258V156M264 156h6v6H264V156M276 156h6v6H276V156M288 156h6v6H288V156M300 156h6v6H300V156M306 156h6v6H306V156M318 156h6v6H318V156M324 156h6v6H324V156M330 156h6v6H330V156M348 156h6v6H348V156M354 156h6v6H354V156M360 156h6v6H360V156M366 156h6v6H366V156M384 156h6v6H384V156M408 156h6v6H408V156M420 156h6v6H420V156M432 156h6v6H432V156M438 156h6v6H438V156M0 162h6v6H0V162M24 162h6v6H24V162M48 162h6v6H48V162M54 162h6v6H54V162M60 162h6v6H60V162M78 162h6v6H78V162M90 162h6v6H90V162M96 162h6v6H96V162M108 162h6v6H108V162M144 162h6v6H144V162M168 162h6v6H168V162M180 162h6v6H180V162M192 162h6v6H192V162M198 162h6v6H198V162M204 162h6v6H204V162M216 162h6v6H216V162M264 162h6v6H264V162M270 162h6v6H270V162M276 162h6v6H276V162M300 162h6v6H300V162M312 162h6v6H312V162M318 162h6v6H318V162M324 162h6v6H324V162M336 162h6v6H336V162M360 162h6v6H360V162M390 162h6v6H390V162M396 162h6v6H396V162M408 162h6v6H408V162M432 162h6v6H432V162M438 162h6v6H438V162M450 162h6v6H450V162M0 168h6v6H0V168M24 168h6v6H24V168M30 168h6v6H30V168M36 168h6v6H36V168M42 168h6v6H42V168M48 168h6v6H48V168M54 168h6v6H54V168M66 168h6v6H66V168M84 168h6v6H84V168M90 168h6v6H90V168M108 168h6v6H108V168M114 168h6v6H114V168M126 168h6v6H126V168M138 168h6v6H138V168M144 168h6v6H144V168M150 168h6v6H150V168M156 168h6v6H156V168M162 168h6v6H162V168M168 168h6v6H168V168M192 168h6v6H192V168M198 168h6v6H198V168M210 168h6v6H210V168M216 168h6v6H216V168M240 168h6v6H240V168M246 168h6v6H246V168M252 168h6v6H252V168M258 168h6v6H258V168M270 168h6v6H270V168M276 168h6v6H276V168M282 168h6v6H282V168M288 168h6v6H288V168M294 168h6v6H294V168M300 168h6v6H300V168M306 168h6v6H306V168M330 168h6v6H330V168M348 168h6v6H348V168M354 168h6v6H354V168M360 168h6v6H360V168M372 168h6v6H372V168M390 168h6v6H390V168M396 168h6v6H396V168M402 168h6v6H402V168M408 168h6v6H408V168M414 168h6v6H414V168M420 168h6v6H420V168M426 168h6v6H426V168M432 168h6v6H432V168M450 168h6v6H450V168M456 168h6v6H456V168M6 174h6v6H6V174M12 174h6v6H12V174M30 174h6v6H30V174M42 174h6v6H42V174M54 174h6v6H54V174M84 174h6v6H84V174M120 174h6v6H120V174M126 174h6v6H126V174M132 174h6v6H132V174M150 174h6v6H150V174M156 174h6v6H156V174M168 174h6v6H168V174M174 174h6v6H174V174M186 174h6v6H186V174M192 174h6v6H192V174M204 174h6v6H204V174M216 174h6v6H216V174M228 174h6v6H228V174M252 174h6v6H252V174M276 174h6v6H276V174M282 174h6v6H282V174M294 174h6v6H294V174M300 174h6v6H300V174M312 174h6v6H312V174M318 174h6v6H318V174M324 174h6v6H324V174M336 174h6v6H336V174M420 174h6v6H420V174M432 174h6v6H432V174M438 174h6v6H438V174M450 174h6v6H450V174M0 180h6v6H0V180M6 180h6v6H6V180M30 180h6v6H30V180M36 180h6v6H36V180M42 180h6v6H42V180M48 180h6v6H48V180M66 180h6v6H66V180M84 180h6v6H84V180M96 180h6v6H96V180M102 180h6v6H102V180M114 180h6v6H114V180M120 180h6v6H120V180M132 180h6v6H132V180M144 180h6v6H144V180M150 180h6v6H150V180M156 180h6v6H156V180M162 180h6v6H162V180M168 180h6v6H168V180M174 180h6v6H174V180M180 180h6v6H180V180M192 180h6v6H192V180M222 180h6v6H222V180M234 180h6v6H234V180M240 180h6v6H240V180M246 180h6v6H246V180M270 180h6v6H270V180M324 180h6v6H324V180M330 180h6v6H330V180M336 180h6v6H336V180M342 180h6v6H342V180M354 180h6v6H354V180M372 180h6v6H372V180M384 180h6v6H384V180M390 180h6v6H390V180M396 180h6v6H396V180M408 180h6v6H408V180M426 180h6v6H426V180M438 180h6v6H438V180M444 180h6v6H444V180M6 186h6v6H6V186M12 186h6v6H12V186M24 186h6v6H24V186M48 186h6v6H48V186M72 186h6v6H72V186M78 186h6v6H78V186M102 186h6v6H102V186M108 186h6v6H108V186M120 186h6v6H120V186M126 186h6v6H126V186M138 186h6v6H138V186M180 186h6v6H180V186M198 186h6v6H198V186M204 186h6v6H204V186M216 186h6v6H216V186M234 186h6v6H234V186M246 186h6v6H246V186M258 186h6v6H258V186M276 186h6v6H276V186M300 186h6v6H300V186M306 186h6v6H306V186M312 186h6v6H312V186M336 186h6v6H336V186M342 186h6v6H342V186M348 186h6v6H348V186M360 186h6v6H360V186M366 186h6v6H366V186M372 186h6v6H372V186M378 186h6v6H378V186M426 186h6v6H426V186M438 186h6v6H438V186M450 186h6v6H450V186M456 186h6v6H456V186M6 192h6v6H6V192M30 192h6v6H30V192M36 192h6v6H36V192M42 192h6v6H42V192M48 192h6v6H48V192M60 192h6v6H60V192M66 192h6v6H66V192M72 192h6v6H72V192M90 192h6v6H90V192M96 192h6v6H96V192M108 192h6v6H108V192M114 192h6v6H114V192M132 192h6v6H132V192M138 192h6v6H138V192M156 192h6v6H156V192M168 192h6v6H168V192M186 192h6v6H186V192M192 192h6v6H192V192M198 192h6v6H198V192M204 192h6v6H204V192M210 192h6v6H210V192M228 192h6v6H228V192M258 192h6v6H258V192M264 192h6v6H264V192M288 192h6v6H288V192M294 192h6v6H294V192M300 192h6v6H300V192M360 192h6v6H360V192M390 192h6v6H390V192M402 192h6v6H402V192M408 192h6v6H408V192M414 192h6v6H414V192M420 192h6v6H420V192M426 192h6v6H426V192M432 192h6v6H432V192M438 192h6v6H438V192M450 192h6v6H450V192M456 192h6v6H456V192M6 198h6v6H6V198M12 198h6v6H12V198M24 198h6v6H24V198M48 198h6v6H48V198M54 198h6v6H54V198M60 198h6v6H60V198M72 198h6v6H72V198M78 198h6v6H78V198M90 198h6v6H90V198M96 198h6v6H96V198M108 198h6v6H108V198M114 198h6v6H114V198M120 198h6v6H120V198M126 198h6v6H126V198M204 198h6v6H204V198M222 198h6v6H222V198M234 198h6v6H234V198M246 198h6v6H246V198M282 198h6v6H282V198M294 198h6v6H294V198M312 198h6v6H312V198M318 198h6v6H318V198M324 198h6v6H324V198M336 198h6v6H336V198M354 198h6v6H354V198M372 198h6v6H372V198M384 198h6v6H384V198M390 198h6v6H390V198M396 198h6v6H396V198M432 198h6v6H432V198M438 198h6v6H438V198M444 198h6v6H444V198M0 204h6v6H0V204M12 204h6v6H12V204M24 204h6v6H24V204M36 204h6v6H36V204M78 204h6v6H78V204M90 204h6v6H90V204M108 204h6v6H108V204M114 204h6v6H114V204M120 204h6v6H120V204M126 204h6v6H126V204M138 204h6v6H138V204M144 204h6v6H144V204M156 204h6v6H156V204M174 204h6v6H174V204M180 204h6v6H180V204M186 204h6v6H186V204M198 204h6v6H198V204M204 204h6v6H204V204M210 204h6v6H210V204M228 204h6v6H228V204M234 204h6v6H234V204M252 204h6v6H252V204M270 204h6v6H270V204M288 204h6v6H288V204M294 204h6v6H294V204M300 204h6v6H300V204M312 204h6v6H312V204M336 204h6v6H336V204M342 204h6v6H342V204M360 204h6v6H360V204M366 204h6v6H366V204M372 204h6v6H372V204M378 204h6v6H378V204M384 204h6v6H384V204M396 204h6v6H396V204M408 204h6v6H408V204M414 204h6v6H414V204M432 204h6v6H432V204M444 204h6v6H444V204M0 210h6v6H0V210M6 210h6v6H6V210M30 210h6v6H30V210M54 210h6v6H54V210M78 210h6v6H78V210M84 210h6v6H84V210M90 210h6v6H90V210M96 210h6v6H96V210M102 210h6v6H102V210M126 210h6v6H126V210M132 210h6v6H132V210M138 210h6v6H138V210M156 210h6v6H156V210M162 210h6v6H162V210M168 210h6v6H168V210M174 210h6v6H174V210M186 210h6v6H186V210M210 210h6v6H210V210M222 210h6v6H222V210M258 210h6v6H258V210M270 210h6v6H270V210M276 210h6v6H276V210M300 210h6v6H300V210M312 210h6v6H312V210M318 210h6v6H318V210M324 210h6v6H324V210M330 210h6v6H330V210M336 210h6v6H336V210M354 210h6v6H354V210M360 210h6v6H360V210M396 210h6v6H396V210M438 210h6v6H438V210M450 210h6v6H450V210M0 216h6v6H0V216M12 216h6v6H12V216M30 216h6v6H30V216M36 216h6v6H36V216M60 216h6v6H60V216M72 216h6v6H72V216M78 216h6v6H78V216M84 216h6v6H84V216M90 216h6v6H90V216M102 216h6v6H102V216M108 216h6v6H108V216M120 216h6v6H120V216M138 216h6v6H138V216M144 216h6v6H144V216M150 216h6v6H150V216M192 216h6v6H192V216M198 216h6v6H198V216M216 216h6v6H216V216M258 216h6v6H258V216M270 216h6v6H270V216M276 216h6v6H276V216M288 216h6v6H288V216M294 216h6v6H294V216M300 216h6v6H300V216M312 216h6v6H312V216M318 216h6v6H318V216M342 216h6v6H342V216M360 216h6v6H360V216M366 216h6v6H366V216M396 216h6v6H396V216M408 216h6v6H408V216M414 216h6v6H414V216M420 216h6v6H420V216M426 216h6v6H426V216M432 216h6v6H432V216M438 216h6v6H438V216M450 216h6v6H450V216M12 222h6v6H12V222M18 222h6v6H18V222M48 222h6v6H48V222M54 222h6v6H54V222M60 222h6v6H60V222M108 222h6v6H108V222M114 222h6v6H114V222M120 222h6v6H120V222M150 222h6v6H150V222M156 222h6v6H156V222M168 222h6v6H168V222M174 222h6v6H174V222M192 222h6v6H192V222M198 222h6v6H198V222M204 222h6v6H204V222M210 222h6v6H210V222M216 222h6v6H216V222M228 222h6v6H228V222M246 222h6v6H246V222M252 222h6v6H252V222M288 222h6v6H288V222M294 222h6v6H294V222M306 222h6v6H306V222M318 222h6v6H318V222M324 222h6v6H324V222M330 222h6v6H330V222M336 222h6v6H336V222M342 222h6v6H342V222M348 222h6v6H348V222M378 222h6v6H378V222M432 222h6v6H432V222M438 222h6v6H438V222M456 222h6v6H456V222M12 228h6v6H12V228M36 228h6v6H36V228M60 228h6v6H60V228M66 228h6v6H66V228M84 228h6v6H84V228M96 228h6v6H96V228M102 228h6v6H102V228M108 228h6v6H108V228M120 228h6v6H120V228M126 228h6v6H126V228M132 228h6v6H132V228M180 228h6v6H180V228M198 228h6v6H198V228M210 228h6v6H210V228M216 228h6v6H216V228M222 228h6v6H222V228M228 228h6v6H228V228M234 228h6v6H234V228M240 228h6v6H240V228M246 228h6v6H246V228M252 228h6v6H252V228M258 228h6v6H258V228M264 228h6v6H264V228M276 228h6v6H276V228M288 228h6v6H288V228M294 228h6v6H294V228M324 228h6v6H324V228M348 228h6v6H348V228M360 228h6v6H360V228M372 228h6v6H372V228M378 228h6v6H378V228M384 228h6v6H384V228M402 228h6v6H402V228M408 228h6v6H408V228M426 228h6v6H426V228M432 228h6v6H432V228M450 228h6v6H450V228M0 234h6v6H0V234M12 234h6v6H12V234M18 234h6v6H18V234M30 234h6v6H30V234M48 234h6v6H48V234M72 234h6v6H72V234M78 234h6v6H78V234M102 234h6v6H102V234M114 234h6v6H114V234M120 234h6v6H120V234M144 234h6v6H144V234M150 234h6v6H150V234M168 234h6v6H168V234M174 234h6v6H174V234M180 234h6v6H180V234M186 234h6v6H186V234M204 234h6v6H204V234M222 234h6v6H222V234M228 234h6v6H228V234M234 234h6v6H234V234M264 234h6v6H264V234M270 234h6v6H270V234M276 234h6v6H276V234M288 234h6v6H288V234M300 234h6v6H300V234M306 234h6v6H306V234M312 234h6v6H312V234M318 234h6v6H318V234M336 234h6v6H336V234M354 234h6v6H354V234M366 234h6v6H366V234M372 234h6v6H372V234M378 234h6v6H378V234M402 234h6v6H402V234M408 234h6v6H408V234M414 234h6v6H414V234M420 234h6v6H420V234M432 234h6v6H432V234M438 234h6v6H438V234M450 234h6v6H450V234M6 240h6v6H6V240M24 240h6v6H24V240M30 240h6v6H30V240M36 240h6v6H36V240M48 240h6v6H48V240M72 240h6v6H72V240M78 240h6v6H78V240M84 240h6v6H84V240M90 240h6v6H90V240M96 240h6v6H96V240M102 240h6v6H102V240M108 240h6v6H108V240M120 240h6v6H120V240M138 240h6v6H138V240M144 240h6v6H144V240M156 240h6v6H156V240M162 240h6v6H162V240M180 240h6v6H180V240M186 240h6v6H186V240M192 240h6v6H192V240M198 240h6v6H198V240M228 240h6v6H228V240M240 240h6v6H240V240M258 240h6v6H258V240M276 240h6v6H276V240M282 240h6v6H282V240M288 240h6v6H288V240M300 240h6v6H300V240M318 240h6v6H318V240M330 240h6v6H330V240M348 240h6v6H348V240M360 240h6v6H360V240M366 240h6v6H366V240M372 240h6v6H372V240M396 240h6v6H396V240M408 240h6v6H408V240M426 240h6v6H426V240M432 240h6v6H432V240M450 240h6v6H450V240M456 240h6v6H456V240M12 246h6v6H12V246M18 246h6v6H18V246M30 246h6v6H30V246M54 246h6v6H54V246M72 246h6v6H72V246M78 246h6v6H78V246M102 246h6v6H102V246M108 246h6v6H108V246M120 246h6v6H120V246M126 246h6v6H126V246M150 246h6v6H150V246M162 246h6v6H162V246M222 246h6v6H222V246M228 246h6v6H228V246M234 246h6v6H234V246M240 246h6v6H240V246M246 246h6v6H246V246M252 246h6v6H252V246M264 246h6v6H264V246M288 246h6v6H288V246M300 246h6v6H300V246M306 246h6v6H306V246M312 246h6v6H312V246M318 246h6v6H318V246M324 246h6v6H324V246M330 246h6v6H330V246M336 246h6v6H336V246M342 246h6v6H342V246M348 246h6v6H348V246M354 246h6v6H354V246M360 246h6v6H360V246M378 246h6v6H378V246M384 246h6v6H384V246M390 246h6v6H390V246M396 246h6v6H396V246M414 246h6v6H414V246M426 246h6v6H426V246M432 246h6v6H432V246M438 246h6v6H438V246M450 246h6v6H450V246M456 246h6v6H456V246M30 252h6v6H30V252M36 252h6v6H36V252M54 252h6v6H54V252M66 252h6v6H66V252M72 252h6v6H72V252M78 252h6v6H78V252M84 252h6v6H84V252M108 252h6v6H108V252M114 252h6v6H114V252M120 252h6v6H120V252M138 252h6v6H138V252M144 252h6v6H144V252M168 252h6v6H168V252M174 252h6v6H174V252M180 252h6v6H180V252M240 252h6v6H240V252M246 252h6v6H246V252M252 252h6v6H252V252M258 252h6v6H258V252M276 252h6v6H276V252M282 252h6v6H282V252M294 252h6v6H294V252M330 252h6v6H330V252M342 252h6v6H342V252M348 252h6v6H348V252M384 252h6v6H384V252M396 252h6v6H396V252M402 252h6v6H402V252M414 252h6v6H414V252M444 252h6v6H444V252M450 252h6v6H450V252M456 252h6v6H456V252M6 258h6v6H6V258M12 258h6v6H12V258M24 258h6v6H24V258M42 258h6v6H42V258M48 258h6v6H48V258M54 258h6v6H54V258M60 258h6v6H60V258M66 258h6v6H66V258M84 258h6v6H84V258M114 258h6v6H114V258M120 258h6v6H120V258M126 258h6v6H126V258M144 258h6v6H144V258M156 258h6v6H156V258M174 258h6v6H174V258M180 258h6v6H180V258M192 258h6v6H192V258M198 258h6v6H198V258M210 258h6v6H210V258M216 258h6v6H216V258M222 258h6v6H222V258M234 258h6v6H234V258M240 258h6v6H240V258M246 258h6v6H246V258M264 258h6v6H264V258M270 258h6v6H270V258M288 258h6v6H288V258M294 258h6v6H294V258M300 258h6v6H300V258M306 258h6v6H306V258M312 258h6v6H312V258M324 258h6v6H324V258M336 258h6v6H336V258M372 258h6v6H372V258M378 258h6v6H378V258M384 258h6v6H384V258M408 258h6v6H408V258M426 258h6v6H426V258M444 258h6v6H444V258M450 258h6v6H450V258M456 258h6v6H456V258M0 264h6v6H0V264M12 264h6v6H12V264M30 264h6v6H30V264M36 264h6v6H36V264M42 264h6v6H42V264M54 264h6v6H54V264M60 264h6v6H60V264M66 264h6v6H66V264M72 264h6v6H72V264M78 264h6v6H78V264M84 264h6v6H84V264M90 264h6v6H90V264M96 264h6v6H96V264M114 264h6v6H114V264M120 264h6v6H120V264M126 264h6v6H126V264M150 264h6v6H150V264M156 264h6v6H156V264M168 264h6v6H168V264M186 264h6v6H186V264M204 264h6v6H204V264M228 264h6v6H228V264M234 264h6v6H234V264M252 264h6v6H252V264M258 264h6v6H258V264M276 264h6v6H276V264M282 264h6v6H282V264M324 264h6v6H324V264M348 264h6v6H348V264M378 264h6v6H378V264M384 264h6v6H384V264M420 264h6v6H420V264M432 264h6v6H432V264M444 264h6v6H444V264M12 270h6v6H12V270M24 270h6v6H24V270M30 270h6v6H30V270M48 270h6v6H48V270M54 270h6v6H54V270M60 270h6v6H60V270M78 270h6v6H78V270M120 270h6v6H120V270M126 270h6v6H126V270M132 270h6v6H132V270M138 270h6v6H138V270M150 270h6v6H150V270M156 270h6v6H156V270M162 270h6v6H162V270M168 270h6v6H168V270M174 270h6v6H174V270M180 270h6v6H180V270M192 270h6v6H192V270M198 270h6v6H198V270M222 270h6v6H222V270M240 270h6v6H240V270M252 270h6v6H252V270M258 270h6v6H258V270M264 270h6v6H264V270M270 270h6v6H270V270M282 270h6v6H282V270M300 270h6v6H300V270M306 270h6v6H306V270M312 270h6v6H312V270M330 270h6v6H330V270M336 270h6v6H336V270M354 270h6v6H354V270M360 270h6v6H360V270M366 270h6v6H366V270M390 270h6v6H390V270M396 270h6v6H396V270M402 270h6v6H402V270M414 270h6v6H414V270M432 270h6v6H432V270M444 270h6v6H444V270M450 270h6v6H450V270M456 270h6v6H456V270M24 276h6v6H24V276M30 276h6v6H30V276M36 276h6v6H36V276M42 276h6v6H42V276M48 276h6v6H48V276M78 276h6v6H78V276M90 276h6v6H90V276M108 276h6v6H108V276M114 276h6v6H114V276M120 276h6v6H120V276M126 276h6v6H126V276M132 276h6v6H132V276M144 276h6v6H144V276M150 276h6v6H150V276M156 276h6v6H156V276M162 276h6v6H162V276M168 276h6v6H168V276M186 276h6v6H186V276M192 276h6v6H192V276M198 276h6v6H198V276M204 276h6v6H204V276M210 276h6v6H210V276M222 276h6v6H222V276M228 276h6v6H228V276M234 276h6v6H234V276M246 276h6v6H246V276M252 276h6v6H252V276M258 276h6v6H258V276M264 276h6v6H264V276M270 276h6v6H270V276M276 276h6v6H276V276M282 276h6v6H282V276M288 276h6v6H288V276M294 276h6v6H294V276M300 276h6v6H300V276M318 276h6v6H318V276M324 276h6v6H324V276M360 276h6v6H360V276M366 276h6v6H366V276M378 276h6v6H378V276M402 276h6v6H402V276M408 276h6v6H408V276M414 276h6v6H414V276M420 276h6v6H420V276M426 276h6v6H426V276M432 276h6v6H432V276M444 276h6v6H444V276M0 282h6v6H0V282M24 282h6v6H24V282M48 282h6v6H48V282M54 282h6v6H54V282M66 282h6v6H66V282M72 282h6v6H72V282M84 282h6v6H84V282M90 282h6v6H90V282M102 282h6v6H102V282M108 282h6v6H108V282M114 282h6v6H114V282M120 282h6v6H120V282M132 282h6v6H132V282M138 282h6v6H138V282M144 282h6v6H144V282M168 282h6v6H168V282M180 282h6v6H180V282M204 282h6v6H204V282M246 282h6v6H246V282M270 282h6v6H270V282M276 282h6v6H276V282M300 282h6v6H300V282M306 282h6v6H306V282M318 282h6v6H318V282M330 282h6v6H330V282M336 282h6v6H336V282M342 282h6v6H342V282M348 282h6v6H348V282M354 282h6v6H354V282M360 282h6v6H360V282M366 282h6v6H366V282M384 282h6v6H384V282M396 282h6v6H396V282M408 282h6v6H408V282M432 282h6v6H432V282M438 282h6v6H438V282M450 282h6v6H450V282M456 282h6v6H456V282M0 288h6v6H0V288M12 288h6v6H12V288M24 288h6v6H24V288M36 288h6v6H36V288M48 288h6v6H48V288M54 288h6v6H54V288M72 288h6v6H72V288M78 288h6v6H78V288M84 288h6v6H84V288M90 288h6v6H90V288M96 288h6v6H96V288M102 288h6v6H102V288M114 288h6v6H114V288M126 288h6v6H126V288M144 288h6v6H144V288M156 288h6v6H156V288M168 288h6v6H168V288M180 288h6v6H180V288M186 288h6v6H186V288M198 288h6v6H198V288M204 288h6v6H204V288M222 288h6v6H222V288M234 288h6v6H234V288M240 288h6v6H240V288M252 288h6v6H252V288M258 288h6v6H258V288M264 288h6v6H264V288M276 288h6v6H276V288M288 288h6v6H288V288M300 288h6v6H300V288M318 288h6v6H318V288M324 288h6v6H324V288M330 288h6v6H330V288M342 288h6v6H342V288M348 288h6v6H348V288M360 288h6v6H360V288M366 288h6v6H366V288M372 288h6v6H372V288M378 288h6v6H378V288M396 288h6v6H396V288M402 288h6v6H402V288M408 288h6v6H408V288M420 288h6v6H420V288M432 288h6v6H432V288M444 288h6v6H444V288M450 288h6v6H450V288M0 294h6v6H0V294M6 294h6v6H6V294M12 294h6v6H12V294M24 294h6v6H24V294M48 294h6v6H48V294M54 294h6v6H54V294M60 294h6v6H60V294M66 294h6v6H66V294M90 294h6v6H90V294M108 294h6v6H108V294M114 294h6v6H114V294M120 294h6v6H120V294M144 294h6v6H144V294M168 294h6v6H168V294M174 294h6v6H174V294M204 294h6v6H204V294M216 294h6v6H216V294M222 294h6v6H222V294M234 294h6v6H234V294M252 294h6v6H252V294M264 294h6v6H264V294M270 294h6v6H270V294M276 294h6v6H276V294M300 294h6v6H300V294M312 294h6v6H312V294M330 294h6v6H330V294M342 294h6v6H342V294M348 294h6v6H348V294M360 294h6v6H360V294M366 294h6v6H366V294M384 294h6v6H384V294M390 294h6v6H390V294M396 294h6v6H396V294M402 294h6v6H402V294M408 294h6v6H408V294M432 294h6v6H432V294M438 294h6v6H438V294M444 294h6v6H444V294M456 294h6v6H456V294M0 300h6v6H0V300M6 300h6v6H6V300M24 300h6v6H24V300M30 300h6v6H30V300M36 300h6v6H36V300M42 300h6v6H42V300M48 300h6v6H48V300M54 300h6v6H54V300M66 300h6v6H66V300M72 300h6v6H72V300M78 300h6v6H78V300M90 300h6v6H90V300M102 300h6v6H102V300M108 300h6v6H108V300M114 300h6v6H114V300M120 300h6v6H120V300M126 300h6v6H126V300M144 300h6v6H144V300M150 300h6v6H150V300M156 300h6v6H156V300M162 300h6v6H162V300M168 300h6v6H168V300M186 300h6v6H186V300M192 300h6v6H192V300M198 300h6v6H198V300M210 300h6v6H210V300M228 300h6v6H228V300M240 300h6v6H240V300M246 300h6v6H246V300M252 300h6v6H252V300M258 300h6v6H258V300M264 300h6v6H264V300M276 300h6v6H276V300M282 300h6v6H282V300M288 300h6v6H288V300M294 300h6v6H294V300M300 300h6v6H300V300M306 300h6v6H306V300M318 300h6v6H318V300M342 300h6v6H342V300M354 300h6v6H354V300M372 300h6v6H372V300M384 300h6v6H384V300M396 300h6v6H396V300M408 300h6v6H408V300M414 300h6v6H414V300M420 300h6v6H420V300M426 300h6v6H426V300M432 300h6v6H432V300M444 300h6v6H444V300M0 306h6v6H0V306M6 306h6v6H6V306M12 306h6v6H12V306M18 306h6v6H18V306M54 306h6v6H54V306M60 306h6v6H60V306M84 306h6v6H84V306M96 306h6v6H96V306M102 306h6v6H102V306M114 306h6v6H114V306M144 306h6v6H144V306M150 306h6v6H150V306M168 306h6v6H168V306M174 306h6v6H174V306M186 306h6v6H186V306M198 306h6v6H198V306M210 306h6v6H210V306M216 306h6v6H216V306M222 306h6v6H222V306M234 306h6v6H234V306M252 306h6v6H252V306M258 306h6v6H258V306M264 306h6v6H264V306M270 306h6v6H270V306M294 306h6v6H294V306M306 306h6v6H306V306M318 306h6v6H318V306M324 306h6v6H324V306M342 306h6v6H342V306M348 306h6v6H348V306M354 306h6v6H354V306M360 306h6v6H360V306M378 306h6v6H378V306M384 306h6v6H384V306M396 306h6v6H396V306M414 306h6v6H414V306M420 306h6v6H420V306M444 306h6v6H444V306M450 306h6v6H450V306M456 306h6v6H456V306M18 312h6v6H18V312M36 312h6v6H36V312M42 312h6v6H42V312M48 312h6v6H48V312M54 312h6v6H54V312M60 312h6v6H60V312M66 312h6v6H66V312M72 312h6v6H72V312M90 312h6v6H90V312M108 312h6v6H108V312M114 312h6v6H114V312M120 312h6v6H120V312M126 312h6v6H126V312M132 312h6v6H132V312M138 312h6v6H138V312M150 312h6v6H150V312M156 312h6v6H156V312M162 312h6v6H162V312M174 312h6v6H174V312M180 312h6v6H180V312M198 312h6v6H198V312M204 312h6v6H204V312M210 312h6v6H210V312M228 312h6v6H228V312M234 312h6v6H234V312M240 312h6v6H240V312M252 312h6v6H252V312M264 312h6v6H264V312M282 312h6v6H282V312M288 312h6v6H288V312M324 312h6v6H324V312M330 312h6v6H330V312M354 312h6v6H354V312M360 312h6v6H360V312M366 312h6v6H366V312M372 312h6v6H372V312M378 312h6v6H378V312M384 312h6v6H384V312M408 312h6v6H408V312M420 312h6v6H420V312M438 312h6v6H438V312M450 312h6v6H450V312M0 318h6v6H0V318M48 318h6v6H48V318M54 318h6v6H54V318M60 318h6v6H60V318M66 318h6v6H66V318M78 318h6v6H78V318M84 318h6v6H84V318M90 318h6v6H90V318M96 318h6v6H96V318M102 318h6v6H102V318M108 318h6v6H108V318M114 318h6v6H114V318M120 318h6v6H120V318M138 318h6v6H138V318M144 318h6v6H144V318M162 318h6v6H162V318M180 318h6v6H180V318M216 318h6v6H216V318M228 318h6v6H228V318M234 318h6v6H234V318M240 318h6v6H240V318M246 318h6v6H246V318M252 318h6v6H252V318M276 318h6v6H276V318M282 318h6v6H282V318M294 318h6v6H294V318M306 318h6v6H306V318M318 318h6v6H318V318M324 318h6v6H324V318M330 318h6v6H330V318M336 318h6v6H336V318M360 318h6v6H360V318M366 318h6v6H366V318M384 318h6v6H384V318M390 318h6v6H390V318M396 318h6v6H396V318M426 318h6v6H426V318M438 318h6v6H438V318M450 318h6v6H450V318M456 318h6v6H456V318M0 324h6v6H0V324M6 324h6v6H6V324M12 324h6v6H12V324M18 324h6v6H18V324M36 324h6v6H36V324M54 324h6v6H54V324M78 324h6v6H78V324M90 324h6v6H90V324M96 324h6v6H96V324M108 324h6v6H108V324M126 324h6v6H126V324M132 324h6v6H132V324M138 324h6v6H138V324M144 324h6v6H144V324M180 324h6v6H180V324M186 324h6v6H186V324M192 324h6v6H192V324M198 324h6v6H198V324M210 324h6v6H210V324M222 324h6v6H222V324M234 324h6v6H234V324M270 324h6v6H270V324M294 324h6v6H294V324M300 324h6v6H300V324M306 324h6v6H306V324M312 324h6v6H312V324M318 324h6v6H318V324M324 324h6v6H324V324M330 324h6v6H330V324M336 324h6v6H336V324M348 324h6v6H348V324M378 324h6v6H378V324M396 324h6v6H396V324M402 324h6v6H402V324M432 324h6v6H432V324M444 324h6v6H444V324M456 324h6v6H456V324M0 330h6v6H0V330M6 330h6v6H6V330M18 330h6v6H18V330M30 330h6v6H30V330M78 330h6v6H78V330M84 330h6v6H84V330M90 330h6v6H90V330M102 330h6v6H102V330M120 330h6v6H120V330M132 330h6v6H132V330M150 330h6v6H150V330M156 330h6v6H156V330M162 330h6v6H162V330M174 330h6v6H174V330M180 330h6v6H180V330M198 330h6v6H198V330M204 330h6v6H204V330M210 330h6v6H210V330M216 330h6v6H216V330M240 330h6v6H240V330M246 330h6v6H246V330M258 330h6v6H258V330M276 330h6v6H276V330M282 330h6v6H282V330M294 330h6v6H294V330M306 330h6v6H306V330M312 330h6v6H312V330M324 330h6v6H324V330M348 330h6v6H348V330M354 330h6v6H354V330M360 330h6v6H360V330M396 330h6v6H396V330M402 330h6v6H402V330M408 330h6v6H408V330M414 330h6v6H414V330M420 330h6v6H420V330M432 330h6v6H432V330M444 330h6v6H444V330M450 330h6v6H450V330M456 330h6v6H456V330M0 336h6v6H0V336M24 336h6v6H24V336M30 336h6v6H30V336M36 336h6v6H36V336M54 336h6v6H54V336M66 336h6v6H66V336M84 336h6v6H84V336M90 336h6v6H90V336M96 336h6v6H96V336M102 336h6v6H102V336M108 336h6v6H108V336M114 336h6v6H114V336M150 336h6v6H150V336M174 336h6v6H174V336M186 336h6v6H186V336M198 336h6v6H198V336M204 336h6v6H204V336M216 336h6v6H216V336M228 336h6v6H228V336M234 336h6v6H234V336M240 336h6v6H240V336M264 336h6v6H264V336M288 336h6v6H288V336M294 336h6v6H294V336M324 336h6v6H324V336M330 336h6v6H330V336M354 336h6v6H354V336M360 336h6v6H360V336M366 336h6v6H366V336M390 336h6v6H390V336M396 336h6v6H396V336M402 336h6v6H402V336M414 336h6v6H414V336M420 336h6v6H420V336M426 336h6v6H426V336M438 336h6v6H438V336M0 342h6v6H0V342M6 342h6v6H6V342M12 342h6v6H12V342M18 342h6v6H18V342M48 342h6v6H48V342M60 342h6v6H60V342M72 342h6v6H72V342M78 342h6v6H78V342M84 342h6v6H84V342M90 342h6v6H90V342M102 342h6v6H102V342M108 342h6v6H108V342M114 342h6v6H114V342M120 342h6v6H120V342M126 342h6v6H126V342M144 342h6v6H144V342M192 342h6v6H192V342M222 342h6v6H222V342M228 342h6v6H228V342M234 342h6v6H234V342M264 342h6v6H264V342M276 342h6v6H276V342M288 342h6v6H288V342M306 342h6v6H306V342M312 342h6v6H312V342M318 342h6v6H318V342M330 342h6v6H330V342M336 342h6v6H336V342M342 342h6v6H342V342M360 342h6v6H360V342M366 342h6v6H366V342M402 342h6v6H402V342M408 342h6v6H408V342M414 342h6v6H414V342M420 342h6v6H420V342M426 342h6v6H426V342M438 342h6v6H438V342M456 342h6v6H456V342M0 348h6v6H0V348M18 348h6v6H18V348M30 348h6v6H30V348M36 348h6v6H36V348M48 348h6v6H48V348M54 348h6v6H54V348M60 348h6v6H60V348M84 348h6v6H84V348M90 348h6v6H90V348M102 348h6v6H102V348M120 348h6v6H120V348M126 348h6v6H126V348M144 348h6v6H144V348M150 348h6v6H150V348M156 348h6v6H156V348M180 348h6v6H180V348M192 348h6v6H192V348M210 348h6v6H210V348M216 348h6v6H216V348M222 348h6v6H222V348M246 348h6v6H246V348M252 348h6v6H252V348M258 348h6v6H258V348M264 348h6v6H264V348M276 348h6v6H276V348M288 348h6v6H288V348M300 348h6v6H300V348M342 348h6v6H342V348M348 348h6v6H348V348M360 348h6v6H360V348M366 348h6v6H366V348M396 348h6v6H396V348M408 348h6v6H408V348M414 348h6v6H414V348M420 348h6v6H420V348M438 348h6v6H438V348M444 348h6v6H444V348M450 348h6v6H450V348M456 348h6v6H456V348M0 354h6v6H0V354M6 354h6v6H6V354M12 354h6v6H12V354M24 354h6v6H24V354M42 354h6v6H42V354M60 354h6v6H60V354M66 354h6v6H66V354M72 354h6v6H72V354M78 354h6v6H78V354M84 354h6v6H84V354M96 354h6v6H96V354M102 354h6v6H102V354M114 354h6v6H114V354M120 354h6v6H120V354M138 354h6v6H138V354M144 354h6v6H144V354M162 354h6v6H162V354M168 354h6v6H168V354M174 354h6v6H174V354M198 354h6v6H198V354M204 354h6v6H204V354M210 354h6v6H210V354M216 354h6v6H216V354M234 354h6v6H234V354M252 354h6v6H252V354M264 354h6v6H264V354M288 354h6v6H288V354M294 354h6v6H294V354M306 354h6v6H306V354M336 354h6v6H336V354M348 354h6v6H348V354M360 354h6v6H360V354M372 354h6v6H372V354M378 354h6v6H378V354M384 354h6v6H384V354M390 354h6v6H390V354M414 354h6v6H414V354M432 354h6v6H432V354M450 354h6v6H450V354M18 360h6v6H18V360M30 360h6v6H30V360M36 360h6v6H36V360M60 360h6v6H60V360M84 360h6v6H84V360M90 360h6v6H90V360M96 360h6v6H96V360M120 360h6v6H120V360M138 360h6v6H138V360M144 360h6v6H144V360M174 360h6v6H174V360M180 360h6v6H180V360M186 360h6v6H186V360M198 360h6v6H198V360M228 360h6v6H228V360M234 360h6v6H234V360M240 360h6v6H240V360M264 360h6v6H264V360M270 360h6v6H270V360M276 360h6v6H276V360M282 360h6v6H282V360M288 360h6v6H288V360M306 360h6v6H306V360M312 360h6v6H312V360M330 360h6v6H330V360M342 360h6v6H342V360M354 360h6v6H354V360M360 360h6v6H360V360M366 360h6v6H366V360M372 360h6v6H372V360M390 360h6v6H390V360M408 360h6v6H408V360M444 360h6v6H444V360M12 366h6v6H12V366M42 366h6v6H42V366M60 366h6v6H60V366M66 366h6v6H66V366M72 366h6v6H72V366M78 366h6v6H78V366M84 366h6v6H84V366M96 366h6v6H96V366M108 366h6v6H108V366M126 366h6v6H126V366M132 366h6v6H132V366M162 366h6v6H162V366M168 366h6v6H168V366M174 366h6v6H174V366M180 366h6v6H180V366M186 366h6v6H186V366M192 366h6v6H192V366M198 366h6v6H198V366M204 366h6v6H204V366M210 366h6v6H210V366M222 366h6v6H222V366M228 366h6v6H228V366M234 366h6v6H234V366M240 366h6v6H240V366M270 366h6v6H270V366M282 366h6v6H282V366M294 366h6v6H294V366M300 366h6v6H300V366M306 366h6v6H306V366M324 366h6v6H324V366M330 366h6v6H330V366M342 366h6v6H342V366M354 366h6v6H354V366M360 366h6v6H360V366M366 366h6v6H366V366M408 366h6v6H408V366M414 366h6v6H414V366M420 366h6v6H420V366M426 366h6v6H426V366M0 372h6v6H0V372M24 372h6v6H24V372M30 372h6v6H30V372M36 372h6v6H36V372M42 372h6v6H42V372M48 372h6v6H48V372M54 372h6v6H54V372M60 372h6v6H60V372M66 372h6v6H66V372M72 372h6v6H72V372M102 372h6v6H102V372M108 372h6v6H108V372M114 372h6v6H114V372M120 372h6v6H120V372M126 372h6v6H126V372M132 372h6v6H132V372M144 372h6v6H144V372M150 372h6v6H150V372M180 372h6v6H180V372M192 372h6v6H192V372M198 372h6v6H198V372M222 372h6v6H222V372M246 372h6v6H246V372M252 372h6v6H252V372M264 372h6v6H264V372M270 372h6v6H270V372M276 372h6v6H276V372M294 372h6v6H294V372M300 372h6v6H300V372M306 372h6v6H306V372M318 372h6v6H318V372M336 372h6v6H336V372M348 372h6v6H348V372M360 372h6v6H360V372M366 372h6v6H366V372M372 372h6v6H372V372M378 372h6v6H378V372M390 372h6v6H390V372M432 372h6v6H432V372M438 372h6v6H438V372M444 372h6v6H444V372M450 372h6v6H450V372M0 378h6v6H0V378M24 378h6v6H24V378M30 378h6v6H30V378M42 378h6v6H42V378M54 378h6v6H54V378M66 378h6v6H66V378M78 378h6v6H78V378M114 378h6v6H114V378M120 378h6v6H120V378M138 378h6v6H138V378M144 378h6v6H144V378M156 378h6v6H156V378M168 378h6v6H168V378M180 378h6v6H180V378M186 378h6v6H186V378M198 378h6v6H198V378M228 378h6v6H228V378M246 378h6v6H246V378M252 378h6v6H252V378M264 378h6v6H264V378M270 378h6v6H270V378M288 378h6v6H288V378M294 378h6v6H294V378M312 378h6v6H312V378M318 378h6v6H318V378M324 378h6v6H324V378M336 378h6v6H336V378M342 378h6v6H342V378M360 378h6v6H360V378M372 378h6v6H372V378M378 378h6v6H378V378M384 378h6v6H384V378M390 378h6v6H390V378M396 378h6v6H396V378M408 378h6v6H408V378M414 378h6v6H414V378M426 378h6v6H426V378M432 378h6v6H432V378M438 378h6v6H438V378M0 384h6v6H0V384M24 384h6v6H24V384M36 384h6v6H36V384M48 384h6v6H48V384M54 384h6v6H54V384M84 384h6v6H84V384M96 384h6v6H96V384M114 384h6v6H114V384M120 384h6v6H120V384M138 384h6v6H138V384M144 384h6v6H144V384M150 384h6v6H150V384M156 384h6v6H156V384M168 384h6v6H168V384M198 384h6v6H198V384M210 384h6v6H210V384M216 384h6v6H216V384M228 384h6v6H228V384M240 384h6v6H240V384M258 384h6v6H258V384M276 384h6v6H276V384M282 384h6v6H282V384M300 384h6v6H300V384M306 384h6v6H306V384M312 384h6v6H312V384M342 384h6v6H342V384M354 384h6v6H354V384M360 384h6v6H360V384M366 384h6v6H366V384M408 384h6v6H408V384M414 384h6v6H414V384M420 384h6v6H420V384M432 384h6v6H432V384M444 384h6v6H444V384M456 384h6v6H456V384M0 390h6v6H0V390M24 390h6v6H24V390M30 390h6v6H30V390M48 390h6v6H48V390M60 390h6v6H60V390M66 390h6v6H66V390M78 390h6v6H78V390M84 390h6v6H84V390M90 390h6v6H90V390M96 390h6v6H96V390M102 390h6v6H102V390M120 390h6v6H120V390M126 390h6v6H126V390M138 390h6v6H138V390M180 390h6v6H180V390M186 390h6v6H186V390M204 390h6v6H204V390M216 390h6v6H216V390M222 390h6v6H222V390M228 390h6v6H228V390M234 390h6v6H234V390M264 390h6v6H264V390M276 390h6v6H276V390M312 390h6v6H312V390M318 390h6v6H318V390M324 390h6v6H324V390M330 390h6v6H330V390M336 390h6v6H336V390M366 390h6v6H366V390M372 390h6v6H372V390M384 390h6v6H384V390M402 390h6v6H402V390M408 390h6v6H408V390M414 390h6v6H414V390M426 390h6v6H426V390M450 390h6v6H450V390M6 396h6v6H6V396M24 396h6v6H24V396M30 396h6v6H30V396M36 396h6v6H36V396M42 396h6v6H42V396M48 396h6v6H48V396M54 396h6v6H54V396M60 396h6v6H60V396M96 396h6v6H96V396M108 396h6v6H108V396M180 396h6v6H180V396M198 396h6v6H198V396M210 396h6v6H210V396M216 396h6v6H216V396M234 396h6v6H234V396M252 396h6v6H252V396M258 396h6v6H258V396M270 396h6v6H270V396M276 396h6v6H276V396M300 396h6v6H300V396M306 396h6v6H306V396M318 396h6v6H318V396M330 396h6v6H330V396M336 396h6v6H336V396M342 396h6v6H342V396M348 396h6v6H348V396M360 396h6v6H360V396M390 396h6v6H390V396M408 396h6v6H408V396M414 396h6v6H414V396M420 396h6v6H420V396M438 396h6v6H438V396M24 402h6v6H24V402M60 402h6v6H60V402M66 402h6v6H66V402M72 402h6v6H72V402M78 402h6v6H78V402M84 402h6v6H84V402M90 402h6v6H90V402M96 402h6v6H96V402M114 402h6v6H114V402M120 402h6v6H120V402M132 402h6v6H132V402M150 402h6v6H150V402M168 402h6v6H168V402M174 402h6v6H174V402M186 402h6v6H186V402M192 402h6v6H192V402M198 402h6v6H198V402M246 402h6v6H246V402M252 402h6v6H252V402M258 402h6v6H258V402M264 402h6v6H264V402M270 402h6v6H270V402M276 402h6v6H276V402M288 402h6v6H288V402M306 402h6v6H306V402M312 402h6v6H312V402M318 402h6v6H318V402M324 402h6v6H324V402M348 402h6v6H348V402M354 402h6v6H354V402M372 402h6v6H372V402M384 402h6v6H384V402M390 402h6v6H390V402M396 402h6v6H396V402M402 402h6v6H402V402M408 402h6v6H408V402M414 402h6v6H414V402M432 402h6v6H432V402M438 402h6v6H438V402M450 402h6v6H450V402M456 402h6v6H456V402M6 408h6v6H6V408M12 408h6v6H12V408M18 408h6v6H18V408M24 408h6v6H24V408M36 408h6v6H36V408M42 408h6v6H42V408M48 408h6v6H48V408M60 408h6v6H60V408M72 408h6v6H72V408M78 408h6v6H78V408M84 408h6v6H84V408M126 408h6v6H126V408M138 408h6v6H138V408M144 408h6v6H144V408M150 408h6v6H150V408M156 408h6v6H156V408M162 408h6v6H162V408M168 408h6v6H168V408M174 408h6v6H174V408M180 408h6v6H180V408M192 408h6v6H192V408M198 408h6v6H198V408M204 408h6v6H204V408M210 408h6v6H210V408M216 408h6v6H216V408M228 408h6v6H228V408M258 408h6v6H258V408M270 408h6v6H270V408M276 408h6v6H276V408M282 408h6v6H282V408M288 408h6v6H288V408M294 408h6v6H294V408M300 408h6v6H300V408M306 408h6v6H306V408M318 408h6v6H318V408M342 408h6v6H342V408M348 408h6v6H348V408M360 408h6v6H360V408M372 408h6v6H372V408M378 408h6v6H378V408M396 408h6v6H396V408M402 408h6v6H402V408M408 408h6v6H408V408M414 408h6v6H414V408M420 408h6v6H420V408M426 408h6v6H426V408M432 408h6v6H432V408M444 408h6v6H444V408M450 408h6v6H450V408M48 414h6v6H48V414M66 414h6v6H66V414M72 414h6v6H72V414M78 414h6v6H78V414M96 414h6v6H96V414M114 414h6v6H114V414M126 414h6v6H126V414M132 414h6v6H132V414M144 414h6v6H144V414M168 414h6v6H168V414M180 414h6v6H180V414M186 414h6v6H186V414M198 414h6v6H198V414M204 414h6v6H204V414M216 414h6v6H216V414M228 414h6v6H228V414M234 414h6v6H234V414M252 414h6v6H252V414M270 414h6v6H270V414M276 414h6v6H276V414M300 414h6v6H300V414M306 414h6v6H306V414M318 414h6v6H318V414M324 414h6v6H324V414M372 414h6v6H372V414M384 414h6v6H384V414M408 414h6v6H408V414M432 414h6v6H432V414M0 420h6v6H0V420M6 420h6v6H6V420M12 420h6v6H12V420M18 420h6v6H18V420M24 420h6v6H24V420M30 420h6v6H30V420M36 420h6v6H36V420M60 420h6v6H60V420M72 420h6v6H72V420M102 420h6v6H102V420M120 420h6v6H120V420M126 420h6v6H126V420M138 420h6v6H138V420M144 420h6v6H144V420M156 420h6v6H156V420M168 420h6v6H168V420M174 420h6v6H174V420M180 420h6v6H180V420M186 420h6v6H186V420M198 420h6v6H198V420M204 420h6v6H204V420M216 420h6v6H216V420M234 420h6v6H234V420M258 420h6v6H258V420M264 420h6v6H264V420M270 420h6v6H270V420M276 420h6v6H276V420M288 420h6v6H288V420M300 420h6v6H300V420M306 420h6v6H306V420M312 420h6v6H312V420M318 420h6v6H318V420M324 420h6v6H324V420M336 420h6v6H336V420M348 420h6v6H348V420M366 420h6v6H366V420M372 420h6v6H372V420M378 420h6v6H378V420M390 420h6v6H390V420M408 420h6v6H408V420M420 420h6v6H420V420M432 420h6v6H432V420M438 420h6v6H438V420M444 420h6v6H444V420M0 426h6v6H0V426M36 426h6v6H36V426M48 426h6v6H48V426M60 426h6v6H60V426M66 426h6v6H66V426M72 426h6v6H72V426M90 426h6v6H90V426M96 426h6v6H96V426M102 426h6v6H102V426M108 426h6v6H108V426M114 426h6v6H114V426M132 426h6v6H132V426M144 426h6v6H144V426M168 426h6v6H168V426M174 426h6v6H174V426M204 426h6v6H204V426M210 426h6v6H210V426M216 426h6v6H216V426M228 426h6v6H228V426M240 426h6v6H240V426M252 426h6v6H252V426M258 426h6v6H258V426M276 426h6v6H276V426M300 426h6v6H300V426M306 426h6v6H306V426M324 426h6v6H324V426M336 426h6v6H336V426M342 426h6v6H342V426M372 426h6v6H372V426M384 426h6v6H384V426M390 426h6v6H390V426M396 426h6v6H396V426M402 426h6v6H402V426M408 426h6v6H408V426M432 426h6v6H432V426M438 426h6v6H438V426M0 432h6v6H0V432M12 432h6v6H12V432M18 432h6v6H18V432M24 432h6v6H24V432M36 432h6v6H36V432M48 432h6v6H48V432M60 432h6v6H60V432M72 432h6v6H72V432M78 432h6v6H78V432M90 432h6v6H90V432M96 432h6v6H96V432M102 432h6v6H102V432M108 432h6v6H108V432M114 432h6v6H114V432M138 432h6v6H138V432M144 432h6v6H144V432M150 432h6v6H150V432M156 432h6v6H156V432M162 432h6v6H162V432M168 432h6v6H168V432M186 432h6v6H186V432M192 432h6v6H192V432M198 432h6v6H198V432M204 432h6v6H204V432M216 432h6v6H216V432M228 432h6v6H228V432M246 432h6v6H246V432M252 432h6v6H252V432M270 432h6v6H270V432M276 432h6v6H276V432M282 432h6v6H282V432M288 432h6v6H288V432M294 432h6v6H294V432M300 432h6v6H300V432M306 432h6v6H306V432M312 432h6v6H312V432M318 432h6v6H318V432M324 432h6v6H324V432M336 432h6v6H336V432M342 432h6v6H342V432M372 432h6v6H372V432M408 432h6v6H408V432M414 432h6v6H414V432M420 432h6v6H420V432M426 432h6v6H426V432M432 432h6v6H432V432M438 432h6v6H438V432M0 438h6v6H0V438M12 438h6v6H12V438M18 438h6v6H18V438M24 438h6v6H24V438M36 438h6v6H36V438M48 438h6v6H48V438M54 438h6v6H54V438M84 438h6v6H84V438M108 438h6v6H108V438M120 438h6v6H120V438M126 438h6v6H126V438M132 438h6v6H132V438M144 438h6v6H144V438M150 438h6v6H150V438M174 438h6v6H174V438M180 438h6v6H180V438M192 438h6v6H192V438M204 438h6v6H204V438M210 438h6v6H210V438M216 438h6v6H216V438M228 438h6v6H228V438M252 438h6v6H252V438M258 438h6v6H258V438M294 438h6v6H294V438M306 438h6v6H306V438M318 438h6v6H318V438M324 438h6v6H324V438M330 438h6v6H330V438M342 438h6v6H342V438M360 438h6v6H360V438M378 438h6v6H378V438M384 438h6v6H384V438M396 438h6v6H396V438M402 438h6v6H402V438M414 438h6v6H414V438M420 438h6v6H420V438M426 438h6v6H426V438M432 438h6v6H432V438M438 438h6v6H438V438M450 438h6v6H450V438M0 444h6v6H0V444M12 444h6v6H12V444M18 444h6v6H18V444M24 444h6v6H24V444M36 444h6v6H36V444M48 444h6v6H48V444M96 444h6v6H96V444M102 444h6v6H102V444M108 444h6v6H108V444M120 444h6v6H120V444M126 444h6v6H126V444M132 444h6v6H132V444M138 444h6v6H138V444M150 444h6v6H150V444M162 444h6v6H162V444M168 444h6v6H168V444M186 444h6v6H186V444M204 444h6v6H204V444M216 444h6v6H216V444M246 444h6v6H246V444M252 444h6v6H252V444M258 444h6v6H258V444M270 444h6v6H270V444M282 444h6v6H282V444M288 444h6v6H288V444M300 444h6v6H300V444M306 444h6v6H306V444M312 444h6v6H312V444M324 444h6v6H324V444M330 444h6v6H330V444M336 444h6v6H336V444M342 444h6v6H342V444M360 444h6v6H360V444M372 444h6v6H372V444M396 444h6v6H396V444M402 444h6v6H402V444M420 444h6v6H420V444M426 444h6v6H426V444M438 444h6v6H438V444M450 444h6v6H450V444M0 450h6v6H0V450M36 450h6v6H36V450M54 450h6v6H54V450M60 450h6v6H60V450M66 450h6v6H66V450M72 450h6v6H72V450M84 450h6v6H84V450M90 450h6v6H90V450M96 450h6v6H96V450M120 450h6v6H120V450M138 450h6v6H138V450M144 450h6v6H144V450M156 450h6v6H156V450M186 450h6v6H186V450M192 450h6v6H192V450M198 450h6v6H198V450M204 450h6v6H204V450M222 450h6v6H222V450M234 450h6v6H234V450M252 450h6v6H252V450M258 450h6v6H258V450M276 450h6v6H276V450M282 450h6v6H282V450M294 450h6v6H294V450M300 450h6v6H300V450M318 450h6v6H318V450M324 450h6v6H324V450M330 450h6v6H330V450M342 450h6v6H342V450M354 450h6v6H354V450M384 450h6v6H384V450M390 450h6v6H390V450M396 450h6v6H396V450M408 450h6v6H408V450M420 450h6v6H420V450M432 450h6v6H432V450M444 450h6v6H444V450M450 450h6v6H450V450M0 456h6v6H0V456M6 456h6v6H6V456M12 456h6v6H12V456M18 456h6v6H18V456M24 456h6v6H24V456M30 456h6v6H30V456M36 456h6v6H36V456M48 456h6v6H48V456M60 456h6v6H60V456M66 456h6v6H66V456M90 456h6v6H90V456M102 456h6v6H102V456M108 456h6v6H108V456M120 456h6v6H120V456M138 456h6v6H138V456M144 456h6v6H144V456M174 456h6v6H174V456M186 456h6v6H186V456M192 456h6v6H192V456M198 456h6v6H198V456M204 456h6v6H204V456M216 456h6v6H216V456M246 456h6v6H246V456M252 456h6v6H252V456M282 456h6v6H282V456M324 456h6v6H324V456M336 456h6v6H336V456M360 456h6v6H360V456M372 456h6v6H372V456M390 456h6v6H390V456M402 456h6v6H402V456M414 456h6v6H414V456M420 456h6v6H420V456M426 456h6v6H426V456M438 456h6v6H438V456"/></svg>
