<?xml version="1.0" standalone="yes"?><svg xmlns="http://www.w3.org/2000/svg" version="1.1" width="441" height="441" viewBox="0 0 441 441" shape-rendering="crispEdges"><rect x="0" y="0" width="441" height="441" fill="#fff"/><path fill="#000" d="M0 0h9v9H0V0M9 0h9v9H9V0M18 0h9v9H18V0M27 0h9v9H27V0M36 0h9v9H36V0M45 0h9v9H45V0M54 0h9v9H54V0M81 0h9v9H81V0M99 0h9v9H99V0M117 0h9v9H117V0M144 0h9v9H144V0M153 0h9v9H153V0M162 0h9v9H162V0M180 0h9v9H180V0M252 0h9v9H252V0M261 0h9v9H261V0M270 0h9v9H270V0M288 0h9v9H288V0M297 0h9v9H297V0M360 0h9v9H360V0M378 0h9v9H378V0M387 0h9v9H387V0M396 0h9v9H396V0M405 0h9v9H405V0M414 0h9v9H414V0M423 0h9v9H423V0M432 0h9v9H432V0M0 9h9v9H0V9M54 9h9v9H54V9M90 9h9v9H90V9M99 9h9v9H99V9M126 9h9v9H126V9M144 9h9v9H144V9M153 9h9v9H153V9M171 9h9v9H171V9M180 9h9v9H180V9M198 9h9v9H198V9M207 9h9v9H207V9M216 9h9v9H216V9M225 9h9v9H225V9M234 9h9v9H234V9M261 9h9v9H261V9M306 9h9v9H306V9M315 9h9v9H315V9M342 9h9v9H342V9M351 9h9v9H351V9M360 9h9v9H360V9M378 9h9v9H378V9M432 9h9v9H432V9M0 18h9v9H0V18M18 18h9v9H18V18M27 18h9v9H27V18M36 18h9v9H36V18M54 18h9v9H54V18M72 18h9v9H72V18M81 18h9v9H81V18M90 18h9v9H90V18M99 18h9v9H99V18M117 18h9v9H117V18M135 18h9v9H135V18M153 18h9v9H153V18M162 18h9v9H162V18M207 18h9v9H207V18M216 18h9v9H216V18M234 18h9v9H234V18M252 18h9v9H252V18M261 18h9v9H261V18M270 18h9v9H270V18M279 18h9v9H279V18M315 18h9v9H315V18M351 18h9v9H351V18M360 18h9v9H360V18M378 18h9v9H378V18M396 18h9v9H396V18M405 18h9v9H405V18M414 18h9v9H414V18M432 18h9v9H432V18M0 27h9v9H0V27M18 27h9v9H18V27M27 27h9v9H27V27M36 27h9v9H36V27M54 27h9v9H54V27M72 27h9v9H72V27M81 27h9v9H81V27M90 27h9v9H90V27M108 27h9v9H108V27M135 27h9v9H135V27M153 27h9v9H153V27M162 27h9v9H162V27M171 27h9v9H171V27M189 27h9v9H189V27M216 27h9v9H216V27M234 27h9v9H234V27M243 27h9v9H243V27M270 27h9v9H270V27M279 27h9v9H279V27M297 27h9v9H297V27M306 27h9v9H306V27M315 27h9v9H315V27M324 27h9v9H324V27M333 27h9v9H333V27M351 27h9v9H351V27M378 27h9v9H378V27M396 27h9v9H396V27M405 27h9v9H405V27M414 27h9v9H414V27M432 27h9v9H432V27M0 36h9v9H0V36M18 36h9v9H18V36M27 36h9v9H27V36M36 36h9v9H36V36M54 36h9v9H54V36M72 36h9v9H72V36M108 36h9v9H108V36M144 36h9v9H144V36M153 36h9v9H153V36M189 36h9v9H189V36M198 36h9v9H198V36M207 36h9v9H207V36M216 36h9v9H216V36M225 36h9v9H225V36M234 36h9v9H234V36M270 36h9v9H270V36M288 36h9v9H288V36M324 36h9v9H324V36M378 36h9v9H378V36M396 36h9v9H396V36M405 36h9v9H405V36M414 36h9v9H414V36M432 36h9v9H432V36M0 45h9v9H0V45M54 45h9v9H54V45M72 45h9v9H72V45M99 45h9v9H99V45M117 45h9v9H117V45M126 45h9v9H126V45M135 45h9v9H135V45M144 45h9v9H144V45M162 45h9v9H162V45M171 45h9v9H171V45M198 45h9v9H198V45M234 45h9v9H234V45M243 45h9v9H243V45M252 45h9v9H252V45M261 45h9v9H261V45M288 45h9v9H288V45M306 45h9v9H306V45M333 45h9v9H333V45M342 45h9v9H342V45M378 45h9v9H378V45M432 45h9v9H432V45M0 54h9v9H0V54M9 54h9v9H9V54M18 54h9v9H18V54M27 54h9v9H27V54M36 54h9v9H36V54M45 54h9v9H45V54M54 54h9v9H54V54M72 54h9v9H72V54M90 54h9v9H90V54M108 54h9v9H108V54M126 54h9v9H126V54M144 54h9v9H144V54M162 54h9v9H162V54M180 54h9v9H180V54M198 54h9v9H198V54M216 54h9v9H216V54M234 54h9v9H234V54M252 54h9v9H252V54M270 54h9v9H270V54M288 54h9v9H288V54M306 54h9v9H306V54M324 54h9v9H324V54M342 54h9v9H342V54M360 54h9v9H360V54M378 54h9v9H378V54M387 54h9v9H387V54M396 54h9v9H396V54M405 54h9v9H405V54M414 54h9v9H414V54M423 54h9v9H423V54M432 54h9v9H432V54M72 63h9v9H72V63M81 63h9v9H81V63M126 63h9v9H126V63M135 63h9v9H135V63M144 63h9v9H144V63M153 63h9v9H153V63M162 63h9v9H162V63M198 63h9v9H198V63M234 63h9v9H234V63M252 63h9v9H252V63M270 63h9v9H270V63M279 63h9v9H279V63M288 63h9v9H288V63M297 63h9v9H297V63M306 63h9v9H306V63M0 72h9v9H0V72M18 72h9v9H18V72M27 72h9v9H27V72M36 72h9v9H36V72M45 72h9v9H45V72M54 72h9v9H54V72M90 72h9v9H90V72M108 72h9v9H108V72M126 72h9v9H126V72M135 72h9v9H135V72M162 72h9v9H162V72M180 72h9v9H180V72M198 72h9v9H198V72M207 72h9v9H207V72M216 72h9v9H216V72M225 72h9v9H225V72M234 72h9v9H234V72M243 72h9v9H243V72M306 72h9v9H306V72M315 72h9v9H315V72M324 72h9v9H324V72M333 72h9v9H333V72M342 72h9v9H342V72M351 72h9v9H351V72M360 72h9v9H360V72M378 72h9v9H378V72M387 72h9v9H387V72M396 72h9v9H396V72M405 72h9v9H405V72M414 72h9v9H414V72M0 81h9v9H0V81M63 81h9v9H63V81M72 81h9v9H72V81M81 81h9v9H81V81M90 81h9v9H90V81M99 81h9v9H99V81M108 81h9v9H108V81M117 81h9v9H117V81M126 81h9v9H126V81M135 81h9v9H135V81M162 81h9v9H162V81M171 81h9v9H171V81M189 81h9v9H189V81M207 81h9v9H207V81M216 81h9v9H216V81M225 81h9v9H225V81M243 81h9v9H243V81M261 81h9v9H261V81M270 81h9v9H270V81M279 81h9v9H279V81M288 81h9v9H288V81M369 81h9v9H369V81M378 81h9v9H378V81M396 81h9v9H396V81M405 81h9v9H405V81M423 81h9v9H423V81M432 81h9v9H432V81M0 90h9v9H0V90M9 90h9v9H9V90M36 90h9v9H36V90M54 90h9v9H54V90M72 90h9v9H72V90M81 90h9v9H81V90M90 90h9v9H90V90M108 90h9v9H108V90M117 90h9v9H117V90M126 90h9v9H126V90M135 90h9v9H135V90M162 90h9v9H162V90M171 90h9v9H171V90M216 90h9v9H216V90M225 90h9v9H225V90M270 90h9v9H270V90M288 90h9v9H288V90M306 90h9v9H306V90M324 90h9v9H324V90M333 90h9v9H333V90M342 90h9v9H342V90M351 90h9v9H351V90M360 90h9v9H360V90M378 90h9v9H378V90M387 90h9v9H387V90M423 90h9v9H423V90M432 90h9v9H432V90M0 99h9v9H0V99M18 99h9v9H18V99M36 99h9v9H36V99M45 99h9v9H45V99M63 99h9v9H63V99M72 99h9v9H72V99M81 99h9v9H81V99M99 99h9v9H99V99M108 99h9v9H108V99M126 99h9v9H126V99M135 99h9v9H135V99M153 99h9v9H153V99M171 99h9v9H171V99M207 99h9v9H207V99M216 99h9v9H216V99M225 99h9v9H225V99M243 99h9v9H243V99M252 99h9v9H252V99M279 99h9v9H279V99M288 99h9v9H288V99M297 99h9v9H297V99M306 99h9v9H306V99M315 99h9v9H315V99M351 99h9v9H351V99M369 99h9v9H369V99M396 99h9v9H396V99M423 99h9v9H423V99M432 99h9v9H432V99M0 108h9v9H0V108M18 108h9v9H18V108M27 108h9v9H27V108M36 108h9v9H36V108M45 108h9v9H45V108M54 108h9v9H54V108M72 108h9v9H72V108M99 108h9v9H99V108M108 108h9v9H108V108M189 108h9v9H189V108M198 108h9v9H198V108M207 108h9v9H207V108M216 108h9v9H216V108M225 108h9v9H225V108M234 108h9v9H234V108M297 108h9v9H297V108M324 108h9v9H324V108M342 108h9v9H342V108M369 108h9v9H369V108M387 108h9v9H387V108M414 108h9v9H414V108M423 108h9v9H423V108M432 108h9v9H432V108M90 117h9v9H90V117M99 117h9v9H99V117M126 117h9v9H126V117M144 117h9v9H144V117M153 117h9v9H153V117M162 117h9v9H162V117M171 117h9v9H171V117M180 117h9v9H180V117M198 117h9v9H198V117M207 117h9v9H207V117M225 117h9v9H225V117M243 117h9v9H243V117M261 117h9v9H261V117M270 117h9v9H270V117M315 117h9v9H315V117M369 117h9v9H369V117M378 117h9v9H378V117M396 117h9v9H396V117M405 117h9v9H405V117M9 126h9v9H9V126M18 126h9v9H18V126M27 126h9v9H27V126M54 126h9v9H54V126M72 126h9v9H72V126M117 126h9v9H117V126M144 126h9v9H144V126M153 126h9v9H153V126M180 126h9v9H180V126M189 126h9v9H189V126M198 126h9v9H198V126M216 126h9v9H216V126M234 126h9v9H234V126M252 126h9v9H252V126M279 126h9v9H279V126M288 126h9v9H288V126M306 126h9v9H306V126M324 126h9v9H324V126M333 126h9v9H333V126M342 126h9v9H342V126M351 126h9v9H351V126M360 126h9v9H360V126M378 126h9v9H378V126M396 126h9v9H396V126M405 126h9v9H405V126M423 126h9v9H423V126M432 126h9v9H432V126M0 135h9v9H0V135M9 135h9v9H9V135M27 135h9v9H27V135M63 135h9v9H63V135M81 135h9v9H81V135M108 135h9v9H108V135M117 135h9v9H117V135M144 135h9v9H144V135M153 135h9v9H153V135M162 135h9v9H162V135M171 135h9v9H171V135M180 135h9v9H180V135M198 135h9v9H198V135M207 135h9v9H207V135M243 135h9v9H243V135M252 135h9v9H252V135M270 135h9v9H270V135M279 135h9v9H279V135M297 135h9v9H297V135M324 135h9v9H324V135M333 135h9v9H333V135M351 135h9v9H351V135M360 135h9v9H360V135M369 135h9v9H369V135M396 135h9v9H396V135M423 135h9v9H423V135M27 144h9v9H27V144M36 144h9v9H36V144M54 144h9v9H54V144M63 144h9v9H63V144M72 144h9v9H72V144M81 144h9v9H81V144M99 144h9v9H99V144M108 144h9v9H108V144M126 144h9v9H126V144M135 144h9v9H135V144M144 144h9v9H144V144M153 144h9v9H153V144M189 144h9v9H189V144M207 144h9v9H207V144M216 144h9v9H216V144M225 144h9v9H225V144M270 144h9v9H270V144M279 144h9v9H279V144M297 144h9v9H297V144M306 144h9v9H306V144M315 144h9v9H315V144M324 144h9v9H324V144M333 144h9v9H333V144M360 144h9v9H360V144M369 144h9v9H369V144M378 144h9v9H378V144M387 144h9v9H387V144M432 144h9v9H432V144M9 153h9v9H9V153M18 153h9v9H18V153M27 153h9v9H27V153M36 153h9v9H36V153M45 153h9v9H45V153M72 153h9v9H72V153M81 153h9v9H81V153M99 153h9v9H99V153M117 153h9v9H117V153M126 153h9v9H126V153M144 153h9v9H144V153M153 153h9v9H153V153M162 153h9v9H162V153M171 153h9v9H171V153M189 153h9v9H189V153M225 153h9v9H225V153M252 153h9v9H252V153M261 153h9v9H261V153M270 153h9v9H270V153M279 153h9v9H279V153M333 153h9v9H333V153M351 153h9v9H351V153M369 153h9v9H369V153M378 153h9v9H378V153M405 153h9v9H405V153M414 153h9v9H414V153M423 153h9v9H423V153M18 162h9v9H18V162M27 162h9v9H27V162M36 162h9v9H36V162M54 162h9v9H54V162M81 162h9v9H81V162M99 162h9v9H99V162M108 162h9v9H108V162M117 162h9v9H117V162M162 162h9v9H162V162M189 162h9v9H189V162M216 162h9v9H216V162M225 162h9v9H225V162M243 162h9v9H243V162M279 162h9v9H279V162M288 162h9v9H288V162M297 162h9v9H297V162M306 162h9v9H306V162M324 162h9v9H324V162M351 162h9v9H351V162M387 162h9v9H387V162M432 162h9v9H432V162M0 171h9v9H0V171M9 171h9v9H9V171M27 171h9v9H27V171M63 171h9v9H63V171M72 171h9v9H72V171M99 171h9v9H99V171M108 171h9v9H108V171M117 171h9v9H117V171M153 171h9v9H153V171M162 171h9v9H162V171M180 171h9v9H180V171M225 171h9v9H225V171M234 171h9v9H234V171M252 171h9v9H252V171M279 171h9v9H279V171M288 171h9v9H288V171M297 171h9v9H297V171M306 171h9v9H306V171M315 171h9v9H315V171M333 171h9v9H333V171M369 171h9v9H369V171M396 171h9v9H396V171M423 171h9v9H423V171M432 171h9v9H432V171M0 180h9v9H0V180M9 180h9v9H9V180M18 180h9v9H18V180M36 180h9v9H36V180M45 180h9v9H45V180M54 180h9v9H54V180M63 180h9v9H63V180M117 180h9v9H117V180M135 180h9v9H135V180M153 180h9v9H153V180M171 180h9v9H171V180M180 180h9v9H180V180M189 180h9v9H189V180M198 180h9v9H198V180M207 180h9v9H207V180M216 180h9v9H216V180M225 180h9v9H225V180M243 180h9v9H243V180M261 180h9v9H261V180M270 180h9v9H270V180M279 180h9v9H279V180M324 180h9v9H324V180M333 180h9v9H333V180M351 180h9v9H351V180M369 180h9v9H369V180M378 180h9v9H378V180M405 180h9v9H405V180M423 180h9v9H423V180M18 189h9v9H18V189M45 189h9v9H45V189M63 189h9v9H63V189M81 189h9v9H81V189M90 189h9v9H90V189M108 189h9v9H108V189M126 189h9v9H126V189M144 189h9v9H144V189M153 189h9v9H153V189M162 189h9v9H162V189M189 189h9v9H189V189M198 189h9v9H198V189M207 189h9v9H207V189M216 189h9v9H216V189M261 189h9v9H261V189M270 189h9v9H270V189M288 189h9v9H288V189M315 189h9v9H315V189M324 189h9v9H324V189M333 189h9v9H333V189M369 189h9v9H369V189M378 189h9v9H378V189M387 189h9v9H387V189M396 189h9v9H396V189M405 189h9v9H405V189M414 189h9v9H414V189M0 198h9v9H0V198M9 198h9v9H9V198M18 198h9v9H18V198M36 198h9v9H36V198M45 198h9v9H45V198M54 198h9v9H54V198M63 198h9v9H63V198M72 198h9v9H72V198M81 198h9v9H81V198M90 198h9v9H90V198M99 198h9v9H99V198M135 198h9v9H135V198M162 198h9v9H162V198M171 198h9v9H171V198M189 198h9v9H189V198M198 198h9v9H198V198M207 198h9v9H207V198M216 198h9v9H216V198M225 198h9v9H225V198M234 198h9v9H234V198M261 198h9v9H261V198M270 198h9v9H270V198M288 198h9v9H288V198M297 198h9v9H297V198M324 198h9v9H324V198M333 198h9v9H333V198M342 198h9v9H342V198M351 198h9v9H351V198M360 198h9v9H360V198M369 198h9v9H369V198M378 198h9v9H378V198M387 198h9v9H387V198M396 198h9v9H396V198M405 198h9v9H405V198M414 198h9v9H414V198M423 198h9v9H423V198M432 198h9v9H432V198M0 207h9v9H0V207M27 207h9v9H27V207M36 207h9v9H36V207M72 207h9v9H72V207M126 207h9v9H126V207M153 207h9v9H153V207M198 207h9v9H198V207M234 207h9v9H234V207M243 207h9v9H243V207M270 207h9v9H270V207M297 207h9v9H297V207M324 207h9v9H324V207M360 207h9v9H360V207M396 207h9v9H396V207M432 207h9v9H432V207M9 216h9v9H9V216M27 216h9v9H27V216M36 216h9v9H36V216M54 216h9v9H54V216M72 216h9v9H72V216M81 216h9v9H81V216M90 216h9v9H90V216M99 216h9v9H99V216M117 216h9v9H117V216M144 216h9v9H144V216M162 216h9v9H162V216M189 216h9v9H189V216M198 216h9v9H198V216M216 216h9v9H216V216M234 216h9v9H234V216M261 216h9v9H261V216M270 216h9v9H270V216M279 216h9v9H279V216M297 216h9v9H297V216M315 216h9v9H315V216M324 216h9v9H324V216M360 216h9v9H360V216M378 216h9v9H378V216M396 216h9v9H396V216M405 216h9v9H405V216M36 225h9v9H36V225M72 225h9v9H72V225M90 225h9v9H90V225M126 225h9v9H126V225M153 225h9v9H153V225M171 225h9v9H171V225M198 225h9v9H198V225M234 225h9v9H234V225M243 225h9v9H243V225M270 225h9v9H270V225M324 225h9v9H324V225M333 225h9v9H333V225M351 225h9v9H351V225M360 225h9v9H360V225M396 225h9v9H396V225M405 225h9v9H405V225M27 234h9v9H27V234M36 234h9v9H36V234M45 234h9v9H45V234M54 234h9v9H54V234M63 234h9v9H63V234M72 234h9v9H72V234M81 234h9v9H81V234M90 234h9v9H90V234M99 234h9v9H99V234M117 234h9v9H117V234M135 234h9v9H135V234M144 234h9v9H144V234M153 234h9v9H153V234M162 234h9v9H162V234M180 234h9v9H180V234M198 234h9v9H198V234M207 234h9v9H207V234M216 234h9v9H216V234M225 234h9v9H225V234M234 234h9v9H234V234M243 234h9v9H243V234M252 234h9v9H252V234M261 234h9v9H261V234M288 234h9v9H288V234M297 234h9v9H297V234M315 234h9v9H315V234M324 234h9v9H324V234M351 234h9v9H351V234M360 234h9v9H360V234M369 234h9v9H369V234M378 234h9v9H378V234M387 234h9v9H387V234M396 234h9v9H396V234M405 234h9v9H405V234M423 234h9v9H423V234M432 234h9v9H432V234M18 243h9v9H18V243M45 243h9v9H45V243M63 243h9v9H63V243M81 243h9v9H81V243M90 243h9v9H90V243M99 243h9v9H99V243M108 243h9v9H108V243M117 243h9v9H117V243M153 243h9v9H153V243M216 243h9v9H216V243M225 243h9v9H225V243M234 243h9v9H234V243M243 243h9v9H243V243M252 243h9v9H252V243M288 243h9v9H288V243M342 243h9v9H342V243M360 243h9v9H360V243M369 243h9v9H369V243M378 243h9v9H378V243M423 243h9v9H423V243M0 252h9v9H0V252M9 252h9v9H9V252M18 252h9v9H18V252M27 252h9v9H27V252M54 252h9v9H54V252M72 252h9v9H72V252M99 252h9v9H99V252M108 252h9v9H108V252M126 252h9v9H126V252M144 252h9v9H144V252M153 252h9v9H153V252M162 252h9v9H162V252M171 252h9v9H171V252M189 252h9v9H189V252M198 252h9v9H198V252M216 252h9v9H216V252M261 252h9v9H261V252M270 252h9v9H270V252M279 252h9v9H279V252M297 252h9v9H297V252M306 252h9v9H306V252M315 252h9v9H315V252M324 252h9v9H324V252M351 252h9v9H351V252M387 252h9v9H387V252M396 252h9v9H396V252M405 252h9v9H405V252M414 252h9v9H414V252M9 261h9v9H9V261M27 261h9v9H27V261M45 261h9v9H45V261M63 261h9v9H63V261M72 261h9v9H72V261M81 261h9v9H81V261M90 261h9v9H90V261M99 261h9v9H99V261M108 261h9v9H108V261M117 261h9v9H117V261M135 261h9v9H135V261M144 261h9v9H144V261M153 261h9v9H153V261M162 261h9v9H162V261M189 261h9v9H189V261M207 261h9v9H207V261M225 261h9v9H225V261M252 261h9v9H252V261M261 261h9v9H261V261M270 261h9v9H270V261M288 261h9v9H288V261M315 261h9v9H315V261M324 261h9v9H324V261M333 261h9v9H333V261M405 261h9v9H405V261M432 261h9v9H432V261M9 270h9v9H9V270M18 270h9v9H18V270M36 270h9v9H36V270M54 270h9v9H54V270M72 270h9v9H72V270M90 270h9v9H90V270M99 270h9v9H99V270M126 270h9v9H126V270M171 270h9v9H171V270M189 270h9v9H189V270M198 270h9v9H198V270M225 270h9v9H225V270M252 270h9v9H252V270M261 270h9v9H261V270M270 270h9v9H270V270M279 270h9v9H279V270M288 270h9v9H288V270M297 270h9v9H297V270M342 270h9v9H342V270M360 270h9v9H360V270M369 270h9v9H369V270M378 270h9v9H378V270M396 270h9v9H396V270M405 270h9v9H405V270M423 270h9v9H423V270M432 270h9v9H432V270M0 279h9v9H0V279M45 279h9v9H45V279M99 279h9v9H99V279M108 279h9v9H108V279M117 279h9v9H117V279M126 279h9v9H126V279M153 279h9v9H153V279M162 279h9v9H162V279M189 279h9v9H189V279M198 279h9v9H198V279M207 279h9v9H207V279M243 279h9v9H243V279M261 279h9v9H261V279M288 279h9v9H288V279M297 279h9v9H297V279M306 279h9v9H306V279M324 279h9v9H324V279M333 279h9v9H333V279M360 279h9v9H360V279M369 279h9v9H369V279M432 279h9v9H432V279M27 288h9v9H27V288M36 288h9v9H36V288M54 288h9v9H54V288M90 288h9v9H90V288M108 288h9v9H108V288M126 288h9v9H126V288M144 288h9v9H144V288M153 288h9v9H153V288M171 288h9v9H171V288M180 288h9v9H180V288M189 288h9v9H189V288M207 288h9v9H207V288M279 288h9v9H279V288M306 288h9v9H306V288M315 288h9v9H315V288M324 288h9v9H324V288M351 288h9v9H351V288M360 288h9v9H360V288M369 288h9v9H369V288M405 288h9v9H405V288M432 288h9v9H432V288M27 297h9v9H27V297M45 297h9v9H45V297M72 297h9v9H72V297M90 297h9v9H90V297M117 297h9v9H117V297M126 297h9v9H126V297M135 297h9v9H135V297M162 297h9v9H162V297M189 297h9v9H189V297M198 297h9v9H198V297M216 297h9v9H216V297M225 297h9v9H225V297M234 297h9v9H234V297M261 297h9v9H261V297M270 297h9v9H270V297M279 297h9v9H279V297M315 297h9v9H315V297M324 297h9v9H324V297M333 297h9v9H333V297M360 297h9v9H360V297M369 297h9v9H369V297M387 297h9v9H387V297M405 297h9v9H405V297M18 306h9v9H18V306M27 306h9v9H27V306M54 306h9v9H54V306M72 306h9v9H72V306M81 306h9v9H81V306M117 306h9v9H117V306M126 306h9v9H126V306M135 306h9v9H135V306M144 306h9v9H144V306M153 306h9v9H153V306M162 306h9v9H162V306M171 306h9v9H171V306M180 306h9v9H180V306M189 306h9v9H189V306M225 306h9v9H225V306M243 306h9v9H243V306M261 306h9v9H261V306M279 306h9v9H279V306M297 306h9v9H297V306M306 306h9v9H306V306M315 306h9v9H315V306M324 306h9v9H324V306M369 306h9v9H369V306M378 306h9v9H378V306M387 306h9v9H387V306M396 306h9v9H396V306M405 306h9v9H405V306M414 306h9v9H414V306M423 306h9v9H423V306M432 306h9v9H432V306M9 315h9v9H9V315M36 315h9v9H36V315M45 315h9v9H45V315M72 315h9v9H72V315M108 315h9v9H108V315M117 315h9v9H117V315M171 315h9v9H171V315M180 315h9v9H180V315M198 315h9v9H198V315M207 315h9v9H207V315M225 315h9v9H225V315M252 315h9v9H252V315M270 315h9v9H270V315M279 315h9v9H279V315M297 315h9v9H297V315M351 315h9v9H351V315M360 315h9v9H360V315M432 315h9v9H432V315M0 324h9v9H0V324M18 324h9v9H18V324M27 324h9v9H27V324M36 324h9v9H36V324M54 324h9v9H54V324M63 324h9v9H63V324M90 324h9v9H90V324M108 324h9v9H108V324M117 324h9v9H117V324M153 324h9v9H153V324M189 324h9v9H189V324M207 324h9v9H207V324M216 324h9v9H216V324M234 324h9v9H234V324M270 324h9v9H270V324M279 324h9v9H279V324M315 324h9v9H315V324M324 324h9v9H324V324M333 324h9v9H333V324M342 324h9v9H342V324M351 324h9v9H351V324M369 324h9v9H369V324M378 324h9v9H378V324M396 324h9v9H396V324M405 324h9v9H405V324M414 324h9v9H414V324M423 324h9v9H423V324M432 324h9v9H432V324M36 333h9v9H36V333M45 333h9v9H45V333M63 333h9v9H63V333M108 333h9v9H108V333M135 333h9v9H135V333M144 333h9v9H144V333M162 333h9v9H162V333M171 333h9v9H171V333M189 333h9v9H189V333M207 333h9v9H207V333M216 333h9v9H216V333M225 333h9v9H225V333M243 333h9v9H243V333M261 333h9v9H261V333M270 333h9v9H270V333M288 333h9v9H288V333M297 333h9v9H297V333M315 333h9v9H315V333M333 333h9v9H333V333M369 333h9v9H369V333M378 333h9v9H378V333M387 333h9v9H387V333M423 333h9v9H423V333M9 342h9v9H9V342M45 342h9v9H45V342M54 342h9v9H54V342M90 342h9v9H90V342M117 342h9v9H117V342M126 342h9v9H126V342M144 342h9v9H144V342M153 342h9v9H153V342M162 342h9v9H162V342M180 342h9v9H180V342M189 342h9v9H189V342M198 342h9v9H198V342M207 342h9v9H207V342M225 342h9v9H225V342M243 342h9v9H243V342M279 342h9v9H279V342M306 342h9v9H306V342M315 342h9v9H315V342M324 342h9v9H324V342M333 342h9v9H333V342M351 342h9v9H351V342M360 342h9v9H360V342M369 342h9v9H369V342M378 342h9v9H378V342M387 342h9v9H387V342M423 342h9v9H423V342M432 342h9v9H432V342M9 351h9v9H9V351M18 351h9v9H18V351M27 351h9v9H27V351M72 351h9v9H72V351M81 351h9v9H81V351M90 351h9v9H90V351M99 351h9v9H99V351M135 351h9v9H135V351M171 351h9v9H171V351M189 351h9v9H189V351M216 351h9v9H216V351M234 351h9v9H234V351M243 351h9v9H243V351M252 351h9v9H252V351M261 351h9v9H261V351M270 351h9v9H270V351M288 351h9v9H288V351M297 351h9v9H297V351M333 351h9v9H333V351M342 351h9v9H342V351M351 351h9v9H351V351M360 351h9v9H360V351M378 351h9v9H378V351M0 360h9v9H0V360M9 360h9v9H9V360M18 360h9v9H18V360M54 360h9v9H54V360M63 360h9v9H63V360M72 360h9v9H72V360M90 360h9v9H90V360M99 360h9v9H99V360M108 360h9v9H108V360M117 360h9v9H117V360M144 360h9v9H144V360M162 360h9v9H162V360M189 360h9v9H189V360M198 360h9v9H198V360M207 360h9v9H207V360M216 360h9v9H216V360M225 360h9v9H225V360M234 360h9v9H234V360M270 360h9v9H270V360M279 360h9v9H279V360M315 360h9v9H315V360M324 360h9v9H324V360M342 360h9v9H342V360M351 360h9v9H351V360M360 360h9v9H360V360M369 360h9v9H369V360M378 360h9v9H378V360M387 360h9v9H387V360M396 360h9v9H396V360M405 360h9v9H405V360M423 360h9v9H423V360M432 360h9v9H432V360M72 369h9v9H72V369M108 369h9v9H108V369M117 369h9v9H117V369M126 369h9v9H126V369M135 369h9v9H135V369M153 369h9v9H153V369M162 369h9v9H162V369M171 369h9v9H171V369M198 369h9v9H198V369M234 369h9v9H234V369M252 369h9v9H252V369M270 369h9v9H270V369M315 369h9v9H315V369M324 369h9v9H324V369M333 369h9v9H333V369M360 369h9v9H360V369M396 369h9v9H396V369M414 369h9v9H414V369M432 369h9v9H432V369M0 378h9v9H0V378M9 378h9v9H9V378M18 378h9v9H18V378M27 378h9v9H27V378M36 378h9v9H36V378M45 378h9v9H45V378M54 378h9v9H54V378M99 378h9v9H99V378M135 378h9v9H135V378M162 378h9v9H162V378M189 378h9v9H189V378M198 378h9v9H198V378M216 378h9v9H216V378M234 378h9v9H234V378M243 378h9v9H243V378M261 378h9v9H261V378M279 378h9v9H279V378M297 378h9v9H297V378M342 378h9v9H342V378M360 378h9v9H360V378M378 378h9v9H378V378M396 378h9v9H396V378M423 378h9v9H423V378M432 378h9v9H432V378M0 387h9v9H0V387M54 387h9v9H54V387M72 387h9v9H72V387M81 387h9v9H81V387M99 387h9v9H99V387M117 387h9v9H117V387M126 387h9v9H126V387M135 387h9v9H135V387M162 387h9v9H162V387M171 387h9v9H171V387M180 387h9v9H180V387M189 387h9v9H189V387M198 387h9v9H198V387M234 387h9v9H234V387M243 387h9v9H243V387M261 387h9v9H261V387M270 387h9v9H270V387M297 387h9v9H297V387M306 387h9v9H306V387M315 387h9v9H315V387M360 387h9v9H360V387M396 387h9v9H396V387M423 387h9v9H423V387M0 396h9v9H0V396M18 396h9v9H18V396M27 396h9v9H27V396M36 396h9v9H36V396M54 396h9v9H54V396M72 396h9v9H72V396M99 396h9v9H99V396M108 396h9v9H108V396M126 396h9v9H126V396M135 396h9v9H135V396M189 396h9v9H189V396M198 396h9v9H198V396M207 396h9v9H207V396M216 396h9v9H216V396M225 396h9v9H225V396M234 396h9v9H234V396M270 396h9v9H270V396M279 396h9v9H279V396M297 396h9v9H297V396M306 396h9v9H306V396M324 396h9v9H324V396M342 396h9v9H342V396M351 396h9v9H351V396M360 396h9v9H360V396M369 396h9v9H369V396M378 396h9v9H378V396M387 396h9v9H387V396M396 396h9v9H396V396M405 396h9v9H405V396M414 396h9v9H414V396M0 405h9v9H0V405M18 405h9v9H18V405M27 405h9v9H27V405M36 405h9v9H36V405M54 405h9v9H54V405M72 405h9v9H72V405M108 405h9v9H108V405M126 405h9v9H126V405M135 405h9v9H135V405M153 405h9v9H153V405M171 405h9v9H171V405M180 405h9v9H180V405M198 405h9v9H198V405M207 405h9v9H207V405M216 405h9v9H216V405M225 405h9v9H225V405M234 405h9v9H234V405M252 405h9v9H252V405M261 405h9v9H261V405M270 405h9v9H270V405M315 405h9v9H315V405M324 405h9v9H324V405M333 405h9v9H333V405M351 405h9v9H351V405M360 405h9v9H360V405M396 405h9v9H396V405M414 405h9v9H414V405M423 405h9v9H423V405M432 405h9v9H432V405M0 414h9v9H0V414M18 414h9v9H18V414M27 414h9v9H27V414M36 414h9v9H36V414M54 414h9v9H54V414M72 414h9v9H72V414M81 414h9v9H81V414M90 414h9v9H90V414M108 414h9v9H108V414M117 414h9v9H117V414M126 414h9v9H126V414M144 414h9v9H144V414M180 414h9v9H180V414M189 414h9v9H189V414M198 414h9v9H198V414M207 414h9v9H207V414M216 414h9v9H216V414M225 414h9v9H225V414M252 414h9v9H252V414M261 414h9v9H261V414M306 414h9v9H306V414M315 414h9v9H315V414M324 414h9v9H324V414M342 414h9v9H342V414M387 414h9v9H387V414M414 414h9v9H414V414M0 423h9v9H0V423M54 423h9v9H54V423M81 423h9v9H81V423M99 423h9v9H99V423M108 423h9v9H108V423M117 423h9v9H117V423M162 423h9v9H162V423M171 423h9v9H171V423M180 423h9v9H180V423M189 423h9v9H189V423M198 423h9v9H198V423M207 423h9v9H207V423M216 423h9v9H216V423M252 423h9v9H252V423M270 423h9v9H270V423M279 423h9v9H279V423M315 423h9v9H315V423M333 423h9v9H333V423M342 423h9v9H342V423M360 423h9v9H360V423M369 423h9v9H369V423M378 423h9v9H378V423M396 423h9v9H396V423M405 423h9v9H405V423M432 423h9v9H432V423M0 432h9v9H0V432M9 432h9v9H9V432M18 432h9v9H18V432M27 432h9v9H27V432M36 432h9v9H36V432M45 432h9v9H45V432M54 432h9v9H54V432M72 432h9v9H72V432M81 432h9v9H81V432M117 432h9v9H117V432M126 432h9v9H126V432M144 432h9v9H144V432M153 432h9v9H153V432M162 432h9v9H162V432M243 432h9v9H243V432M261 432h9v9H261V432M270 432h9v9H270V432M279 432h9v9H279V432M306 432h9v9H306V432M324 432h9v9H324V432M351 432h9v9H351V432M378 432h9v9H378V432M387 432h9v9H387V432M396 432h9v9H396V432M414 432h9v9H414V432M423 432h9v9H423V432M432 432h9v9H432V432"/></svg>
