<?xml version="1.0" standalone="yes"?><svg xmlns="http://www.w3.org/2000/svg" version="1.1" width="424" height="424" viewBox="0 0 424 424" shape-rendering="crispEdges"><rect x="0" y="0" width="424" height="424" fill="#fff"/><path fill="#000" d="M0 0h8v8H0V0M8 0h8v8H8V0M16 0h8v8H16V0M24 0h8v8H24V0M32 0h8v8H32V0M40 0h8v8H40V0M48 0h8v8H48V0M72 0h8v8H72V0M80 0h8v8H80V0M88 0h8v8H88V0M104 0h8v8H104V0M120 0h8v8H120V0M128 0h8v8H128V0M168 0h8v8H168V0M184 0h8v8H184V0M208 0h8v8H208V0M224 0h8v8H224V0M232 0h8v8H232V0M240 0h8v8H240V0M288 0h8v8H288V0M296 0h8v8H296V0M336 0h8v8H336V0M368 0h8v8H368V0M376 0h8v8H376V0M384 0h8v8H384V0M392 0h8v8H392V0M400 0h8v8H400V0M408 0h8v8H408V0M416 0h8v8H416V0M0 8h8v8H0V8M48 8h8v8H48V8M72 8h8v8H72V8M88 8h8v8H88V8M96 8h8v8H96V8M136 8h8v8H136V8M144 8h8v8H144V8M152 8h8v8H152V8M160 8h8v8H160V8M168 8h8v8H168V8M216 8h8v8H216V8M256 8h8v8H256V8M264 8h8v8H264V8M288 8h8v8H288V8M312 8h8v8H312V8M320 8h8v8H320V8M328 8h8v8H328V8M336 8h8v8H336V8M344 8h8v8H344V8M368 8h8v8H368V8M416 8h8v8H416V8M0 16h8v8H0V16M16 16h8v8H16V16M24 16h8v8H24V16M32 16h8v8H32V16M48 16h8v8H48V16M64 16h8v8H64V16M72 16h8v8H72V16M96 16h8v8H96V16M104 16h8v8H104V16M112 16h8v8H112V16M128 16h8v8H128V16M152 16h8v8H152V16M160 16h8v8H160V16M168 16h8v8H168V16M184 16h8v8H184V16M200 16h8v8H200V16M216 16h8v8H216V16M232 16h8v8H232V16M240 16h8v8H240V16M256 16h8v8H256V16M272 16h8v8H272V16M280 16h8v8H280V16M304 16h8v8H304V16M344 16h8v8H344V16M368 16h8v8H368V16M384 16h8v8H384V16M392 16h8v8H392V16M400 16h8v8H400V16M416 16h8v8H416V16M0 24h8v8H0V24M16 24h8v8H16V24M24 24h8v8H24V24M32 24h8v8H32V24M48 24h8v8H48V24M64 24h8v8H64V24M72 24h8v8H72V24M80 24h8v8H80V24M88 24h8v8H88V24M104 24h8v8H104V24M128 24h8v8H128V24M144 24h8v8H144V24M152 24h8v8H152V24M160 24h8v8H160V24M184 24h8v8H184V24M192 24h8v8H192V24M224 24h8v8H224V24M248 24h8v8H248V24M272 24h8v8H272V24M280 24h8v8H280V24M288 24h8v8H288V24M296 24h8v8H296V24M328 24h8v8H328V24M336 24h8v8H336V24M352 24h8v8H352V24M368 24h8v8H368V24M384 24h8v8H384V24M392 24h8v8H392V24M400 24h8v8H400V24M416 24h8v8H416V24M0 32h8v8H0V32M16 32h8v8H16V32M24 32h8v8H24V32M32 32h8v8H32V32M48 32h8v8H48V32M64 32h8v8H64V32M80 32h8v8H80V32M88 32h8v8H88V32M96 32h8v8H96V32M112 32h8v8H112V32M152 32h8v8H152V32M168 32h8v8H168V32M176 32h8v8H176V32M184 32h8v8H184V32M192 32h8v8H192V32M200 32h8v8H200V32M208 32h8v8H208V32M216 32h8v8H216V32M224 32h8v8H224V32M240 32h8v8H240V32M288 32h8v8H288V32M296 32h8v8H296V32M312 32h8v8H312V32M336 32h8v8H336V32M368 32h8v8H368V32M384 32h8v8H384V32M392 32h8v8H392V32M400 32h8v8H400V32M416 32h8v8H416V32M0 40h8v8H0V40M48 40h8v8H48V40M64 40h8v8H64V40M80 40h8v8H80V40M88 40h8v8H88V40M96 40h8v8H96V40M104 40h8v8H104V40M112 40h8v8H112V40M120 40h8v8H120V40M128 40h8v8H128V40M144 40h8v8H144V40M160 40h8v8H160V40M168 40h8v8H168V40M176 40h8v8H176V40M192 40h8v8H192V40M224 40h8v8H224V40M232 40h8v8H232V40M280 40h8v8H280V40M304 40h8v8H304V40M312 40h8v8H312V40M320 40h8v8H320V40M336 40h8v8H336V40M368 40h8v8H368V40M416 40h8v8H416V40M0 48h8v8H0V48M8 48h8v8H8V48M16 48h8v8H16V48M24 48h8v8H24V48M32 48h8v8H32V48M40 48h8v8H40V48M48 48h8v8H48V48M64 48h8v8H64V48M80 48h8v8H80V48M96 48h8v8H96V48M112 48h8v8H112V48M128 48h8v8H128V48M144 48h8v8H144V48M160 48h8v8H160V48M176 48h8v8H176V48M192 48h8v8H192V48M208 48h8v8H208V48M224 48h8v8H224V48M240 48h8v8H240V48M256 48h8v8H256V48M272 48h8v8H272V48M288 48h8v8H288V48M304 48h8v8H304V48M320 48h8v8H320V48M336 48h8v8H336V48M352 48h8v8H352V48M368 48h8v8H368V48M376 48h8v8H376V48M384 48h8v8H384V48M392 48h8v8H392V48M400 48h8v8H400V48M408 48h8v8H408V48M416 48h8v8H416V48M64 56h8v8H64V56M104 56h8v8H104V56M112 56h8v8H112V56M128 56h8v8H128V56M136 56h8v8H136V56M144 56h8v8H144V56M152 56h8v8H152V56M160 56h8v8H160V56M184 56h8v8H184V56M192 56h8v8H192V56M224 56h8v8H224V56M232 56h8v8H232V56M240 56h8v8H240V56M256 56h8v8H256V56M264 56h8v8H264V56M280 56h8v8H280V56M296 56h8v8H296V56M312 56h8v8H312V56M320 56h8v8H320V56M328 56h8v8H328V56M336 56h8v8H336V56M344 56h8v8H344V56M0 64h8v8H0V64M16 64h8v8H16V64M24 64h8v8H24V64M32 64h8v8H32V64M40 64h8v8H40V64M48 64h8v8H48V64M72 64h8v8H72V64M80 64h8v8H80V64M96 64h8v8H96V64M104 64h8v8H104V64M112 64h8v8H112V64M128 64h8v8H128V64M144 64h8v8H144V64M152 64h8v8H152V64M192 64h8v8H192V64M200 64h8v8H200V64M208 64h8v8H208V64M216 64h8v8H216V64M224 64h8v8H224V64M248 64h8v8H248V64M288 64h8v8H288V64M344 64h8v8H344V64M352 64h8v8H352V64M368 64h8v8H368V64M376 64h8v8H376V64M384 64h8v8H384V64M392 64h8v8H392V64M400 64h8v8H400V64M0 72h8v8H0V72M16 72h8v8H16V72M24 72h8v8H24V72M56 72h8v8H56V72M64 72h8v8H64V72M72 72h8v8H72V72M88 72h8v8H88V72M128 72h8v8H128V72M152 72h8v8H152V72M160 72h8v8H160V72M168 72h8v8H168V72M232 72h8v8H232V72M240 72h8v8H240V72M248 72h8v8H248V72M264 72h8v8H264V72M288 72h8v8H288V72M296 72h8v8H296V72M320 72h8v8H320V72M328 72h8v8H328V72M336 72h8v8H336V72M344 72h8v8H344V72M360 72h8v8H360V72M376 72h8v8H376V72M400 72h8v8H400V72M408 72h8v8H408V72M416 72h8v8H416V72M8 80h8v8H8V80M16 80h8v8H16V80M48 80h8v8H48V80M64 80h8v8H64V80M72 80h8v8H72V80M80 80h8v8H80V80M88 80h8v8H88V80M104 80h8v8H104V80M112 80h8v8H112V80M120 80h8v8H120V80M136 80h8v8H136V80M144 80h8v8H144V80M160 80h8v8H160V80M200 80h8v8H200V80M232 80h8v8H232V80M256 80h8v8H256V80M272 80h8v8H272V80M280 80h8v8H280V80M288 80h8v8H288V80M304 80h8v8H304V80M320 80h8v8H320V80M336 80h8v8H336V80M344 80h8v8H344V80M352 80h8v8H352V80M360 80h8v8H360V80M368 80h8v8H368V80M384 80h8v8H384V80M392 80h8v8H392V80M400 80h8v8H400V80M0 88h8v8H0V88M8 88h8v8H8V88M32 88h8v8H32V88M56 88h8v8H56V88M64 88h8v8H64V88M72 88h8v8H72V88M80 88h8v8H80V88M120 88h8v8H120V88M136 88h8v8H136V88M152 88h8v8H152V88M168 88h8v8H168V88M184 88h8v8H184V88M192 88h8v8H192V88M200 88h8v8H200V88M216 88h8v8H216V88M256 88h8v8H256V88M264 88h8v8H264V88M288 88h8v8H288V88M304 88h8v8H304V88M312 88h8v8H312V88M320 88h8v8H320V88M328 88h8v8H328V88M336 88h8v8H336V88M352 88h8v8H352V88M384 88h8v8H384V88M392 88h8v8H392V88M416 88h8v8H416V88M0 96h8v8H0V96M16 96h8v8H16V96M40 96h8v8H40V96M48 96h8v8H48V96M72 96h8v8H72V96M96 96h8v8H96V96M112 96h8v8H112V96M168 96h8v8H168V96M184 96h8v8H184V96M192 96h8v8H192V96M224 96h8v8H224V96M232 96h8v8H232V96M248 96h8v8H248V96M280 96h8v8H280V96M288 96h8v8H288V96M296 96h8v8H296V96M328 96h8v8H328V96M336 96h8v8H336V96M352 96h8v8H352V96M376 96h8v8H376V96M384 96h8v8H384V96M408 96h8v8H408V96M0 104h8v8H0V104M8 104h8v8H8V104M32 104h8v8H32V104M40 104h8v8H40V104M80 104h8v8H80V104M104 104h8v8H104V104M112 104h8v8H112V104M128 104h8v8H128V104M144 104h8v8H144V104M152 104h8v8H152V104M160 104h8v8H160V104M176 104h8v8H176V104M216 104h8v8H216V104M224 104h8v8H224V104M232 104h8v8H232V104M240 104h8v8H240V104M248 104h8v8H248V104M280 104h8v8H280V104M312 104h8v8H312V104M320 104h8v8H320V104M328 104h8v8H328V104M336 104h8v8H336V104M344 104h8v8H344V104M376 104h8v8H376V104M392 104h8v8H392V104M416 104h8v8H416V104M0 112h8v8H0V112M48 112h8v8H48V112M80 112h8v8H80V112M88 112h8v8H88V112M96 112h8v8H96V112M104 112h8v8H104V112M112 112h8v8H112V112M120 112h8v8H120V112M144 112h8v8H144V112M168 112h8v8H168V112M176 112h8v8H176V112M192 112h8v8H192V112M208 112h8v8H208V112M232 112h8v8H232V112M240 112h8v8H240V112M264 112h8v8H264V112M272 112h8v8H272V112M296 112h8v8H296V112M304 112h8v8H304V112M320 112h8v8H320V112M336 112h8v8H336V112M344 112h8v8H344V112M352 112h8v8H352V112M360 112h8v8H360V112M384 112h8v8H384V112M408 112h8v8H408V112M0 120h8v8H0V120M8 120h8v8H8V120M16 120h8v8H16V120M24 120h8v8H24V120M32 120h8v8H32V120M40 120h8v8H40V120M72 120h8v8H72V120M96 120h8v8H96V120M112 120h8v8H112V120M144 120h8v8H144V120M160 120h8v8H160V120M168 120h8v8H168V120M176 120h8v8H176V120M184 120h8v8H184V120M192 120h8v8H192V120M200 120h8v8H200V120M216 120h8v8H216V120M224 120h8v8H224V120M232 120h8v8H232V120M248 120h8v8H248V120M264 120h8v8H264V120M272 120h8v8H272V120M320 120h8v8H320V120M336 120h8v8H336V120M344 120h8v8H344V120M360 120h8v8H360V120M376 120h8v8H376V120M392 120h8v8H392V120M408 120h8v8H408V120M416 120h8v8H416V120M0 128h8v8H0V128M8 128h8v8H8V128M16 128h8v8H16V128M32 128h8v8H32V128M48 128h8v8H48V128M72 128h8v8H72V128M80 128h8v8H80V128M96 128h8v8H96V128M104 128h8v8H104V128M112 128h8v8H112V128M120 128h8v8H120V128M136 128h8v8H136V128M152 128h8v8H152V128M184 128h8v8H184V128M224 128h8v8H224V128M232 128h8v8H232V128M248 128h8v8H248V128M280 128h8v8H280V128M288 128h8v8H288V128M312 128h8v8H312V128M328 128h8v8H328V128M336 128h8v8H336V128M352 128h8v8H352V128M368 128h8v8H368V128M376 128h8v8H376V128M384 128h8v8H384V128M392 128h8v8H392V128M0 136h8v8H0V136M8 136h8v8H8V136M40 136h8v8H40V136M56 136h8v8H56V136M72 136h8v8H72V136M80 136h8v8H80V136M104 136h8v8H104V136M136 136h8v8H136V136M152 136h8v8H152V136M160 136h8v8H160V136M168 136h8v8H168V136M200 136h8v8H200V136M232 136h8v8H232V136M240 136h8v8H240V136M248 136h8v8H248V136M256 136h8v8H256V136M288 136h8v8H288V136M296 136h8v8H296V136M328 136h8v8H328V136M336 136h8v8H336V136M344 136h8v8H344V136M360 136h8v8H360V136M384 136h8v8H384V136M392 136h8v8H392V136M416 136h8v8H416V136M8 144h8v8H8V144M16 144h8v8H16V144M24 144h8v8H24V144M40 144h8v8H40V144M48 144h8v8H48V144M56 144h8v8H56V144M80 144h8v8H80V144M96 144h8v8H96V144M112 144h8v8H112V144M120 144h8v8H120V144M128 144h8v8H128V144M152 144h8v8H152V144M160 144h8v8H160V144M168 144h8v8H168V144M184 144h8v8H184V144M200 144h8v8H200V144M240 144h8v8H240V144M248 144h8v8H248V144M256 144h8v8H256V144M264 144h8v8H264V144M272 144h8v8H272V144M328 144h8v8H328V144M336 144h8v8H336V144M344 144h8v8H344V144M368 144h8v8H368V144M0 152h8v8H0V152M8 152h8v8H8V152M16 152h8v8H16V152M24 152h8v8H24V152M64 152h8v8H64V152M80 152h8v8H80V152M96 152h8v8H96V152M136 152h8v8H136V152M152 152h8v8H152V152M160 152h8v8H160V152M184 152h8v8H184V152M192 152h8v8H192V152M200 152h8v8H200V152M216 152h8v8H216V152M224 152h8v8H224V152M240 152h8v8H240V152M256 152h8v8H256V152M272 152h8v8H272V152M280 152h8v8H280V152M296 152h8v8H296V152M304 152h8v8H304V152M320 152h8v8H320V152M328 152h8v8H328V152M336 152h8v8H336V152M344 152h8v8H344V152M352 152h8v8H352V152M360 152h8v8H360V152M408 152h8v8H408V152M416 152h8v8H416V152M8 160h8v8H8V160M40 160h8v8H40V160M48 160h8v8H48V160M72 160h8v8H72V160M88 160h8v8H88V160M96 160h8v8H96V160M112 160h8v8H112V160M120 160h8v8H120V160M136 160h8v8H136V160M144 160h8v8H144V160M168 160h8v8H168V160M216 160h8v8H216V160M224 160h8v8H224V160M248 160h8v8H248V160M264 160h8v8H264V160M272 160h8v8H272V160M288 160h8v8H288V160M296 160h8v8H296V160M304 160h8v8H304V160M312 160h8v8H312V160M328 160h8v8H328V160M344 160h8v8H344V160M376 160h8v8H376V160M384 160h8v8H384V160M392 160h8v8H392V160M400 160h8v8H400V160M408 160h8v8H408V160M416 160h8v8H416V160M8 168h8v8H8V168M24 168h8v8H24V168M32 168h8v8H32V168M64 168h8v8H64V168M72 168h8v8H72V168M80 168h8v8H80V168M96 168h8v8H96V168M128 168h8v8H128V168M136 168h8v8H136V168M160 168h8v8H160V168M184 168h8v8H184V168M192 168h8v8H192V168M216 168h8v8H216V168M232 168h8v8H232V168M240 168h8v8H240V168M256 168h8v8H256V168M280 168h8v8H280V168M288 168h8v8H288V168M328 168h8v8H328V168M336 168h8v8H336V168M344 168h8v8H344V168M376 168h8v8H376V168M384 168h8v8H384V168M408 168h8v8H408V168M416 168h8v8H416V168M0 176h8v8H0V176M32 176h8v8H32V176M40 176h8v8H40V176M48 176h8v8H48V176M88 176h8v8H88V176M104 176h8v8H104V176M128 176h8v8H128V176M136 176h8v8H136V176M152 176h8v8H152V176M160 176h8v8H160V176M168 176h8v8H168V176M176 176h8v8H176V176M192 176h8v8H192V176M208 176h8v8H208V176M232 176h8v8H232V176M240 176h8v8H240V176M264 176h8v8H264V176M272 176h8v8H272V176M288 176h8v8H288V176M304 176h8v8H304V176M312 176h8v8H312V176M336 176h8v8H336V176M344 176h8v8H344V176M352 176h8v8H352V176M384 176h8v8H384V176M392 176h8v8H392V176M400 176h8v8H400V176M0 184h8v8H0V184M16 184h8v8H16V184M24 184h8v8H24V184M88 184h8v8H88V184M120 184h8v8H120V184M144 184h8v8H144V184M152 184h8v8H152V184M160 184h8v8H160V184M168 184h8v8H168V184M192 184h8v8H192V184M200 184h8v8H200V184M216 184h8v8H216V184M240 184h8v8H240V184M248 184h8v8H248V184M264 184h8v8H264V184M272 184h8v8H272V184M288 184h8v8H288V184M320 184h8v8H320V184M344 184h8v8H344V184M360 184h8v8H360V184M368 184h8v8H368V184M384 184h8v8H384V184M408 184h8v8H408V184M416 184h8v8H416V184M0 192h8v8H0V192M16 192h8v8H16V192M32 192h8v8H32V192M40 192h8v8H40V192M48 192h8v8H48V192M56 192h8v8H56V192M64 192h8v8H64V192M88 192h8v8H88V192M96 192h8v8H96V192M104 192h8v8H104V192M120 192h8v8H120V192M128 192h8v8H128V192M136 192h8v8H136V192M160 192h8v8H160V192M192 192h8v8H192V192M200 192h8v8H200V192M208 192h8v8H208V192M216 192h8v8H216V192M224 192h8v8H224V192M240 192h8v8H240V192M248 192h8v8H248V192M280 192h8v8H280V192M288 192h8v8H288V192M296 192h8v8H296V192M304 192h8v8H304V192M344 192h8v8H344V192M352 192h8v8H352V192M360 192h8v8H360V192M368 192h8v8H368V192M376 192h8v8H376V192M384 192h8v8H384V192M392 192h8v8H392V192M400 192h8v8H400V192M8 200h8v8H8V200M16 200h8v8H16V200M24 200h8v8H24V200M32 200h8v8H32V200M64 200h8v8H64V200M72 200h8v8H72V200M80 200h8v8H80V200M104 200h8v8H104V200M152 200h8v8H152V200M160 200h8v8H160V200M168 200h8v8H168V200M184 200h8v8H184V200M192 200h8v8H192V200M224 200h8v8H224V200M232 200h8v8H232V200M240 200h8v8H240V200M248 200h8v8H248V200M312 200h8v8H312V200M328 200h8v8H328V200M336 200h8v8H336V200M344 200h8v8H344V200M352 200h8v8H352V200M384 200h8v8H384V200M400 200h8v8H400V200M408 200h8v8H408V200M24 208h8v8H24V208M32 208h8v8H32V208M48 208h8v8H48V208M64 208h8v8H64V208M96 208h8v8H96V208M104 208h8v8H104V208M112 208h8v8H112V208M128 208h8v8H128V208M136 208h8v8H136V208M144 208h8v8H144V208M168 208h8v8H168V208M176 208h8v8H176V208M184 208h8v8H184V208M192 208h8v8H192V208M208 208h8v8H208V208M224 208h8v8H224V208M240 208h8v8H240V208M256 208h8v8H256V208M296 208h8v8H296V208M304 208h8v8H304V208M328 208h8v8H328V208M336 208h8v8H336V208M352 208h8v8H352V208M368 208h8v8H368V208M384 208h8v8H384V208M392 208h8v8H392V208M8 216h8v8H8V216M32 216h8v8H32V216M64 216h8v8H64V216M144 216h8v8H144V216M152 216h8v8H152V216M168 216h8v8H168V216M184 216h8v8H184V216M192 216h8v8H192V216M224 216h8v8H224V216M232 216h8v8H232V216M240 216h8v8H240V216M264 216h8v8H264V216M304 216h8v8H304V216M312 216h8v8H312V216M328 216h8v8H328V216M336 216h8v8H336V216M352 216h8v8H352V216M384 216h8v8H384V216M392 216h8v8H392V216M408 216h8v8H408V216M416 216h8v8H416V216M8 224h8v8H8V224M24 224h8v8H24V224M32 224h8v8H32V224M40 224h8v8H40V224M48 224h8v8H48V224M56 224h8v8H56V224M64 224h8v8H64V224M80 224h8v8H80V224M88 224h8v8H88V224M136 224h8v8H136V224M160 224h8v8H160V224M184 224h8v8H184V224M192 224h8v8H192V224M200 224h8v8H200V224M208 224h8v8H208V224M216 224h8v8H216V224M224 224h8v8H224V224M248 224h8v8H248V224M280 224h8v8H280V224M288 224h8v8H288V224M296 224h8v8H296V224M336 224h8v8H336V224M344 224h8v8H344V224M352 224h8v8H352V224M360 224h8v8H360V224M368 224h8v8H368V224M376 224h8v8H376V224M384 224h8v8H384V224M408 224h8v8H408V224M24 232h8v8H24V232M56 232h8v8H56V232M64 232h8v8H64V232M80 232h8v8H80V232M88 232h8v8H88V232M120 232h8v8H120V232M136 232h8v8H136V232M144 232h8v8H144V232M168 232h8v8H168V232M176 232h8v8H176V232M184 232h8v8H184V232M192 232h8v8H192V232M232 232h8v8H232V232M240 232h8v8H240V232M256 232h8v8H256V232M288 232h8v8H288V232M296 232h8v8H296V232M320 232h8v8H320V232M328 232h8v8H328V232M336 232h8v8H336V232M344 232h8v8H344V232M352 232h8v8H352V232M376 232h8v8H376V232M384 232h8v8H384V232M400 232h8v8H400V232M408 232h8v8H408V232M0 240h8v8H0V240M16 240h8v8H16V240M48 240h8v8H48V240M56 240h8v8H56V240M64 240h8v8H64V240M72 240h8v8H72V240M80 240h8v8H80V240M96 240h8v8H96V240M104 240h8v8H104V240M120 240h8v8H120V240M136 240h8v8H136V240M168 240h8v8H168V240M176 240h8v8H176V240M192 240h8v8H192V240M200 240h8v8H200V240M216 240h8v8H216V240M240 240h8v8H240V240M256 240h8v8H256V240M264 240h8v8H264V240M272 240h8v8H272V240M304 240h8v8H304V240M328 240h8v8H328V240M336 240h8v8H336V240M392 240h8v8H392V240M400 240h8v8H400V240M0 248h8v8H0V248M8 248h8v8H8V248M16 248h8v8H16V248M32 248h8v8H32V248M72 248h8v8H72V248M80 248h8v8H80V248M104 248h8v8H104V248M120 248h8v8H120V248M128 248h8v8H128V248M168 248h8v8H168V248M192 248h8v8H192V248M200 248h8v8H200V248M248 248h8v8H248V248M256 248h8v8H256V248M312 248h8v8H312V248M320 248h8v8H320V248M336 248h8v8H336V248M344 248h8v8H344V248M360 248h8v8H360V248M392 248h8v8H392V248M408 248h8v8H408V248M16 256h8v8H16V256M32 256h8v8H32V256M40 256h8v8H40V256M48 256h8v8H48V256M64 256h8v8H64V256M72 256h8v8H72V256M88 256h8v8H88V256M96 256h8v8H96V256M104 256h8v8H104V256M112 256h8v8H112V256M120 256h8v8H120V256M128 256h8v8H128V256M136 256h8v8H136V256M152 256h8v8H152V256M160 256h8v8H160V256M200 256h8v8H200V256M224 256h8v8H224V256M240 256h8v8H240V256M248 256h8v8H248V256M264 256h8v8H264V256M272 256h8v8H272V256M280 256h8v8H280V256M288 256h8v8H288V256M352 256h8v8H352V256M368 256h8v8H368V256M400 256h8v8H400V256M408 256h8v8H408V256M8 264h8v8H8V264M24 264h8v8H24V264M64 264h8v8H64V264M80 264h8v8H80V264M104 264h8v8H104V264M112 264h8v8H112V264M136 264h8v8H136V264M168 264h8v8H168V264M184 264h8v8H184V264M192 264h8v8H192V264M200 264h8v8H200V264M208 264h8v8H208V264M216 264h8v8H216V264M232 264h8v8H232V264M240 264h8v8H240V264M256 264h8v8H256V264M280 264h8v8H280V264M296 264h8v8H296V264M312 264h8v8H312V264M328 264h8v8H328V264M336 264h8v8H336V264M368 264h8v8H368V264M376 264h8v8H376V264M384 264h8v8H384V264M408 264h8v8H408V264M48 272h8v8H48V272M56 272h8v8H56V272M72 272h8v8H72V272M104 272h8v8H104V272M128 272h8v8H128V272M152 272h8v8H152V272M176 272h8v8H176V272M192 272h8v8H192V272M208 272h8v8H208V272M216 272h8v8H216V272M248 272h8v8H248V272M256 272h8v8H256V272M288 272h8v8H288V272M296 272h8v8H296V272M304 272h8v8H304V272M312 272h8v8H312V272M320 272h8v8H320V272M336 272h8v8H336V272M344 272h8v8H344V272M392 272h8v8H392V272M400 272h8v8H400V272M8 280h8v8H8V280M24 280h8v8H24V280M64 280h8v8H64V280M120 280h8v8H120V280M152 280h8v8H152V280M184 280h8v8H184V280M200 280h8v8H200V280M232 280h8v8H232V280M256 280h8v8H256V280M272 280h8v8H272V280M296 280h8v8H296V280M344 280h8v8H344V280M352 280h8v8H352V280M360 280h8v8H360V280M376 280h8v8H376V280M392 280h8v8H392V280M408 280h8v8H408V280M0 288h8v8H0V288M24 288h8v8H24V288M32 288h8v8H32V288M40 288h8v8H40V288M48 288h8v8H48V288M72 288h8v8H72V288M80 288h8v8H80V288M88 288h8v8H88V288M104 288h8v8H104V288M120 288h8v8H120V288M128 288h8v8H128V288M136 288h8v8H136V288M160 288h8v8H160V288M184 288h8v8H184V288M192 288h8v8H192V288M200 288h8v8H200V288M232 288h8v8H232V288M264 288h8v8H264V288M280 288h8v8H280V288M288 288h8v8H288V288M336 288h8v8H336V288M352 288h8v8H352V288M360 288h8v8H360V288M376 288h8v8H376V288M0 296h8v8H0V296M8 296h8v8H8V296M24 296h8v8H24V296M32 296h8v8H32V296M40 296h8v8H40V296M64 296h8v8H64V296M120 296h8v8H120V296M136 296h8v8H136V296M152 296h8v8H152V296M168 296h8v8H168V296M184 296h8v8H184V296M200 296h8v8H200V296M216 296h8v8H216V296M224 296h8v8H224V296M232 296h8v8H232V296M240 296h8v8H240V296M264 296h8v8H264V296M296 296h8v8H296V296M320 296h8v8H320V296M328 296h8v8H328V296M336 296h8v8H336V296M352 296h8v8H352V296M384 296h8v8H384V296M0 304h8v8H0V304M8 304h8v8H8V304M24 304h8v8H24V304M32 304h8v8H32V304M40 304h8v8H40V304M48 304h8v8H48V304M64 304h8v8H64V304M72 304h8v8H72V304M104 304h8v8H104V304M120 304h8v8H120V304M152 304h8v8H152V304M176 304h8v8H176V304M192 304h8v8H192V304M200 304h8v8H200V304M216 304h8v8H216V304M224 304h8v8H224V304M264 304h8v8H264V304M272 304h8v8H272V304M288 304h8v8H288V304M312 304h8v8H312V304M328 304h8v8H328V304M336 304h8v8H336V304M384 304h8v8H384V304M392 304h8v8H392V304M8 312h8v8H8V312M16 312h8v8H16V312M40 312h8v8H40V312M56 312h8v8H56V312M64 312h8v8H64V312M72 312h8v8H72V312M104 312h8v8H104V312M112 312h8v8H112V312M136 312h8v8H136V312M152 312h8v8H152V312M168 312h8v8H168V312M176 312h8v8H176V312M184 312h8v8H184V312M200 312h8v8H200V312M208 312h8v8H208V312M240 312h8v8H240V312M272 312h8v8H272V312M288 312h8v8H288V312M296 312h8v8H296V312M304 312h8v8H304V312M336 312h8v8H336V312M344 312h8v8H344V312M352 312h8v8H352V312M360 312h8v8H360V312M368 312h8v8H368V312M384 312h8v8H384V312M0 320h8v8H0V320M8 320h8v8H8V320M16 320h8v8H16V320M24 320h8v8H24V320M32 320h8v8H32V320M40 320h8v8H40V320M48 320h8v8H48V320M56 320h8v8H56V320M88 320h8v8H88V320M96 320h8v8H96V320M128 320h8v8H128V320M160 320h8v8H160V320M176 320h8v8H176V320M192 320h8v8H192V320M200 320h8v8H200V320M216 320h8v8H216V320M224 320h8v8H224V320M232 320h8v8H232V320M248 320h8v8H248V320M264 320h8v8H264V320M280 320h8v8H280V320M288 320h8v8H288V320M296 320h8v8H296V320M304 320h8v8H304V320M328 320h8v8H328V320M360 320h8v8H360V320M376 320h8v8H376V320M400 320h8v8H400V320M416 320h8v8H416V320M0 328h8v8H0V328M16 328h8v8H16V328M24 328h8v8H24V328M40 328h8v8H40V328M56 328h8v8H56V328M64 328h8v8H64V328M80 328h8v8H80V328M104 328h8v8H104V328M112 328h8v8H112V328M136 328h8v8H136V328M152 328h8v8H152V328M168 328h8v8H168V328M184 328h8v8H184V328M216 328h8v8H216V328M232 328h8v8H232V328M240 328h8v8H240V328M248 328h8v8H248V328M256 328h8v8H256V328M264 328h8v8H264V328M280 328h8v8H280V328M288 328h8v8H288V328M296 328h8v8H296V328M320 328h8v8H320V328M328 328h8v8H328V328M336 328h8v8H336V328M352 328h8v8H352V328M360 328h8v8H360V328M368 328h8v8H368V328M376 328h8v8H376V328M384 328h8v8H384V328M416 328h8v8H416V328M0 336h8v8H0V336M8 336h8v8H8V336M24 336h8v8H24V336M32 336h8v8H32V336M40 336h8v8H40V336M48 336h8v8H48V336M56 336h8v8H56V336M72 336h8v8H72V336M80 336h8v8H80V336M128 336h8v8H128V336M136 336h8v8H136V336M144 336h8v8H144V336M176 336h8v8H176V336M216 336h8v8H216V336M224 336h8v8H224V336M240 336h8v8H240V336M272 336h8v8H272V336M304 336h8v8H304V336M312 336h8v8H312V336M320 336h8v8H320V336M336 336h8v8H336V336M376 336h8v8H376V336M392 336h8v8H392V336M400 336h8v8H400V336M8 344h8v8H8V344M16 344h8v8H16V344M56 344h8v8H56V344M64 344h8v8H64V344M88 344h8v8H88V344M96 344h8v8H96V344M104 344h8v8H104V344M120 344h8v8H120V344M128 344h8v8H128V344M144 344h8v8H144V344M152 344h8v8H152V344M176 344h8v8H176V344M192 344h8v8H192V344M200 344h8v8H200V344M232 344h8v8H232V344M240 344h8v8H240V344M248 344h8v8H248V344M256 344h8v8H256V344M264 344h8v8H264V344M280 344h8v8H280V344M288 344h8v8H288V344M296 344h8v8H296V344M312 344h8v8H312V344M320 344h8v8H320V344M336 344h8v8H336V344M344 344h8v8H344V344M352 344h8v8H352V344M392 344h8v8H392V344M408 344h8v8H408V344M24 352h8v8H24V352M48 352h8v8H48V352M88 352h8v8H88V352M96 352h8v8H96V352M112 352h8v8H112V352M136 352h8v8H136V352M152 352h8v8H152V352M160 352h8v8H160V352M192 352h8v8H192V352M200 352h8v8H200V352M208 352h8v8H208V352M216 352h8v8H216V352M224 352h8v8H224V352M232 352h8v8H232V352M272 352h8v8H272V352M280 352h8v8H280V352M288 352h8v8H288V352M304 352h8v8H304V352M352 352h8v8H352V352M360 352h8v8H360V352M368 352h8v8H368V352M376 352h8v8H376V352M384 352h8v8H384V352M392 352h8v8H392V352M400 352h8v8H400V352M416 352h8v8H416V352M64 360h8v8H64V360M88 360h8v8H88V360M104 360h8v8H104V360M112 360h8v8H112V360M160 360h8v8H160V360M168 360h8v8H168V360M176 360h8v8H176V360M192 360h8v8H192V360M224 360h8v8H224V360M232 360h8v8H232V360M240 360h8v8H240V360M280 360h8v8H280V360M296 360h8v8H296V360M328 360h8v8H328V360M336 360h8v8H336V360M344 360h8v8H344V360M352 360h8v8H352V360M384 360h8v8H384V360M408 360h8v8H408V360M0 368h8v8H0V368M8 368h8v8H8V368M16 368h8v8H16V368M24 368h8v8H24V368M32 368h8v8H32V368M40 368h8v8H40V368M48 368h8v8H48V368M88 368h8v8H88V368M96 368h8v8H96V368M104 368h8v8H104V368M128 368h8v8H128V368M136 368h8v8H136V368M160 368h8v8H160V368M168 368h8v8H168V368M192 368h8v8H192V368M208 368h8v8H208V368M224 368h8v8H224V368M232 368h8v8H232V368M240 368h8v8H240V368M248 368h8v8H248V368M280 368h8v8H280V368M296 368h8v8H296V368M304 368h8v8H304V368M320 368h8v8H320V368M336 368h8v8H336V368M344 368h8v8H344V368M352 368h8v8H352V368M368 368h8v8H368V368M384 368h8v8H384V368M400 368h8v8H400V368M0 376h8v8H0V376M48 376h8v8H48V376M64 376h8v8H64V376M72 376h8v8H72V376M88 376h8v8H88V376M96 376h8v8H96V376M104 376h8v8H104V376M120 376h8v8H120V376M128 376h8v8H128V376M136 376h8v8H136V376M144 376h8v8H144V376M152 376h8v8H152V376M160 376h8v8H160V376M184 376h8v8H184V376M192 376h8v8H192V376M224 376h8v8H224V376M232 376h8v8H232V376M256 376h8v8H256V376M264 376h8v8H264V376M288 376h8v8H288V376M296 376h8v8H296V376M312 376h8v8H312V376M320 376h8v8H320V376M328 376h8v8H328V376M336 376h8v8H336V376M344 376h8v8H344V376M352 376h8v8H352V376M384 376h8v8H384V376M392 376h8v8H392V376M408 376h8v8H408V376M0 384h8v8H0V384M16 384h8v8H16V384M24 384h8v8H24V384M32 384h8v8H32V384M48 384h8v8H48V384M64 384h8v8H64V384M72 384h8v8H72V384M80 384h8v8H80V384M104 384h8v8H104V384M112 384h8v8H112V384M120 384h8v8H120V384M136 384h8v8H136V384M152 384h8v8H152V384M168 384h8v8H168V384M192 384h8v8H192V384M200 384h8v8H200V384M208 384h8v8H208V384M216 384h8v8H216V384M224 384h8v8H224V384M248 384h8v8H248V384M264 384h8v8H264V384M272 384h8v8H272V384M280 384h8v8H280V384M288 384h8v8H288V384M328 384h8v8H328V384M336 384h8v8H336V384M344 384h8v8H344V384M352 384h8v8H352V384M360 384h8v8H360V384M368 384h8v8H368V384M376 384h8v8H376V384M384 384h8v8H384V384M400 384h8v8H400V384M416 384h8v8H416V384M0 392h8v8H0V392M16 392h8v8H16V392M24 392h8v8H24V392M32 392h8v8H32V392M48 392h8v8H48V392M64 392h8v8H64V392M96 392h8v8H96V392M104 392h8v8H104V392M128 392h8v8H128V392M144 392h8v8H144V392M152 392h8v8H152V392M160 392h8v8H160V392M184 392h8v8H184V392M200 392h8v8H200V392M216 392h8v8H216V392M232 392h8v8H232V392M240 392h8v8H240V392M248 392h8v8H248V392M256 392h8v8H256V392M288 392h8v8H288V392M296 392h8v8H296V392M328 392h8v8H328V392M336 392h8v8H336V392M344 392h8v8H344V392M376 392h8v8H376V392M392 392h8v8H392V392M416 392h8v8H416V392M0 400h8v8H0V400M16 400h8v8H16V400M24 400h8v8H24V400M32 400h8v8H32V400M48 400h8v8H48V400M64 400h8v8H64V400M88 400h8v8H88V400M96 400h8v8H96V400M104 400h8v8H104V400M120 400h8v8H120V400M128 400h8v8H128V400M168 400h8v8H168V400M184 400h8v8H184V400M192 400h8v8H192V400M208 400h8v8H208V400M224 400h8v8H224V400M240 400h8v8H240V400M256 400h8v8H256V400M272 400h8v8H272V400M280 400h8v8H280V400M312 400h8v8H312V400M328 400h8v8H328V400M344 400h8v8H344V400M368 400h8v8H368V400M384 400h8v8H384V400M392 400h8v8H392V400M408 400h8v8H408V400M416 400h8v8H416V400M0 408h8v8H0V408M48 408h8v8H48V408M72 408h8v8H72V408M80 408h8v8H80V408M88 408h8v8H88V408M96 408h8v8H96V408M112 408h8v8H112V408M120 408h8v8H120V408M128 408h8v8H128V408M136 408h8v8H136V408M152 408h8v8H152V408M160 408h8v8H160V408M184 408h8v8H184V408M200 408h8v8H200V408M232 408h8v8H232V408M280 408h8v8H280V408M288 408h8v8H288V408M320 408h8v8H320V408M328 408h8v8H328V408M336 408h8v8H336V408M352 408h8v8H352V408M392 408h8v8H392V408M408 408h8v8H408V408M0 416h8v8H0V416M8 416h8v8H8V416M16 416h8v8H16V416M24 416h8v8H24V416M32 416h8v8H32V416M40 416h8v8H40V416M48 416h8v8H48V416M64 416h8v8H64V416M80 416h8v8H80V416M88 416h8v8H88V416M96 416h8v8H96V416M104 416h8v8H104V416M144 416h8v8H144V416M152 416h8v8H152V416M160 416h8v8H160V416M176 416h8v8H176V416M184 416h8v8H184V416M192 416h8v8H192V416M200 416h8v8H200V416M232 416h8v8H232V416M240 416h8v8H240V416M248 416h8v8H248V416M280 416h8v8H280V416M288 416h8v8H288V416M312 416h8v8H312V416M336 416h8v8H336V416M352 416h8v8H352V416M360 416h8v8H360V416M384 416h8v8H384V416M392 416h8v8H392V416"/></svg>
