<?xml version="1.0" standalone="yes"?><svg xmlns="http://www.w3.org/2000/svg" version="1.1" width="462" height="462" viewBox="0 0 462 462" shape-rendering="crispEdges"><rect x="0" y="0" width="462" height="462" fill="#fff"/><path fill="#000" d="M0 0h6v6H0V0M6 0h6v6H6V0M12 0h6v6H12V0M18 0h6v6H18V0M24 0h6v6H24V0M30 0h6v6H30V0M36 0h6v6H36V0M48 0h6v6H48V0M60 0h6v6H60V0M96 0h6v6H96V0M102 0h6v6H102V0M114 0h6v6H114V0M126 0h6v6H126V0M132 0h6v6H132V0M138 0h6v6H138V0M144 0h6v6H144V0M162 0h6v6H162V0M168 0h6v6H168V0M192 0h6v6H192V0M198 0h6v6H198V0M222 0h6v6H222V0M228 0h6v6H228V0M234 0h6v6H234V0M240 0h6v6H240V0M246 0h6v6H246V0M252 0h6v6H252V0M264 0h6v6H264V0M300 0h6v6H300V0M318 0h6v6H318V0M324 0h6v6H324V0M330 0h6v6H330V0M336 0h6v6H336V0M342 0h6v6H342V0M360 0h6v6H360V0M378 0h6v6H378V0M384 0h6v6H384V0M420 0h6v6H420V0M426 0h6v6H426V0M432 0h6v6H432V0M438 0h6v6H438V0M444 0h6v6H444V0M450 0h6v6H450V0M456 0h6v6H456V0M0 6h6v6H0V6M36 6h6v6H36V6M48 6h6v6H48V6M54 6h6v6H54V6M60 6h6v6H60V6M66 6h6v6H66V6M72 6h6v6H72V6M84 6h6v6H84V6M96 6h6v6H96V6M102 6h6v6H102V6M108 6h6v6H108V6M138 6h6v6H138V6M150 6h6v6H150V6M156 6h6v6H156V6M162 6h6v6H162V6M168 6h6v6H168V6M204 6h6v6H204V6M210 6h6v6H210V6M228 6h6v6H228V6M234 6h6v6H234V6M240 6h6v6H240V6M258 6h6v6H258V6M270 6h6v6H270V6M288 6h6v6H288V6M294 6h6v6H294V6M300 6h6v6H300V6M306 6h6v6H306V6M312 6h6v6H312V6M318 6h6v6H318V6M324 6h6v6H324V6M330 6h6v6H330V6M336 6h6v6H336V6M342 6h6v6H342V6M348 6h6v6H348V6M360 6h6v6H360V6M366 6h6v6H366V6M396 6h6v6H396V6M408 6h6v6H408V6M420 6h6v6H420V6M456 6h6v6H456V6M0 12h6v6H0V12M12 12h6v6H12V12M18 12h6v6H18V12M24 12h6v6H24V12M36 12h6v6H36V12M54 12h6v6H54V12M78 12h6v6H78V12M84 12h6v6H84V12M90 12h6v6H90V12M108 12h6v6H108V12M114 12h6v6H114V12M120 12h6v6H120V12M132 12h6v6H132V12M144 12h6v6H144V12M180 12h6v6H180V12M204 12h6v6H204V12M222 12h6v6H222V12M234 12h6v6H234V12M240 12h6v6H240V12M246 12h6v6H246V12M252 12h6v6H252V12M258 12h6v6H258V12M264 12h6v6H264V12M270 12h6v6H270V12M276 12h6v6H276V12M300 12h6v6H300V12M312 12h6v6H312V12M318 12h6v6H318V12M342 12h6v6H342V12M348 12h6v6H348V12M354 12h6v6H354V12M366 12h6v6H366V12M408 12h6v6H408V12M420 12h6v6H420V12M432 12h6v6H432V12M438 12h6v6H438V12M444 12h6v6H444V12M456 12h6v6H456V12M0 18h6v6H0V18M12 18h6v6H12V18M18 18h6v6H18V18M24 18h6v6H24V18M36 18h6v6H36V18M48 18h6v6H48V18M54 18h6v6H54V18M66 18h6v6H66V18M72 18h6v6H72V18M84 18h6v6H84V18M90 18h6v6H90V18M108 18h6v6H108V18M126 18h6v6H126V18M132 18h6v6H132V18M144 18h6v6H144V18M156 18h6v6H156V18M168 18h6v6H168V18M174 18h6v6H174V18M180 18h6v6H180V18M192 18h6v6H192V18M198 18h6v6H198V18M204 18h6v6H204V18M210 18h6v6H210V18M222 18h6v6H222V18M234 18h6v6H234V18M252 18h6v6H252V18M258 18h6v6H258V18M282 18h6v6H282V18M312 18h6v6H312V18M324 18h6v6H324V18M348 18h6v6H348V18M378 18h6v6H378V18M384 18h6v6H384V18M408 18h6v6H408V18M420 18h6v6H420V18M432 18h6v6H432V18M438 18h6v6H438V18M444 18h6v6H444V18M456 18h6v6H456V18M0 24h6v6H0V24M12 24h6v6H12V24M18 24h6v6H18V24M24 24h6v6H24V24M36 24h6v6H36V24M60 24h6v6H60V24M72 24h6v6H72V24M78 24h6v6H78V24M90 24h6v6H90V24M102 24h6v6H102V24M108 24h6v6H108V24M126 24h6v6H126V24M132 24h6v6H132V24M138 24h6v6H138V24M144 24h6v6H144V24M150 24h6v6H150V24M156 24h6v6H156V24M162 24h6v6H162V24M168 24h6v6H168V24M174 24h6v6H174V24M180 24h6v6H180V24M186 24h6v6H186V24M204 24h6v6H204V24M216 24h6v6H216V24M222 24h6v6H222V24M228 24h6v6H228V24M240 24h6v6H240V24M246 24h6v6H246V24M264 24h6v6H264V24M276 24h6v6H276V24M282 24h6v6H282V24M288 24h6v6H288V24M294 24h6v6H294V24M300 24h6v6H300V24M318 24h6v6H318V24M324 24h6v6H324V24M330 24h6v6H330V24M336 24h6v6H336V24M354 24h6v6H354V24M360 24h6v6H360V24M366 24h6v6H366V24M396 24h6v6H396V24M402 24h6v6H402V24M408 24h6v6H408V24M420 24h6v6H420V24M432 24h6v6H432V24M438 24h6v6H438V24M444 24h6v6H444V24M456 24h6v6H456V24M0 30h6v6H0V30M36 30h6v6H36V30M60 30h6v6H60V30M78 30h6v6H78V30M84 30h6v6H84V30M96 30h6v6H96V30M120 30h6v6H120V30M138 30h6v6H138V30M144 30h6v6H144V30M168 30h6v6H168V30M186 30h6v6H186V30M216 30h6v6H216V30M222 30h6v6H222V30M228 30h6v6H228V30M246 30h6v6H246V30M252 30h6v6H252V30M264 30h6v6H264V30M270 30h6v6H270V30M276 30h6v6H276V30M300 30h6v6H300V30M324 30h6v6H324V30M330 30h6v6H330V30M336 30h6v6H336V30M342 30h6v6H342V30M378 30h6v6H378V30M384 30h6v6H384V30M390 30h6v6H390V30M396 30h6v6H396V30M420 30h6v6H420V30M456 30h6v6H456V30M0 36h6v6H0V36M6 36h6v6H6V36M12 36h6v6H12V36M18 36h6v6H18V36M24 36h6v6H24V36M30 36h6v6H30V36M36 36h6v6H36V36M48 36h6v6H48V36M60 36h6v6H60V36M72 36h6v6H72V36M84 36h6v6H84V36M96 36h6v6H96V36M108 36h6v6H108V36M120 36h6v6H120V36M132 36h6v6H132V36M144 36h6v6H144V36M156 36h6v6H156V36M168 36h6v6H168V36M180 36h6v6H180V36M192 36h6v6H192V36M204 36h6v6H204V36M216 36h6v6H216V36M228 36h6v6H228V36M240 36h6v6H240V36M252 36h6v6H252V36M264 36h6v6H264V36M276 36h6v6H276V36M288 36h6v6H288V36M300 36h6v6H300V36M312 36h6v6H312V36M324 36h6v6H324V36M336 36h6v6H336V36M348 36h6v6H348V36M360 36h6v6H360V36M372 36h6v6H372V36M384 36h6v6H384V36M396 36h6v6H396V36M408 36h6v6H408V36M420 36h6v6H420V36M426 36h6v6H426V36M432 36h6v6H432V36M438 36h6v6H438V36M444 36h6v6H444V36M450 36h6v6H450V36M456 36h6v6H456V36M48 42h6v6H48V42M54 42h6v6H54V42M60 42h6v6H60V42M66 42h6v6H66V42M72 42h6v6H72V42M90 42h6v6H90V42M96 42h6v6H96V42M126 42h6v6H126V42M132 42h6v6H132V42M138 42h6v6H138V42M144 42h6v6H144V42M168 42h6v6H168V42M174 42h6v6H174V42M180 42h6v6H180V42M186 42h6v6H186V42M192 42h6v6H192V42M198 42h6v6H198V42M204 42h6v6H204V42M216 42h6v6H216V42M228 42h6v6H228V42M240 42h6v6H240V42M264 42h6v6H264V42M276 42h6v6H276V42M300 42h6v6H300V42M312 42h6v6H312V42M354 42h6v6H354V42M360 42h6v6H360V42M366 42h6v6H366V42M378 42h6v6H378V42M384 42h6v6H384V42M396 42h6v6H396V42M402 42h6v6H402V42M0 48h6v6H0V48M12 48h6v6H12V48M18 48h6v6H18V48M30 48h6v6H30V48M36 48h6v6H36V48M42 48h6v6H42V48M54 48h6v6H54V48M66 48h6v6H66V48M72 48h6v6H72V48M78 48h6v6H78V48M114 48h6v6H114V48M126 48h6v6H126V48M144 48h6v6H144V48M150 48h6v6H150V48M156 48h6v6H156V48M162 48h6v6H162V48M168 48h6v6H168V48M174 48h6v6H174V48M180 48h6v6H180V48M186 48h6v6H186V48M192 48h6v6H192V48M216 48h6v6H216V48M246 48h6v6H246V48M264 48h6v6H264V48M270 48h6v6H270V48M276 48h6v6H276V48M282 48h6v6H282V48M288 48h6v6H288V48M294 48h6v6H294V48M300 48h6v6H300V48M330 48h6v6H330V48M336 48h6v6H336V48M342 48h6v6H342V48M354 48h6v6H354V48M384 48h6v6H384V48M390 48h6v6H390V48M420 48h6v6H420V48M438 48h6v6H438V48M450 48h6v6H450V48M456 48h6v6H456V48M0 54h6v6H0V54M6 54h6v6H6V54M18 54h6v6H18V54M24 54h6v6H24V54M66 54h6v6H66V54M78 54h6v6H78V54M96 54h6v6H96V54M102 54h6v6H102V54M126 54h6v6H126V54M132 54h6v6H132V54M138 54h6v6H138V54M150 54h6v6H150V54M156 54h6v6H156V54M168 54h6v6H168V54M204 54h6v6H204V54M210 54h6v6H210V54M216 54h6v6H216V54M234 54h6v6H234V54M240 54h6v6H240V54M246 54h6v6H246V54M252 54h6v6H252V54M264 54h6v6H264V54M276 54h6v6H276V54M294 54h6v6H294V54M300 54h6v6H300V54M306 54h6v6H306V54M324 54h6v6H324V54M330 54h6v6H330V54M342 54h6v6H342V54M354 54h6v6H354V54M372 54h6v6H372V54M384 54h6v6H384V54M402 54h6v6H402V54M408 54h6v6H408V54M414 54h6v6H414V54M420 54h6v6H420V54M432 54h6v6H432V54M444 54h6v6H444V54M450 54h6v6H450V54M456 54h6v6H456V54M12 60h6v6H12V60M18 60h6v6H18V60M36 60h6v6H36V60M48 60h6v6H48V60M54 60h6v6H54V60M60 60h6v6H60V60M66 60h6v6H66V60M72 60h6v6H72V60M78 60h6v6H78V60M84 60h6v6H84V60M90 60h6v6H90V60M108 60h6v6H108V60M120 60h6v6H120V60M132 60h6v6H132V60M138 60h6v6H138V60M144 60h6v6H144V60M150 60h6v6H150V60M162 60h6v6H162V60M174 60h6v6H174V60M180 60h6v6H180V60M186 60h6v6H186V60M210 60h6v6H210V60M216 60h6v6H216V60M222 60h6v6H222V60M240 60h6v6H240V60M252 60h6v6H252V60M258 60h6v6H258V60M276 60h6v6H276V60M306 60h6v6H306V60M312 60h6v6H312V60M324 60h6v6H324V60M330 60h6v6H330V60M336 60h6v6H336V60M342 60h6v6H342V60M348 60h6v6H348V60M360 60h6v6H360V60M378 60h6v6H378V60M408 60h6v6H408V60M414 60h6v6H414V60M432 60h6v6H432V60M456 60h6v6H456V60M6 66h6v6H6V66M12 66h6v6H12V66M30 66h6v6H30V66M48 66h6v6H48V66M54 66h6v6H54V66M90 66h6v6H90V66M96 66h6v6H96V66M102 66h6v6H102V66M120 66h6v6H120V66M138 66h6v6H138V66M144 66h6v6H144V66M156 66h6v6H156V66M162 66h6v6H162V66M168 66h6v6H168V66M180 66h6v6H180V66M192 66h6v6H192V66M198 66h6v6H198V66M210 66h6v6H210V66M222 66h6v6H222V66M234 66h6v6H234V66M264 66h6v6H264V66M270 66h6v6H270V66M282 66h6v6H282V66M312 66h6v6H312V66M318 66h6v6H318V66M342 66h6v6H342V66M348 66h6v6H348V66M354 66h6v6H354V66M360 66h6v6H360V66M372 66h6v6H372V66M402 66h6v6H402V66M414 66h6v6H414V66M420 66h6v6H420V66M426 66h6v6H426V66M0 72h6v6H0V72M12 72h6v6H12V72M18 72h6v6H18V72M30 72h6v6H30V72M36 72h6v6H36V72M42 72h6v6H42V72M54 72h6v6H54V72M60 72h6v6H60V72M66 72h6v6H66V72M72 72h6v6H72V72M84 72h6v6H84V72M90 72h6v6H90V72M138 72h6v6H138V72M162 72h6v6H162V72M168 72h6v6H168V72M174 72h6v6H174V72M180 72h6v6H180V72M186 72h6v6H186V72M198 72h6v6H198V72M210 72h6v6H210V72M216 72h6v6H216V72M228 72h6v6H228V72M234 72h6v6H234V72M246 72h6v6H246V72M270 72h6v6H270V72M294 72h6v6H294V72M300 72h6v6H300V72M306 72h6v6H306V72M318 72h6v6H318V72M330 72h6v6H330V72M336 72h6v6H336V72M366 72h6v6H366V72M378 72h6v6H378V72M390 72h6v6H390V72M396 72h6v6H396V72M414 72h6v6H414V72M420 72h6v6H420V72M438 72h6v6H438V72M444 72h6v6H444V72M450 72h6v6H450V72M6 78h6v6H6V78M24 78h6v6H24V78M42 78h6v6H42V78M66 78h6v6H66V78M78 78h6v6H78V78M84 78h6v6H84V78M90 78h6v6H90V78M114 78h6v6H114V78M126 78h6v6H126V78M150 78h6v6H150V78M162 78h6v6H162V78M174 78h6v6H174V78M180 78h6v6H180V78M186 78h6v6H186V78M192 78h6v6H192V78M198 78h6v6H198V78M222 78h6v6H222V78M228 78h6v6H228V78M240 78h6v6H240V78M246 78h6v6H246V78M270 78h6v6H270V78M276 78h6v6H276V78M282 78h6v6H282V78M288 78h6v6H288V78M294 78h6v6H294V78M300 78h6v6H300V78M306 78h6v6H306V78M318 78h6v6H318V78M324 78h6v6H324V78M330 78h6v6H330V78M336 78h6v6H336V78M348 78h6v6H348V78M378 78h6v6H378V78M384 78h6v6H384V78M390 78h6v6H390V78M402 78h6v6H402V78M420 78h6v6H420V78M426 78h6v6H426V78M444 78h6v6H444V78M450 78h6v6H450V78M456 78h6v6H456V78M6 84h6v6H6V84M12 84h6v6H12V84M18 84h6v6H18V84M24 84h6v6H24V84M30 84h6v6H30V84M36 84h6v6H36V84M48 84h6v6H48V84M66 84h6v6H66V84M72 84h6v6H72V84M90 84h6v6H90V84M96 84h6v6H96V84M102 84h6v6H102V84M114 84h6v6H114V84M126 84h6v6H126V84M144 84h6v6H144V84M150 84h6v6H150V84M180 84h6v6H180V84M192 84h6v6H192V84M204 84h6v6H204V84M258 84h6v6H258V84M264 84h6v6H264V84M270 84h6v6H270V84M276 84h6v6H276V84M294 84h6v6H294V84M300 84h6v6H300V84M306 84h6v6H306V84M312 84h6v6H312V84M324 84h6v6H324V84M330 84h6v6H330V84M348 84h6v6H348V84M354 84h6v6H354V84M372 84h6v6H372V84M432 84h6v6H432V84M438 84h6v6H438V84M444 84h6v6H444V84M12 90h6v6H12V90M60 90h6v6H60V90M72 90h6v6H72V90M78 90h6v6H78V90M84 90h6v6H84V90M90 90h6v6H90V90M102 90h6v6H102V90M114 90h6v6H114V90M126 90h6v6H126V90M132 90h6v6H132V90M144 90h6v6H144V90M150 90h6v6H150V90M174 90h6v6H174V90M186 90h6v6H186V90M192 90h6v6H192V90M198 90h6v6H198V90M222 90h6v6H222V90M234 90h6v6H234V90M240 90h6v6H240V90M252 90h6v6H252V90M258 90h6v6H258V90M270 90h6v6H270V90M276 90h6v6H276V90M288 90h6v6H288V90M294 90h6v6H294V90M306 90h6v6H306V90M312 90h6v6H312V90M336 90h6v6H336V90M342 90h6v6H342V90M348 90h6v6H348V90M354 90h6v6H354V90M360 90h6v6H360V90M366 90h6v6H366V90M402 90h6v6H402V90M414 90h6v6H414V90M420 90h6v6H420V90M438 90h6v6H438V90M456 90h6v6H456V90M12 96h6v6H12V96M24 96h6v6H24V96M36 96h6v6H36V96M42 96h6v6H42V96M54 96h6v6H54V96M60 96h6v6H60V96M66 96h6v6H66V96M78 96h6v6H78V96M84 96h6v6H84V96M90 96h6v6H90V96M96 96h6v6H96V96M108 96h6v6H108V96M126 96h6v6H126V96M132 96h6v6H132V96M150 96h6v6H150V96M156 96h6v6H156V96M168 96h6v6H168V96M174 96h6v6H174V96M180 96h6v6H180V96M192 96h6v6H192V96M198 96h6v6H198V96M222 96h6v6H222V96M228 96h6v6H228V96M234 96h6v6H234V96M246 96h6v6H246V96M252 96h6v6H252V96M324 96h6v6H324V96M342 96h6v6H342V96M360 96h6v6H360V96M366 96h6v6H366V96M372 96h6v6H372V96M390 96h6v6H390V96M402 96h6v6H402V96M432 96h6v6H432V96M456 96h6v6H456V96M0 102h6v6H0V102M12 102h6v6H12V102M24 102h6v6H24V102M30 102h6v6H30V102M48 102h6v6H48V102M54 102h6v6H54V102M60 102h6v6H60V102M78 102h6v6H78V102M84 102h6v6H84V102M90 102h6v6H90V102M96 102h6v6H96V102M102 102h6v6H102V102M108 102h6v6H108V102M114 102h6v6H114V102M120 102h6v6H120V102M144 102h6v6H144V102M150 102h6v6H150V102M156 102h6v6H156V102M162 102h6v6H162V102M168 102h6v6H168V102M174 102h6v6H174V102M180 102h6v6H180V102M186 102h6v6H186V102M192 102h6v6H192V102M198 102h6v6H198V102M204 102h6v6H204V102M210 102h6v6H210V102M246 102h6v6H246V102M252 102h6v6H252V102M282 102h6v6H282V102M288 102h6v6H288V102M294 102h6v6H294V102M312 102h6v6H312V102M324 102h6v6H324V102M342 102h6v6H342V102M372 102h6v6H372V102M378 102h6v6H378V102M384 102h6v6H384V102M390 102h6v6H390V102M396 102h6v6H396V102M402 102h6v6H402V102M432 102h6v6H432V102M438 102h6v6H438V102M444 102h6v6H444V102M456 102h6v6H456V102M0 108h6v6H0V108M36 108h6v6H36V108M42 108h6v6H42V108M54 108h6v6H54V108M60 108h6v6H60V108M66 108h6v6H66V108M84 108h6v6H84V108M96 108h6v6H96V108M102 108h6v6H102V108M144 108h6v6H144V108M162 108h6v6H162V108M168 108h6v6H168V108M180 108h6v6H180V108M192 108h6v6H192V108M216 108h6v6H216V108M228 108h6v6H228V108M234 108h6v6H234V108M240 108h6v6H240V108M252 108h6v6H252V108M264 108h6v6H264V108M270 108h6v6H270V108M288 108h6v6H288V108M294 108h6v6H294V108M306 108h6v6H306V108M312 108h6v6H312V108M318 108h6v6H318V108M324 108h6v6H324V108M330 108h6v6H330V108M342 108h6v6H342V108M354 108h6v6H354V108M360 108h6v6H360V108M384 108h6v6H384V108M396 108h6v6H396V108M402 108h6v6H402V108M408 108h6v6H408V108M414 108h6v6H414V108M438 108h6v6H438V108M444 108h6v6H444V108M6 114h6v6H6V114M18 114h6v6H18V114M24 114h6v6H24V114M42 114h6v6H42V114M48 114h6v6H48V114M66 114h6v6H66V114M72 114h6v6H72V114M78 114h6v6H78V114M90 114h6v6H90V114M102 114h6v6H102V114M108 114h6v6H108V114M114 114h6v6H114V114M120 114h6v6H120V114M132 114h6v6H132V114M144 114h6v6H144V114M156 114h6v6H156V114M168 114h6v6H168V114M174 114h6v6H174V114M180 114h6v6H180V114M204 114h6v6H204V114M210 114h6v6H210V114M216 114h6v6H216V114M234 114h6v6H234V114M246 114h6v6H246V114M252 114h6v6H252V114M264 114h6v6H264V114M276 114h6v6H276V114M282 114h6v6H282V114M288 114h6v6H288V114M306 114h6v6H306V114M312 114h6v6H312V114M318 114h6v6H318V114M324 114h6v6H324V114M336 114h6v6H336V114M348 114h6v6H348V114M360 114h6v6H360V114M366 114h6v6H366V114M384 114h6v6H384V114M414 114h6v6H414V114M426 114h6v6H426V114M432 114h6v6H432V114M450 114h6v6H450V114M456 114h6v6H456V114M24 120h6v6H24V120M36 120h6v6H36V120M48 120h6v6H48V120M54 120h6v6H54V120M60 120h6v6H60V120M78 120h6v6H78V120M96 120h6v6H96V120M102 120h6v6H102V120M114 120h6v6H114V120M120 120h6v6H120V120M126 120h6v6H126V120M138 120h6v6H138V120M150 120h6v6H150V120M162 120h6v6H162V120M174 120h6v6H174V120M180 120h6v6H180V120M204 120h6v6H204V120M210 120h6v6H210V120M228 120h6v6H228V120M234 120h6v6H234V120M240 120h6v6H240V120M252 120h6v6H252V120M276 120h6v6H276V120M300 120h6v6H300V120M318 120h6v6H318V120M336 120h6v6H336V120M342 120h6v6H342V120M348 120h6v6H348V120M360 120h6v6H360V120M384 120h6v6H384V120M390 120h6v6H390V120M396 120h6v6H396V120M408 120h6v6H408V120M420 120h6v6H420V120M426 120h6v6H426V120M456 120h6v6H456V120M0 126h6v6H0V126M24 126h6v6H24V126M42 126h6v6H42V126M72 126h6v6H72V126M78 126h6v6H78V126M84 126h6v6H84V126M102 126h6v6H102V126M114 126h6v6H114V126M120 126h6v6H120V126M126 126h6v6H126V126M138 126h6v6H138V126M150 126h6v6H150V126M162 126h6v6H162V126M168 126h6v6H168V126M186 126h6v6H186V126M192 126h6v6H192V126M210 126h6v6H210V126M222 126h6v6H222V126M252 126h6v6H252V126M264 126h6v6H264V126M270 126h6v6H270V126M282 126h6v6H282V126M300 126h6v6H300V126M306 126h6v6H306V126M312 126h6v6H312V126M324 126h6v6H324V126M354 126h6v6H354V126M360 126h6v6H360V126M408 126h6v6H408V126M414 126h6v6H414V126M420 126h6v6H420V126M426 126h6v6H426V126M432 126h6v6H432V126M438 126h6v6H438V126M444 126h6v6H444V126M6 132h6v6H6V132M36 132h6v6H36V132M42 132h6v6H42V132M54 132h6v6H54V132M60 132h6v6H60V132M66 132h6v6H66V132M72 132h6v6H72V132M78 132h6v6H78V132M84 132h6v6H84V132M90 132h6v6H90V132M108 132h6v6H108V132M126 132h6v6H126V132M132 132h6v6H132V132M138 132h6v6H138V132M150 132h6v6H150V132M156 132h6v6H156V132M162 132h6v6H162V132M168 132h6v6H168V132M174 132h6v6H174V132M180 132h6v6H180V132M198 132h6v6H198V132M210 132h6v6H210V132M270 132h6v6H270V132M276 132h6v6H276V132M282 132h6v6H282V132M312 132h6v6H312V132M336 132h6v6H336V132M372 132h6v6H372V132M378 132h6v6H378V132M390 132h6v6H390V132M396 132h6v6H396V132M414 132h6v6H414V132M426 132h6v6H426V132M432 132h6v6H432V132M450 132h6v6H450V132M24 138h6v6H24V138M48 138h6v6H48V138M60 138h6v6H60V138M84 138h6v6H84V138M96 138h6v6H96V138M102 138h6v6H102V138M108 138h6v6H108V138M114 138h6v6H114V138M144 138h6v6H144V138M156 138h6v6H156V138M168 138h6v6H168V138M180 138h6v6H180V138M198 138h6v6H198V138M210 138h6v6H210V138M216 138h6v6H216V138M222 138h6v6H222V138M228 138h6v6H228V138M234 138h6v6H234V138M264 138h6v6H264V138M276 138h6v6H276V138M282 138h6v6H282V138M300 138h6v6H300V138M324 138h6v6H324V138M330 138h6v6H330V138M336 138h6v6H336V138M348 138h6v6H348V138M366 138h6v6H366V138M372 138h6v6H372V138M378 138h6v6H378V138M384 138h6v6H384V138M402 138h6v6H402V138M426 138h6v6H426V138M450 138h6v6H450V138M0 144h6v6H0V144M6 144h6v6H6V144M24 144h6v6H24V144M30 144h6v6H30V144M36 144h6v6H36V144M42 144h6v6H42V144M48 144h6v6H48V144M54 144h6v6H54V144M60 144h6v6H60V144M72 144h6v6H72V144M90 144h6v6H90V144M102 144h6v6H102V144M114 144h6v6H114V144M126 144h6v6H126V144M132 144h6v6H132V144M144 144h6v6H144V144M150 144h6v6H150V144M156 144h6v6H156V144M162 144h6v6H162V144M168 144h6v6H168V144M198 144h6v6H198V144M216 144h6v6H216V144M228 144h6v6H228V144M246 144h6v6H246V144M264 144h6v6H264V144M270 144h6v6H270V144M276 144h6v6H276V144M282 144h6v6H282V144M288 144h6v6H288V144M294 144h6v6H294V144M300 144h6v6H300V144M306 144h6v6H306V144M318 144h6v6H318V144M324 144h6v6H324V144M342 144h6v6H342V144M354 144h6v6H354V144M360 144h6v6H360V144M408 144h6v6H408V144M414 144h6v6H414V144M420 144h6v6H420V144M426 144h6v6H426V144M432 144h6v6H432V144M450 144h6v6H450V144M12 150h6v6H12V150M18 150h6v6H18V150M24 150h6v6H24V150M48 150h6v6H48V150M66 150h6v6H66V150M72 150h6v6H72V150M96 150h6v6H96V150M102 150h6v6H102V150M114 150h6v6H114V150M120 150h6v6H120V150M126 150h6v6H126V150M132 150h6v6H132V150M144 150h6v6H144V150M168 150h6v6H168V150M174 150h6v6H174V150M186 150h6v6H186V150M192 150h6v6H192V150M210 150h6v6H210V150M216 150h6v6H216V150M228 150h6v6H228V150M246 150h6v6H246V150M258 150h6v6H258V150M270 150h6v6H270V150M276 150h6v6H276V150M300 150h6v6H300V150M306 150h6v6H306V150M318 150h6v6H318V150M324 150h6v6H324V150M330 150h6v6H330V150M336 150h6v6H336V150M348 150h6v6H348V150M372 150h6v6H372V150M378 150h6v6H378V150M390 150h6v6H390V150M402 150h6v6H402V150M408 150h6v6H408V150M432 150h6v6H432V150M438 150h6v6H438V150M444 150h6v6H444V150M450 150h6v6H450V150M0 156h6v6H0V156M18 156h6v6H18V156M24 156h6v6H24V156M36 156h6v6H36V156M48 156h6v6H48V156M54 156h6v6H54V156M72 156h6v6H72V156M78 156h6v6H78V156M84 156h6v6H84V156M96 156h6v6H96V156M144 156h6v6H144V156M156 156h6v6H156V156M168 156h6v6H168V156M174 156h6v6H174V156M180 156h6v6H180V156M186 156h6v6H186V156M234 156h6v6H234V156M240 156h6v6H240V156M252 156h6v6H252V156M258 156h6v6H258V156M264 156h6v6H264V156M270 156h6v6H270V156M276 156h6v6H276V156M288 156h6v6H288V156M300 156h6v6H300V156M312 156h6v6H312V156M318 156h6v6H318V156M342 156h6v6H342V156M360 156h6v6H360V156M366 156h6v6H366V156M378 156h6v6H378V156M384 156h6v6H384V156M390 156h6v6H390V156M396 156h6v6H396V156M402 156h6v6H402V156M408 156h6v6H408V156M420 156h6v6H420V156M432 156h6v6H432V156M450 156h6v6H450V156M456 156h6v6H456V156M0 162h6v6H0V162M6 162h6v6H6V162M12 162h6v6H12V162M18 162h6v6H18V162M24 162h6v6H24V162M48 162h6v6H48V162M54 162h6v6H54V162M72 162h6v6H72V162M78 162h6v6H78V162M84 162h6v6H84V162M90 162h6v6H90V162M120 162h6v6H120V162M126 162h6v6H126V162M132 162h6v6H132V162M144 162h6v6H144V162M168 162h6v6H168V162M186 162h6v6H186V162M198 162h6v6H198V162M204 162h6v6H204V162M216 162h6v6H216V162M228 162h6v6H228V162M252 162h6v6H252V162M270 162h6v6H270V162M276 162h6v6H276V162M300 162h6v6H300V162M312 162h6v6H312V162M330 162h6v6H330V162M336 162h6v6H336V162M348 162h6v6H348V162M354 162h6v6H354V162M378 162h6v6H378V162M384 162h6v6H384V162M396 162h6v6H396V162M408 162h6v6H408V162M432 162h6v6H432V162M438 162h6v6H438V162M456 162h6v6H456V162M0 168h6v6H0V168M18 168h6v6H18V168M24 168h6v6H24V168M30 168h6v6H30V168M36 168h6v6H36V168M42 168h6v6H42V168M48 168h6v6H48V168M54 168h6v6H54V168M60 168h6v6H60V168M66 168h6v6H66V168M72 168h6v6H72V168M78 168h6v6H78V168M84 168h6v6H84V168M114 168h6v6H114V168M126 168h6v6H126V168M138 168h6v6H138V168M144 168h6v6H144V168M150 168h6v6H150V168M156 168h6v6H156V168M162 168h6v6H162V168M168 168h6v6H168V168M174 168h6v6H174V168M180 168h6v6H180V168M204 168h6v6H204V168M234 168h6v6H234V168M246 168h6v6H246V168M252 168h6v6H252V168M258 168h6v6H258V168M276 168h6v6H276V168M282 168h6v6H282V168M288 168h6v6H288V168M294 168h6v6H294V168M300 168h6v6H300V168M342 168h6v6H342V168M354 168h6v6H354V168M378 168h6v6H378V168M402 168h6v6H402V168M408 168h6v6H408V168M414 168h6v6H414V168M420 168h6v6H420V168M426 168h6v6H426V168M432 168h6v6H432V168M444 168h6v6H444V168M456 168h6v6H456V168M0 174h6v6H0V174M18 174h6v6H18V174M24 174h6v6H24V174M30 174h6v6H30V174M48 174h6v6H48V174M60 174h6v6H60V174M66 174h6v6H66V174M84 174h6v6H84V174M96 174h6v6H96V174M102 174h6v6H102V174M120 174h6v6H120V174M126 174h6v6H126V174M132 174h6v6H132V174M138 174h6v6H138V174M150 174h6v6H150V174M162 174h6v6H162V174M180 174h6v6H180V174M192 174h6v6H192V174M204 174h6v6H204V174M246 174h6v6H246V174M264 174h6v6H264V174M270 174h6v6H270V174M282 174h6v6H282V174M288 174h6v6H288V174M306 174h6v6H306V174M336 174h6v6H336V174M342 174h6v6H342V174M354 174h6v6H354V174M366 174h6v6H366V174M378 174h6v6H378V174M384 174h6v6H384V174M396 174h6v6H396V174M402 174h6v6H402V174M414 174h6v6H414V174M432 174h6v6H432V174M438 174h6v6H438V174M444 174h6v6H444V174M456 174h6v6H456V174M12 180h6v6H12V180M36 180h6v6H36V180M42 180h6v6H42V180M54 180h6v6H54V180M60 180h6v6H60V180M66 180h6v6H66V180M72 180h6v6H72V180M90 180h6v6H90V180M114 180h6v6H114V180M162 180h6v6H162V180M168 180h6v6H168V180M174 180h6v6H174V180M192 180h6v6H192V180M222 180h6v6H222V180M234 180h6v6H234V180M246 180h6v6H246V180M252 180h6v6H252V180M312 180h6v6H312V180M336 180h6v6H336V180M342 180h6v6H342V180M348 180h6v6H348V180M354 180h6v6H354V180M372 180h6v6H372V180M384 180h6v6H384V180M390 180h6v6H390V180M396 180h6v6H396V180M408 180h6v6H408V180M426 180h6v6H426V180M0 186h6v6H0V186M12 186h6v6H12V186M18 186h6v6H18V186M42 186h6v6H42V186M48 186h6v6H48V186M66 186h6v6H66V186M96 186h6v6H96V186M102 186h6v6H102V186M108 186h6v6H108V186M114 186h6v6H114V186M126 186h6v6H126V186M138 186h6v6H138V186M144 186h6v6H144V186M150 186h6v6H150V186M156 186h6v6H156V186M162 186h6v6H162V186M168 186h6v6H168V186M174 186h6v6H174V186M180 186h6v6H180V186M186 186h6v6H186V186M192 186h6v6H192V186M228 186h6v6H228V186M246 186h6v6H246V186M258 186h6v6H258V186M276 186h6v6H276V186M282 186h6v6H282V186M288 186h6v6H288V186M294 186h6v6H294V186M318 186h6v6H318V186M324 186h6v6H324V186M366 186h6v6H366V186M384 186h6v6H384V186M390 186h6v6H390V186M408 186h6v6H408V186M414 186h6v6H414V186M444 186h6v6H444V186M456 186h6v6H456V186M0 192h6v6H0V192M12 192h6v6H12V192M18 192h6v6H18V192M24 192h6v6H24V192M36 192h6v6H36V192M48 192h6v6H48V192M60 192h6v6H60V192M72 192h6v6H72V192M78 192h6v6H78V192M84 192h6v6H84V192M108 192h6v6H108V192M114 192h6v6H114V192M132 192h6v6H132V192M138 192h6v6H138V192M144 192h6v6H144V192M168 192h6v6H168V192M174 192h6v6H174V192M186 192h6v6H186V192M192 192h6v6H192V192M222 192h6v6H222V192M228 192h6v6H228V192M234 192h6v6H234V192M240 192h6v6H240V192M246 192h6v6H246V192M270 192h6v6H270V192M276 192h6v6H276V192M300 192h6v6H300V192M330 192h6v6H330V192M348 192h6v6H348V192M360 192h6v6H360V192M366 192h6v6H366V192M396 192h6v6H396V192M408 192h6v6H408V192M426 192h6v6H426V192M444 192h6v6H444V192M18 198h6v6H18V198M24 198h6v6H24V198M30 198h6v6H30V198M48 198h6v6H48V198M54 198h6v6H54V198M60 198h6v6H60V198M78 198h6v6H78V198M84 198h6v6H84V198M96 198h6v6H96V198M114 198h6v6H114V198M126 198h6v6H126V198M138 198h6v6H138V198M162 198h6v6H162V198M174 198h6v6H174V198M180 198h6v6H180V198M192 198h6v6H192V198M198 198h6v6H198V198M204 198h6v6H204V198M210 198h6v6H210V198M216 198h6v6H216V198M228 198h6v6H228V198M234 198h6v6H234V198M252 198h6v6H252V198M258 198h6v6H258V198M270 198h6v6H270V198M276 198h6v6H276V198M282 198h6v6H282V198M288 198h6v6H288V198M306 198h6v6H306V198M318 198h6v6H318V198M336 198h6v6H336V198M342 198h6v6H342V198M348 198h6v6H348V198M372 198h6v6H372V198M378 198h6v6H378V198M426 198h6v6H426V198M432 198h6v6H432V198M444 198h6v6H444V198M6 204h6v6H6V204M12 204h6v6H12V204M30 204h6v6H30V204M36 204h6v6H36V204M42 204h6v6H42V204M54 204h6v6H54V204M60 204h6v6H60V204M78 204h6v6H78V204M90 204h6v6H90V204M102 204h6v6H102V204M126 204h6v6H126V204M132 204h6v6H132V204M144 204h6v6H144V204M162 204h6v6H162V204M192 204h6v6H192V204M210 204h6v6H210V204M222 204h6v6H222V204M228 204h6v6H228V204M258 204h6v6H258V204M264 204h6v6H264V204M270 204h6v6H270V204M282 204h6v6H282V204M288 204h6v6H288V204M312 204h6v6H312V204M354 204h6v6H354V204M366 204h6v6H366V204M378 204h6v6H378V204M384 204h6v6H384V204M390 204h6v6H390V204M396 204h6v6H396V204M402 204h6v6H402V204M408 204h6v6H408V204M414 204h6v6H414V204M456 204h6v6H456V204M12 210h6v6H12V210M18 210h6v6H18V210M24 210h6v6H24V210M48 210h6v6H48V210M54 210h6v6H54V210M60 210h6v6H60V210M78 210h6v6H78V210M90 210h6v6H90V210M126 210h6v6H126V210M144 210h6v6H144V210M150 210h6v6H150V210M156 210h6v6H156V210M186 210h6v6H186V210M210 210h6v6H210V210M222 210h6v6H222V210M234 210h6v6H234V210M240 210h6v6H240V210M252 210h6v6H252V210M258 210h6v6H258V210M270 210h6v6H270V210M282 210h6v6H282V210M294 210h6v6H294V210M300 210h6v6H300V210M306 210h6v6H306V210M312 210h6v6H312V210M318 210h6v6H318V210M324 210h6v6H324V210M336 210h6v6H336V210M342 210h6v6H342V210M360 210h6v6H360V210M366 210h6v6H366V210M384 210h6v6H384V210M414 210h6v6H414V210M420 210h6v6H420V210M432 210h6v6H432V210M456 210h6v6H456V210M0 216h6v6H0V216M6 216h6v6H6V216M12 216h6v6H12V216M24 216h6v6H24V216M36 216h6v6H36V216M48 216h6v6H48V216M66 216h6v6H66V216M78 216h6v6H78V216M90 216h6v6H90V216M96 216h6v6H96V216M102 216h6v6H102V216M108 216h6v6H108V216M114 216h6v6H114V216M120 216h6v6H120V216M132 216h6v6H132V216M174 216h6v6H174V216M180 216h6v6H180V216M192 216h6v6H192V216M198 216h6v6H198V216M204 216h6v6H204V216M222 216h6v6H222V216M228 216h6v6H228V216M258 216h6v6H258V216M270 216h6v6H270V216M282 216h6v6H282V216M294 216h6v6H294V216M300 216h6v6H300V216M312 216h6v6H312V216M318 216h6v6H318V216M324 216h6v6H324V216M342 216h6v6H342V216M366 216h6v6H366V216M390 216h6v6H390V216M396 216h6v6H396V216M402 216h6v6H402V216M408 216h6v6H408V216M414 216h6v6H414V216M420 216h6v6H420V216M426 216h6v6H426V216M432 216h6v6H432V216M444 216h6v6H444V216M450 216h6v6H450V216M0 222h6v6H0V222M6 222h6v6H6V222M12 222h6v6H12V222M18 222h6v6H18V222M30 222h6v6H30V222M48 222h6v6H48V222M54 222h6v6H54V222M66 222h6v6H66V222M72 222h6v6H72V222M78 222h6v6H78V222M90 222h6v6H90V222M96 222h6v6H96V222M108 222h6v6H108V222M120 222h6v6H120V222M126 222h6v6H126V222M132 222h6v6H132V222M138 222h6v6H138V222M144 222h6v6H144V222M150 222h6v6H150V222M174 222h6v6H174V222M198 222h6v6H198V222M216 222h6v6H216V222M228 222h6v6H228V222M234 222h6v6H234V222M258 222h6v6H258V222M264 222h6v6H264V222M270 222h6v6H270V222M276 222h6v6H276V222M294 222h6v6H294V222M300 222h6v6H300V222M318 222h6v6H318V222M330 222h6v6H330V222M348 222h6v6H348V222M354 222h6v6H354V222M360 222h6v6H360V222M372 222h6v6H372V222M378 222h6v6H378V222M414 222h6v6H414V222M420 222h6v6H420V222M426 222h6v6H426V222M438 222h6v6H438V222M444 222h6v6H444V222M450 222h6v6H450V222M456 222h6v6H456V222M0 228h6v6H0V228M12 228h6v6H12V228M24 228h6v6H24V228M36 228h6v6H36V228M42 228h6v6H42V228M54 228h6v6H54V228M66 228h6v6H66V228M78 228h6v6H78V228M90 228h6v6H90V228M102 228h6v6H102V228M114 228h6v6H114V228M126 228h6v6H126V228M138 228h6v6H138V228M144 228h6v6H144V228M162 228h6v6H162V228M174 228h6v6H174V228M186 228h6v6H186V228M216 228h6v6H216V228M246 228h6v6H246V228M258 228h6v6H258V228M264 228h6v6H264V228M276 228h6v6H276V228M282 228h6v6H282V228M300 228h6v6H300V228M318 228h6v6H318V228M324 228h6v6H324V228M330 228h6v6H330V228M336 228h6v6H336V228M342 228h6v6H342V228M354 228h6v6H354V228M372 228h6v6H372V228M396 228h6v6H396V228M426 228h6v6H426V228M438 228h6v6H438V228M444 228h6v6H444V228M0 234h6v6H0V234M12 234h6v6H12V234M18 234h6v6H18V234M24 234h6v6H24V234M48 234h6v6H48V234M54 234h6v6H54V234M66 234h6v6H66V234M84 234h6v6H84V234M90 234h6v6H90V234M96 234h6v6H96V234M102 234h6v6H102V234M108 234h6v6H108V234M114 234h6v6H114V234M120 234h6v6H120V234M126 234h6v6H126V234M132 234h6v6H132V234M150 234h6v6H150V234M162 234h6v6H162V234M180 234h6v6H180V234M186 234h6v6H186V234M198 234h6v6H198V234M204 234h6v6H204V234M210 234h6v6H210V234M216 234h6v6H216V234M264 234h6v6H264V234M270 234h6v6H270V234M276 234h6v6H276V234M282 234h6v6H282V234M288 234h6v6H288V234M294 234h6v6H294V234M354 234h6v6H354V234M366 234h6v6H366V234M372 234h6v6H372V234M384 234h6v6H384V234M390 234h6v6H390V234M432 234h6v6H432V234M438 234h6v6H438V234M0 240h6v6H0V240M6 240h6v6H6V240M12 240h6v6H12V240M18 240h6v6H18V240M36 240h6v6H36V240M42 240h6v6H42V240M72 240h6v6H72V240M78 240h6v6H78V240M96 240h6v6H96V240M132 240h6v6H132V240M150 240h6v6H150V240M156 240h6v6H156V240M168 240h6v6H168V240M180 240h6v6H180V240M198 240h6v6H198V240M204 240h6v6H204V240M210 240h6v6H210V240M216 240h6v6H216V240M222 240h6v6H222V240M228 240h6v6H228V240M246 240h6v6H246V240M252 240h6v6H252V240M258 240h6v6H258V240M264 240h6v6H264V240M294 240h6v6H294V240M306 240h6v6H306V240M312 240h6v6H312V240M318 240h6v6H318V240M342 240h6v6H342V240M348 240h6v6H348V240M354 240h6v6H354V240M366 240h6v6H366V240M372 240h6v6H372V240M384 240h6v6H384V240M414 240h6v6H414V240M420 240h6v6H420V240M444 240h6v6H444V240M456 240h6v6H456V240M6 246h6v6H6V246M18 246h6v6H18V246M30 246h6v6H30V246M42 246h6v6H42V246M54 246h6v6H54V246M60 246h6v6H60V246M66 246h6v6H66V246M72 246h6v6H72V246M78 246h6v6H78V246M84 246h6v6H84V246M96 246h6v6H96V246M102 246h6v6H102V246M108 246h6v6H108V246M114 246h6v6H114V246M126 246h6v6H126V246M138 246h6v6H138V246M156 246h6v6H156V246M168 246h6v6H168V246M174 246h6v6H174V246M192 246h6v6H192V246M198 246h6v6H198V246M204 246h6v6H204V246M210 246h6v6H210V246M216 246h6v6H216V246M222 246h6v6H222V246M234 246h6v6H234V246M240 246h6v6H240V246M246 246h6v6H246V246M258 246h6v6H258V246M264 246h6v6H264V246M270 246h6v6H270V246M276 246h6v6H276V246M306 246h6v6H306V246M312 246h6v6H312V246M324 246h6v6H324V246M330 246h6v6H330V246M354 246h6v6H354V246M366 246h6v6H366V246M378 246h6v6H378V246M390 246h6v6H390V246M402 246h6v6H402V246M420 246h6v6H420V246M426 246h6v6H426V246M438 246h6v6H438V246M456 246h6v6H456V246M0 252h6v6H0V252M6 252h6v6H6V252M24 252h6v6H24V252M36 252h6v6H36V252M42 252h6v6H42V252M48 252h6v6H48V252M66 252h6v6H66V252M78 252h6v6H78V252M84 252h6v6H84V252M114 252h6v6H114V252M120 252h6v6H120V252M132 252h6v6H132V252M156 252h6v6H156V252M162 252h6v6H162V252M180 252h6v6H180V252M222 252h6v6H222V252M234 252h6v6H234V252M246 252h6v6H246V252M252 252h6v6H252V252M258 252h6v6H258V252M270 252h6v6H270V252M276 252h6v6H276V252M282 252h6v6H282V252M300 252h6v6H300V252M324 252h6v6H324V252M336 252h6v6H336V252M342 252h6v6H342V252M348 252h6v6H348V252M372 252h6v6H372V252M378 252h6v6H378V252M402 252h6v6H402V252M408 252h6v6H408V252M414 252h6v6H414V252M444 252h6v6H444V252M450 252h6v6H450V252M456 252h6v6H456V252M12 258h6v6H12V258M24 258h6v6H24V258M30 258h6v6H30V258M48 258h6v6H48V258M66 258h6v6H66V258M72 258h6v6H72V258M78 258h6v6H78V258M84 258h6v6H84V258M90 258h6v6H90V258M96 258h6v6H96V258M102 258h6v6H102V258M108 258h6v6H108V258M126 258h6v6H126V258M162 258h6v6H162V258M168 258h6v6H168V258M174 258h6v6H174V258M180 258h6v6H180V258M192 258h6v6H192V258M204 258h6v6H204V258M210 258h6v6H210V258M216 258h6v6H216V258M222 258h6v6H222V258M228 258h6v6H228V258M246 258h6v6H246V258M276 258h6v6H276V258M282 258h6v6H282V258M294 258h6v6H294V258M300 258h6v6H300V258M318 258h6v6H318V258M324 258h6v6H324V258M354 258h6v6H354V258M360 258h6v6H360V258M372 258h6v6H372V258M384 258h6v6H384V258M396 258h6v6H396V258M408 258h6v6H408V258M432 258h6v6H432V258M444 258h6v6H444V258M450 258h6v6H450V258M0 264h6v6H0V264M12 264h6v6H12V264M24 264h6v6H24V264M30 264h6v6H30V264M36 264h6v6H36V264M54 264h6v6H54V264M60 264h6v6H60V264M66 264h6v6H66V264M78 264h6v6H78V264M84 264h6v6H84V264M108 264h6v6H108V264M120 264h6v6H120V264M156 264h6v6H156V264M168 264h6v6H168V264M180 264h6v6H180V264M192 264h6v6H192V264M198 264h6v6H198V264M222 264h6v6H222V264M228 264h6v6H228V264M246 264h6v6H246V264M276 264h6v6H276V264M282 264h6v6H282V264M300 264h6v6H300V264M306 264h6v6H306V264M312 264h6v6H312V264M330 264h6v6H330V264M336 264h6v6H336V264M360 264h6v6H360V264M384 264h6v6H384V264M390 264h6v6H390V264M402 264h6v6H402V264M408 264h6v6H408V264M420 264h6v6H420V264M432 264h6v6H432V264M438 264h6v6H438V264M444 264h6v6H444V264M456 264h6v6H456V264M12 270h6v6H12V270M18 270h6v6H18V270M24 270h6v6H24V270M48 270h6v6H48V270M54 270h6v6H54V270M60 270h6v6H60V270M66 270h6v6H66V270M90 270h6v6H90V270M102 270h6v6H102V270M120 270h6v6H120V270M126 270h6v6H126V270M144 270h6v6H144V270M156 270h6v6H156V270M162 270h6v6H162V270M180 270h6v6H180V270M186 270h6v6H186V270M222 270h6v6H222V270M246 270h6v6H246V270M252 270h6v6H252V270M258 270h6v6H258V270M264 270h6v6H264V270M294 270h6v6H294V270M330 270h6v6H330V270M342 270h6v6H342V270M348 270h6v6H348V270M354 270h6v6H354V270M360 270h6v6H360V270M384 270h6v6H384V270M396 270h6v6H396V270M414 270h6v6H414V270M420 270h6v6H420V270M456 270h6v6H456V270M12 276h6v6H12V276M24 276h6v6H24V276M30 276h6v6H30V276M36 276h6v6H36V276M42 276h6v6H42V276M48 276h6v6H48V276M72 276h6v6H72V276M96 276h6v6H96V276M102 276h6v6H102V276M114 276h6v6H114V276M120 276h6v6H120V276M138 276h6v6H138V276M144 276h6v6H144V276M150 276h6v6H150V276M156 276h6v6H156V276M162 276h6v6H162V276M168 276h6v6H168V276M180 276h6v6H180V276M192 276h6v6H192V276M210 276h6v6H210V276M222 276h6v6H222V276M246 276h6v6H246V276M252 276h6v6H252V276M258 276h6v6H258V276M270 276h6v6H270V276M276 276h6v6H276V276M282 276h6v6H282V276M288 276h6v6H288V276M294 276h6v6H294V276M300 276h6v6H300V276M306 276h6v6H306V276M312 276h6v6H312V276M330 276h6v6H330V276M348 276h6v6H348V276M354 276h6v6H354V276M360 276h6v6H360V276M366 276h6v6H366V276M372 276h6v6H372V276M378 276h6v6H378V276M396 276h6v6H396V276M402 276h6v6H402V276M408 276h6v6H408V276M414 276h6v6H414V276M420 276h6v6H420V276M426 276h6v6H426V276M432 276h6v6H432V276M450 276h6v6H450V276M0 282h6v6H0V282M12 282h6v6H12V282M18 282h6v6H18V282M24 282h6v6H24V282M48 282h6v6H48V282M54 282h6v6H54V282M66 282h6v6H66V282M72 282h6v6H72V282M78 282h6v6H78V282M90 282h6v6H90V282M108 282h6v6H108V282M114 282h6v6H114V282M120 282h6v6H120V282M144 282h6v6H144V282M168 282h6v6H168V282M174 282h6v6H174V282M180 282h6v6H180V282M204 282h6v6H204V282M216 282h6v6H216V282M222 282h6v6H222V282M240 282h6v6H240V282M276 282h6v6H276V282M300 282h6v6H300V282M312 282h6v6H312V282M318 282h6v6H318V282M324 282h6v6H324V282M342 282h6v6H342V282M348 282h6v6H348V282M372 282h6v6H372V282M390 282h6v6H390V282M396 282h6v6H396V282M408 282h6v6H408V282M432 282h6v6H432V282M438 282h6v6H438V282M12 288h6v6H12V288M24 288h6v6H24V288M36 288h6v6H36V288M48 288h6v6H48V288M60 288h6v6H60V288M66 288h6v6H66V288M72 288h6v6H72V288M78 288h6v6H78V288M96 288h6v6H96V288M102 288h6v6H102V288M108 288h6v6H108V288M120 288h6v6H120V288M126 288h6v6H126V288M132 288h6v6H132V288M144 288h6v6H144V288M156 288h6v6H156V288M168 288h6v6H168V288M174 288h6v6H174V288M186 288h6v6H186V288M192 288h6v6H192V288M228 288h6v6H228V288M234 288h6v6H234V288M240 288h6v6H240V288M246 288h6v6H246V288M252 288h6v6H252V288M276 288h6v6H276V288M288 288h6v6H288V288M300 288h6v6H300V288M306 288h6v6H306V288M312 288h6v6H312V288M318 288h6v6H318V288M324 288h6v6H324V288M330 288h6v6H330V288M336 288h6v6H336V288M348 288h6v6H348V288M378 288h6v6H378V288M390 288h6v6H390V288M396 288h6v6H396V288M402 288h6v6H402V288M408 288h6v6H408V288M420 288h6v6H420V288M432 288h6v6H432V288M450 288h6v6H450V288M456 288h6v6H456V288M6 294h6v6H6V294M12 294h6v6H12V294M24 294h6v6H24V294M48 294h6v6H48V294M54 294h6v6H54V294M102 294h6v6H102V294M114 294h6v6H114V294M126 294h6v6H126V294M144 294h6v6H144V294M168 294h6v6H168V294M174 294h6v6H174V294M180 294h6v6H180V294M228 294h6v6H228V294M240 294h6v6H240V294M258 294h6v6H258V294M264 294h6v6H264V294M270 294h6v6H270V294M276 294h6v6H276V294M300 294h6v6H300V294M306 294h6v6H306V294M318 294h6v6H318V294M324 294h6v6H324V294M336 294h6v6H336V294M348 294h6v6H348V294M354 294h6v6H354V294M378 294h6v6H378V294M384 294h6v6H384V294M390 294h6v6H390V294M396 294h6v6H396V294M408 294h6v6H408V294M432 294h6v6H432V294M456 294h6v6H456V294M6 300h6v6H6V300M12 300h6v6H12V300M24 300h6v6H24V300M30 300h6v6H30V300M36 300h6v6H36V300M42 300h6v6H42V300M48 300h6v6H48V300M54 300h6v6H54V300M72 300h6v6H72V300M102 300h6v6H102V300M120 300h6v6H120V300M126 300h6v6H126V300M144 300h6v6H144V300M150 300h6v6H150V300M156 300h6v6H156V300M162 300h6v6H162V300M168 300h6v6H168V300M174 300h6v6H174V300M186 300h6v6H186V300M198 300h6v6H198V300M204 300h6v6H204V300M228 300h6v6H228V300M240 300h6v6H240V300M252 300h6v6H252V300M258 300h6v6H258V300M276 300h6v6H276V300M282 300h6v6H282V300M288 300h6v6H288V300M294 300h6v6H294V300M300 300h6v6H300V300M306 300h6v6H306V300M318 300h6v6H318V300M324 300h6v6H324V300M330 300h6v6H330V300M336 300h6v6H336V300M342 300h6v6H342V300M360 300h6v6H360V300M366 300h6v6H366V300M372 300h6v6H372V300M378 300h6v6H378V300M396 300h6v6H396V300M408 300h6v6H408V300M414 300h6v6H414V300M420 300h6v6H420V300M426 300h6v6H426V300M432 300h6v6H432V300M444 300h6v6H444V300M456 300h6v6H456V300M0 306h6v6H0V306M6 306h6v6H6V306M18 306h6v6H18V306M24 306h6v6H24V306M48 306h6v6H48V306M66 306h6v6H66V306M78 306h6v6H78V306M84 306h6v6H84V306M90 306h6v6H90V306M96 306h6v6H96V306M108 306h6v6H108V306M126 306h6v6H126V306M132 306h6v6H132V306M138 306h6v6H138V306M162 306h6v6H162V306M174 306h6v6H174V306M198 306h6v6H198V306M210 306h6v6H210V306M216 306h6v6H216V306M234 306h6v6H234V306M264 306h6v6H264V306M276 306h6v6H276V306M288 306h6v6H288V306M306 306h6v6H306V306M312 306h6v6H312V306M318 306h6v6H318V306M324 306h6v6H324V306M330 306h6v6H330V306M354 306h6v6H354V306M360 306h6v6H360V306M366 306h6v6H366V306M372 306h6v6H372V306M378 306h6v6H378V306M384 306h6v6H384V306M402 306h6v6H402V306M420 306h6v6H420V306M450 306h6v6H450V306M456 306h6v6H456V306M0 312h6v6H0V312M12 312h6v6H12V312M18 312h6v6H18V312M24 312h6v6H24V312M36 312h6v6H36V312M42 312h6v6H42V312M48 312h6v6H48V312M54 312h6v6H54V312M60 312h6v6H60V312M66 312h6v6H66V312M72 312h6v6H72V312M84 312h6v6H84V312M90 312h6v6H90V312M96 312h6v6H96V312M108 312h6v6H108V312M114 312h6v6H114V312M132 312h6v6H132V312M144 312h6v6H144V312M150 312h6v6H150V312M156 312h6v6H156V312M174 312h6v6H174V312M186 312h6v6H186V312M192 312h6v6H192V312M204 312h6v6H204V312M210 312h6v6H210V312M216 312h6v6H216V312M228 312h6v6H228V312M234 312h6v6H234V312M252 312h6v6H252V312M282 312h6v6H282V312M294 312h6v6H294V312M312 312h6v6H312V312M330 312h6v6H330V312M366 312h6v6H366V312M372 312h6v6H372V312M384 312h6v6H384V312M402 312h6v6H402V312M408 312h6v6H408V312M420 312h6v6H420V312M432 312h6v6H432V312M438 312h6v6H438V312M444 312h6v6H444V312M12 318h6v6H12V318M24 318h6v6H24V318M48 318h6v6H48V318M60 318h6v6H60V318M66 318h6v6H66V318M72 318h6v6H72V318M90 318h6v6H90V318M96 318h6v6H96V318M114 318h6v6H114V318M132 318h6v6H132V318M138 318h6v6H138V318M150 318h6v6H150V318M156 318h6v6H156V318M168 318h6v6H168V318M180 318h6v6H180V318M186 318h6v6H186V318M192 318h6v6H192V318M198 318h6v6H198V318M204 318h6v6H204V318M210 318h6v6H210V318M246 318h6v6H246V318M264 318h6v6H264V318M276 318h6v6H276V318M282 318h6v6H282V318M306 318h6v6H306V318M312 318h6v6H312V318M342 318h6v6H342V318M354 318h6v6H354V318M366 318h6v6H366V318M378 318h6v6H378V318M396 318h6v6H396V318M414 318h6v6H414V318M420 318h6v6H420V318M432 318h6v6H432V318M438 318h6v6H438V318M456 318h6v6H456V318M0 324h6v6H0V324M12 324h6v6H12V324M18 324h6v6H18V324M24 324h6v6H24V324M36 324h6v6H36V324M42 324h6v6H42V324M60 324h6v6H60V324M72 324h6v6H72V324M78 324h6v6H78V324M84 324h6v6H84V324M102 324h6v6H102V324M108 324h6v6H108V324M120 324h6v6H120V324M126 324h6v6H126V324M132 324h6v6H132V324M138 324h6v6H138V324M150 324h6v6H150V324M162 324h6v6H162V324M174 324h6v6H174V324M180 324h6v6H180V324M186 324h6v6H186V324M198 324h6v6H198V324M216 324h6v6H216V324M222 324h6v6H222V324M228 324h6v6H228V324M234 324h6v6H234V324M252 324h6v6H252V324M276 324h6v6H276V324M282 324h6v6H282V324M288 324h6v6H288V324M294 324h6v6H294V324M312 324h6v6H312V324M330 324h6v6H330V324M336 324h6v6H336V324M342 324h6v6H342V324M354 324h6v6H354V324M360 324h6v6H360V324M366 324h6v6H366V324M378 324h6v6H378V324M384 324h6v6H384V324M390 324h6v6H390V324M402 324h6v6H402V324M414 324h6v6H414V324M420 324h6v6H420V324M438 324h6v6H438V324M444 324h6v6H444V324M450 324h6v6H450V324M0 330h6v6H0V330M6 330h6v6H6V330M18 330h6v6H18V330M24 330h6v6H24V330M42 330h6v6H42V330M48 330h6v6H48V330M54 330h6v6H54V330M78 330h6v6H78V330M84 330h6v6H84V330M90 330h6v6H90V330M96 330h6v6H96V330M102 330h6v6H102V330M120 330h6v6H120V330M138 330h6v6H138V330M156 330h6v6H156V330M174 330h6v6H174V330M186 330h6v6H186V330M192 330h6v6H192V330M210 330h6v6H210V330M234 330h6v6H234V330M246 330h6v6H246V330M258 330h6v6H258V330M270 330h6v6H270V330M282 330h6v6H282V330M288 330h6v6H288V330M312 330h6v6H312V330M318 330h6v6H318V330M330 330h6v6H330V330M336 330h6v6H336V330M348 330h6v6H348V330M354 330h6v6H354V330M360 330h6v6H360V330M366 330h6v6H366V330M372 330h6v6H372V330M378 330h6v6H378V330M390 330h6v6H390V330M402 330h6v6H402V330M408 330h6v6H408V330M414 330h6v6H414V330M426 330h6v6H426V330M432 330h6v6H432V330M438 330h6v6H438V330M450 330h6v6H450V330M456 330h6v6H456V330M36 336h6v6H36V336M42 336h6v6H42V336M48 336h6v6H48V336M54 336h6v6H54V336M60 336h6v6H60V336M78 336h6v6H78V336M114 336h6v6H114V336M120 336h6v6H120V336M144 336h6v6H144V336M156 336h6v6H156V336M174 336h6v6H174V336M198 336h6v6H198V336M204 336h6v6H204V336M210 336h6v6H210V336M228 336h6v6H228V336M240 336h6v6H240V336M246 336h6v6H246V336M252 336h6v6H252V336M258 336h6v6H258V336M264 336h6v6H264V336M270 336h6v6H270V336M276 336h6v6H276V336M300 336h6v6H300V336M318 336h6v6H318V336M324 336h6v6H324V336M342 336h6v6H342V336M348 336h6v6H348V336M354 336h6v6H354V336M360 336h6v6H360V336M378 336h6v6H378V336M390 336h6v6H390V336M402 336h6v6H402V336M414 336h6v6H414V336M426 336h6v6H426V336M438 336h6v6H438V336M12 342h6v6H12V342M24 342h6v6H24V342M60 342h6v6H60V342M72 342h6v6H72V342M78 342h6v6H78V342M84 342h6v6H84V342M90 342h6v6H90V342M120 342h6v6H120V342M126 342h6v6H126V342M138 342h6v6H138V342M168 342h6v6H168V342M180 342h6v6H180V342M192 342h6v6H192V342M222 342h6v6H222V342M240 342h6v6H240V342M246 342h6v6H246V342M252 342h6v6H252V342M258 342h6v6H258V342M264 342h6v6H264V342M282 342h6v6H282V342M288 342h6v6H288V342M294 342h6v6H294V342M300 342h6v6H300V342M330 342h6v6H330V342M342 342h6v6H342V342M348 342h6v6H348V342M354 342h6v6H354V342M360 342h6v6H360V342M396 342h6v6H396V342M402 342h6v6H402V342M414 342h6v6H414V342M444 342h6v6H444V342M456 342h6v6H456V342M12 348h6v6H12V348M36 348h6v6H36V348M42 348h6v6H42V348M48 348h6v6H48V348M60 348h6v6H60V348M78 348h6v6H78V348M84 348h6v6H84V348M96 348h6v6H96V348M138 348h6v6H138V348M156 348h6v6H156V348M162 348h6v6H162V348M168 348h6v6H168V348M174 348h6v6H174V348M180 348h6v6H180V348M192 348h6v6H192V348M210 348h6v6H210V348M216 348h6v6H216V348M228 348h6v6H228V348M270 348h6v6H270V348M276 348h6v6H276V348M288 348h6v6H288V348M294 348h6v6H294V348M300 348h6v6H300V348M306 348h6v6H306V348M312 348h6v6H312V348M318 348h6v6H318V348M324 348h6v6H324V348M330 348h6v6H330V348M342 348h6v6H342V348M360 348h6v6H360V348M378 348h6v6H378V348M384 348h6v6H384V348M390 348h6v6H390V348M402 348h6v6H402V348M408 348h6v6H408V348M0 354h6v6H0V354M6 354h6v6H6V354M24 354h6v6H24V354M66 354h6v6H66V354M72 354h6v6H72V354M78 354h6v6H78V354M96 354h6v6H96V354M114 354h6v6H114V354M120 354h6v6H120V354M126 354h6v6H126V354M138 354h6v6H138V354M162 354h6v6H162V354M168 354h6v6H168V354M186 354h6v6H186V354M204 354h6v6H204V354M222 354h6v6H222V354M234 354h6v6H234V354M258 354h6v6H258V354M276 354h6v6H276V354M282 354h6v6H282V354M294 354h6v6H294V354M318 354h6v6H318V354M330 354h6v6H330V354M336 354h6v6H336V354M354 354h6v6H354V354M390 354h6v6H390V354M396 354h6v6H396V354M408 354h6v6H408V354M414 354h6v6H414V354M420 354h6v6H420V354M432 354h6v6H432V354M438 354h6v6H438V354M444 354h6v6H444V354M450 354h6v6H450V354M456 354h6v6H456V354M6 360h6v6H6V360M24 360h6v6H24V360M30 360h6v6H30V360M36 360h6v6H36V360M54 360h6v6H54V360M60 360h6v6H60V360M72 360h6v6H72V360M84 360h6v6H84V360M90 360h6v6H90V360M96 360h6v6H96V360M114 360h6v6H114V360M132 360h6v6H132V360M138 360h6v6H138V360M150 360h6v6H150V360M162 360h6v6H162V360M180 360h6v6H180V360M186 360h6v6H186V360M204 360h6v6H204V360M210 360h6v6H210V360M216 360h6v6H216V360M222 360h6v6H222V360M246 360h6v6H246V360M258 360h6v6H258V360M282 360h6v6H282V360M288 360h6v6H288V360M294 360h6v6H294V360M306 360h6v6H306V360M318 360h6v6H318V360M324 360h6v6H324V360M360 360h6v6H360V360M366 360h6v6H366V360M378 360h6v6H378V360M384 360h6v6H384V360M390 360h6v6H390V360M414 360h6v6H414V360M420 360h6v6H420V360M426 360h6v6H426V360M432 360h6v6H432V360M450 360h6v6H450V360M0 366h6v6H0V366M6 366h6v6H6V366M12 366h6v6H12V366M18 366h6v6H18V366M24 366h6v6H24V366M30 366h6v6H30V366M48 366h6v6H48V366M72 366h6v6H72V366M78 366h6v6H78V366M108 366h6v6H108V366M120 366h6v6H120V366M126 366h6v6H126V366M138 366h6v6H138V366M144 366h6v6H144V366M150 366h6v6H150V366M156 366h6v6H156V366M162 366h6v6H162V366M186 366h6v6H186V366M198 366h6v6H198V366M216 366h6v6H216V366M234 366h6v6H234V366M240 366h6v6H240V366M252 366h6v6H252V366M270 366h6v6H270V366M276 366h6v6H276V366M300 366h6v6H300V366M306 366h6v6H306V366M312 366h6v6H312V366M318 366h6v6H318V366M324 366h6v6H324V366M330 366h6v6H330V366M336 366h6v6H336V366M342 366h6v6H342V366M348 366h6v6H348V366M366 366h6v6H366V366M372 366h6v6H372V366M378 366h6v6H378V366M390 366h6v6H390V366M396 366h6v6H396V366M432 366h6v6H432V366M444 366h6v6H444V366M450 366h6v6H450V366M12 372h6v6H12V372M36 372h6v6H36V372M42 372h6v6H42V372M60 372h6v6H60V372M66 372h6v6H66V372M84 372h6v6H84V372M102 372h6v6H102V372M108 372h6v6H108V372M114 372h6v6H114V372M120 372h6v6H120V372M162 372h6v6H162V372M174 372h6v6H174V372M186 372h6v6H186V372M192 372h6v6H192V372M198 372h6v6H198V372M210 372h6v6H210V372M228 372h6v6H228V372M258 372h6v6H258V372M270 372h6v6H270V372M276 372h6v6H276V372M288 372h6v6H288V372M294 372h6v6H294V372M306 372h6v6H306V372M312 372h6v6H312V372M318 372h6v6H318V372M330 372h6v6H330V372M342 372h6v6H342V372M348 372h6v6H348V372M354 372h6v6H354V372M360 372h6v6H360V372M384 372h6v6H384V372M390 372h6v6H390V372M396 372h6v6H396V372M402 372h6v6H402V372M420 372h6v6H420V372M426 372h6v6H426V372M432 372h6v6H432V372M444 372h6v6H444V372M450 372h6v6H450V372M456 372h6v6H456V372M0 378h6v6H0V378M6 378h6v6H6V378M12 378h6v6H12V378M18 378h6v6H18V378M42 378h6v6H42V378M48 378h6v6H48V378M72 378h6v6H72V378M84 378h6v6H84V378M102 378h6v6H102V378M108 378h6v6H108V378M120 378h6v6H120V378M126 378h6v6H126V378M132 378h6v6H132V378M156 378h6v6H156V378M162 378h6v6H162V378M168 378h6v6H168V378M174 378h6v6H174V378M180 378h6v6H180V378M198 378h6v6H198V378M210 378h6v6H210V378M216 378h6v6H216V378M234 378h6v6H234V378M240 378h6v6H240V378M258 378h6v6H258V378M270 378h6v6H270V378M276 378h6v6H276V378M300 378h6v6H300V378M312 378h6v6H312V378M318 378h6v6H318V378M324 378h6v6H324V378M330 378h6v6H330V378M336 378h6v6H336V378M348 378h6v6H348V378M360 378h6v6H360V378M366 378h6v6H366V378M378 378h6v6H378V378M390 378h6v6H390V378M396 378h6v6H396V378M408 378h6v6H408V378M420 378h6v6H420V378M438 378h6v6H438V378M450 378h6v6H450V378M6 384h6v6H6V384M12 384h6v6H12V384M18 384h6v6H18V384M30 384h6v6H30V384M36 384h6v6H36V384M78 384h6v6H78V384M90 384h6v6H90V384M96 384h6v6H96V384M102 384h6v6H102V384M108 384h6v6H108V384M120 384h6v6H120V384M126 384h6v6H126V384M132 384h6v6H132V384M156 384h6v6H156V384M168 384h6v6H168V384M174 384h6v6H174V384M186 384h6v6H186V384M222 384h6v6H222V384M228 384h6v6H228V384M234 384h6v6H234V384M246 384h6v6H246V384M252 384h6v6H252V384M270 384h6v6H270V384M282 384h6v6H282V384M288 384h6v6H288V384M300 384h6v6H300V384M312 384h6v6H312V384M336 384h6v6H336V384M342 384h6v6H342V384M366 384h6v6H366V384M408 384h6v6H408V384M414 384h6v6H414V384M426 384h6v6H426V384M432 384h6v6H432V384M456 384h6v6H456V384M6 390h6v6H6V390M12 390h6v6H12V390M48 390h6v6H48V390M54 390h6v6H54V390M60 390h6v6H60V390M66 390h6v6H66V390M78 390h6v6H78V390M96 390h6v6H96V390M102 390h6v6H102V390M108 390h6v6H108V390M126 390h6v6H126V390M144 390h6v6H144V390M156 390h6v6H156V390M162 390h6v6H162V390M168 390h6v6H168V390M174 390h6v6H174V390M180 390h6v6H180V390M186 390h6v6H186V390M192 390h6v6H192V390M204 390h6v6H204V390M210 390h6v6H210V390M216 390h6v6H216V390M222 390h6v6H222V390M228 390h6v6H228V390M234 390h6v6H234V390M252 390h6v6H252V390M264 390h6v6H264V390M270 390h6v6H270V390M294 390h6v6H294V390M300 390h6v6H300V390M306 390h6v6H306V390M330 390h6v6H330V390M336 390h6v6H336V390M354 390h6v6H354V390M378 390h6v6H378V390M384 390h6v6H384V390M402 390h6v6H402V390M408 390h6v6H408V390M432 390h6v6H432V390M438 390h6v6H438V390M6 396h6v6H6V396M24 396h6v6H24V396M30 396h6v6H30V396M36 396h6v6H36V396M42 396h6v6H42V396M48 396h6v6H48V396M66 396h6v6H66V396M72 396h6v6H72V396M78 396h6v6H78V396M84 396h6v6H84V396M90 396h6v6H90V396M96 396h6v6H96V396M102 396h6v6H102V396M126 396h6v6H126V396M132 396h6v6H132V396M138 396h6v6H138V396M150 396h6v6H150V396M162 396h6v6H162V396M168 396h6v6H168V396M174 396h6v6H174V396M180 396h6v6H180V396M186 396h6v6H186V396M192 396h6v6H192V396M216 396h6v6H216V396M240 396h6v6H240V396M270 396h6v6H270V396M276 396h6v6H276V396M282 396h6v6H282V396M300 396h6v6H300V396M306 396h6v6H306V396M318 396h6v6H318V396M324 396h6v6H324V396M336 396h6v6H336V396M354 396h6v6H354V396M372 396h6v6H372V396M384 396h6v6H384V396M390 396h6v6H390V396M408 396h6v6H408V396M414 396h6v6H414V396M420 396h6v6H420V396M426 396h6v6H426V396M432 396h6v6H432V396M438 396h6v6H438V396M450 396h6v6H450V396M24 402h6v6H24V402M54 402h6v6H54V402M60 402h6v6H60V402M78 402h6v6H78V402M90 402h6v6H90V402M96 402h6v6H96V402M102 402h6v6H102V402M108 402h6v6H108V402M114 402h6v6H114V402M126 402h6v6H126V402M132 402h6v6H132V402M156 402h6v6H156V402M180 402h6v6H180V402M186 402h6v6H186V402M192 402h6v6H192V402M204 402h6v6H204V402M210 402h6v6H210V402M216 402h6v6H216V402M246 402h6v6H246V402M252 402h6v6H252V402M276 402h6v6H276V402M288 402h6v6H288V402M300 402h6v6H300V402M312 402h6v6H312V402M330 402h6v6H330V402M336 402h6v6H336V402M348 402h6v6H348V402M360 402h6v6H360V402M372 402h6v6H372V402M384 402h6v6H384V402M408 402h6v6H408V402M420 402h6v6H420V402M426 402h6v6H426V402M438 402h6v6H438V402M444 402h6v6H444V402M456 402h6v6H456V402M6 408h6v6H6V408M12 408h6v6H12V408M18 408h6v6H18V408M24 408h6v6H24V408M36 408h6v6H36V408M42 408h6v6H42V408M54 408h6v6H54V408M60 408h6v6H60V408M72 408h6v6H72V408M84 408h6v6H84V408M108 408h6v6H108V408M126 408h6v6H126V408M132 408h6v6H132V408M144 408h6v6H144V408M150 408h6v6H150V408M156 408h6v6H156V408M162 408h6v6H162V408M168 408h6v6H168V408M174 408h6v6H174V408M180 408h6v6H180V408M186 408h6v6H186V408M192 408h6v6H192V408M210 408h6v6H210V408M228 408h6v6H228V408M234 408h6v6H234V408M240 408h6v6H240V408M246 408h6v6H246V408M252 408h6v6H252V408M276 408h6v6H276V408M282 408h6v6H282V408M288 408h6v6H288V408M294 408h6v6H294V408M300 408h6v6H300V408M312 408h6v6H312V408M318 408h6v6H318V408M330 408h6v6H330V408M336 408h6v6H336V408M342 408h6v6H342V408M348 408h6v6H348V408M366 408h6v6H366V408M372 408h6v6H372V408M390 408h6v6H390V408M396 408h6v6H396V408M402 408h6v6H402V408M408 408h6v6H408V408M414 408h6v6H414V408M420 408h6v6H420V408M426 408h6v6H426V408M432 408h6v6H432V408M438 408h6v6H438V408M444 408h6v6H444V408M450 408h6v6H450V408M456 408h6v6H456V408M48 414h6v6H48V414M54 414h6v6H54V414M90 414h6v6H90V414M132 414h6v6H132V414M144 414h6v6H144V414M168 414h6v6H168V414M174 414h6v6H174V414M192 414h6v6H192V414M198 414h6v6H198V414M216 414h6v6H216V414M222 414h6v6H222V414M228 414h6v6H228V414M258 414h6v6H258V414M264 414h6v6H264V414M270 414h6v6H270V414M276 414h6v6H276V414M300 414h6v6H300V414M306 414h6v6H306V414M318 414h6v6H318V414M324 414h6v6H324V414M336 414h6v6H336V414M354 414h6v6H354V414M360 414h6v6H360V414M372 414h6v6H372V414M408 414h6v6H408V414M432 414h6v6H432V414M444 414h6v6H444V414M0 420h6v6H0V420M6 420h6v6H6V420M12 420h6v6H12V420M18 420h6v6H18V420M24 420h6v6H24V420M30 420h6v6H30V420M36 420h6v6H36V420M48 420h6v6H48V420M54 420h6v6H54V420M108 420h6v6H108V420M114 420h6v6H114V420M144 420h6v6H144V420M156 420h6v6H156V420M168 420h6v6H168V420M174 420h6v6H174V420M198 420h6v6H198V420M210 420h6v6H210V420M222 420h6v6H222V420M228 420h6v6H228V420M234 420h6v6H234V420M240 420h6v6H240V420M264 420h6v6H264V420M276 420h6v6H276V420M288 420h6v6H288V420M300 420h6v6H300V420M360 420h6v6H360V420M366 420h6v6H366V420M378 420h6v6H378V420M384 420h6v6H384V420M396 420h6v6H396V420M408 420h6v6H408V420M420 420h6v6H420V420M432 420h6v6H432V420M438 420h6v6H438V420M444 420h6v6H444V420M450 420h6v6H450V420M0 426h6v6H0V426M36 426h6v6H36V426M48 426h6v6H48V426M60 426h6v6H60V426M66 426h6v6H66V426M72 426h6v6H72V426M78 426h6v6H78V426M84 426h6v6H84V426M90 426h6v6H90V426M96 426h6v6H96V426M114 426h6v6H114V426M120 426h6v6H120V426M138 426h6v6H138V426M144 426h6v6H144V426M168 426h6v6H168V426M180 426h6v6H180V426M186 426h6v6H186V426M192 426h6v6H192V426M222 426h6v6H222V426M228 426h6v6H228V426M234 426h6v6H234V426M246 426h6v6H246V426M252 426h6v6H252V426M258 426h6v6H258V426M264 426h6v6H264V426M270 426h6v6H270V426M276 426h6v6H276V426M300 426h6v6H300V426M318 426h6v6H318V426M324 426h6v6H324V426M330 426h6v6H330V426M336 426h6v6H336V426M342 426h6v6H342V426M348 426h6v6H348V426M360 426h6v6H360V426M366 426h6v6H366V426M372 426h6v6H372V426M378 426h6v6H378V426M384 426h6v6H384V426M390 426h6v6H390V426M408 426h6v6H408V426M432 426h6v6H432V426M450 426h6v6H450V426M456 426h6v6H456V426M0 432h6v6H0V432M12 432h6v6H12V432M18 432h6v6H18V432M24 432h6v6H24V432M36 432h6v6H36V432M54 432h6v6H54V432M66 432h6v6H66V432M78 432h6v6H78V432M84 432h6v6H84V432M114 432h6v6H114V432M144 432h6v6H144V432M150 432h6v6H150V432M156 432h6v6H156V432M162 432h6v6H162V432M168 432h6v6H168V432M180 432h6v6H180V432M186 432h6v6H186V432M210 432h6v6H210V432M222 432h6v6H222V432M228 432h6v6H228V432M258 432h6v6H258V432M270 432h6v6H270V432M276 432h6v6H276V432M282 432h6v6H282V432M288 432h6v6H288V432M294 432h6v6H294V432M300 432h6v6H300V432M324 432h6v6H324V432M336 432h6v6H336V432M348 432h6v6H348V432M360 432h6v6H360V432M372 432h6v6H372V432M384 432h6v6H384V432M390 432h6v6H390V432M408 432h6v6H408V432M414 432h6v6H414V432M420 432h6v6H420V432M426 432h6v6H426V432M432 432h6v6H432V432M444 432h6v6H444V432M0 438h6v6H0V438M12 438h6v6H12V438M18 438h6v6H18V438M24 438h6v6H24V438M36 438h6v6H36V438M48 438h6v6H48V438M60 438h6v6H60V438M66 438h6v6H66V438M72 438h6v6H72V438M84 438h6v6H84V438M96 438h6v6H96V438M108 438h6v6H108V438M114 438h6v6H114V438M120 438h6v6H120V438M132 438h6v6H132V438M150 438h6v6H150V438M156 438h6v6H156V438M168 438h6v6H168V438M186 438h6v6H186V438M204 438h6v6H204V438M210 438h6v6H210V438M216 438h6v6H216V438M234 438h6v6H234V438M252 438h6v6H252V438M258 438h6v6H258V438M270 438h6v6H270V438M282 438h6v6H282V438M288 438h6v6H288V438M294 438h6v6H294V438M300 438h6v6H300V438M306 438h6v6H306V438M312 438h6v6H312V438M324 438h6v6H324V438M330 438h6v6H330V438M336 438h6v6H336V438M342 438h6v6H342V438M354 438h6v6H354V438M360 438h6v6H360V438M372 438h6v6H372V438M390 438h6v6H390V438M402 438h6v6H402V438M408 438h6v6H408V438M414 438h6v6H414V438M426 438h6v6H426V438M444 438h6v6H444V438M0 444h6v6H0V444M12 444h6v6H12V444M18 444h6v6H18V444M24 444h6v6H24V444M36 444h6v6H36V444M48 444h6v6H48V444M54 444h6v6H54V444M78 444h6v6H78V444M102 444h6v6H102V444M120 444h6v6H120V444M126 444h6v6H126V444M144 444h6v6H144V444M150 444h6v6H150V444M162 444h6v6H162V444M186 444h6v6H186V444M204 444h6v6H204V444M210 444h6v6H210V444M216 444h6v6H216V444M222 444h6v6H222V444M228 444h6v6H228V444M234 444h6v6H234V444M240 444h6v6H240V444M258 444h6v6H258V444M276 444h6v6H276V444M282 444h6v6H282V444M288 444h6v6H288V444M294 444h6v6H294V444M300 444h6v6H300V444M306 444h6v6H306V444M312 444h6v6H312V444M324 444h6v6H324V444M336 444h6v6H336V444M354 444h6v6H354V444M366 444h6v6H366V444M372 444h6v6H372V444M384 444h6v6H384V444M390 444h6v6H390V444M396 444h6v6H396V444M426 444h6v6H426V444M432 444h6v6H432V444M456 444h6v6H456V444M0 450h6v6H0V450M36 450h6v6H36V450M84 450h6v6H84V450M90 450h6v6H90V450M102 450h6v6H102V450M108 450h6v6H108V450M126 450h6v6H126V450M138 450h6v6H138V450M150 450h6v6H150V450M156 450h6v6H156V450M168 450h6v6H168V450M174 450h6v6H174V450M180 450h6v6H180V450M186 450h6v6H186V450M198 450h6v6H198V450M204 450h6v6H204V450M216 450h6v6H216V450M228 450h6v6H228V450M234 450h6v6H234V450M252 450h6v6H252V450M258 450h6v6H258V450M294 450h6v6H294V450M300 450h6v6H300V450M306 450h6v6H306V450M324 450h6v6H324V450M330 450h6v6H330V450M342 450h6v6H342V450M378 450h6v6H378V450M384 450h6v6H384V450M408 450h6v6H408V450M420 450h6v6H420V450M426 450h6v6H426V450M432 450h6v6H432V450M438 450h6v6H438V450M450 450h6v6H450V450M0 456h6v6H0V456M6 456h6v6H6V456M12 456h6v6H12V456M18 456h6v6H18V456M24 456h6v6H24V456M30 456h6v6H30V456M36 456h6v6H36V456M48 456h6v6H48V456M60 456h6v6H60V456M78 456h6v6H78V456M84 456h6v6H84V456M96 456h6v6H96V456M102 456h6v6H102V456M108 456h6v6H108V456M114 456h6v6H114V456M120 456h6v6H120V456M126 456h6v6H126V456M150 456h6v6H150V456M168 456h6v6H168V456M174 456h6v6H174V456M180 456h6v6H180V456M186 456h6v6H186V456M198 456h6v6H198V456M204 456h6v6H204V456M210 456h6v6H210V456M234 456h6v6H234V456M258 456h6v6H258V456M264 456h6v6H264V456M270 456h6v6H270V456M288 456h6v6H288V456M300 456h6v6H300V456M306 456h6v6H306V456M312 456h6v6H312V456M342 456h6v6H342V456M354 456h6v6H354V456M378 456h6v6H378V456M402 456h6v6H402V456M408 456h6v6H408V456M420 456h6v6H420V456M426 456h6v6H426V456M444 456h6v6H444V456M450 456h6v6H450V456"/></svg>
