<?xml version="1.0" standalone="yes"?><svg xmlns="http://www.w3.org/2000/svg" version="1.1" width="462" height="462" viewBox="0 0 462 462" shape-rendering="crispEdges"><rect x="0" y="0" width="462" height="462" fill="#fff"/><path fill="#000" d="M0 0h6v6H0V0M6 0h6v6H6V0M12 0h6v6H12V0M18 0h6v6H18V0M24 0h6v6H24V0M30 0h6v6H30V0M36 0h6v6H36V0M48 0h6v6H48V0M54 0h6v6H54V0M60 0h6v6H60V0M72 0h6v6H72V0M78 0h6v6H78V0M96 0h6v6H96V0M102 0h6v6H102V0M114 0h6v6H114V0M150 0h6v6H150V0M168 0h6v6H168V0M180 0h6v6H180V0M192 0h6v6H192V0M198 0h6v6H198V0M204 0h6v6H204V0M210 0h6v6H210V0M216 0h6v6H216V0M222 0h6v6H222V0M228 0h6v6H228V0M234 0h6v6H234V0M246 0h6v6H246V0M252 0h6v6H252V0M258 0h6v6H258V0M264 0h6v6H264V0M294 0h6v6H294V0M312 0h6v6H312V0M318 0h6v6H318V0M330 0h6v6H330V0M336 0h6v6H336V0M360 0h6v6H360V0M366 0h6v6H366V0M372 0h6v6H372V0M420 0h6v6H420V0M426 0h6v6H426V0M432 0h6v6H432V0M438 0h6v6H438V0M444 0h6v6H444V0M450 0h6v6H450V0M456 0h6v6H456V0M0 6h6v6H0V6M36 6h6v6H36V6M54 6h6v6H54V6M60 6h6v6H60V6M96 6h6v6H96V6M108 6h6v6H108V6M114 6h6v6H114V6M138 6h6v6H138V6M144 6h6v6H144V6M150 6h6v6H150V6M156 6h6v6H156V6M162 6h6v6H162V6M168 6h6v6H168V6M174 6h6v6H174V6M192 6h6v6H192V6M198 6h6v6H198V6M216 6h6v6H216V6M228 6h6v6H228V6M246 6h6v6H246V6M252 6h6v6H252V6M264 6h6v6H264V6M270 6h6v6H270V6M276 6h6v6H276V6M288 6h6v6H288V6M294 6h6v6H294V6M306 6h6v6H306V6M330 6h6v6H330V6M342 6h6v6H342V6M348 6h6v6H348V6M354 6h6v6H354V6M366 6h6v6H366V6M390 6h6v6H390V6M396 6h6v6H396V6M408 6h6v6H408V6M420 6h6v6H420V6M456 6h6v6H456V6M0 12h6v6H0V12M12 12h6v6H12V12M18 12h6v6H18V12M24 12h6v6H24V12M36 12h6v6H36V12M60 12h6v6H60V12M66 12h6v6H66V12M72 12h6v6H72V12M84 12h6v6H84V12M108 12h6v6H108V12M114 12h6v6H114V12M156 12h6v6H156V12M162 12h6v6H162V12M180 12h6v6H180V12M186 12h6v6H186V12M216 12h6v6H216V12M240 12h6v6H240V12M246 12h6v6H246V12M252 12h6v6H252V12M264 12h6v6H264V12M270 12h6v6H270V12M276 12h6v6H276V12M294 12h6v6H294V12M300 12h6v6H300V12M306 12h6v6H306V12M324 12h6v6H324V12M342 12h6v6H342V12M348 12h6v6H348V12M378 12h6v6H378V12M408 12h6v6H408V12M420 12h6v6H420V12M432 12h6v6H432V12M438 12h6v6H438V12M444 12h6v6H444V12M456 12h6v6H456V12M0 18h6v6H0V18M12 18h6v6H12V18M18 18h6v6H18V18M24 18h6v6H24V18M36 18h6v6H36V18M48 18h6v6H48V18M60 18h6v6H60V18M72 18h6v6H72V18M78 18h6v6H78V18M84 18h6v6H84V18M90 18h6v6H90V18M96 18h6v6H96V18M102 18h6v6H102V18M114 18h6v6H114V18M126 18h6v6H126V18M132 18h6v6H132V18M138 18h6v6H138V18M144 18h6v6H144V18M150 18h6v6H150V18M156 18h6v6H156V18M186 18h6v6H186V18M198 18h6v6H198V18M204 18h6v6H204V18M222 18h6v6H222V18M258 18h6v6H258V18M276 18h6v6H276V18M282 18h6v6H282V18M300 18h6v6H300V18M306 18h6v6H306V18M318 18h6v6H318V18M342 18h6v6H342V18M348 18h6v6H348V18M354 18h6v6H354V18M360 18h6v6H360V18M372 18h6v6H372V18M378 18h6v6H378V18M390 18h6v6H390V18M408 18h6v6H408V18M420 18h6v6H420V18M432 18h6v6H432V18M438 18h6v6H438V18M444 18h6v6H444V18M456 18h6v6H456V18M0 24h6v6H0V24M12 24h6v6H12V24M18 24h6v6H18V24M24 24h6v6H24V24M36 24h6v6H36V24M48 24h6v6H48V24M66 24h6v6H66V24M72 24h6v6H72V24M78 24h6v6H78V24M84 24h6v6H84V24M90 24h6v6H90V24M102 24h6v6H102V24M114 24h6v6H114V24M132 24h6v6H132V24M138 24h6v6H138V24M144 24h6v6H144V24M150 24h6v6H150V24M156 24h6v6H156V24M162 24h6v6H162V24M168 24h6v6H168V24M174 24h6v6H174V24M180 24h6v6H180V24M192 24h6v6H192V24M204 24h6v6H204V24M210 24h6v6H210V24M228 24h6v6H228V24M234 24h6v6H234V24M246 24h6v6H246V24M252 24h6v6H252V24M258 24h6v6H258V24M264 24h6v6H264V24M270 24h6v6H270V24M276 24h6v6H276V24M282 24h6v6H282V24M288 24h6v6H288V24M294 24h6v6H294V24M300 24h6v6H300V24M366 24h6v6H366V24M372 24h6v6H372V24M384 24h6v6H384V24M390 24h6v6H390V24M396 24h6v6H396V24M402 24h6v6H402V24M408 24h6v6H408V24M420 24h6v6H420V24M432 24h6v6H432V24M438 24h6v6H438V24M444 24h6v6H444V24M456 24h6v6H456V24M0 30h6v6H0V30M36 30h6v6H36V30M48 30h6v6H48V30M54 30h6v6H54V30M60 30h6v6H60V30M66 30h6v6H66V30M78 30h6v6H78V30M84 30h6v6H84V30M96 30h6v6H96V30M102 30h6v6H102V30M120 30h6v6H120V30M126 30h6v6H126V30M138 30h6v6H138V30M144 30h6v6H144V30M168 30h6v6H168V30M174 30h6v6H174V30M192 30h6v6H192V30M198 30h6v6H198V30M222 30h6v6H222V30M240 30h6v6H240V30M246 30h6v6H246V30M252 30h6v6H252V30M276 30h6v6H276V30M300 30h6v6H300V30M306 30h6v6H306V30M348 30h6v6H348V30M366 30h6v6H366V30M390 30h6v6H390V30M396 30h6v6H396V30M420 30h6v6H420V30M456 30h6v6H456V30M0 36h6v6H0V36M6 36h6v6H6V36M12 36h6v6H12V36M18 36h6v6H18V36M24 36h6v6H24V36M30 36h6v6H30V36M36 36h6v6H36V36M48 36h6v6H48V36M60 36h6v6H60V36M72 36h6v6H72V36M84 36h6v6H84V36M96 36h6v6H96V36M108 36h6v6H108V36M120 36h6v6H120V36M132 36h6v6H132V36M144 36h6v6H144V36M156 36h6v6H156V36M168 36h6v6H168V36M180 36h6v6H180V36M192 36h6v6H192V36M204 36h6v6H204V36M216 36h6v6H216V36M228 36h6v6H228V36M240 36h6v6H240V36M252 36h6v6H252V36M264 36h6v6H264V36M276 36h6v6H276V36M288 36h6v6H288V36M300 36h6v6H300V36M312 36h6v6H312V36M324 36h6v6H324V36M336 36h6v6H336V36M348 36h6v6H348V36M360 36h6v6H360V36M372 36h6v6H372V36M384 36h6v6H384V36M396 36h6v6H396V36M408 36h6v6H408V36M420 36h6v6H420V36M426 36h6v6H426V36M432 36h6v6H432V36M438 36h6v6H438V36M444 36h6v6H444V36M450 36h6v6H450V36M456 36h6v6H456V36M48 42h6v6H48V42M78 42h6v6H78V42M84 42h6v6H84V42M102 42h6v6H102V42M114 42h6v6H114V42M144 42h6v6H144V42M168 42h6v6H168V42M174 42h6v6H174V42M180 42h6v6H180V42M186 42h6v6H186V42M192 42h6v6H192V42M198 42h6v6H198V42M204 42h6v6H204V42M210 42h6v6H210V42M216 42h6v6H216V42M228 42h6v6H228V42M240 42h6v6H240V42M258 42h6v6H258V42M276 42h6v6H276V42M300 42h6v6H300V42M318 42h6v6H318V42M330 42h6v6H330V42M336 42h6v6H336V42M348 42h6v6H348V42M354 42h6v6H354V42M360 42h6v6H360V42M366 42h6v6H366V42M390 42h6v6H390V42M396 42h6v6H396V42M402 42h6v6H402V42M0 48h6v6H0V48M24 48h6v6H24V48M36 48h6v6H36V48M42 48h6v6H42V48M48 48h6v6H48V48M54 48h6v6H54V48M66 48h6v6H66V48M90 48h6v6H90V48M120 48h6v6H120V48M132 48h6v6H132V48M138 48h6v6H138V48M144 48h6v6H144V48M150 48h6v6H150V48M156 48h6v6H156V48M162 48h6v6H162V48M168 48h6v6H168V48M186 48h6v6H186V48M192 48h6v6H192V48M198 48h6v6H198V48M210 48h6v6H210V48M216 48h6v6H216V48M222 48h6v6H222V48M234 48h6v6H234V48M246 48h6v6H246V48M252 48h6v6H252V48M258 48h6v6H258V48M264 48h6v6H264V48M276 48h6v6H276V48M282 48h6v6H282V48M288 48h6v6H288V48M294 48h6v6H294V48M300 48h6v6H300V48M318 48h6v6H318V48M330 48h6v6H330V48M336 48h6v6H336V48M354 48h6v6H354V48M366 48h6v6H366V48M372 48h6v6H372V48M390 48h6v6H390V48M396 48h6v6H396V48M414 48h6v6H414V48M420 48h6v6H420V48M426 48h6v6H426V48M432 48h6v6H432V48M438 48h6v6H438V48M456 48h6v6H456V48M0 54h6v6H0V54M6 54h6v6H6V54M30 54h6v6H30V54M48 54h6v6H48V54M54 54h6v6H54V54M72 54h6v6H72V54M84 54h6v6H84V54M138 54h6v6H138V54M144 54h6v6H144V54M150 54h6v6H150V54M168 54h6v6H168V54M174 54h6v6H174V54M180 54h6v6H180V54M186 54h6v6H186V54M210 54h6v6H210V54M216 54h6v6H216V54M228 54h6v6H228V54M234 54h6v6H234V54M246 54h6v6H246V54M252 54h6v6H252V54M264 54h6v6H264V54M270 54h6v6H270V54M282 54h6v6H282V54M306 54h6v6H306V54M366 54h6v6H366V54M384 54h6v6H384V54M396 54h6v6H396V54M402 54h6v6H402V54M414 54h6v6H414V54M420 54h6v6H420V54M432 54h6v6H432V54M438 54h6v6H438V54M444 54h6v6H444V54M450 54h6v6H450V54M6 60h6v6H6V60M36 60h6v6H36V60M54 60h6v6H54V60M60 60h6v6H60V60M66 60h6v6H66V60M78 60h6v6H78V60M96 60h6v6H96V60M102 60h6v6H102V60M108 60h6v6H108V60M114 60h6v6H114V60M120 60h6v6H120V60M138 60h6v6H138V60M156 60h6v6H156V60M204 60h6v6H204V60M210 60h6v6H210V60M222 60h6v6H222V60M234 60h6v6H234V60M240 60h6v6H240V60M246 60h6v6H246V60M270 60h6v6H270V60M276 60h6v6H276V60M282 60h6v6H282V60M288 60h6v6H288V60M300 60h6v6H300V60M306 60h6v6H306V60M312 60h6v6H312V60M330 60h6v6H330V60M342 60h6v6H342V60M360 60h6v6H360V60M372 60h6v6H372V60M378 60h6v6H378V60M384 60h6v6H384V60M396 60h6v6H396V60M414 60h6v6H414V60M420 60h6v6H420V60M426 60h6v6H426V60M438 60h6v6H438V60M456 60h6v6H456V60M0 66h6v6H0V66M54 66h6v6H54V66M60 66h6v6H60V66M66 66h6v6H66V66M90 66h6v6H90V66M108 66h6v6H108V66M126 66h6v6H126V66M132 66h6v6H132V66M162 66h6v6H162V66M192 66h6v6H192V66M222 66h6v6H222V66M228 66h6v6H228V66M258 66h6v6H258V66M282 66h6v6H282V66M294 66h6v6H294V66M300 66h6v6H300V66M324 66h6v6H324V66M330 66h6v6H330V66M336 66h6v6H336V66M342 66h6v6H342V66M354 66h6v6H354V66M378 66h6v6H378V66M408 66h6v6H408V66M438 66h6v6H438V66M0 72h6v6H0V72M6 72h6v6H6V72M12 72h6v6H12V72M18 72h6v6H18V72M24 72h6v6H24V72M30 72h6v6H30V72M36 72h6v6H36V72M48 72h6v6H48V72M54 72h6v6H54V72M60 72h6v6H60V72M78 72h6v6H78V72M114 72h6v6H114V72M126 72h6v6H126V72M132 72h6v6H132V72M144 72h6v6H144V72M162 72h6v6H162V72M192 72h6v6H192V72M210 72h6v6H210V72M216 72h6v6H216V72M228 72h6v6H228V72M234 72h6v6H234V72M252 72h6v6H252V72M258 72h6v6H258V72M270 72h6v6H270V72M276 72h6v6H276V72M312 72h6v6H312V72M324 72h6v6H324V72M330 72h6v6H330V72M342 72h6v6H342V72M348 72h6v6H348V72M366 72h6v6H366V72M372 72h6v6H372V72M390 72h6v6H390V72M402 72h6v6H402V72M414 72h6v6H414V72M420 72h6v6H420V72M426 72h6v6H426V72M432 72h6v6H432V72M438 72h6v6H438V72M444 72h6v6H444V72M450 72h6v6H450V72M456 72h6v6H456V72M6 78h6v6H6V78M30 78h6v6H30V78M42 78h6v6H42V78M48 78h6v6H48V78M66 78h6v6H66V78M90 78h6v6H90V78M102 78h6v6H102V78M126 78h6v6H126V78M150 78h6v6H150V78M156 78h6v6H156V78M162 78h6v6H162V78M168 78h6v6H168V78M180 78h6v6H180V78M198 78h6v6H198V78M216 78h6v6H216V78M228 78h6v6H228V78M240 78h6v6H240V78M246 78h6v6H246V78M252 78h6v6H252V78M258 78h6v6H258V78M282 78h6v6H282V78M288 78h6v6H288V78M294 78h6v6H294V78M306 78h6v6H306V78M312 78h6v6H312V78M336 78h6v6H336V78M348 78h6v6H348V78M366 78h6v6H366V78M378 78h6v6H378V78M384 78h6v6H384V78M390 78h6v6H390V78M396 78h6v6H396V78M402 78h6v6H402V78M408 78h6v6H408V78M414 78h6v6H414V78M444 78h6v6H444V78M450 78h6v6H450V78M456 78h6v6H456V78M18 84h6v6H18V84M24 84h6v6H24V84M30 84h6v6H30V84M36 84h6v6H36V84M42 84h6v6H42V84M48 84h6v6H48V84M54 84h6v6H54V84M66 84h6v6H66V84M78 84h6v6H78V84M84 84h6v6H84V84M96 84h6v6H96V84M108 84h6v6H108V84M114 84h6v6H114V84M120 84h6v6H120V84M126 84h6v6H126V84M138 84h6v6H138V84M144 84h6v6H144V84M150 84h6v6H150V84M156 84h6v6H156V84M168 84h6v6H168V84M186 84h6v6H186V84M192 84h6v6H192V84M198 84h6v6H198V84M204 84h6v6H204V84M210 84h6v6H210V84M216 84h6v6H216V84M222 84h6v6H222V84M234 84h6v6H234V84M240 84h6v6H240V84M246 84h6v6H246V84M252 84h6v6H252V84M264 84h6v6H264V84M270 84h6v6H270V84M276 84h6v6H276V84M282 84h6v6H282V84M300 84h6v6H300V84M306 84h6v6H306V84M312 84h6v6H312V84M324 84h6v6H324V84M336 84h6v6H336V84M342 84h6v6H342V84M354 84h6v6H354V84M366 84h6v6H366V84M372 84h6v6H372V84M378 84h6v6H378V84M390 84h6v6H390V84M402 84h6v6H402V84M420 84h6v6H420V84M426 84h6v6H426V84M444 84h6v6H444V84M456 84h6v6H456V84M6 90h6v6H6V90M12 90h6v6H12V90M18 90h6v6H18V90M24 90h6v6H24V90M42 90h6v6H42V90M54 90h6v6H54V90M60 90h6v6H60V90M66 90h6v6H66V90M72 90h6v6H72V90M78 90h6v6H78V90M84 90h6v6H84V90M96 90h6v6H96V90M102 90h6v6H102V90M108 90h6v6H108V90M126 90h6v6H126V90M132 90h6v6H132V90M138 90h6v6H138V90M150 90h6v6H150V90M168 90h6v6H168V90M174 90h6v6H174V90M192 90h6v6H192V90M210 90h6v6H210V90M216 90h6v6H216V90M222 90h6v6H222V90M234 90h6v6H234V90M240 90h6v6H240V90M252 90h6v6H252V90M282 90h6v6H282V90M288 90h6v6H288V90M294 90h6v6H294V90M318 90h6v6H318V90M330 90h6v6H330V90M336 90h6v6H336V90M342 90h6v6H342V90M348 90h6v6H348V90M360 90h6v6H360V90M378 90h6v6H378V90M384 90h6v6H384V90M396 90h6v6H396V90M408 90h6v6H408V90M420 90h6v6H420V90M444 90h6v6H444V90M450 90h6v6H450V90M456 90h6v6H456V90M18 96h6v6H18V96M24 96h6v6H24V96M30 96h6v6H30V96M36 96h6v6H36V96M48 96h6v6H48V96M54 96h6v6H54V96M72 96h6v6H72V96M78 96h6v6H78V96M84 96h6v6H84V96M138 96h6v6H138V96M150 96h6v6H150V96M156 96h6v6H156V96M162 96h6v6H162V96M174 96h6v6H174V96M180 96h6v6H180V96M192 96h6v6H192V96M210 96h6v6H210V96M216 96h6v6H216V96M228 96h6v6H228V96M234 96h6v6H234V96M246 96h6v6H246V96M252 96h6v6H252V96M264 96h6v6H264V96M270 96h6v6H270V96M276 96h6v6H276V96M294 96h6v6H294V96M318 96h6v6H318V96M330 96h6v6H330V96M336 96h6v6H336V96M342 96h6v6H342V96M348 96h6v6H348V96M360 96h6v6H360V96M366 96h6v6H366V96M378 96h6v6H378V96M384 96h6v6H384V96M432 96h6v6H432V96M444 96h6v6H444V96M450 96h6v6H450V96M18 102h6v6H18V102M42 102h6v6H42V102M54 102h6v6H54V102M78 102h6v6H78V102M84 102h6v6H84V102M90 102h6v6H90V102M108 102h6v6H108V102M132 102h6v6H132V102M144 102h6v6H144V102M150 102h6v6H150V102M168 102h6v6H168V102M180 102h6v6H180V102M186 102h6v6H186V102M198 102h6v6H198V102M216 102h6v6H216V102M222 102h6v6H222V102M228 102h6v6H228V102M246 102h6v6H246V102M252 102h6v6H252V102M264 102h6v6H264V102M270 102h6v6H270V102M282 102h6v6H282V102M294 102h6v6H294V102M300 102h6v6H300V102M306 102h6v6H306V102M312 102h6v6H312V102M330 102h6v6H330V102M354 102h6v6H354V102M360 102h6v6H360V102M366 102h6v6H366V102M372 102h6v6H372V102M378 102h6v6H378V102M402 102h6v6H402V102M408 102h6v6H408V102M414 102h6v6H414V102M426 102h6v6H426V102M0 108h6v6H0V108M6 108h6v6H6V108M12 108h6v6H12V108M18 108h6v6H18V108M24 108h6v6H24V108M36 108h6v6H36V108M48 108h6v6H48V108M54 108h6v6H54V108M66 108h6v6H66V108M78 108h6v6H78V108M90 108h6v6H90V108M96 108h6v6H96V108M102 108h6v6H102V108M120 108h6v6H120V108M126 108h6v6H126V108M132 108h6v6H132V108M138 108h6v6H138V108M144 108h6v6H144V108M150 108h6v6H150V108M156 108h6v6H156V108M162 108h6v6H162V108M204 108h6v6H204V108M222 108h6v6H222V108M228 108h6v6H228V108M234 108h6v6H234V108M258 108h6v6H258V108M264 108h6v6H264V108M270 108h6v6H270V108M282 108h6v6H282V108M288 108h6v6H288V108M294 108h6v6H294V108M306 108h6v6H306V108M324 108h6v6H324V108M336 108h6v6H336V108M342 108h6v6H342V108M354 108h6v6H354V108M366 108h6v6H366V108M372 108h6v6H372V108M378 108h6v6H378V108M390 108h6v6H390V108M402 108h6v6H402V108M432 108h6v6H432V108M438 108h6v6H438V108M456 108h6v6H456V108M12 114h6v6H12V114M18 114h6v6H18V114M48 114h6v6H48V114M66 114h6v6H66V114M90 114h6v6H90V114M102 114h6v6H102V114M108 114h6v6H108V114M120 114h6v6H120V114M138 114h6v6H138V114M168 114h6v6H168V114M174 114h6v6H174V114M180 114h6v6H180V114M192 114h6v6H192V114M198 114h6v6H198V114M204 114h6v6H204V114M216 114h6v6H216V114M240 114h6v6H240V114M252 114h6v6H252V114M264 114h6v6H264V114M270 114h6v6H270V114M276 114h6v6H276V114M282 114h6v6H282V114M300 114h6v6H300V114M318 114h6v6H318V114M324 114h6v6H324V114M330 114h6v6H330V114M342 114h6v6H342V114M360 114h6v6H360V114M366 114h6v6H366V114M378 114h6v6H378V114M396 114h6v6H396V114M402 114h6v6H402V114M408 114h6v6H408V114M420 114h6v6H420V114M426 114h6v6H426V114M0 120h6v6H0V120M18 120h6v6H18V120M30 120h6v6H30V120M36 120h6v6H36V120M42 120h6v6H42V120M54 120h6v6H54V120M66 120h6v6H66V120M78 120h6v6H78V120M84 120h6v6H84V120M102 120h6v6H102V120M108 120h6v6H108V120M114 120h6v6H114V120M126 120h6v6H126V120M132 120h6v6H132V120M138 120h6v6H138V120M162 120h6v6H162V120M180 120h6v6H180V120M192 120h6v6H192V120M210 120h6v6H210V120M216 120h6v6H216V120M234 120h6v6H234V120M252 120h6v6H252V120M264 120h6v6H264V120M288 120h6v6H288V120M318 120h6v6H318V120M324 120h6v6H324V120M330 120h6v6H330V120M336 120h6v6H336V120M342 120h6v6H342V120M348 120h6v6H348V120M372 120h6v6H372V120M384 120h6v6H384V120M390 120h6v6H390V120M402 120h6v6H402V120M426 120h6v6H426V120M444 120h6v6H444V120M18 126h6v6H18V126M42 126h6v6H42V126M66 126h6v6H66V126M72 126h6v6H72V126M84 126h6v6H84V126M96 126h6v6H96V126M108 126h6v6H108V126M132 126h6v6H132V126M138 126h6v6H138V126M144 126h6v6H144V126M156 126h6v6H156V126M162 126h6v6H162V126M168 126h6v6H168V126M174 126h6v6H174V126M180 126h6v6H180V126M222 126h6v6H222V126M228 126h6v6H228V126M246 126h6v6H246V126M252 126h6v6H252V126M264 126h6v6H264V126M282 126h6v6H282V126M294 126h6v6H294V126M312 126h6v6H312V126M324 126h6v6H324V126M336 126h6v6H336V126M360 126h6v6H360V126M372 126h6v6H372V126M378 126h6v6H378V126M402 126h6v6H402V126M420 126h6v6H420V126M450 126h6v6H450V126M0 132h6v6H0V132M18 132h6v6H18V132M24 132h6v6H24V132M30 132h6v6H30V132M36 132h6v6H36V132M54 132h6v6H54V132M60 132h6v6H60V132M66 132h6v6H66V132M108 132h6v6H108V132M120 132h6v6H120V132M126 132h6v6H126V132M132 132h6v6H132V132M138 132h6v6H138V132M144 132h6v6H144V132M168 132h6v6H168V132M174 132h6v6H174V132M180 132h6v6H180V132M192 132h6v6H192V132M210 132h6v6H210V132M216 132h6v6H216V132M222 132h6v6H222V132M228 132h6v6H228V132M234 132h6v6H234V132M258 132h6v6H258V132M282 132h6v6H282V132M294 132h6v6H294V132M300 132h6v6H300V132M306 132h6v6H306V132M312 132h6v6H312V132M318 132h6v6H318V132M324 132h6v6H324V132M330 132h6v6H330V132M336 132h6v6H336V132M354 132h6v6H354V132M360 132h6v6H360V132M372 132h6v6H372V132M378 132h6v6H378V132M384 132h6v6H384V132M390 132h6v6H390V132M396 132h6v6H396V132M420 132h6v6H420V132M432 132h6v6H432V132M438 132h6v6H438V132M444 132h6v6H444V132M456 132h6v6H456V132M0 138h6v6H0V138M6 138h6v6H6V138M18 138h6v6H18V138M24 138h6v6H24V138M54 138h6v6H54V138M72 138h6v6H72V138M84 138h6v6H84V138M102 138h6v6H102V138M114 138h6v6H114V138M120 138h6v6H120V138M126 138h6v6H126V138M132 138h6v6H132V138M138 138h6v6H138V138M144 138h6v6H144V138M150 138h6v6H150V138M168 138h6v6H168V138M174 138h6v6H174V138M180 138h6v6H180V138M204 138h6v6H204V138M210 138h6v6H210V138M216 138h6v6H216V138M222 138h6v6H222V138M234 138h6v6H234V138M252 138h6v6H252V138M264 138h6v6H264V138M270 138h6v6H270V138M276 138h6v6H276V138M282 138h6v6H282V138M288 138h6v6H288V138M306 138h6v6H306V138M318 138h6v6H318V138M330 138h6v6H330V138M354 138h6v6H354V138M360 138h6v6H360V138M366 138h6v6H366V138M372 138h6v6H372V138M390 138h6v6H390V138M414 138h6v6H414V138M438 138h6v6H438V138M456 138h6v6H456V138M6 144h6v6H6V144M18 144h6v6H18V144M24 144h6v6H24V144M30 144h6v6H30V144M36 144h6v6H36V144M42 144h6v6H42V144M48 144h6v6H48V144M60 144h6v6H60V144M66 144h6v6H66V144M72 144h6v6H72V144M78 144h6v6H78V144M84 144h6v6H84V144M108 144h6v6H108V144M120 144h6v6H120V144M126 144h6v6H126V144M144 144h6v6H144V144M150 144h6v6H150V144M156 144h6v6H156V144M162 144h6v6H162V144M168 144h6v6H168V144M204 144h6v6H204V144M210 144h6v6H210V144M216 144h6v6H216V144M234 144h6v6H234V144M252 144h6v6H252V144M264 144h6v6H264V144M276 144h6v6H276V144M282 144h6v6H282V144M288 144h6v6H288V144M294 144h6v6H294V144M300 144h6v6H300V144M318 144h6v6H318V144M330 144h6v6H330V144M336 144h6v6H336V144M342 144h6v6H342V144M348 144h6v6H348V144M360 144h6v6H360V144M384 144h6v6H384V144M402 144h6v6H402V144M408 144h6v6H408V144M414 144h6v6H414V144M420 144h6v6H420V144M426 144h6v6H426V144M432 144h6v6H432V144M438 144h6v6H438V144M444 144h6v6H444V144M456 144h6v6H456V144M0 150h6v6H0V150M18 150h6v6H18V150M24 150h6v6H24V150M48 150h6v6H48V150M54 150h6v6H54V150M60 150h6v6H60V150M72 150h6v6H72V150M78 150h6v6H78V150M84 150h6v6H84V150M114 150h6v6H114V150M144 150h6v6H144V150M168 150h6v6H168V150M174 150h6v6H174V150M180 150h6v6H180V150M186 150h6v6H186V150M216 150h6v6H216V150M222 150h6v6H222V150M228 150h6v6H228V150M246 150h6v6H246V150M270 150h6v6H270V150M276 150h6v6H276V150M300 150h6v6H300V150M312 150h6v6H312V150M354 150h6v6H354V150M360 150h6v6H360V150M366 150h6v6H366V150M372 150h6v6H372V150M384 150h6v6H384V150M396 150h6v6H396V150M408 150h6v6H408V150M432 150h6v6H432V150M444 150h6v6H444V150M0 156h6v6H0V156M18 156h6v6H18V156M24 156h6v6H24V156M36 156h6v6H36V156M48 156h6v6H48V156M54 156h6v6H54V156M66 156h6v6H66V156M72 156h6v6H72V156M78 156h6v6H78V156M84 156h6v6H84V156M132 156h6v6H132V156M138 156h6v6H138V156M144 156h6v6H144V156M156 156h6v6H156V156M168 156h6v6H168V156M186 156h6v6H186V156M192 156h6v6H192V156M228 156h6v6H228V156M234 156h6v6H234V156M258 156h6v6H258V156M264 156h6v6H264V156M276 156h6v6H276V156M288 156h6v6H288V156M300 156h6v6H300V156M306 156h6v6H306V156M312 156h6v6H312V156M336 156h6v6H336V156M396 156h6v6H396V156M408 156h6v6H408V156M420 156h6v6H420V156M432 156h6v6H432V156M438 156h6v6H438V156M456 156h6v6H456V156M6 162h6v6H6V162M12 162h6v6H12V162M24 162h6v6H24V162M48 162h6v6H48V162M54 162h6v6H54V162M60 162h6v6H60V162M84 162h6v6H84V162M90 162h6v6H90V162M102 162h6v6H102V162M108 162h6v6H108V162M114 162h6v6H114V162M120 162h6v6H120V162M132 162h6v6H132V162M144 162h6v6H144V162M168 162h6v6H168V162M174 162h6v6H174V162M186 162h6v6H186V162M204 162h6v6H204V162M210 162h6v6H210V162M228 162h6v6H228V162M234 162h6v6H234V162M240 162h6v6H240V162M258 162h6v6H258V162M264 162h6v6H264V162M270 162h6v6H270V162M276 162h6v6H276V162M300 162h6v6H300V162M318 162h6v6H318V162M330 162h6v6H330V162M354 162h6v6H354V162M360 162h6v6H360V162M372 162h6v6H372V162M378 162h6v6H378V162M390 162h6v6H390V162M408 162h6v6H408V162M432 162h6v6H432V162M438 162h6v6H438V162M450 162h6v6H450V162M0 168h6v6H0V168M6 168h6v6H6V168M18 168h6v6H18V168M24 168h6v6H24V168M30 168h6v6H30V168M36 168h6v6H36V168M42 168h6v6H42V168M48 168h6v6H48V168M54 168h6v6H54V168M60 168h6v6H60V168M72 168h6v6H72V168M78 168h6v6H78V168M84 168h6v6H84V168M102 168h6v6H102V168M114 168h6v6H114V168M144 168h6v6H144V168M150 168h6v6H150V168M156 168h6v6H156V168M162 168h6v6H162V168M168 168h6v6H168V168M174 168h6v6H174V168M192 168h6v6H192V168M204 168h6v6H204V168M210 168h6v6H210V168M216 168h6v6H216V168M222 168h6v6H222V168M228 168h6v6H228V168M234 168h6v6H234V168M246 168h6v6H246V168M252 168h6v6H252V168M264 168h6v6H264V168M270 168h6v6H270V168M276 168h6v6H276V168M282 168h6v6H282V168M288 168h6v6H288V168M294 168h6v6H294V168M300 168h6v6H300V168M318 168h6v6H318V168M330 168h6v6H330V168M342 168h6v6H342V168M366 168h6v6H366V168M396 168h6v6H396V168M408 168h6v6H408V168M414 168h6v6H414V168M420 168h6v6H420V168M426 168h6v6H426V168M432 168h6v6H432V168M438 168h6v6H438V168M444 168h6v6H444V168M450 168h6v6H450V168M0 174h6v6H0V174M6 174h6v6H6V174M18 174h6v6H18V174M24 174h6v6H24V174M30 174h6v6H30V174M42 174h6v6H42V174M102 174h6v6H102V174M114 174h6v6H114V174M120 174h6v6H120V174M126 174h6v6H126V174M132 174h6v6H132V174M138 174h6v6H138V174M156 174h6v6H156V174M174 174h6v6H174V174M180 174h6v6H180V174M192 174h6v6H192V174M198 174h6v6H198V174M216 174h6v6H216V174M228 174h6v6H228V174M234 174h6v6H234V174M246 174h6v6H246V174M252 174h6v6H252V174M258 174h6v6H258V174M264 174h6v6H264V174M276 174h6v6H276V174M282 174h6v6H282V174M306 174h6v6H306V174M312 174h6v6H312V174M330 174h6v6H330V174M336 174h6v6H336V174M342 174h6v6H342V174M348 174h6v6H348V174M360 174h6v6H360V174M366 174h6v6H366V174M372 174h6v6H372V174M384 174h6v6H384V174M396 174h6v6H396V174M402 174h6v6H402V174M408 174h6v6H408V174M414 174h6v6H414V174M420 174h6v6H420V174M426 174h6v6H426V174M432 174h6v6H432V174M438 174h6v6H438V174M444 174h6v6H444V174M18 180h6v6H18V180M30 180h6v6H30V180M36 180h6v6H36V180M48 180h6v6H48V180M54 180h6v6H54V180M66 180h6v6H66V180M78 180h6v6H78V180M84 180h6v6H84V180M96 180h6v6H96V180M102 180h6v6H102V180M120 180h6v6H120V180M138 180h6v6H138V180M162 180h6v6H162V180M168 180h6v6H168V180M174 180h6v6H174V180M198 180h6v6H198V180M204 180h6v6H204V180M210 180h6v6H210V180M216 180h6v6H216V180M240 180h6v6H240V180M270 180h6v6H270V180M282 180h6v6H282V180M288 180h6v6H288V180M300 180h6v6H300V180M312 180h6v6H312V180M318 180h6v6H318V180M324 180h6v6H324V180M336 180h6v6H336V180M342 180h6v6H342V180M348 180h6v6H348V180M372 180h6v6H372V180M378 180h6v6H378V180M390 180h6v6H390V180M396 180h6v6H396V180M408 180h6v6H408V180M420 180h6v6H420V180M444 180h6v6H444V180M456 180h6v6H456V180M0 186h6v6H0V186M18 186h6v6H18V186M30 186h6v6H30V186M42 186h6v6H42V186M48 186h6v6H48V186M84 186h6v6H84V186M90 186h6v6H90V186M132 186h6v6H132V186M138 186h6v6H138V186M150 186h6v6H150V186M174 186h6v6H174V186M180 186h6v6H180V186M186 186h6v6H186V186M198 186h6v6H198V186M204 186h6v6H204V186M210 186h6v6H210V186M228 186h6v6H228V186M252 186h6v6H252V186M276 186h6v6H276V186M282 186h6v6H282V186M288 186h6v6H288V186M294 186h6v6H294V186M300 186h6v6H300V186M306 186h6v6H306V186M336 186h6v6H336V186M342 186h6v6H342V186M360 186h6v6H360V186M366 186h6v6H366V186M372 186h6v6H372V186M384 186h6v6H384V186M420 186h6v6H420V186M426 186h6v6H426V186M432 186h6v6H432V186M438 186h6v6H438V186M450 186h6v6H450V186M24 192h6v6H24V192M36 192h6v6H36V192M60 192h6v6H60V192M72 192h6v6H72V192M84 192h6v6H84V192M90 192h6v6H90V192M102 192h6v6H102V192M120 192h6v6H120V192M138 192h6v6H138V192M156 192h6v6H156V192M168 192h6v6H168V192M192 192h6v6H192V192M198 192h6v6H198V192M210 192h6v6H210V192M234 192h6v6H234V192M264 192h6v6H264V192M270 192h6v6H270V192M288 192h6v6H288V192M324 192h6v6H324V192M330 192h6v6H330V192M342 192h6v6H342V192M366 192h6v6H366V192M372 192h6v6H372V192M384 192h6v6H384V192M396 192h6v6H396V192M420 192h6v6H420V192M426 192h6v6H426V192M432 192h6v6H432V192M456 192h6v6H456V192M0 198h6v6H0V198M12 198h6v6H12V198M18 198h6v6H18V198M42 198h6v6H42V198M78 198h6v6H78V198M84 198h6v6H84V198M90 198h6v6H90V198M96 198h6v6H96V198M120 198h6v6H120V198M126 198h6v6H126V198M150 198h6v6H150V198M168 198h6v6H168V198M174 198h6v6H174V198M180 198h6v6H180V198M192 198h6v6H192V198M198 198h6v6H198V198M222 198h6v6H222V198M228 198h6v6H228V198M240 198h6v6H240V198M246 198h6v6H246V198M264 198h6v6H264V198M282 198h6v6H282V198M288 198h6v6H288V198M294 198h6v6H294V198M312 198h6v6H312V198M330 198h6v6H330V198M336 198h6v6H336V198M342 198h6v6H342V198M348 198h6v6H348V198M354 198h6v6H354V198M360 198h6v6H360V198M366 198h6v6H366V198M384 198h6v6H384V198M402 198h6v6H402V198M408 198h6v6H408V198M414 198h6v6H414V198M420 198h6v6H420V198M426 198h6v6H426V198M432 198h6v6H432V198M438 198h6v6H438V198M444 198h6v6H444V198M456 198h6v6H456V198M12 204h6v6H12V204M18 204h6v6H18V204M24 204h6v6H24V204M30 204h6v6H30V204M36 204h6v6H36V204M42 204h6v6H42V204M54 204h6v6H54V204M60 204h6v6H60V204M66 204h6v6H66V204M72 204h6v6H72V204M84 204h6v6H84V204M90 204h6v6H90V204M102 204h6v6H102V204M108 204h6v6H108V204M114 204h6v6H114V204M120 204h6v6H120V204M126 204h6v6H126V204M150 204h6v6H150V204M168 204h6v6H168V204M174 204h6v6H174V204M192 204h6v6H192V204M198 204h6v6H198V204M204 204h6v6H204V204M216 204h6v6H216V204M246 204h6v6H246V204M258 204h6v6H258V204M276 204h6v6H276V204M282 204h6v6H282V204M300 204h6v6H300V204M306 204h6v6H306V204M312 204h6v6H312V204M324 204h6v6H324V204M336 204h6v6H336V204M342 204h6v6H342V204M348 204h6v6H348V204M360 204h6v6H360V204M366 204h6v6H366V204M372 204h6v6H372V204M384 204h6v6H384V204M396 204h6v6H396V204M414 204h6v6H414V204M420 204h6v6H420V204M426 204h6v6H426V204M432 204h6v6H432V204M444 204h6v6H444V204M450 204h6v6H450V204M456 204h6v6H456V204M6 210h6v6H6V210M18 210h6v6H18V210M30 210h6v6H30V210M42 210h6v6H42V210M84 210h6v6H84V210M90 210h6v6H90V210M96 210h6v6H96V210M102 210h6v6H102V210M114 210h6v6H114V210M120 210h6v6H120V210M132 210h6v6H132V210M156 210h6v6H156V210M168 210h6v6H168V210M180 210h6v6H180V210M198 210h6v6H198V210M240 210h6v6H240V210M246 210h6v6H246V210M252 210h6v6H252V210M258 210h6v6H258V210M270 210h6v6H270V210M276 210h6v6H276V210M282 210h6v6H282V210M294 210h6v6H294V210M300 210h6v6H300V210M306 210h6v6H306V210M318 210h6v6H318V210M330 210h6v6H330V210M336 210h6v6H336V210M354 210h6v6H354V210M360 210h6v6H360V210M390 210h6v6H390V210M396 210h6v6H396V210M420 210h6v6H420V210M426 210h6v6H426V210M432 210h6v6H432V210M456 210h6v6H456V210M0 216h6v6H0V216M12 216h6v6H12V216M18 216h6v6H18V216M36 216h6v6H36V216M54 216h6v6H54V216M60 216h6v6H60V216M66 216h6v6H66V216M72 216h6v6H72V216M84 216h6v6H84V216M90 216h6v6H90V216M96 216h6v6H96V216M102 216h6v6H102V216M126 216h6v6H126V216M138 216h6v6H138V216M144 216h6v6H144V216M156 216h6v6H156V216M162 216h6v6H162V216M192 216h6v6H192V216M204 216h6v6H204V216M210 216h6v6H210V216M234 216h6v6H234V216M264 216h6v6H264V216M270 216h6v6H270V216M288 216h6v6H288V216M294 216h6v6H294V216M300 216h6v6H300V216M306 216h6v6H306V216M312 216h6v6H312V216M318 216h6v6H318V216M324 216h6v6H324V216M330 216h6v6H330V216M336 216h6v6H336V216M360 216h6v6H360V216M366 216h6v6H366V216M372 216h6v6H372V216M390 216h6v6H390V216M408 216h6v6H408V216M414 216h6v6H414V216M426 216h6v6H426V216M432 216h6v6H432V216M0 222h6v6H0V222M24 222h6v6H24V222M60 222h6v6H60V222M66 222h6v6H66V222M72 222h6v6H72V222M78 222h6v6H78V222M96 222h6v6H96V222M108 222h6v6H108V222M114 222h6v6H114V222M126 222h6v6H126V222M138 222h6v6H138V222M156 222h6v6H156V222M174 222h6v6H174V222M192 222h6v6H192V222M198 222h6v6H198V222M210 222h6v6H210V222M216 222h6v6H216V222M222 222h6v6H222V222M234 222h6v6H234V222M246 222h6v6H246V222M252 222h6v6H252V222M264 222h6v6H264V222M270 222h6v6H270V222M276 222h6v6H276V222M294 222h6v6H294V222M306 222h6v6H306V222M318 222h6v6H318V222M324 222h6v6H324V222M348 222h6v6H348V222M354 222h6v6H354V222M360 222h6v6H360V222M366 222h6v6H366V222M384 222h6v6H384V222M396 222h6v6H396V222M414 222h6v6H414V222M432 222h6v6H432V222M438 222h6v6H438V222M18 228h6v6H18V228M24 228h6v6H24V228M30 228h6v6H30V228M36 228h6v6H36V228M42 228h6v6H42V228M48 228h6v6H48V228M54 228h6v6H54V228M60 228h6v6H60V228M66 228h6v6H66V228M72 228h6v6H72V228M78 228h6v6H78V228M90 228h6v6H90V228M108 228h6v6H108V228M120 228h6v6H120V228M156 228h6v6H156V228M162 228h6v6H162V228M168 228h6v6H168V228M174 228h6v6H174V228M192 228h6v6H192V228M198 228h6v6H198V228M204 228h6v6H204V228M210 228h6v6H210V228M222 228h6v6H222V228M234 228h6v6H234V228M258 228h6v6H258V228M264 228h6v6H264V228M270 228h6v6H270V228M276 228h6v6H276V228M282 228h6v6H282V228M300 228h6v6H300V228M312 228h6v6H312V228M318 228h6v6H318V228M324 228h6v6H324V228M336 228h6v6H336V228M372 228h6v6H372V228M390 228h6v6H390V228M396 228h6v6H396V228M402 228h6v6H402V228M414 228h6v6H414V228M420 228h6v6H420V228M444 228h6v6H444V228M0 234h6v6H0V234M18 234h6v6H18V234M24 234h6v6H24V234M54 234h6v6H54V234M60 234h6v6H60V234M66 234h6v6H66V234M72 234h6v6H72V234M78 234h6v6H78V234M84 234h6v6H84V234M102 234h6v6H102V234M114 234h6v6H114V234M120 234h6v6H120V234M138 234h6v6H138V234M150 234h6v6H150V234M162 234h6v6H162V234M168 234h6v6H168V234M174 234h6v6H174V234M180 234h6v6H180V234M192 234h6v6H192V234M222 234h6v6H222V234M228 234h6v6H228V234M234 234h6v6H234V234M240 234h6v6H240V234M246 234h6v6H246V234M252 234h6v6H252V234M258 234h6v6H258V234M264 234h6v6H264V234M276 234h6v6H276V234M282 234h6v6H282V234M294 234h6v6H294V234M300 234h6v6H300V234M336 234h6v6H336V234M348 234h6v6H348V234M360 234h6v6H360V234M378 234h6v6H378V234M390 234h6v6H390V234M408 234h6v6H408V234M420 234h6v6H420V234M426 234h6v6H426V234M438 234h6v6H438V234M450 234h6v6H450V234M456 234h6v6H456V234M18 240h6v6H18V240M36 240h6v6H36V240M42 240h6v6H42V240M66 240h6v6H66V240M84 240h6v6H84V240M90 240h6v6H90V240M102 240h6v6H102V240M114 240h6v6H114V240M132 240h6v6H132V240M150 240h6v6H150V240M162 240h6v6H162V240M168 240h6v6H168V240M192 240h6v6H192V240M216 240h6v6H216V240M222 240h6v6H222V240M234 240h6v6H234V240M240 240h6v6H240V240M264 240h6v6H264V240M282 240h6v6H282V240M288 240h6v6H288V240M294 240h6v6H294V240M300 240h6v6H300V240M306 240h6v6H306V240M312 240h6v6H312V240M324 240h6v6H324V240M330 240h6v6H330V240M342 240h6v6H342V240M348 240h6v6H348V240M360 240h6v6H360V240M384 240h6v6H384V240M390 240h6v6H390V240M396 240h6v6H396V240M408 240h6v6H408V240M420 240h6v6H420V240M426 240h6v6H426V240M432 240h6v6H432V240M444 240h6v6H444V240M450 240h6v6H450V240M456 240h6v6H456V240M0 246h6v6H0V246M6 246h6v6H6V246M12 246h6v6H12V246M24 246h6v6H24V246M30 246h6v6H30V246M48 246h6v6H48V246M78 246h6v6H78V246M84 246h6v6H84V246M90 246h6v6H90V246M102 246h6v6H102V246M108 246h6v6H108V246M114 246h6v6H114V246M132 246h6v6H132V246M144 246h6v6H144V246M168 246h6v6H168V246M180 246h6v6H180V246M186 246h6v6H186V246M192 246h6v6H192V246M198 246h6v6H198V246M204 246h6v6H204V246M210 246h6v6H210V246M216 246h6v6H216V246M240 246h6v6H240V246M246 246h6v6H246V246M252 246h6v6H252V246M258 246h6v6H258V246M270 246h6v6H270V246M276 246h6v6H276V246M282 246h6v6H282V246M330 246h6v6H330V246M348 246h6v6H348V246M354 246h6v6H354V246M360 246h6v6H360V246M366 246h6v6H366V246M372 246h6v6H372V246M396 246h6v6H396V246M420 246h6v6H420V246M426 246h6v6H426V246M432 246h6v6H432V246M438 246h6v6H438V246M450 246h6v6H450V246M12 252h6v6H12V252M18 252h6v6H18V252M24 252h6v6H24V252M30 252h6v6H30V252M36 252h6v6H36V252M42 252h6v6H42V252M84 252h6v6H84V252M90 252h6v6H90V252M132 252h6v6H132V252M144 252h6v6H144V252M150 252h6v6H150V252M168 252h6v6H168V252M174 252h6v6H174V252M186 252h6v6H186V252M204 252h6v6H204V252M210 252h6v6H210V252M270 252h6v6H270V252M282 252h6v6H282V252M300 252h6v6H300V252M318 252h6v6H318V252M330 252h6v6H330V252M336 252h6v6H336V252M342 252h6v6H342V252M354 252h6v6H354V252M360 252h6v6H360V252M372 252h6v6H372V252M384 252h6v6H384V252M390 252h6v6H390V252M396 252h6v6H396V252M402 252h6v6H402V252M414 252h6v6H414V252M420 252h6v6H420V252M426 252h6v6H426V252M432 252h6v6H432V252M12 258h6v6H12V258M42 258h6v6H42V258M48 258h6v6H48V258M54 258h6v6H54V258M60 258h6v6H60V258M66 258h6v6H66V258M72 258h6v6H72V258M78 258h6v6H78V258M96 258h6v6H96V258M132 258h6v6H132V258M156 258h6v6H156V258M168 258h6v6H168V258M180 258h6v6H180V258M192 258h6v6H192V258M198 258h6v6H198V258M204 258h6v6H204V258M210 258h6v6H210V258M222 258h6v6H222V258M240 258h6v6H240V258M246 258h6v6H246V258M264 258h6v6H264V258M270 258h6v6H270V258M282 258h6v6H282V258M294 258h6v6H294V258M306 258h6v6H306V258M318 258h6v6H318V258M324 258h6v6H324V258M336 258h6v6H336V258M354 258h6v6H354V258M360 258h6v6H360V258M372 258h6v6H372V258M390 258h6v6H390V258M402 258h6v6H402V258M420 258h6v6H420V258M438 258h6v6H438V258M6 264h6v6H6V264M12 264h6v6H12V264M24 264h6v6H24V264M30 264h6v6H30V264M36 264h6v6H36V264M48 264h6v6H48V264M66 264h6v6H66V264M78 264h6v6H78V264M96 264h6v6H96V264M114 264h6v6H114V264M138 264h6v6H138V264M144 264h6v6H144V264M156 264h6v6H156V264M168 264h6v6H168V264M174 264h6v6H174V264M192 264h6v6H192V264M204 264h6v6H204V264M210 264h6v6H210V264M216 264h6v6H216V264M222 264h6v6H222V264M234 264h6v6H234V264M246 264h6v6H246V264M264 264h6v6H264V264M288 264h6v6H288V264M324 264h6v6H324V264M342 264h6v6H342V264M384 264h6v6H384V264M396 264h6v6H396V264M414 264h6v6H414V264M426 264h6v6H426V264M444 264h6v6H444V264M456 264h6v6H456V264M6 270h6v6H6V270M30 270h6v6H30V270M48 270h6v6H48V270M54 270h6v6H54V270M60 270h6v6H60V270M66 270h6v6H66V270M72 270h6v6H72V270M90 270h6v6H90V270M120 270h6v6H120V270M132 270h6v6H132V270M144 270h6v6H144V270M156 270h6v6H156V270M168 270h6v6H168V270M180 270h6v6H180V270M198 270h6v6H198V270M204 270h6v6H204V270M210 270h6v6H210V270M228 270h6v6H228V270M234 270h6v6H234V270M246 270h6v6H246V270M252 270h6v6H252V270M270 270h6v6H270V270M276 270h6v6H276V270M288 270h6v6H288V270M294 270h6v6H294V270M300 270h6v6H300V270M330 270h6v6H330V270M336 270h6v6H336V270M354 270h6v6H354V270M360 270h6v6H360V270M366 270h6v6H366V270M378 270h6v6H378V270M414 270h6v6H414V270M426 270h6v6H426V270M432 270h6v6H432V270M438 270h6v6H438V270M444 270h6v6H444V270M450 270h6v6H450V270M456 270h6v6H456V270M12 276h6v6H12V276M18 276h6v6H18V276M24 276h6v6H24V276M30 276h6v6H30V276M36 276h6v6H36V276M42 276h6v6H42V276M48 276h6v6H48V276M66 276h6v6H66V276M72 276h6v6H72V276M78 276h6v6H78V276M90 276h6v6H90V276M96 276h6v6H96V276M102 276h6v6H102V276M132 276h6v6H132V276M144 276h6v6H144V276M150 276h6v6H150V276M156 276h6v6H156V276M162 276h6v6H162V276M168 276h6v6H168V276M174 276h6v6H174V276M192 276h6v6H192V276M204 276h6v6H204V276M210 276h6v6H210V276M216 276h6v6H216V276M222 276h6v6H222V276M228 276h6v6H228V276M252 276h6v6H252V276M258 276h6v6H258V276M264 276h6v6H264V276M270 276h6v6H270V276M276 276h6v6H276V276M282 276h6v6H282V276M288 276h6v6H288V276M294 276h6v6H294V276M300 276h6v6H300V276M306 276h6v6H306V276M312 276h6v6H312V276M330 276h6v6H330V276M354 276h6v6H354V276M360 276h6v6H360V276M372 276h6v6H372V276M378 276h6v6H378V276M384 276h6v6H384V276M396 276h6v6H396V276M408 276h6v6H408V276M414 276h6v6H414V276M420 276h6v6H420V276M426 276h6v6H426V276M432 276h6v6H432V276M450 276h6v6H450V276M456 276h6v6H456V276M0 282h6v6H0V282M24 282h6v6H24V282M48 282h6v6H48V282M72 282h6v6H72V282M90 282h6v6H90V282M144 282h6v6H144V282M168 282h6v6H168V282M210 282h6v6H210V282M216 282h6v6H216V282M228 282h6v6H228V282M240 282h6v6H240V282M252 282h6v6H252V282M270 282h6v6H270V282M276 282h6v6H276V282M300 282h6v6H300V282M306 282h6v6H306V282M318 282h6v6H318V282M324 282h6v6H324V282M342 282h6v6H342V282M348 282h6v6H348V282M354 282h6v6H354V282M360 282h6v6H360V282M372 282h6v6H372V282M402 282h6v6H402V282M408 282h6v6H408V282M432 282h6v6H432V282M438 282h6v6H438V282M456 282h6v6H456V282M0 288h6v6H0V288M6 288h6v6H6V288M18 288h6v6H18V288M24 288h6v6H24V288M36 288h6v6H36V288M48 288h6v6H48V288M54 288h6v6H54V288M60 288h6v6H60V288M84 288h6v6H84V288M108 288h6v6H108V288M114 288h6v6H114V288M126 288h6v6H126V288M138 288h6v6H138V288M144 288h6v6H144V288M156 288h6v6H156V288M168 288h6v6H168V288M180 288h6v6H180V288M192 288h6v6H192V288M204 288h6v6H204V288M210 288h6v6H210V288M216 288h6v6H216V288M228 288h6v6H228V288M252 288h6v6H252V288M276 288h6v6H276V288M288 288h6v6H288V288M300 288h6v6H300V288M330 288h6v6H330V288M336 288h6v6H336V288M342 288h6v6H342V288M348 288h6v6H348V288M384 288h6v6H384V288M390 288h6v6H390V288M396 288h6v6H396V288M402 288h6v6H402V288M408 288h6v6H408V288M420 288h6v6H420V288M432 288h6v6H432V288M444 288h6v6H444V288M0 294h6v6H0V294M24 294h6v6H24V294M48 294h6v6H48V294M54 294h6v6H54V294M60 294h6v6H60V294M66 294h6v6H66V294M78 294h6v6H78V294M84 294h6v6H84V294M96 294h6v6H96V294M102 294h6v6H102V294M108 294h6v6H108V294M120 294h6v6H120V294M138 294h6v6H138V294M144 294h6v6H144V294M168 294h6v6H168V294M174 294h6v6H174V294M180 294h6v6H180V294M192 294h6v6H192V294M198 294h6v6H198V294M204 294h6v6H204V294M216 294h6v6H216V294M228 294h6v6H228V294M234 294h6v6H234V294M246 294h6v6H246V294M252 294h6v6H252V294M258 294h6v6H258V294M276 294h6v6H276V294M300 294h6v6H300V294M306 294h6v6H306V294M312 294h6v6H312V294M330 294h6v6H330V294M336 294h6v6H336V294M348 294h6v6H348V294M366 294h6v6H366V294M384 294h6v6H384V294M396 294h6v6H396V294M402 294h6v6H402V294M408 294h6v6H408V294M432 294h6v6H432V294M0 300h6v6H0V300M24 300h6v6H24V300M30 300h6v6H30V300M36 300h6v6H36V300M42 300h6v6H42V300M48 300h6v6H48V300M54 300h6v6H54V300M60 300h6v6H60V300M78 300h6v6H78V300M90 300h6v6H90V300M120 300h6v6H120V300M138 300h6v6H138V300M144 300h6v6H144V300M150 300h6v6H150V300M156 300h6v6H156V300M162 300h6v6H162V300M168 300h6v6H168V300M174 300h6v6H174V300M180 300h6v6H180V300M186 300h6v6H186V300M198 300h6v6H198V300M204 300h6v6H204V300M210 300h6v6H210V300M216 300h6v6H216V300M222 300h6v6H222V300M234 300h6v6H234V300M258 300h6v6H258V300M264 300h6v6H264V300M270 300h6v6H270V300M276 300h6v6H276V300M282 300h6v6H282V300M288 300h6v6H288V300M294 300h6v6H294V300M300 300h6v6H300V300M306 300h6v6H306V300M312 300h6v6H312V300M324 300h6v6H324V300M336 300h6v6H336V300M354 300h6v6H354V300M360 300h6v6H360V300M372 300h6v6H372V300M396 300h6v6H396V300M402 300h6v6H402V300M408 300h6v6H408V300M414 300h6v6H414V300M420 300h6v6H420V300M426 300h6v6H426V300M432 300h6v6H432V300M444 300h6v6H444V300M456 300h6v6H456V300M0 306h6v6H0V306M24 306h6v6H24V306M30 306h6v6H30V306M54 306h6v6H54V306M60 306h6v6H60V306M90 306h6v6H90V306M96 306h6v6H96V306M102 306h6v6H102V306M108 306h6v6H108V306M120 306h6v6H120V306M138 306h6v6H138V306M144 306h6v6H144V306M150 306h6v6H150V306M168 306h6v6H168V306M198 306h6v6H198V306M204 306h6v6H204V306M234 306h6v6H234V306M240 306h6v6H240V306M252 306h6v6H252V306M258 306h6v6H258V306M270 306h6v6H270V306M282 306h6v6H282V306M288 306h6v6H288V306M306 306h6v6H306V306M324 306h6v6H324V306M330 306h6v6H330V306M336 306h6v6H336V306M348 306h6v6H348V306M354 306h6v6H354V306M360 306h6v6H360V306M366 306h6v6H366V306M372 306h6v6H372V306M378 306h6v6H378V306M402 306h6v6H402V306M420 306h6v6H420V306M438 306h6v6H438V306M450 306h6v6H450V306M0 312h6v6H0V312M6 312h6v6H6V312M18 312h6v6H18V312M36 312h6v6H36V312M48 312h6v6H48V312M54 312h6v6H54V312M60 312h6v6H60V312M66 312h6v6H66V312M72 312h6v6H72V312M90 312h6v6H90V312M102 312h6v6H102V312M108 312h6v6H108V312M120 312h6v6H120V312M126 312h6v6H126V312M138 312h6v6H138V312M144 312h6v6H144V312M162 312h6v6H162V312M174 312h6v6H174V312M192 312h6v6H192V312M204 312h6v6H204V312M210 312h6v6H210V312M216 312h6v6H216V312M228 312h6v6H228V312M234 312h6v6H234V312M270 312h6v6H270V312M318 312h6v6H318V312M324 312h6v6H324V312M330 312h6v6H330V312M342 312h6v6H342V312M348 312h6v6H348V312M354 312h6v6H354V312M384 312h6v6H384V312M396 312h6v6H396V312M402 312h6v6H402V312M408 312h6v6H408V312M414 312h6v6H414V312M432 312h6v6H432V312M438 312h6v6H438V312M456 312h6v6H456V312M0 318h6v6H0V318M6 318h6v6H6V318M18 318h6v6H18V318M30 318h6v6H30V318M48 318h6v6H48V318M54 318h6v6H54V318M60 318h6v6H60V318M66 318h6v6H66V318M72 318h6v6H72V318M84 318h6v6H84V318M108 318h6v6H108V318M144 318h6v6H144V318M150 318h6v6H150V318M162 318h6v6H162V318M186 318h6v6H186V318M198 318h6v6H198V318M210 318h6v6H210V318M216 318h6v6H216V318M228 318h6v6H228V318M234 318h6v6H234V318M246 318h6v6H246V318M252 318h6v6H252V318M258 318h6v6H258V318M264 318h6v6H264V318M276 318h6v6H276V318M282 318h6v6H282V318M288 318h6v6H288V318M294 318h6v6H294V318M300 318h6v6H300V318M330 318h6v6H330V318M336 318h6v6H336V318M348 318h6v6H348V318M366 318h6v6H366V318M372 318h6v6H372V318M378 318h6v6H378V318M384 318h6v6H384V318M414 318h6v6H414V318M420 318h6v6H420V318M426 318h6v6H426V318M438 318h6v6H438V318M0 324h6v6H0V324M6 324h6v6H6V324M18 324h6v6H18V324M36 324h6v6H36V324M48 324h6v6H48V324M60 324h6v6H60V324M66 324h6v6H66V324M96 324h6v6H96V324M102 324h6v6H102V324M120 324h6v6H120V324M126 324h6v6H126V324M132 324h6v6H132V324M150 324h6v6H150V324M168 324h6v6H168V324M186 324h6v6H186V324M192 324h6v6H192V324M198 324h6v6H198V324M204 324h6v6H204V324M210 324h6v6H210V324M222 324h6v6H222V324M234 324h6v6H234V324M252 324h6v6H252V324M258 324h6v6H258V324M264 324h6v6H264V324M270 324h6v6H270V324M276 324h6v6H276V324M282 324h6v6H282V324M288 324h6v6H288V324M300 324h6v6H300V324M306 324h6v6H306V324M336 324h6v6H336V324M342 324h6v6H342V324M366 324h6v6H366V324M372 324h6v6H372V324M378 324h6v6H378V324M390 324h6v6H390V324M396 324h6v6H396V324M420 324h6v6H420V324M432 324h6v6H432V324M438 324h6v6H438V324M444 324h6v6H444V324M456 324h6v6H456V324M24 330h6v6H24V330M30 330h6v6H30V330M60 330h6v6H60V330M66 330h6v6H66V330M78 330h6v6H78V330M90 330h6v6H90V330M114 330h6v6H114V330M132 330h6v6H132V330M174 330h6v6H174V330M180 330h6v6H180V330M198 330h6v6H198V330M204 330h6v6H204V330M246 330h6v6H246V330M270 330h6v6H270V330M300 330h6v6H300V330M318 330h6v6H318V330M324 330h6v6H324V330M336 330h6v6H336V330M342 330h6v6H342V330M348 330h6v6H348V330M354 330h6v6H354V330M360 330h6v6H360V330M366 330h6v6H366V330M378 330h6v6H378V330M384 330h6v6H384V330M390 330h6v6H390V330M396 330h6v6H396V330M402 330h6v6H402V330M414 330h6v6H414V330M420 330h6v6H420V330M426 330h6v6H426V330M450 330h6v6H450V330M456 330h6v6H456V330M12 336h6v6H12V336M18 336h6v6H18V336M36 336h6v6H36V336M72 336h6v6H72V336M78 336h6v6H78V336M96 336h6v6H96V336M102 336h6v6H102V336M108 336h6v6H108V336M120 336h6v6H120V336M138 336h6v6H138V336M156 336h6v6H156V336M192 336h6v6H192V336M198 336h6v6H198V336M204 336h6v6H204V336M210 336h6v6H210V336M216 336h6v6H216V336M246 336h6v6H246V336M264 336h6v6H264V336M270 336h6v6H270V336M276 336h6v6H276V336M294 336h6v6H294V336M300 336h6v6H300V336M312 336h6v6H312V336M318 336h6v6H318V336M324 336h6v6H324V336M330 336h6v6H330V336M342 336h6v6H342V336M360 336h6v6H360V336M366 336h6v6H366V336M372 336h6v6H372V336M384 336h6v6H384V336M390 336h6v6H390V336M396 336h6v6H396V336M408 336h6v6H408V336M414 336h6v6H414V336M444 336h6v6H444V336M456 336h6v6H456V336M0 342h6v6H0V342M6 342h6v6H6V342M12 342h6v6H12V342M24 342h6v6H24V342M42 342h6v6H42V342M60 342h6v6H60V342M90 342h6v6H90V342M102 342h6v6H102V342M114 342h6v6H114V342M120 342h6v6H120V342M126 342h6v6H126V342M132 342h6v6H132V342M150 342h6v6H150V342M156 342h6v6H156V342M174 342h6v6H174V342M180 342h6v6H180V342M198 342h6v6H198V342M210 342h6v6H210V342M216 342h6v6H216V342M228 342h6v6H228V342M234 342h6v6H234V342M240 342h6v6H240V342M246 342h6v6H246V342M252 342h6v6H252V342M258 342h6v6H258V342M264 342h6v6H264V342M270 342h6v6H270V342M276 342h6v6H276V342M288 342h6v6H288V342M300 342h6v6H300V342M312 342h6v6H312V342M336 342h6v6H336V342M348 342h6v6H348V342M366 342h6v6H366V342M390 342h6v6H390V342M396 342h6v6H396V342M402 342h6v6H402V342M426 342h6v6H426V342M432 342h6v6H432V342M438 342h6v6H438V342M444 342h6v6H444V342M450 342h6v6H450V342M456 342h6v6H456V342M0 348h6v6H0V348M24 348h6v6H24V348M30 348h6v6H30V348M36 348h6v6H36V348M48 348h6v6H48V348M96 348h6v6H96V348M120 348h6v6H120V348M126 348h6v6H126V348M132 348h6v6H132V348M138 348h6v6H138V348M162 348h6v6H162V348M174 348h6v6H174V348M180 348h6v6H180V348M192 348h6v6H192V348M198 348h6v6H198V348M210 348h6v6H210V348M222 348h6v6H222V348M228 348h6v6H228V348M234 348h6v6H234V348M246 348h6v6H246V348M252 348h6v6H252V348M276 348h6v6H276V348M294 348h6v6H294V348M306 348h6v6H306V348M312 348h6v6H312V348M318 348h6v6H318V348M324 348h6v6H324V348M336 348h6v6H336V348M348 348h6v6H348V348M354 348h6v6H354V348M366 348h6v6H366V348M372 348h6v6H372V348M378 348h6v6H378V348M390 348h6v6H390V348M396 348h6v6H396V348M408 348h6v6H408V348M420 348h6v6H420V348M426 348h6v6H426V348M432 348h6v6H432V348M438 348h6v6H438V348M456 348h6v6H456V348M0 354h6v6H0V354M6 354h6v6H6V354M12 354h6v6H12V354M24 354h6v6H24V354M42 354h6v6H42V354M72 354h6v6H72V354M84 354h6v6H84V354M102 354h6v6H102V354M114 354h6v6H114V354M120 354h6v6H120V354M126 354h6v6H126V354M132 354h6v6H132V354M138 354h6v6H138V354M174 354h6v6H174V354M180 354h6v6H180V354M198 354h6v6H198V354M204 354h6v6H204V354M210 354h6v6H210V354M222 354h6v6H222V354M234 354h6v6H234V354M240 354h6v6H240V354M246 354h6v6H246V354M252 354h6v6H252V354M258 354h6v6H258V354M270 354h6v6H270V354M276 354h6v6H276V354M282 354h6v6H282V354M288 354h6v6H288V354M294 354h6v6H294V354M324 354h6v6H324V354M336 354h6v6H336V354M354 354h6v6H354V354M360 354h6v6H360V354M378 354h6v6H378V354M396 354h6v6H396V354M402 354h6v6H402V354M414 354h6v6H414V354M420 354h6v6H420V354M426 354h6v6H426V354M432 354h6v6H432V354M438 354h6v6H438V354M450 354h6v6H450V354M12 360h6v6H12V360M18 360h6v6H18V360M24 360h6v6H24V360M36 360h6v6H36V360M42 360h6v6H42V360M72 360h6v6H72V360M84 360h6v6H84V360M90 360h6v6H90V360M96 360h6v6H96V360M102 360h6v6H102V360M114 360h6v6H114V360M120 360h6v6H120V360M138 360h6v6H138V360M156 360h6v6H156V360M168 360h6v6H168V360M174 360h6v6H174V360M180 360h6v6H180V360M192 360h6v6H192V360M204 360h6v6H204V360M210 360h6v6H210V360M216 360h6v6H216V360M222 360h6v6H222V360M234 360h6v6H234V360M246 360h6v6H246V360M252 360h6v6H252V360M264 360h6v6H264V360M276 360h6v6H276V360M294 360h6v6H294V360M300 360h6v6H300V360M318 360h6v6H318V360M324 360h6v6H324V360M330 360h6v6H330V360M342 360h6v6H342V360M360 360h6v6H360V360M372 360h6v6H372V360M378 360h6v6H378V360M384 360h6v6H384V360M390 360h6v6H390V360M402 360h6v6H402V360M408 360h6v6H408V360M414 360h6v6H414V360M444 360h6v6H444V360M450 360h6v6H450V360M0 366h6v6H0V366M6 366h6v6H6V366M18 366h6v6H18V366M24 366h6v6H24V366M30 366h6v6H30V366M48 366h6v6H48V366M60 366h6v6H60V366M72 366h6v6H72V366M84 366h6v6H84V366M114 366h6v6H114V366M132 366h6v6H132V366M138 366h6v6H138V366M156 366h6v6H156V366M162 366h6v6H162V366M168 366h6v6H168V366M180 366h6v6H180V366M198 366h6v6H198V366M210 366h6v6H210V366M222 366h6v6H222V366M228 366h6v6H228V366M234 366h6v6H234V366M246 366h6v6H246V366M252 366h6v6H252V366M282 366h6v6H282V366M288 366h6v6H288V366M306 366h6v6H306V366M324 366h6v6H324V366M366 366h6v6H366V366M372 366h6v6H372V366M426 366h6v6H426V366M432 366h6v6H432V366M438 366h6v6H438V366M444 366h6v6H444V366M450 366h6v6H450V366M456 366h6v6H456V366M0 372h6v6H0V372M6 372h6v6H6V372M12 372h6v6H12V372M30 372h6v6H30V372M36 372h6v6H36V372M42 372h6v6H42V372M78 372h6v6H78V372M90 372h6v6H90V372M102 372h6v6H102V372M114 372h6v6H114V372M138 372h6v6H138V372M144 372h6v6H144V372M156 372h6v6H156V372M192 372h6v6H192V372M198 372h6v6H198V372M204 372h6v6H204V372M222 372h6v6H222V372M228 372h6v6H228V372M240 372h6v6H240V372M246 372h6v6H246V372M258 372h6v6H258V372M270 372h6v6H270V372M294 372h6v6H294V372M300 372h6v6H300V372M306 372h6v6H306V372M312 372h6v6H312V372M330 372h6v6H330V372M336 372h6v6H336V372M342 372h6v6H342V372M360 372h6v6H360V372M384 372h6v6H384V372M396 372h6v6H396V372M420 372h6v6H420V372M432 372h6v6H432V372M438 372h6v6H438V372M444 372h6v6H444V372M456 372h6v6H456V372M0 378h6v6H0V378M6 378h6v6H6V378M18 378h6v6H18V378M42 378h6v6H42V378M66 378h6v6H66V378M72 378h6v6H72V378M84 378h6v6H84V378M96 378h6v6H96V378M162 378h6v6H162V378M168 378h6v6H168V378M174 378h6v6H174V378M180 378h6v6H180V378M186 378h6v6H186V378M204 378h6v6H204V378M210 378h6v6H210V378M216 378h6v6H216V378M228 378h6v6H228V378M246 378h6v6H246V378M264 378h6v6H264V378M270 378h6v6H270V378M276 378h6v6H276V378M288 378h6v6H288V378M300 378h6v6H300V378M324 378h6v6H324V378M336 378h6v6H336V378M342 378h6v6H342V378M354 378h6v6H354V378M360 378h6v6H360V378M366 378h6v6H366V378M372 378h6v6H372V378M420 378h6v6H420V378M426 378h6v6H426V378M438 378h6v6H438V378M450 378h6v6H450V378M456 378h6v6H456V378M0 384h6v6H0V384M6 384h6v6H6V384M18 384h6v6H18V384M24 384h6v6H24V384M36 384h6v6H36V384M42 384h6v6H42V384M48 384h6v6H48V384M54 384h6v6H54V384M66 384h6v6H66V384M90 384h6v6H90V384M108 384h6v6H108V384M120 384h6v6H120V384M126 384h6v6H126V384M132 384h6v6H132V384M150 384h6v6H150V384M156 384h6v6H156V384M162 384h6v6H162V384M174 384h6v6H174V384M180 384h6v6H180V384M186 384h6v6H186V384M192 384h6v6H192V384M210 384h6v6H210V384M216 384h6v6H216V384M234 384h6v6H234V384M252 384h6v6H252V384M258 384h6v6H258V384M264 384h6v6H264V384M270 384h6v6H270V384M276 384h6v6H276V384M294 384h6v6H294V384M318 384h6v6H318V384M324 384h6v6H324V384M330 384h6v6H330V384M336 384h6v6H336V384M360 384h6v6H360V384M366 384h6v6H366V384M372 384h6v6H372V384M390 384h6v6H390V384M396 384h6v6H396V384M414 384h6v6H414V384M432 384h6v6H432V384M438 384h6v6H438V384M450 384h6v6H450V384M456 384h6v6H456V384M0 390h6v6H0V390M6 390h6v6H6V390M18 390h6v6H18V390M24 390h6v6H24V390M42 390h6v6H42V390M120 390h6v6H120V390M138 390h6v6H138V390M144 390h6v6H144V390M162 390h6v6H162V390M180 390h6v6H180V390M192 390h6v6H192V390M198 390h6v6H198V390M210 390h6v6H210V390M228 390h6v6H228V390M234 390h6v6H234V390M246 390h6v6H246V390M252 390h6v6H252V390M258 390h6v6H258V390M264 390h6v6H264V390M270 390h6v6H270V390M276 390h6v6H276V390M294 390h6v6H294V390M300 390h6v6H300V390M306 390h6v6H306V390M312 390h6v6H312V390M330 390h6v6H330V390M336 390h6v6H336V390M360 390h6v6H360V390M372 390h6v6H372V390M378 390h6v6H378V390M396 390h6v6H396V390M426 390h6v6H426V390M432 390h6v6H432V390M438 390h6v6H438V390M444 390h6v6H444V390M456 390h6v6H456V390M6 396h6v6H6V396M24 396h6v6H24V396M30 396h6v6H30V396M36 396h6v6H36V396M42 396h6v6H42V396M72 396h6v6H72V396M96 396h6v6H96V396M114 396h6v6H114V396M144 396h6v6H144V396M150 396h6v6H150V396M180 396h6v6H180V396M198 396h6v6H198V396M204 396h6v6H204V396M222 396h6v6H222V396M234 396h6v6H234V396M240 396h6v6H240V396M270 396h6v6H270V396M282 396h6v6H282V396M288 396h6v6H288V396M300 396h6v6H300V396M306 396h6v6H306V396M312 396h6v6H312V396M324 396h6v6H324V396M330 396h6v6H330V396M336 396h6v6H336V396M348 396h6v6H348V396M360 396h6v6H360V396M372 396h6v6H372V396M384 396h6v6H384V396M396 396h6v6H396V396M414 396h6v6H414V396M438 396h6v6H438V396M456 396h6v6H456V396M24 402h6v6H24V402M48 402h6v6H48V402M54 402h6v6H54V402M66 402h6v6H66V402M72 402h6v6H72V402M90 402h6v6H90V402M96 402h6v6H96V402M114 402h6v6H114V402M126 402h6v6H126V402M138 402h6v6H138V402M156 402h6v6H156V402M180 402h6v6H180V402M186 402h6v6H186V402M204 402h6v6H204V402M210 402h6v6H210V402M216 402h6v6H216V402M228 402h6v6H228V402M258 402h6v6H258V402M270 402h6v6H270V402M282 402h6v6H282V402M288 402h6v6H288V402M306 402h6v6H306V402M336 402h6v6H336V402M342 402h6v6H342V402M348 402h6v6H348V402M360 402h6v6H360V402M372 402h6v6H372V402M378 402h6v6H378V402M414 402h6v6H414V402M420 402h6v6H420V402M426 402h6v6H426V402M432 402h6v6H432V402M438 402h6v6H438V402M6 408h6v6H6V408M12 408h6v6H12V408M18 408h6v6H18V408M24 408h6v6H24V408M36 408h6v6H36V408M48 408h6v6H48V408M54 408h6v6H54V408M72 408h6v6H72V408M78 408h6v6H78V408M84 408h6v6H84V408M90 408h6v6H90V408M96 408h6v6H96V408M108 408h6v6H108V408M114 408h6v6H114V408M126 408h6v6H126V408M132 408h6v6H132V408M138 408h6v6H138V408M144 408h6v6H144V408M150 408h6v6H150V408M156 408h6v6H156V408M162 408h6v6H162V408M168 408h6v6H168V408M174 408h6v6H174V408M186 408h6v6H186V408M204 408h6v6H204V408M210 408h6v6H210V408M216 408h6v6H216V408M228 408h6v6H228V408M234 408h6v6H234V408M252 408h6v6H252V408M264 408h6v6H264V408M276 408h6v6H276V408M282 408h6v6H282V408M288 408h6v6H288V408M294 408h6v6H294V408M300 408h6v6H300V408M330 408h6v6H330V408M336 408h6v6H336V408M342 408h6v6H342V408M348 408h6v6H348V408M360 408h6v6H360V408M366 408h6v6H366V408M396 408h6v6H396V408M402 408h6v6H402V408M408 408h6v6H408V408M414 408h6v6H414V408M420 408h6v6H420V408M426 408h6v6H426V408M432 408h6v6H432V408M438 408h6v6H438V408M450 408h6v6H450V408M48 414h6v6H48V414M54 414h6v6H54V414M66 414h6v6H66V414M78 414h6v6H78V414M84 414h6v6H84V414M96 414h6v6H96V414M102 414h6v6H102V414M108 414h6v6H108V414M114 414h6v6H114V414M120 414h6v6H120V414M126 414h6v6H126V414M144 414h6v6H144V414M168 414h6v6H168V414M174 414h6v6H174V414M180 414h6v6H180V414M192 414h6v6H192V414M198 414h6v6H198V414M216 414h6v6H216V414M228 414h6v6H228V414M246 414h6v6H246V414M258 414h6v6H258V414M264 414h6v6H264V414M270 414h6v6H270V414M276 414h6v6H276V414M300 414h6v6H300V414M336 414h6v6H336V414M354 414h6v6H354V414M366 414h6v6H366V414M378 414h6v6H378V414M402 414h6v6H402V414M408 414h6v6H408V414M432 414h6v6H432V414M438 414h6v6H438V414M450 414h6v6H450V414M0 420h6v6H0V420M6 420h6v6H6V420M12 420h6v6H12V420M18 420h6v6H18V420M24 420h6v6H24V420M30 420h6v6H30V420M36 420h6v6H36V420M48 420h6v6H48V420M72 420h6v6H72V420M78 420h6v6H78V420M84 420h6v6H84V420M96 420h6v6H96V420M108 420h6v6H108V420M120 420h6v6H120V420M126 420h6v6H126V420M144 420h6v6H144V420M156 420h6v6H156V420M168 420h6v6H168V420M174 420h6v6H174V420M180 420h6v6H180V420M192 420h6v6H192V420M198 420h6v6H198V420M210 420h6v6H210V420M234 420h6v6H234V420M258 420h6v6H258V420M270 420h6v6H270V420M276 420h6v6H276V420M288 420h6v6H288V420M300 420h6v6H300V420M306 420h6v6H306V420M324 420h6v6H324V420M336 420h6v6H336V420M342 420h6v6H342V420M354 420h6v6H354V420M366 420h6v6H366V420M372 420h6v6H372V420M378 420h6v6H378V420M384 420h6v6H384V420M396 420h6v6H396V420M408 420h6v6H408V420M420 420h6v6H420V420M432 420h6v6H432V420M444 420h6v6H444V420M456 420h6v6H456V420M0 426h6v6H0V426M36 426h6v6H36V426M54 426h6v6H54V426M84 426h6v6H84V426M120 426h6v6H120V426M126 426h6v6H126V426M138 426h6v6H138V426M144 426h6v6H144V426M168 426h6v6H168V426M180 426h6v6H180V426M186 426h6v6H186V426M198 426h6v6H198V426M222 426h6v6H222V426M228 426h6v6H228V426M234 426h6v6H234V426M240 426h6v6H240V426M246 426h6v6H246V426M258 426h6v6H258V426M264 426h6v6H264V426M270 426h6v6H270V426M276 426h6v6H276V426M300 426h6v6H300V426M306 426h6v6H306V426M324 426h6v6H324V426M336 426h6v6H336V426M342 426h6v6H342V426M360 426h6v6H360V426M372 426h6v6H372V426M378 426h6v6H378V426M390 426h6v6H390V426M402 426h6v6H402V426M408 426h6v6H408V426M432 426h6v6H432V426M438 426h6v6H438V426M456 426h6v6H456V426M0 432h6v6H0V432M12 432h6v6H12V432M18 432h6v6H18V432M24 432h6v6H24V432M36 432h6v6H36V432M48 432h6v6H48V432M54 432h6v6H54V432M60 432h6v6H60V432M66 432h6v6H66V432M84 432h6v6H84V432M96 432h6v6H96V432M102 432h6v6H102V432M108 432h6v6H108V432M120 432h6v6H120V432M132 432h6v6H132V432M138 432h6v6H138V432M144 432h6v6H144V432M150 432h6v6H150V432M156 432h6v6H156V432M162 432h6v6H162V432M168 432h6v6H168V432M174 432h6v6H174V432M186 432h6v6H186V432M198 432h6v6H198V432M216 432h6v6H216V432M228 432h6v6H228V432M234 432h6v6H234V432M246 432h6v6H246V432M252 432h6v6H252V432M258 432h6v6H258V432M264 432h6v6H264V432M270 432h6v6H270V432M276 432h6v6H276V432M282 432h6v6H282V432M288 432h6v6H288V432M294 432h6v6H294V432M300 432h6v6H300V432M306 432h6v6H306V432M318 432h6v6H318V432M324 432h6v6H324V432M330 432h6v6H330V432M336 432h6v6H336V432M342 432h6v6H342V432M360 432h6v6H360V432M366 432h6v6H366V432M384 432h6v6H384V432M390 432h6v6H390V432M396 432h6v6H396V432M402 432h6v6H402V432M408 432h6v6H408V432M414 432h6v6H414V432M420 432h6v6H420V432M426 432h6v6H426V432M432 432h6v6H432V432M450 432h6v6H450V432M0 438h6v6H0V438M12 438h6v6H12V438M18 438h6v6H18V438M24 438h6v6H24V438M36 438h6v6H36V438M54 438h6v6H54V438M60 438h6v6H60V438M66 438h6v6H66V438M84 438h6v6H84V438M102 438h6v6H102V438M114 438h6v6H114V438M120 438h6v6H120V438M126 438h6v6H126V438M150 438h6v6H150V438M168 438h6v6H168V438M174 438h6v6H174V438M198 438h6v6H198V438M210 438h6v6H210V438M216 438h6v6H216V438M222 438h6v6H222V438M252 438h6v6H252V438M264 438h6v6H264V438M270 438h6v6H270V438M288 438h6v6H288V438M300 438h6v6H300V438M318 438h6v6H318V438M324 438h6v6H324V438M330 438h6v6H330V438M336 438h6v6H336V438M342 438h6v6H342V438M348 438h6v6H348V438M354 438h6v6H354V438M366 438h6v6H366V438M372 438h6v6H372V438M384 438h6v6H384V438M396 438h6v6H396V438M408 438h6v6H408V438M414 438h6v6H414V438M444 438h6v6H444V438M0 444h6v6H0V444M12 444h6v6H12V444M18 444h6v6H18V444M24 444h6v6H24V444M36 444h6v6H36V444M54 444h6v6H54V444M72 444h6v6H72V444M78 444h6v6H78V444M90 444h6v6H90V444M96 444h6v6H96V444M102 444h6v6H102V444M126 444h6v6H126V444M132 444h6v6H132V444M144 444h6v6H144V444M168 444h6v6H168V444M192 444h6v6H192V444M198 444h6v6H198V444M210 444h6v6H210V444M222 444h6v6H222V444M234 444h6v6H234V444M258 444h6v6H258V444M270 444h6v6H270V444M276 444h6v6H276V444M282 444h6v6H282V444M294 444h6v6H294V444M300 444h6v6H300V444M306 444h6v6H306V444M336 444h6v6H336V444M342 444h6v6H342V444M354 444h6v6H354V444M360 444h6v6H360V444M372 444h6v6H372V444M384 444h6v6H384V444M396 444h6v6H396V444M402 444h6v6H402V444M420 444h6v6H420V444M444 444h6v6H444V444M450 444h6v6H450V444M456 444h6v6H456V444M0 450h6v6H0V450M36 450h6v6H36V450M60 450h6v6H60V450M66 450h6v6H66V450M72 450h6v6H72V450M90 450h6v6H90V450M96 450h6v6H96V450M108 450h6v6H108V450M114 450h6v6H114V450M120 450h6v6H120V450M132 450h6v6H132V450M138 450h6v6H138V450M150 450h6v6H150V450M156 450h6v6H156V450M162 450h6v6H162V450M168 450h6v6H168V450M174 450h6v6H174V450M180 450h6v6H180V450M186 450h6v6H186V450M192 450h6v6H192V450M204 450h6v6H204V450M222 450h6v6H222V450M228 450h6v6H228V450M234 450h6v6H234V450M240 450h6v6H240V450M246 450h6v6H246V450M264 450h6v6H264V450M270 450h6v6H270V450M306 450h6v6H306V450M312 450h6v6H312V450M324 450h6v6H324V450M330 450h6v6H330V450M342 450h6v6H342V450M360 450h6v6H360V450M366 450h6v6H366V450M390 450h6v6H390V450M408 450h6v6H408V450M438 450h6v6H438V450M450 450h6v6H450V450M456 450h6v6H456V450M0 456h6v6H0V456M6 456h6v6H6V456M12 456h6v6H12V456M18 456h6v6H18V456M24 456h6v6H24V456M30 456h6v6H30V456M36 456h6v6H36V456M48 456h6v6H48V456M54 456h6v6H54V456M66 456h6v6H66V456M84 456h6v6H84V456M90 456h6v6H90V456M96 456h6v6H96V456M102 456h6v6H102V456M114 456h6v6H114V456M126 456h6v6H126V456M132 456h6v6H132V456M138 456h6v6H138V456M156 456h6v6H156V456M174 456h6v6H174V456M180 456h6v6H180V456M192 456h6v6H192V456M198 456h6v6H198V456M210 456h6v6H210V456M228 456h6v6H228V456M234 456h6v6H234V456M246 456h6v6H246V456M252 456h6v6H252V456M264 456h6v6H264V456M270 456h6v6H270V456M282 456h6v6H282V456M294 456h6v6H294V456M300 456h6v6H300V456M312 456h6v6H312V456M330 456h6v6H330V456M342 456h6v6H342V456M366 456h6v6H366V456M372 456h6v6H372V456M390 456h6v6H390V456M396 456h6v6H396V456M408 456h6v6H408V456M420 456h6v6H420V456M426 456h6v6H426V456M432 456h6v6H432V456M438 456h6v6H438V456M450 456h6v6H450V456"/></svg>
