<?xml version="1.0" standalone="yes"?><svg xmlns="http://www.w3.org/2000/svg" version="1.1" width="427" height="427" viewBox="0 0 427 427" shape-rendering="crispEdges"><rect x="0" y="0" width="427" height="427" fill="#fff"/><path fill="#000" d="M0 0h7v7H0V0M7 0h7v7H7V0M14 0h7v7H14V0M21 0h7v7H21V0M28 0h7v7H28V0M35 0h7v7H35V0M42 0h7v7H42V0M56 0h7v7H56V0M77 0h7v7H77V0M91 0h7v7H91V0M98 0h7v7H98V0M105 0h7v7H105V0M112 0h7v7H112V0M126 0h7v7H126V0M133 0h7v7H133V0M140 0h7v7H140V0M154 0h7v7H154V0M161 0h7v7H161V0M168 0h7v7H168V0M175 0h7v7H175V0M182 0h7v7H182V0M189 0h7v7H189V0M196 0h7v7H196V0M210 0h7v7H210V0M224 0h7v7H224V0M245 0h7v7H245V0M252 0h7v7H252V0M266 0h7v7H266V0M280 0h7v7H280V0M287 0h7v7H287V0M308 0h7v7H308V0M315 0h7v7H315V0M357 0h7v7H357V0M364 0h7v7H364V0M378 0h7v7H378V0M385 0h7v7H385V0M392 0h7v7H392V0M399 0h7v7H399V0M406 0h7v7H406V0M413 0h7v7H413V0M420 0h7v7H420V0M0 7h7v7H0V7M42 7h7v7H42V7M63 7h7v7H63V7M77 7h7v7H77V7M98 7h7v7H98V7M119 7h7v7H119V7M154 7h7v7H154V7M161 7h7v7H161V7M168 7h7v7H168V7M182 7h7v7H182V7M196 7h7v7H196V7M217 7h7v7H217V7M224 7h7v7H224V7M231 7h7v7H231V7M266 7h7v7H266V7M273 7h7v7H273V7M280 7h7v7H280V7M287 7h7v7H287V7M294 7h7v7H294V7M329 7h7v7H329V7M336 7h7v7H336V7M343 7h7v7H343V7M357 7h7v7H357V7M364 7h7v7H364V7M378 7h7v7H378V7M420 7h7v7H420V7M0 14h7v7H0V14M14 14h7v7H14V14M21 14h7v7H21V14M28 14h7v7H28V14M42 14h7v7H42V14M63 14h7v7H63V14M105 14h7v7H105V14M119 14h7v7H119V14M140 14h7v7H140V14M154 14h7v7H154V14M161 14h7v7H161V14M168 14h7v7H168V14M175 14h7v7H175V14M217 14h7v7H217V14M231 14h7v7H231V14M238 14h7v7H238V14M259 14h7v7H259V14M280 14h7v7H280V14M287 14h7v7H287V14M301 14h7v7H301V14M315 14h7v7H315V14M322 14h7v7H322V14M343 14h7v7H343V14M350 14h7v7H350V14M357 14h7v7H357V14M364 14h7v7H364V14M378 14h7v7H378V14M392 14h7v7H392V14M399 14h7v7H399V14M406 14h7v7H406V14M420 14h7v7H420V14M0 21h7v7H0V21M14 21h7v7H14V21M21 21h7v7H21V21M28 21h7v7H28V21M42 21h7v7H42V21M56 21h7v7H56V21M70 21h7v7H70V21M105 21h7v7H105V21M112 21h7v7H112V21M133 21h7v7H133V21M140 21h7v7H140V21M154 21h7v7H154V21M161 21h7v7H161V21M168 21h7v7H168V21M196 21h7v7H196V21M203 21h7v7H203V21M210 21h7v7H210V21M231 21h7v7H231V21M238 21h7v7H238V21M245 21h7v7H245V21M252 21h7v7H252V21M259 21h7v7H259V21M287 21h7v7H287V21M301 21h7v7H301V21M315 21h7v7H315V21M336 21h7v7H336V21M350 21h7v7H350V21M364 21h7v7H364V21M378 21h7v7H378V21M392 21h7v7H392V21M399 21h7v7H399V21M406 21h7v7H406V21M420 21h7v7H420V21M0 28h7v7H0V28M14 28h7v7H14V28M21 28h7v7H21V28M28 28h7v7H28V28M42 28h7v7H42V28M56 28h7v7H56V28M63 28h7v7H63V28M84 28h7v7H84V28M91 28h7v7H91V28M105 28h7v7H105V28M112 28h7v7H112V28M119 28h7v7H119V28M133 28h7v7H133V28M154 28h7v7H154V28M175 28h7v7H175V28M182 28h7v7H182V28M189 28h7v7H189V28M196 28h7v7H196V28M203 28h7v7H203V28M210 28h7v7H210V28M217 28h7v7H217V28M224 28h7v7H224V28M231 28h7v7H231V28M245 28h7v7H245V28M266 28h7v7H266V28M273 28h7v7H273V28M287 28h7v7H287V28M294 28h7v7H294V28M308 28h7v7H308V28M336 28h7v7H336V28M343 28h7v7H343V28M350 28h7v7H350V28M357 28h7v7H357V28M378 28h7v7H378V28M392 28h7v7H392V28M399 28h7v7H399V28M406 28h7v7H406V28M420 28h7v7H420V28M0 35h7v7H0V35M42 35h7v7H42V35M56 35h7v7H56V35M70 35h7v7H70V35M77 35h7v7H77V35M84 35h7v7H84V35M91 35h7v7H91V35M98 35h7v7H98V35M105 35h7v7H105V35M112 35h7v7H112V35M133 35h7v7H133V35M140 35h7v7H140V35M168 35h7v7H168V35M175 35h7v7H175V35M189 35h7v7H189V35M196 35h7v7H196V35M224 35h7v7H224V35M266 35h7v7H266V35M273 35h7v7H273V35M287 35h7v7H287V35M294 35h7v7H294V35M315 35h7v7H315V35M329 35h7v7H329V35M336 35h7v7H336V35M343 35h7v7H343V35M350 35h7v7H350V35M378 35h7v7H378V35M420 35h7v7H420V35M0 42h7v7H0V42M7 42h7v7H7V42M14 42h7v7H14V42M21 42h7v7H21V42M28 42h7v7H28V42M35 42h7v7H35V42M42 42h7v7H42V42M56 42h7v7H56V42M70 42h7v7H70V42M84 42h7v7H84V42M98 42h7v7H98V42M112 42h7v7H112V42M126 42h7v7H126V42M140 42h7v7H140V42M154 42h7v7H154V42M168 42h7v7H168V42M182 42h7v7H182V42M196 42h7v7H196V42M210 42h7v7H210V42M224 42h7v7H224V42M238 42h7v7H238V42M252 42h7v7H252V42M266 42h7v7H266V42M280 42h7v7H280V42M294 42h7v7H294V42M308 42h7v7H308V42M322 42h7v7H322V42M336 42h7v7H336V42M350 42h7v7H350V42M364 42h7v7H364V42M378 42h7v7H378V42M385 42h7v7H385V42M392 42h7v7H392V42M399 42h7v7H399V42M406 42h7v7H406V42M413 42h7v7H413V42M420 42h7v7H420V42M56 49h7v7H56V49M84 49h7v7H84V49M105 49h7v7H105V49M126 49h7v7H126V49M147 49h7v7H147V49M154 49h7v7H154V49M182 49h7v7H182V49M196 49h7v7H196V49M224 49h7v7H224V49M238 49h7v7H238V49M259 49h7v7H259V49M266 49h7v7H266V49M280 49h7v7H280V49M287 49h7v7H287V49M301 49h7v7H301V49M315 49h7v7H315V49M322 49h7v7H322V49M350 49h7v7H350V49M0 56h7v7H0V56M28 56h7v7H28V56M42 56h7v7H42V56M49 56h7v7H49V56M56 56h7v7H56V56M63 56h7v7H63V56M84 56h7v7H84V56M126 56h7v7H126V56M133 56h7v7H133V56M140 56h7v7H140V56M147 56h7v7H147V56M154 56h7v7H154V56M161 56h7v7H161V56M168 56h7v7H168V56M189 56h7v7H189V56M196 56h7v7H196V56M203 56h7v7H203V56M210 56h7v7H210V56M217 56h7v7H217V56M224 56h7v7H224V56M238 56h7v7H238V56M273 56h7v7H273V56M287 56h7v7H287V56M294 56h7v7H294V56M322 56h7v7H322V56M336 56h7v7H336V56M350 56h7v7H350V56M357 56h7v7H357V56M371 56h7v7H371V56M378 56h7v7H378V56M385 56h7v7H385V56M392 56h7v7H392V56M399 56h7v7H399V56M420 56h7v7H420V56M7 63h7v7H7V63M14 63h7v7H14V63M35 63h7v7H35V63M49 63h7v7H49V63M70 63h7v7H70V63M91 63h7v7H91V63M98 63h7v7H98V63M112 63h7v7H112V63M133 63h7v7H133V63M161 63h7v7H161V63M175 63h7v7H175V63M182 63h7v7H182V63M210 63h7v7H210V63M224 63h7v7H224V63M231 63h7v7H231V63M252 63h7v7H252V63M266 63h7v7H266V63M280 63h7v7H280V63M294 63h7v7H294V63M315 63h7v7H315V63M350 63h7v7H350V63M357 63h7v7H357V63M371 63h7v7H371V63M385 63h7v7H385V63M399 63h7v7H399V63M413 63h7v7H413V63M420 63h7v7H420V63M14 70h7v7H14V70M21 70h7v7H21V70M28 70h7v7H28V70M42 70h7v7H42V70M49 70h7v7H49V70M56 70h7v7H56V70M70 70h7v7H70V70M84 70h7v7H84V70M91 70h7v7H91V70M119 70h7v7H119V70M126 70h7v7H126V70M133 70h7v7H133V70M140 70h7v7H140V70M147 70h7v7H147V70M161 70h7v7H161V70M196 70h7v7H196V70M210 70h7v7H210V70M217 70h7v7H217V70M231 70h7v7H231V70M238 70h7v7H238V70M252 70h7v7H252V70M266 70h7v7H266V70M273 70h7v7H273V70M280 70h7v7H280V70M294 70h7v7H294V70M308 70h7v7H308V70M315 70h7v7H315V70M329 70h7v7H329V70M336 70h7v7H336V70M343 70h7v7H343V70M357 70h7v7H357V70M399 70h7v7H399V70M406 70h7v7H406V70M420 70h7v7H420V70M14 77h7v7H14V77M21 77h7v7H21V77M56 77h7v7H56V77M98 77h7v7H98V77M105 77h7v7H105V77M112 77h7v7H112V77M119 77h7v7H119V77M140 77h7v7H140V77M147 77h7v7H147V77M182 77h7v7H182V77M196 77h7v7H196V77M203 77h7v7H203V77M210 77h7v7H210V77M245 77h7v7H245V77M266 77h7v7H266V77M273 77h7v7H273V77M280 77h7v7H280V77M301 77h7v7H301V77M308 77h7v7H308V77M315 77h7v7H315V77M343 77h7v7H343V77M357 77h7v7H357V77M364 77h7v7H364V77M378 77h7v7H378V77M406 77h7v7H406V77M420 77h7v7H420V77M0 84h7v7H0V84M14 84h7v7H14V84M42 84h7v7H42V84M49 84h7v7H49V84M56 84h7v7H56V84M70 84h7v7H70V84M84 84h7v7H84V84M91 84h7v7H91V84M98 84h7v7H98V84M105 84h7v7H105V84M140 84h7v7H140V84M154 84h7v7H154V84M168 84h7v7H168V84M182 84h7v7H182V84M203 84h7v7H203V84M210 84h7v7H210V84M238 84h7v7H238V84M245 84h7v7H245V84M252 84h7v7H252V84M273 84h7v7H273V84M294 84h7v7H294V84M308 84h7v7H308V84M315 84h7v7H315V84M322 84h7v7H322V84M329 84h7v7H329V84M336 84h7v7H336V84M350 84h7v7H350V84M357 84h7v7H357V84M378 84h7v7H378V84M392 84h7v7H392V84M399 84h7v7H399V84M7 91h7v7H7V91M35 91h7v7H35V91M63 91h7v7H63V91M91 91h7v7H91V91M105 91h7v7H105V91M126 91h7v7H126V91M147 91h7v7H147V91M161 91h7v7H161V91M182 91h7v7H182V91M189 91h7v7H189V91M224 91h7v7H224V91M231 91h7v7H231V91M245 91h7v7H245V91M259 91h7v7H259V91M273 91h7v7H273V91M280 91h7v7H280V91M294 91h7v7H294V91M329 91h7v7H329V91M336 91h7v7H336V91M350 91h7v7H350V91M357 91h7v7H357V91M378 91h7v7H378V91M392 91h7v7H392V91M399 91h7v7H399V91M406 91h7v7H406V91M413 91h7v7H413V91M420 91h7v7H420V91M14 98h7v7H14V98M21 98h7v7H21V98M35 98h7v7H35V98M42 98h7v7H42V98M49 98h7v7H49V98M63 98h7v7H63V98M70 98h7v7H70V98M91 98h7v7H91V98M119 98h7v7H119V98M133 98h7v7H133V98M147 98h7v7H147V98M175 98h7v7H175V98M189 98h7v7H189V98M196 98h7v7H196V98M203 98h7v7H203V98M210 98h7v7H210V98M217 98h7v7H217V98M224 98h7v7H224V98M231 98h7v7H231V98M238 98h7v7H238V98M245 98h7v7H245V98M252 98h7v7H252V98M259 98h7v7H259V98M280 98h7v7H280V98M301 98h7v7H301V98M322 98h7v7H322V98M343 98h7v7H343V98M357 98h7v7H357V98M392 98h7v7H392V98M399 98h7v7H399V98M413 98h7v7H413V98M420 98h7v7H420V98M0 105h7v7H0V105M7 105h7v7H7V105M14 105h7v7H14V105M21 105h7v7H21V105M70 105h7v7H70V105M77 105h7v7H77V105M98 105h7v7H98V105M105 105h7v7H105V105M112 105h7v7H112V105M119 105h7v7H119V105M147 105h7v7H147V105M154 105h7v7H154V105M161 105h7v7H161V105M189 105h7v7H189V105M196 105h7v7H196V105M210 105h7v7H210V105M238 105h7v7H238V105M259 105h7v7H259V105M280 105h7v7H280V105M301 105h7v7H301V105M315 105h7v7H315V105M322 105h7v7H322V105M371 105h7v7H371V105M385 105h7v7H385V105M406 105h7v7H406V105M413 105h7v7H413V105M0 112h7v7H0V112M7 112h7v7H7V112M14 112h7v7H14V112M28 112h7v7H28V112M42 112h7v7H42V112M63 112h7v7H63V112M84 112h7v7H84V112M91 112h7v7H91V112M98 112h7v7H98V112M105 112h7v7H105V112M119 112h7v7H119V112M133 112h7v7H133V112M140 112h7v7H140V112M154 112h7v7H154V112M168 112h7v7H168V112M182 112h7v7H182V112M189 112h7v7H189V112M203 112h7v7H203V112M210 112h7v7H210V112M224 112h7v7H224V112M238 112h7v7H238V112M252 112h7v7H252V112M266 112h7v7H266V112M273 112h7v7H273V112M308 112h7v7H308V112M329 112h7v7H329V112M357 112h7v7H357V112M392 112h7v7H392V112M420 112h7v7H420V112M0 119h7v7H0V119M14 119h7v7H14V119M49 119h7v7H49V119M56 119h7v7H56V119M77 119h7v7H77V119M91 119h7v7H91V119M112 119h7v7H112V119M133 119h7v7H133V119M147 119h7v7H147V119M154 119h7v7H154V119M168 119h7v7H168V119M175 119h7v7H175V119M182 119h7v7H182V119M210 119h7v7H210V119M224 119h7v7H224V119M238 119h7v7H238V119M252 119h7v7H252V119M259 119h7v7H259V119M322 119h7v7H322V119M336 119h7v7H336V119M343 119h7v7H343V119M385 119h7v7H385V119M392 119h7v7H392V119M420 119h7v7H420V119M0 126h7v7H0V126M21 126h7v7H21V126M42 126h7v7H42V126M49 126h7v7H49V126M56 126h7v7H56V126M63 126h7v7H63V126M70 126h7v7H70V126M84 126h7v7H84V126M98 126h7v7H98V126M105 126h7v7H105V126M119 126h7v7H119V126M133 126h7v7H133V126M147 126h7v7H147V126M168 126h7v7H168V126M189 126h7v7H189V126M196 126h7v7H196V126M203 126h7v7H203V126M217 126h7v7H217V126M224 126h7v7H224V126M238 126h7v7H238V126M259 126h7v7H259V126M308 126h7v7H308V126M322 126h7v7H322V126M329 126h7v7H329V126M343 126h7v7H343V126M357 126h7v7H357V126M392 126h7v7H392V126M0 133h7v7H0V133M7 133h7v7H7V133M21 133h7v7H21V133M28 133h7v7H28V133M70 133h7v7H70V133M77 133h7v7H77V133M91 133h7v7H91V133M98 133h7v7H98V133M112 133h7v7H112V133M119 133h7v7H119V133M133 133h7v7H133V133M140 133h7v7H140V133M147 133h7v7H147V133M175 133h7v7H175V133M189 133h7v7H189V133M238 133h7v7H238V133M273 133h7v7H273V133M280 133h7v7H280V133M294 133h7v7H294V133M350 133h7v7H350V133M378 133h7v7H378V133M385 133h7v7H385V133M406 133h7v7H406V133M413 133h7v7H413V133M0 140h7v7H0V140M7 140h7v7H7V140M14 140h7v7H14V140M28 140h7v7H28V140M42 140h7v7H42V140M63 140h7v7H63V140M105 140h7v7H105V140M140 140h7v7H140V140M147 140h7v7H147V140M161 140h7v7H161V140M168 140h7v7H168V140M175 140h7v7H175V140M182 140h7v7H182V140M203 140h7v7H203V140M210 140h7v7H210V140M217 140h7v7H217V140M238 140h7v7H238V140M252 140h7v7H252V140M259 140h7v7H259V140M280 140h7v7H280V140M336 140h7v7H336V140M343 140h7v7H343V140M350 140h7v7H350V140M357 140h7v7H357V140M364 140h7v7H364V140M371 140h7v7H371V140M378 140h7v7H378V140M406 140h7v7H406V140M0 147h7v7H0V147M7 147h7v7H7V147M14 147h7v7H14V147M28 147h7v7H28V147M56 147h7v7H56V147M70 147h7v7H70V147M84 147h7v7H84V147M105 147h7v7H105V147M112 147h7v7H112V147M119 147h7v7H119V147M126 147h7v7H126V147M147 147h7v7H147V147M161 147h7v7H161V147M182 147h7v7H182V147M189 147h7v7H189V147M203 147h7v7H203V147M217 147h7v7H217V147M224 147h7v7H224V147M238 147h7v7H238V147M280 147h7v7H280V147M287 147h7v7H287V147M294 147h7v7H294V147M301 147h7v7H301V147M308 147h7v7H308V147M315 147h7v7H315V147M329 147h7v7H329V147M336 147h7v7H336V147M343 147h7v7H343V147M357 147h7v7H357V147M378 147h7v7H378V147M392 147h7v7H392V147M399 147h7v7H399V147M406 147h7v7H406V147M413 147h7v7H413V147M420 147h7v7H420V147M0 154h7v7H0V154M7 154h7v7H7V154M14 154h7v7H14V154M28 154h7v7H28V154M35 154h7v7H35V154M42 154h7v7H42V154M91 154h7v7H91V154M119 154h7v7H119V154M126 154h7v7H126V154M140 154h7v7H140V154M154 154h7v7H154V154M168 154h7v7H168V154M196 154h7v7H196V154M203 154h7v7H203V154M210 154h7v7H210V154M217 154h7v7H217V154M238 154h7v7H238V154M252 154h7v7H252V154M259 154h7v7H259V154M280 154h7v7H280V154M322 154h7v7H322V154M357 154h7v7H357V154M385 154h7v7H385V154M392 154h7v7H392V154M406 154h7v7H406V154M413 154h7v7H413V154M0 161h7v7H0V161M21 161h7v7H21V161M35 161h7v7H35V161M49 161h7v7H49V161M56 161h7v7H56V161M63 161h7v7H63V161M77 161h7v7H77V161M98 161h7v7H98V161M126 161h7v7H126V161M140 161h7v7H140V161M147 161h7v7H147V161M168 161h7v7H168V161M189 161h7v7H189V161M196 161h7v7H196V161M210 161h7v7H210V161M224 161h7v7H224V161M280 161h7v7H280V161M287 161h7v7H287V161M294 161h7v7H294V161M301 161h7v7H301V161M315 161h7v7H315V161M343 161h7v7H343V161M350 161h7v7H350V161M357 161h7v7H357V161M364 161h7v7H364V161M378 161h7v7H378V161M385 161h7v7H385V161M406 161h7v7H406V161M413 161h7v7H413V161M420 161h7v7H420V161M7 168h7v7H7V168M14 168h7v7H14V168M35 168h7v7H35V168M42 168h7v7H42V168M70 168h7v7H70V168M77 168h7v7H77V168M84 168h7v7H84V168M91 168h7v7H91V168M105 168h7v7H105V168M112 168h7v7H112V168M119 168h7v7H119V168M133 168h7v7H133V168M140 168h7v7H140V168M154 168h7v7H154V168M161 168h7v7H161V168M168 168h7v7H168V168M175 168h7v7H175V168M182 168h7v7H182V168M189 168h7v7H189V168M210 168h7v7H210V168M224 168h7v7H224V168M231 168h7v7H231V168M238 168h7v7H238V168M259 168h7v7H259V168M266 168h7v7H266V168M280 168h7v7H280V168M294 168h7v7H294V168M301 168h7v7H301V168M308 168h7v7H308V168M315 168h7v7H315V168M322 168h7v7H322V168M329 168h7v7H329V168M336 168h7v7H336V168M343 168h7v7H343V168M350 168h7v7H350V168M357 168h7v7H357V168M371 168h7v7H371V168M385 168h7v7H385V168M399 168h7v7H399V168M413 168h7v7H413V168M420 168h7v7H420V168M7 175h7v7H7V175M21 175h7v7H21V175M28 175h7v7H28V175M49 175h7v7H49V175M63 175h7v7H63V175M70 175h7v7H70V175M84 175h7v7H84V175M98 175h7v7H98V175M119 175h7v7H119V175M133 175h7v7H133V175M140 175h7v7H140V175M168 175h7v7H168V175M217 175h7v7H217V175M224 175h7v7H224V175M231 175h7v7H231V175M245 175h7v7H245V175M252 175h7v7H252V175M259 175h7v7H259V175M308 175h7v7H308V175M329 175h7v7H329V175M343 175h7v7H343V175M357 175h7v7H357V175M371 175h7v7H371V175M378 175h7v7H378V175M385 175h7v7H385V175M399 175h7v7H399V175M413 175h7v7H413V175M420 175h7v7H420V175M0 182h7v7H0V182M14 182h7v7H14V182M21 182h7v7H21V182M28 182h7v7H28V182M35 182h7v7H35V182M42 182h7v7H42V182M56 182h7v7H56V182M84 182h7v7H84V182M105 182h7v7H105V182M119 182h7v7H119V182M133 182h7v7H133V182M154 182h7v7H154V182M175 182h7v7H175V182M182 182h7v7H182V182M196 182h7v7H196V182M203 182h7v7H203V182M217 182h7v7H217V182M224 182h7v7H224V182M231 182h7v7H231V182M238 182h7v7H238V182M245 182h7v7H245V182M259 182h7v7H259V182M273 182h7v7H273V182M308 182h7v7H308V182M322 182h7v7H322V182M329 182h7v7H329V182M343 182h7v7H343V182M357 182h7v7H357V182M399 182h7v7H399V182M413 182h7v7H413V182M0 189h7v7H0V189M7 189h7v7H7V189M49 189h7v7H49V189M63 189h7v7H63V189M70 189h7v7H70V189M77 189h7v7H77V189M84 189h7v7H84V189M91 189h7v7H91V189M112 189h7v7H112V189M119 189h7v7H119V189M126 189h7v7H126V189M140 189h7v7H140V189M147 189h7v7H147V189M154 189h7v7H154V189M161 189h7v7H161V189M182 189h7v7H182V189M189 189h7v7H189V189M203 189h7v7H203V189M224 189h7v7H224V189M231 189h7v7H231V189M238 189h7v7H238V189M245 189h7v7H245V189M259 189h7v7H259V189M266 189h7v7H266V189M280 189h7v7H280V189M315 189h7v7H315V189M322 189h7v7H322V189M343 189h7v7H343V189M357 189h7v7H357V189M371 189h7v7H371V189M385 189h7v7H385V189M399 189h7v7H399V189M420 189h7v7H420V189M0 196h7v7H0V196M7 196h7v7H7V196M28 196h7v7H28V196M35 196h7v7H35V196M42 196h7v7H42V196M49 196h7v7H49V196M56 196h7v7H56V196M63 196h7v7H63V196M70 196h7v7H70V196M84 196h7v7H84V196M91 196h7v7H91V196M105 196h7v7H105V196M126 196h7v7H126V196M140 196h7v7H140V196M154 196h7v7H154V196M161 196h7v7H161V196M168 196h7v7H168V196M182 196h7v7H182V196M196 196h7v7H196V196M203 196h7v7H203V196M210 196h7v7H210V196M217 196h7v7H217V196M224 196h7v7H224V196M231 196h7v7H231V196M259 196h7v7H259V196M266 196h7v7H266V196M273 196h7v7H273V196M280 196h7v7H280V196M294 196h7v7H294V196M301 196h7v7H301V196M315 196h7v7H315V196M322 196h7v7H322V196M336 196h7v7H336V196M350 196h7v7H350V196M357 196h7v7H357V196M364 196h7v7H364V196M371 196h7v7H371V196M378 196h7v7H378V196M385 196h7v7H385V196M392 196h7v7H392V196M399 196h7v7H399V196M7 203h7v7H7V203M21 203h7v7H21V203M28 203h7v7H28V203M56 203h7v7H56V203M70 203h7v7H70V203M84 203h7v7H84V203M98 203h7v7H98V203M119 203h7v7H119V203M126 203h7v7H126V203M133 203h7v7H133V203M140 203h7v7H140V203M147 203h7v7H147V203M182 203h7v7H182V203M196 203h7v7H196V203M224 203h7v7H224V203M231 203h7v7H231V203M252 203h7v7H252V203M266 203h7v7H266V203M280 203h7v7H280V203M287 203h7v7H287V203M294 203h7v7H294V203M301 203h7v7H301V203M315 203h7v7H315V203M329 203h7v7H329V203M350 203h7v7H350V203M364 203h7v7H364V203M392 203h7v7H392V203M406 203h7v7H406V203M413 203h7v7H413V203M420 203h7v7H420V203M14 210h7v7H14V210M21 210h7v7H21V210M28 210h7v7H28V210M42 210h7v7H42V210M56 210h7v7H56V210M70 210h7v7H70V210M77 210h7v7H77V210M84 210h7v7H84V210M98 210h7v7H98V210M105 210h7v7H105V210M119 210h7v7H119V210M126 210h7v7H126V210M133 210h7v7H133V210M140 210h7v7H140V210M147 210h7v7H147V210M182 210h7v7H182V210M189 210h7v7H189V210M196 210h7v7H196V210M210 210h7v7H210V210M224 210h7v7H224V210M231 210h7v7H231V210M259 210h7v7H259V210M273 210h7v7H273V210M280 210h7v7H280V210M287 210h7v7H287V210M294 210h7v7H294V210M315 210h7v7H315V210M329 210h7v7H329V210M336 210h7v7H336V210M357 210h7v7H357V210M364 210h7v7H364V210M378 210h7v7H378V210M392 210h7v7H392V210M406 210h7v7H406V210M413 210h7v7H413V210M7 217h7v7H7V217M21 217h7v7H21V217M28 217h7v7H28V217M56 217h7v7H56V217M98 217h7v7H98V217M105 217h7v7H105V217M112 217h7v7H112V217M119 217h7v7H119V217M126 217h7v7H126V217M140 217h7v7H140V217M147 217h7v7H147V217M168 217h7v7H168V217M182 217h7v7H182V217M196 217h7v7H196V217M224 217h7v7H224V217M231 217h7v7H231V217M245 217h7v7H245V217M252 217h7v7H252V217M259 217h7v7H259V217M294 217h7v7H294V217M301 217h7v7H301V217M308 217h7v7H308V217M315 217h7v7H315V217M329 217h7v7H329V217M350 217h7v7H350V217M364 217h7v7H364V217M392 217h7v7H392V217M399 217h7v7H399V217M413 217h7v7H413V217M420 217h7v7H420V217M7 224h7v7H7V224M21 224h7v7H21V224M28 224h7v7H28V224M35 224h7v7H35V224M42 224h7v7H42V224M49 224h7v7H49V224M56 224h7v7H56V224M63 224h7v7H63V224M70 224h7v7H70V224M105 224h7v7H105V224M112 224h7v7H112V224M119 224h7v7H119V224M126 224h7v7H126V224M133 224h7v7H133V224M140 224h7v7H140V224M147 224h7v7H147V224M154 224h7v7H154V224M161 224h7v7H161V224M168 224h7v7H168V224M175 224h7v7H175V224M182 224h7v7H182V224M189 224h7v7H189V224M196 224h7v7H196V224M203 224h7v7H203V224M210 224h7v7H210V224M217 224h7v7H217V224M224 224h7v7H224V224M231 224h7v7H231V224M238 224h7v7H238V224M245 224h7v7H245V224M252 224h7v7H252V224M259 224h7v7H259V224M266 224h7v7H266V224M273 224h7v7H273V224M287 224h7v7H287V224M294 224h7v7H294V224M308 224h7v7H308V224M315 224h7v7H315V224M322 224h7v7H322V224M329 224h7v7H329V224M336 224h7v7H336V224M357 224h7v7H357V224M364 224h7v7H364V224M371 224h7v7H371V224M378 224h7v7H378V224M385 224h7v7H385V224M392 224h7v7H392V224M399 224h7v7H399V224M7 231h7v7H7V231M14 231h7v7H14V231M63 231h7v7H63V231M70 231h7v7H70V231M77 231h7v7H77V231M105 231h7v7H105V231M112 231h7v7H112V231M133 231h7v7H133V231M140 231h7v7H140V231M161 231h7v7H161V231M182 231h7v7H182V231M203 231h7v7H203V231M210 231h7v7H210V231M231 231h7v7H231V231M238 231h7v7H238V231M245 231h7v7H245V231M252 231h7v7H252V231M259 231h7v7H259V231M273 231h7v7H273V231M280 231h7v7H280V231M287 231h7v7H287V231M294 231h7v7H294V231M315 231h7v7H315V231M329 231h7v7H329V231M336 231h7v7H336V231M343 231h7v7H343V231M357 231h7v7H357V231M378 231h7v7H378V231M385 231h7v7H385V231M392 231h7v7H392V231M399 231h7v7H399V231M406 231h7v7H406V231M413 231h7v7H413V231M420 231h7v7H420V231M7 238h7v7H7V238M14 238h7v7H14V238M21 238h7v7H21V238M28 238h7v7H28V238M35 238h7v7H35V238M42 238h7v7H42V238M63 238h7v7H63V238M70 238h7v7H70V238M84 238h7v7H84V238M98 238h7v7H98V238M119 238h7v7H119V238M126 238h7v7H126V238M140 238h7v7H140V238M154 238h7v7H154V238M161 238h7v7H161V238M182 238h7v7H182V238M196 238h7v7H196V238M217 238h7v7H217V238M238 238h7v7H238V238M245 238h7v7H245V238M252 238h7v7H252V238M259 238h7v7H259V238M273 238h7v7H273V238M308 238h7v7H308V238M322 238h7v7H322V238M329 238h7v7H329V238M336 238h7v7H336V238M343 238h7v7H343V238M378 238h7v7H378V238M406 238h7v7H406V238M7 245h7v7H7V245M49 245h7v7H49V245M70 245h7v7H70V245M91 245h7v7H91V245M98 245h7v7H98V245M112 245h7v7H112V245M119 245h7v7H119V245M126 245h7v7H126V245M133 245h7v7H133V245M140 245h7v7H140V245M154 245h7v7H154V245M168 245h7v7H168V245M182 245h7v7H182V245M189 245h7v7H189V245M238 245h7v7H238V245M259 245h7v7H259V245M266 245h7v7H266V245M273 245h7v7H273V245M280 245h7v7H280V245M301 245h7v7H301V245M343 245h7v7H343V245M357 245h7v7H357V245M385 245h7v7H385V245M392 245h7v7H392V245M399 245h7v7H399V245M406 245h7v7H406V245M420 245h7v7H420V245M7 252h7v7H7V252M21 252h7v7H21V252M28 252h7v7H28V252M42 252h7v7H42V252M49 252h7v7H49V252M70 252h7v7H70V252M77 252h7v7H77V252M91 252h7v7H91V252M119 252h7v7H119V252M140 252h7v7H140V252M154 252h7v7H154V252M161 252h7v7H161V252M168 252h7v7H168V252M196 252h7v7H196V252M203 252h7v7H203V252M210 252h7v7H210V252M224 252h7v7H224V252M231 252h7v7H231V252M252 252h7v7H252V252M259 252h7v7H259V252M273 252h7v7H273V252M280 252h7v7H280V252M287 252h7v7H287V252M294 252h7v7H294V252M322 252h7v7H322V252M329 252h7v7H329V252M336 252h7v7H336V252M350 252h7v7H350V252M364 252h7v7H364V252M399 252h7v7H399V252M0 259h7v7H0V259M21 259h7v7H21V259M28 259h7v7H28V259M35 259h7v7H35V259M49 259h7v7H49V259M63 259h7v7H63V259M70 259h7v7H70V259M84 259h7v7H84V259M98 259h7v7H98V259M133 259h7v7H133V259M140 259h7v7H140V259M154 259h7v7H154V259M168 259h7v7H168V259M175 259h7v7H175V259M182 259h7v7H182V259M203 259h7v7H203V259M210 259h7v7H210V259M231 259h7v7H231V259M245 259h7v7H245V259M252 259h7v7H252V259M259 259h7v7H259V259M287 259h7v7H287V259M301 259h7v7H301V259M308 259h7v7H308V259M322 259h7v7H322V259M336 259h7v7H336V259M343 259h7v7H343V259M350 259h7v7H350V259M364 259h7v7H364V259M378 259h7v7H378V259M385 259h7v7H385V259M392 259h7v7H392V259M406 259h7v7H406V259M14 266h7v7H14V266M21 266h7v7H21V266M35 266h7v7H35V266M42 266h7v7H42V266M49 266h7v7H49V266M70 266h7v7H70V266M77 266h7v7H77V266M84 266h7v7H84V266M105 266h7v7H105V266M112 266h7v7H112V266M119 266h7v7H119V266M133 266h7v7H133V266M147 266h7v7H147V266M175 266h7v7H175V266M182 266h7v7H182V266M189 266h7v7H189V266M196 266h7v7H196V266M203 266h7v7H203V266M210 266h7v7H210V266M217 266h7v7H217V266M238 266h7v7H238V266M245 266h7v7H245V266M259 266h7v7H259V266M273 266h7v7H273V266M301 266h7v7H301V266M322 266h7v7H322V266M336 266h7v7H336V266M343 266h7v7H343V266M357 266h7v7H357V266M364 266h7v7H364V266M371 266h7v7H371V266M378 266h7v7H378V266M385 266h7v7H385V266M413 266h7v7H413V266M0 273h7v7H0V273M7 273h7v7H7V273M21 273h7v7H21V273M28 273h7v7H28V273M49 273h7v7H49V273M63 273h7v7H63V273M84 273h7v7H84V273M98 273h7v7H98V273M126 273h7v7H126V273M140 273h7v7H140V273M147 273h7v7H147V273M161 273h7v7H161V273M168 273h7v7H168V273M182 273h7v7H182V273M196 273h7v7H196V273M203 273h7v7H203V273M224 273h7v7H224V273M238 273h7v7H238V273M245 273h7v7H245V273M259 273h7v7H259V273M280 273h7v7H280V273M287 273h7v7H287V273M301 273h7v7H301V273M350 273h7v7H350V273M357 273h7v7H357V273M385 273h7v7H385V273M406 273h7v7H406V273M413 273h7v7H413V273M0 280h7v7H0V280M7 280h7v7H7V280M21 280h7v7H21V280M35 280h7v7H35V280M42 280h7v7H42V280M56 280h7v7H56V280M63 280h7v7H63V280M112 280h7v7H112V280M119 280h7v7H119V280M126 280h7v7H126V280M147 280h7v7H147V280M154 280h7v7H154V280M168 280h7v7H168V280M189 280h7v7H189V280M203 280h7v7H203V280M217 280h7v7H217V280M224 280h7v7H224V280M238 280h7v7H238V280M266 280h7v7H266V280M280 280h7v7H280V280M308 280h7v7H308V280M343 280h7v7H343V280M357 280h7v7H357V280M364 280h7v7H364V280M378 280h7v7H378V280M392 280h7v7H392V280M420 280h7v7H420V280M7 287h7v7H7V287M21 287h7v7H21V287M56 287h7v7H56V287M98 287h7v7H98V287M105 287h7v7H105V287M112 287h7v7H112V287M119 287h7v7H119V287M126 287h7v7H126V287M140 287h7v7H140V287M161 287h7v7H161V287M175 287h7v7H175V287M182 287h7v7H182V287M196 287h7v7H196V287M203 287h7v7H203V287M210 287h7v7H210V287M217 287h7v7H217V287M224 287h7v7H224V287M231 287h7v7H231V287M259 287h7v7H259V287M273 287h7v7H273V287M287 287h7v7H287V287M301 287h7v7H301V287M308 287h7v7H308V287M322 287h7v7H322V287M336 287h7v7H336V287M357 287h7v7H357V287M371 287h7v7H371V287M378 287h7v7H378V287M392 287h7v7H392V287M413 287h7v7H413V287M420 287h7v7H420V287M0 294h7v7H0V294M21 294h7v7H21V294M28 294h7v7H28V294M35 294h7v7H35V294M42 294h7v7H42V294M49 294h7v7H49V294M77 294h7v7H77V294M84 294h7v7H84V294M98 294h7v7H98V294M126 294h7v7H126V294M140 294h7v7H140V294M154 294h7v7H154V294M161 294h7v7H161V294M168 294h7v7H168V294M189 294h7v7H189V294M196 294h7v7H196V294M203 294h7v7H203V294M210 294h7v7H210V294M217 294h7v7H217V294M238 294h7v7H238V294M259 294h7v7H259V294M280 294h7v7H280V294M287 294h7v7H287V294M315 294h7v7H315V294M322 294h7v7H322V294M343 294h7v7H343V294M357 294h7v7H357V294M378 294h7v7H378V294M385 294h7v7H385V294M406 294h7v7H406V294M413 294h7v7H413V294M0 301h7v7H0V301M14 301h7v7H14V301M21 301h7v7H21V301M28 301h7v7H28V301M35 301h7v7H35V301M56 301h7v7H56V301M63 301h7v7H63V301M77 301h7v7H77V301M84 301h7v7H84V301M105 301h7v7H105V301M119 301h7v7H119V301M126 301h7v7H126V301M133 301h7v7H133V301M147 301h7v7H147V301M154 301h7v7H154V301M168 301h7v7H168V301M189 301h7v7H189V301M203 301h7v7H203V301M210 301h7v7H210V301M217 301h7v7H217V301M266 301h7v7H266V301M280 301h7v7H280V301M287 301h7v7H287V301M301 301h7v7H301V301M343 301h7v7H343V301M350 301h7v7H350V301M364 301h7v7H364V301M399 301h7v7H399V301M406 301h7v7H406V301M413 301h7v7H413V301M420 301h7v7H420V301M0 308h7v7H0V308M21 308h7v7H21V308M28 308h7v7H28V308M35 308h7v7H35V308M42 308h7v7H42V308M49 308h7v7H49V308M56 308h7v7H56V308M63 308h7v7H63V308M70 308h7v7H70V308M77 308h7v7H77V308M91 308h7v7H91V308M105 308h7v7H105V308M119 308h7v7H119V308M126 308h7v7H126V308M140 308h7v7H140V308M154 308h7v7H154V308M168 308h7v7H168V308M175 308h7v7H175V308M182 308h7v7H182V308M203 308h7v7H203V308M210 308h7v7H210V308M224 308h7v7H224V308M231 308h7v7H231V308M238 308h7v7H238V308M259 308h7v7H259V308M266 308h7v7H266V308M273 308h7v7H273V308M280 308h7v7H280V308M287 308h7v7H287V308M322 308h7v7H322V308M343 308h7v7H343V308M350 308h7v7H350V308M364 308h7v7H364V308M371 308h7v7H371V308M378 308h7v7H378V308M385 308h7v7H385V308M392 308h7v7H392V308M399 308h7v7H399V308M7 315h7v7H7V315M21 315h7v7H21V315M28 315h7v7H28V315M49 315h7v7H49V315M56 315h7v7H56V315M70 315h7v7H70V315M84 315h7v7H84V315M119 315h7v7H119V315M126 315h7v7H126V315M140 315h7v7H140V315M182 315h7v7H182V315M196 315h7v7H196V315M203 315h7v7H203V315M210 315h7v7H210V315M217 315h7v7H217V315M231 315h7v7H231V315M252 315h7v7H252V315M266 315h7v7H266V315M273 315h7v7H273V315M294 315h7v7H294V315M308 315h7v7H308V315M336 315h7v7H336V315M350 315h7v7H350V315M357 315h7v7H357V315M364 315h7v7H364V315M392 315h7v7H392V315M406 315h7v7H406V315M413 315h7v7H413V315M420 315h7v7H420V315M0 322h7v7H0V322M7 322h7v7H7V322M42 322h7v7H42V322M56 322h7v7H56V322M70 322h7v7H70V322M105 322h7v7H105V322M112 322h7v7H112V322M126 322h7v7H126V322M161 322h7v7H161V322M182 322h7v7H182V322M196 322h7v7H196V322M203 322h7v7H203V322M217 322h7v7H217V322M224 322h7v7H224V322M231 322h7v7H231V322M238 322h7v7H238V322M252 322h7v7H252V322M259 322h7v7H259V322M273 322h7v7H273V322M301 322h7v7H301V322M322 322h7v7H322V322M336 322h7v7H336V322M343 322h7v7H343V322M357 322h7v7H357V322M371 322h7v7H371V322M378 322h7v7H378V322M385 322h7v7H385V322M399 322h7v7H399V322M406 322h7v7H406V322M0 329h7v7H0V329M21 329h7v7H21V329M49 329h7v7H49V329M70 329h7v7H70V329M84 329h7v7H84V329M105 329h7v7H105V329M112 329h7v7H112V329M133 329h7v7H133V329M147 329h7v7H147V329M168 329h7v7H168V329M175 329h7v7H175V329M266 329h7v7H266V329M280 329h7v7H280V329M294 329h7v7H294V329M301 329h7v7H301V329M315 329h7v7H315V329M343 329h7v7H343V329M357 329h7v7H357V329M385 329h7v7H385V329M392 329h7v7H392V329M0 336h7v7H0V336M28 336h7v7H28V336M35 336h7v7H35V336M42 336h7v7H42V336M63 336h7v7H63V336M70 336h7v7H70V336M77 336h7v7H77V336M98 336h7v7H98V336M105 336h7v7H105V336M112 336h7v7H112V336M126 336h7v7H126V336M154 336h7v7H154V336M161 336h7v7H161V336M168 336h7v7H168V336M175 336h7v7H175V336M182 336h7v7H182V336M189 336h7v7H189V336M196 336h7v7H196V336M210 336h7v7H210V336M217 336h7v7H217V336M224 336h7v7H224V336M238 336h7v7H238V336M245 336h7v7H245V336M252 336h7v7H252V336M259 336h7v7H259V336M322 336h7v7H322V336M336 336h7v7H336V336M357 336h7v7H357V336M364 336h7v7H364V336M378 336h7v7H378V336M392 336h7v7H392V336M399 336h7v7H399V336M420 336h7v7H420V336M0 343h7v7H0V343M21 343h7v7H21V343M28 343h7v7H28V343M35 343h7v7H35V343M77 343h7v7H77V343M84 343h7v7H84V343M91 343h7v7H91V343M105 343h7v7H105V343M112 343h7v7H112V343M133 343h7v7H133V343M140 343h7v7H140V343M168 343h7v7H168V343M182 343h7v7H182V343M196 343h7v7H196V343M203 343h7v7H203V343M210 343h7v7H210V343M231 343h7v7H231V343M245 343h7v7H245V343M252 343h7v7H252V343M266 343h7v7H266V343M280 343h7v7H280V343M294 343h7v7H294V343M301 343h7v7H301V343M308 343h7v7H308V343M350 343h7v7H350V343M378 343h7v7H378V343M385 343h7v7H385V343M392 343h7v7H392V343M406 343h7v7H406V343M413 343h7v7H413V343M420 343h7v7H420V343M14 350h7v7H14V350M21 350h7v7H21V350M28 350h7v7H28V350M35 350h7v7H35V350M42 350h7v7H42V350M70 350h7v7H70V350M84 350h7v7H84V350M98 350h7v7H98V350M112 350h7v7H112V350M119 350h7v7H119V350M147 350h7v7H147V350M168 350h7v7H168V350M189 350h7v7H189V350M196 350h7v7H196V350M203 350h7v7H203V350M231 350h7v7H231V350M245 350h7v7H245V350M252 350h7v7H252V350M266 350h7v7H266V350M280 350h7v7H280V350M294 350h7v7H294V350M301 350h7v7H301V350M308 350h7v7H308V350M336 350h7v7H336V350M343 350h7v7H343V350M350 350h7v7H350V350M392 350h7v7H392V350M406 350h7v7H406V350M413 350h7v7H413V350M420 350h7v7H420V350M0 357h7v7H0V357M7 357h7v7H7V357M14 357h7v7H14V357M28 357h7v7H28V357M56 357h7v7H56V357M63 357h7v7H63V357M77 357h7v7H77V357M105 357h7v7H105V357M119 357h7v7H119V357M133 357h7v7H133V357M154 357h7v7H154V357M161 357h7v7H161V357M189 357h7v7H189V357M196 357h7v7H196V357M203 357h7v7H203V357M231 357h7v7H231V357M252 357h7v7H252V357M259 357h7v7H259V357M266 357h7v7H266V357M273 357h7v7H273V357M308 357h7v7H308V357M315 357h7v7H315V357M322 357h7v7H322V357M336 357h7v7H336V357M350 357h7v7H350V357M357 357h7v7H357V357M413 357h7v7H413V357M0 364h7v7H0V364M7 364h7v7H7V364M14 364h7v7H14V364M21 364h7v7H21V364M42 364h7v7H42V364M49 364h7v7H49V364M63 364h7v7H63V364M84 364h7v7H84V364M98 364h7v7H98V364M105 364h7v7H105V364M112 364h7v7H112V364M140 364h7v7H140V364M161 364h7v7H161V364M168 364h7v7H168V364M182 364h7v7H182V364M196 364h7v7H196V364M203 364h7v7H203V364M210 364h7v7H210V364M217 364h7v7H217V364M224 364h7v7H224V364M238 364h7v7H238V364M245 364h7v7H245V364M252 364h7v7H252V364M259 364h7v7H259V364M266 364h7v7H266V364M273 364h7v7H273V364M287 364h7v7H287V364M294 364h7v7H294V364M308 364h7v7H308V364M322 364h7v7H322V364M329 364h7v7H329V364M336 364h7v7H336V364M343 364h7v7H343V364M364 364h7v7H364V364M371 364h7v7H371V364M378 364h7v7H378V364M385 364h7v7H385V364M392 364h7v7H392V364M399 364h7v7H399V364M420 364h7v7H420V364M56 371h7v7H56V371M63 371h7v7H63V371M70 371h7v7H70V371M84 371h7v7H84V371M91 371h7v7H91V371M112 371h7v7H112V371M119 371h7v7H119V371M133 371h7v7H133V371M140 371h7v7H140V371M161 371h7v7H161V371M168 371h7v7H168V371M182 371h7v7H182V371M189 371h7v7H189V371M196 371h7v7H196V371M224 371h7v7H224V371M245 371h7v7H245V371M252 371h7v7H252V371M259 371h7v7H259V371M280 371h7v7H280V371M294 371h7v7H294V371M308 371h7v7H308V371M336 371h7v7H336V371M350 371h7v7H350V371M357 371h7v7H357V371M364 371h7v7H364V371M392 371h7v7H392V371M406 371h7v7H406V371M413 371h7v7H413V371M420 371h7v7H420V371M0 378h7v7H0V378M7 378h7v7H7V378M14 378h7v7H14V378M21 378h7v7H21V378M28 378h7v7H28V378M35 378h7v7H35V378M42 378h7v7H42V378M56 378h7v7H56V378M63 378h7v7H63V378M70 378h7v7H70V378M77 378h7v7H77V378M84 378h7v7H84V378M91 378h7v7H91V378M133 378h7v7H133V378M140 378h7v7H140V378M154 378h7v7H154V378M175 378h7v7H175V378M182 378h7v7H182V378M189 378h7v7H189V378M196 378h7v7H196V378M210 378h7v7H210V378M224 378h7v7H224V378M238 378h7v7H238V378M245 378h7v7H245V378M259 378h7v7H259V378M273 378h7v7H273V378M280 378h7v7H280V378M308 378h7v7H308V378M322 378h7v7H322V378M329 378h7v7H329V378M343 378h7v7H343V378M357 378h7v7H357V378M364 378h7v7H364V378M378 378h7v7H378V378M392 378h7v7H392V378M406 378h7v7H406V378M413 378h7v7H413V378M0 385h7v7H0V385M42 385h7v7H42V385M70 385h7v7H70V385M84 385h7v7H84V385M98 385h7v7H98V385M119 385h7v7H119V385M133 385h7v7H133V385M147 385h7v7H147V385M168 385h7v7H168V385M196 385h7v7H196V385M224 385h7v7H224V385M231 385h7v7H231V385M238 385h7v7H238V385M266 385h7v7H266V385M280 385h7v7H280V385M301 385h7v7H301V385M315 385h7v7H315V385M343 385h7v7H343V385M357 385h7v7H357V385M364 385h7v7H364V385M392 385h7v7H392V385M413 385h7v7H413V385M0 392h7v7H0V392M14 392h7v7H14V392M21 392h7v7H21V392M28 392h7v7H28V392M42 392h7v7H42V392M56 392h7v7H56V392M77 392h7v7H77V392M84 392h7v7H84V392M98 392h7v7H98V392M105 392h7v7H105V392M126 392h7v7H126V392M133 392h7v7H133V392M140 392h7v7H140V392M161 392h7v7H161V392M168 392h7v7H168V392M182 392h7v7H182V392M189 392h7v7H189V392M196 392h7v7H196V392M203 392h7v7H203V392M210 392h7v7H210V392M217 392h7v7H217V392M224 392h7v7H224V392M252 392h7v7H252V392M259 392h7v7H259V392M266 392h7v7H266V392M273 392h7v7H273V392M280 392h7v7H280V392M294 392h7v7H294V392M301 392h7v7H301V392M308 392h7v7H308V392M329 392h7v7H329V392M336 392h7v7H336V392M343 392h7v7H343V392M357 392h7v7H357V392M364 392h7v7H364V392M371 392h7v7H371V392M378 392h7v7H378V392M385 392h7v7H385V392M392 392h7v7H392V392M399 392h7v7H399V392M413 392h7v7H413V392M0 399h7v7H0V399M14 399h7v7H14V399M21 399h7v7H21V399M28 399h7v7H28V399M42 399h7v7H42V399M63 399h7v7H63V399M70 399h7v7H70V399M84 399h7v7H84V399M98 399h7v7H98V399M112 399h7v7H112V399M126 399h7v7H126V399M133 399h7v7H133V399M161 399h7v7H161V399M175 399h7v7H175V399M182 399h7v7H182V399M189 399h7v7H189V399M210 399h7v7H210V399M217 399h7v7H217V399M224 399h7v7H224V399M231 399h7v7H231V399M245 399h7v7H245V399M252 399h7v7H252V399M273 399h7v7H273V399M280 399h7v7H280V399M287 399h7v7H287V399M294 399h7v7H294V399M301 399h7v7H301V399M308 399h7v7H308V399M315 399h7v7H315V399M329 399h7v7H329V399M336 399h7v7H336V399M343 399h7v7H343V399M357 399h7v7H357V399M371 399h7v7H371V399M378 399h7v7H378V399M385 399h7v7H385V399M392 399h7v7H392V399M399 399h7v7H399V399M420 399h7v7H420V399M0 406h7v7H0V406M14 406h7v7H14V406M21 406h7v7H21V406M28 406h7v7H28V406M42 406h7v7H42V406M63 406h7v7H63V406M77 406h7v7H77V406M84 406h7v7H84V406M98 406h7v7H98V406M105 406h7v7H105V406M119 406h7v7H119V406M147 406h7v7H147V406M154 406h7v7H154V406M161 406h7v7H161V406M203 406h7v7H203V406M238 406h7v7H238V406M245 406h7v7H245V406M273 406h7v7H273V406M301 406h7v7H301V406M308 406h7v7H308V406M322 406h7v7H322V406M329 406h7v7H329V406M336 406h7v7H336V406M371 406h7v7H371V406M378 406h7v7H378V406M406 406h7v7H406V406M413 406h7v7H413V406M0 413h7v7H0V413M42 413h7v7H42V413M63 413h7v7H63V413M77 413h7v7H77V413M98 413h7v7H98V413M119 413h7v7H119V413M133 413h7v7H133V413M147 413h7v7H147V413M168 413h7v7H168V413M175 413h7v7H175V413M196 413h7v7H196V413M210 413h7v7H210V413M217 413h7v7H217V413M231 413h7v7H231V413M238 413h7v7H238V413M259 413h7v7H259V413M280 413h7v7H280V413M294 413h7v7H294V413M301 413h7v7H301V413M364 413h7v7H364V413M385 413h7v7H385V413M392 413h7v7H392V413M406 413h7v7H406V413M413 413h7v7H413V413M0 420h7v7H0V420M7 420h7v7H7V420M14 420h7v7H14V420M21 420h7v7H21V420M28 420h7v7H28V420M35 420h7v7H35V420M42 420h7v7H42V420M56 420h7v7H56V420M63 420h7v7H63V420M70 420h7v7H70V420M91 420h7v7H91V420M105 420h7v7H105V420M112 420h7v7H112V420M126 420h7v7H126V420M140 420h7v7H140V420M161 420h7v7H161V420M168 420h7v7H168V420M175 420h7v7H175V420M182 420h7v7H182V420M189 420h7v7H189V420M224 420h7v7H224V420M231 420h7v7H231V420M245 420h7v7H245V420M259 420h7v7H259V420M266 420h7v7H266V420M294 420h7v7H294V420M301 420h7v7H301V420M308 420h7v7H308V420M315 420h7v7H315V420M336 420h7v7H336V420M357 420h7v7H357V420M371 420h7v7H371V420M378 420h7v7H378V420M385 420h7v7H385V420M413 420h7v7H413V420M420 420h7v7H420V420"/></svg>
