<?xml version="1.0" standalone="yes"?><svg xmlns="http://www.w3.org/2000/svg" version="1.1" width="424" height="424" viewBox="0 0 424 424" shape-rendering="crispEdges"><rect x="0" y="0" width="424" height="424" fill="#fff"/><path fill="#000" d="M0 0h8v8H0V0M8 0h8v8H8V0M16 0h8v8H16V0M24 0h8v8H24V0M32 0h8v8H32V0M40 0h8v8H40V0M48 0h8v8H48V0M80 0h8v8H80V0M104 0h8v8H104V0M120 0h8v8H120V0M136 0h8v8H136V0M152 0h8v8H152V0M160 0h8v8H160V0M176 0h8v8H176V0M184 0h8v8H184V0M192 0h8v8H192V0M200 0h8v8H200V0M208 0h8v8H208V0M216 0h8v8H216V0M224 0h8v8H224V0M240 0h8v8H240V0M248 0h8v8H248V0M272 0h8v8H272V0M280 0h8v8H280V0M288 0h8v8H288V0M320 0h8v8H320V0M336 0h8v8H336V0M368 0h8v8H368V0M376 0h8v8H376V0M384 0h8v8H384V0M392 0h8v8H392V0M400 0h8v8H400V0M408 0h8v8H408V0M416 0h8v8H416V0M0 8h8v8H0V8M48 8h8v8H48V8M64 8h8v8H64V8M72 8h8v8H72V8M88 8h8v8H88V8M96 8h8v8H96V8M104 8h8v8H104V8M112 8h8v8H112V8M120 8h8v8H120V8M128 8h8v8H128V8M144 8h8v8H144V8M160 8h8v8H160V8M168 8h8v8H168V8M184 8h8v8H184V8M192 8h8v8H192V8M200 8h8v8H200V8M232 8h8v8H232V8M240 8h8v8H240V8M256 8h8v8H256V8M320 8h8v8H320V8M328 8h8v8H328V8M336 8h8v8H336V8M344 8h8v8H344V8M368 8h8v8H368V8M416 8h8v8H416V8M0 16h8v8H0V16M16 16h8v8H16V16M24 16h8v8H24V16M32 16h8v8H32V16M48 16h8v8H48V16M64 16h8v8H64V16M88 16h8v8H88V16M96 16h8v8H96V16M104 16h8v8H104V16M112 16h8v8H112V16M136 16h8v8H136V16M144 16h8v8H144V16M168 16h8v8H168V16M192 16h8v8H192V16M224 16h8v8H224V16M232 16h8v8H232V16M256 16h8v8H256V16M264 16h8v8H264V16M272 16h8v8H272V16M312 16h8v8H312V16M344 16h8v8H344V16M368 16h8v8H368V16M384 16h8v8H384V16M392 16h8v8H392V16M400 16h8v8H400V16M416 16h8v8H416V16M0 24h8v8H0V24M16 24h8v8H16V24M24 24h8v8H24V24M32 24h8v8H32V24M48 24h8v8H48V24M64 24h8v8H64V24M80 24h8v8H80V24M96 24h8v8H96V24M104 24h8v8H104V24M120 24h8v8H120V24M128 24h8v8H128V24M136 24h8v8H136V24M152 24h8v8H152V24M160 24h8v8H160V24M168 24h8v8H168V24M176 24h8v8H176V24M200 24h8v8H200V24M208 24h8v8H208V24M240 24h8v8H240V24M248 24h8v8H248V24M256 24h8v8H256V24M264 24h8v8H264V24M272 24h8v8H272V24M312 24h8v8H312V24M320 24h8v8H320V24M336 24h8v8H336V24M352 24h8v8H352V24M368 24h8v8H368V24M384 24h8v8H384V24M392 24h8v8H392V24M400 24h8v8H400V24M416 24h8v8H416V24M0 32h8v8H0V32M16 32h8v8H16V32M24 32h8v8H24V32M32 32h8v8H32V32M48 32h8v8H48V32M72 32h8v8H72V32M88 32h8v8H88V32M104 32h8v8H104V32M120 32h8v8H120V32M136 32h8v8H136V32M144 32h8v8H144V32M192 32h8v8H192V32M200 32h8v8H200V32M208 32h8v8H208V32M216 32h8v8H216V32M224 32h8v8H224V32M232 32h8v8H232V32M248 32h8v8H248V32M256 32h8v8H256V32M336 32h8v8H336V32M368 32h8v8H368V32M384 32h8v8H384V32M392 32h8v8H392V32M400 32h8v8H400V32M416 32h8v8H416V32M0 40h8v8H0V40M48 40h8v8H48V40M72 40h8v8H72V40M80 40h8v8H80V40M88 40h8v8H88V40M104 40h8v8H104V40M128 40h8v8H128V40M136 40h8v8H136V40M160 40h8v8H160V40M184 40h8v8H184V40M192 40h8v8H192V40M224 40h8v8H224V40M272 40h8v8H272V40M296 40h8v8H296V40M304 40h8v8H304V40M312 40h8v8H312V40M320 40h8v8H320V40M336 40h8v8H336V40M368 40h8v8H368V40M416 40h8v8H416V40M0 48h8v8H0V48M8 48h8v8H8V48M16 48h8v8H16V48M24 48h8v8H24V48M32 48h8v8H32V48M40 48h8v8H40V48M48 48h8v8H48V48M64 48h8v8H64V48M80 48h8v8H80V48M96 48h8v8H96V48M112 48h8v8H112V48M128 48h8v8H128V48M144 48h8v8H144V48M160 48h8v8H160V48M176 48h8v8H176V48M192 48h8v8H192V48M208 48h8v8H208V48M224 48h8v8H224V48M240 48h8v8H240V48M256 48h8v8H256V48M272 48h8v8H272V48M288 48h8v8H288V48M304 48h8v8H304V48M320 48h8v8H320V48M336 48h8v8H336V48M352 48h8v8H352V48M368 48h8v8H368V48M376 48h8v8H376V48M384 48h8v8H384V48M392 48h8v8H392V48M400 48h8v8H400V48M408 48h8v8H408V48M416 48h8v8H416V48M64 56h8v8H64V56M128 56h8v8H128V56M152 56h8v8H152V56M160 56h8v8H160V56M176 56h8v8H176V56M184 56h8v8H184V56M192 56h8v8H192V56M224 56h8v8H224V56M264 56h8v8H264V56M288 56h8v8H288V56M296 56h8v8H296V56M304 56h8v8H304V56M328 56h8v8H328V56M336 56h8v8H336V56M344 56h8v8H344V56M352 56h8v8H352V56M0 64h8v8H0V64M48 64h8v8H48V64M64 64h8v8H64V64M80 64h8v8H80V64M88 64h8v8H88V64M96 64h8v8H96V64M104 64h8v8H104V64M120 64h8v8H120V64M128 64h8v8H128V64M136 64h8v8H136V64M144 64h8v8H144V64M192 64h8v8H192V64M200 64h8v8H200V64M208 64h8v8H208V64M216 64h8v8H216V64M224 64h8v8H224V64M240 64h8v8H240V64M248 64h8v8H248V64M256 64h8v8H256V64M264 64h8v8H264V64M272 64h8v8H272V64M304 64h8v8H304V64M312 64h8v8H312V64M320 64h8v8H320V64M328 64h8v8H328V64M360 64h8v8H360V64M368 64h8v8H368V64M392 64h8v8H392V64M400 64h8v8H400V64M408 64h8v8H408V64M8 72h8v8H8V72M16 72h8v8H16V72M24 72h8v8H24V72M32 72h8v8H32V72M80 72h8v8H80V72M88 72h8v8H88V72M96 72h8v8H96V72M112 72h8v8H112V72M128 72h8v8H128V72M152 72h8v8H152V72M160 72h8v8H160V72M184 72h8v8H184V72M200 72h8v8H200V72M208 72h8v8H208V72M224 72h8v8H224V72M272 72h8v8H272V72M280 72h8v8H280V72M288 72h8v8H288V72M296 72h8v8H296V72M304 72h8v8H304V72M312 72h8v8H312V72M320 72h8v8H320V72M328 72h8v8H328V72M336 72h8v8H336V72M360 72h8v8H360V72M368 72h8v8H368V72M400 72h8v8H400V72M0 80h8v8H0V80M24 80h8v8H24V80M48 80h8v8H48V80M112 80h8v8H112V80M144 80h8v8H144V80M152 80h8v8H152V80M208 80h8v8H208V80M224 80h8v8H224V80M240 80h8v8H240V80M248 80h8v8H248V80M256 80h8v8H256V80M264 80h8v8H264V80M272 80h8v8H272V80M320 80h8v8H320V80M328 80h8v8H328V80M352 80h8v8H352V80M384 80h8v8H384V80M400 80h8v8H400V80M8 88h8v8H8V88M32 88h8v8H32V88M40 88h8v8H40V88M56 88h8v8H56V88M64 88h8v8H64V88M72 88h8v8H72V88M80 88h8v8H80V88M88 88h8v8H88V88M96 88h8v8H96V88M104 88h8v8H104V88M128 88h8v8H128V88M136 88h8v8H136V88M152 88h8v8H152V88M160 88h8v8H160V88M176 88h8v8H176V88M200 88h8v8H200V88M224 88h8v8H224V88M240 88h8v8H240V88M256 88h8v8H256V88M272 88h8v8H272V88M304 88h8v8H304V88M344 88h8v8H344V88M352 88h8v8H352V88M360 88h8v8H360V88M384 88h8v8H384V88M392 88h8v8H392V88M408 88h8v8H408V88M416 88h8v8H416V88M0 96h8v8H0V96M8 96h8v8H8V96M16 96h8v8H16V96M24 96h8v8H24V96M32 96h8v8H32V96M40 96h8v8H40V96M48 96h8v8H48V96M80 96h8v8H80V96M88 96h8v8H88V96M104 96h8v8H104V96M120 96h8v8H120V96M144 96h8v8H144V96M152 96h8v8H152V96M160 96h8v8H160V96M176 96h8v8H176V96M192 96h8v8H192V96M200 96h8v8H200V96M208 96h8v8H208V96M240 96h8v8H240V96M264 96h8v8H264V96M288 96h8v8H288V96M304 96h8v8H304V96M320 96h8v8H320V96M328 96h8v8H328V96M336 96h8v8H336V96M344 96h8v8H344V96M360 96h8v8H360V96M368 96h8v8H368V96M408 96h8v8H408V96M416 96h8v8H416V96M8 104h8v8H8V104M24 104h8v8H24V104M32 104h8v8H32V104M40 104h8v8H40V104M64 104h8v8H64V104M72 104h8v8H72V104M80 104h8v8H80V104M88 104h8v8H88V104M96 104h8v8H96V104M128 104h8v8H128V104M136 104h8v8H136V104M160 104h8v8H160V104M216 104h8v8H216V104M240 104h8v8H240V104M256 104h8v8H256V104M264 104h8v8H264V104M288 104h8v8H288V104M296 104h8v8H296V104M320 104h8v8H320V104M328 104h8v8H328V104M336 104h8v8H336V104M360 104h8v8H360V104M0 112h8v8H0V112M8 112h8v8H8V112M24 112h8v8H24V112M32 112h8v8H32V112M40 112h8v8H40V112M48 112h8v8H48V112M56 112h8v8H56V112M64 112h8v8H64V112M72 112h8v8H72V112M96 112h8v8H96V112M152 112h8v8H152V112M160 112h8v8H160V112M176 112h8v8H176V112M184 112h8v8H184V112M192 112h8v8H192V112M200 112h8v8H200V112M208 112h8v8H208V112M232 112h8v8H232V112M240 112h8v8H240V112M248 112h8v8H248V112M256 112h8v8H256V112M264 112h8v8H264V112M272 112h8v8H272V112M312 112h8v8H312V112M320 112h8v8H320V112M336 112h8v8H336V112M344 112h8v8H344V112M352 112h8v8H352V112M360 112h8v8H360V112M392 112h8v8H392V112M16 120h8v8H16V120M104 120h8v8H104V120M112 120h8v8H112V120M120 120h8v8H120V120M128 120h8v8H128V120M144 120h8v8H144V120M152 120h8v8H152V120M168 120h8v8H168V120M176 120h8v8H176V120M184 120h8v8H184V120M192 120h8v8H192V120M200 120h8v8H200V120M208 120h8v8H208V120M264 120h8v8H264V120M272 120h8v8H272V120M280 120h8v8H280V120M288 120h8v8H288V120M296 120h8v8H296V120M312 120h8v8H312V120M352 120h8v8H352V120M392 120h8v8H392V120M400 120h8v8H400V120M416 120h8v8H416V120M16 128h8v8H16V128M48 128h8v8H48V128M72 128h8v8H72V128M80 128h8v8H80V128M88 128h8v8H88V128M104 128h8v8H104V128M120 128h8v8H120V128M128 128h8v8H128V128M152 128h8v8H152V128M168 128h8v8H168V128M176 128h8v8H176V128M184 128h8v8H184V128M208 128h8v8H208V128M216 128h8v8H216V128M240 128h8v8H240V128M256 128h8v8H256V128M272 128h8v8H272V128M280 128h8v8H280V128M288 128h8v8H288V128M312 128h8v8H312V128M336 128h8v8H336V128M344 128h8v8H344V128M352 128h8v8H352V128M368 128h8v8H368V128M376 128h8v8H376V128M416 128h8v8H416V128M0 136h8v8H0V136M56 136h8v8H56V136M88 136h8v8H88V136M104 136h8v8H104V136M120 136h8v8H120V136M128 136h8v8H128V136M144 136h8v8H144V136M176 136h8v8H176V136M184 136h8v8H184V136M192 136h8v8H192V136M208 136h8v8H208V136M216 136h8v8H216V136M232 136h8v8H232V136M240 136h8v8H240V136M256 136h8v8H256V136M272 136h8v8H272V136M280 136h8v8H280V136M304 136h8v8H304V136M312 136h8v8H312V136M336 136h8v8H336V136M360 136h8v8H360V136M384 136h8v8H384V136M392 136h8v8H392V136M400 136h8v8H400V136M16 144h8v8H16V144M24 144h8v8H24V144M40 144h8v8H40V144M48 144h8v8H48V144M56 144h8v8H56V144M64 144h8v8H64V144M72 144h8v8H72V144M80 144h8v8H80V144M88 144h8v8H88V144M112 144h8v8H112V144M144 144h8v8H144V144M152 144h8v8H152V144M160 144h8v8H160V144M184 144h8v8H184V144M200 144h8v8H200V144M208 144h8v8H208V144M224 144h8v8H224V144M232 144h8v8H232V144M264 144h8v8H264V144M288 144h8v8H288V144M296 144h8v8H296V144M312 144h8v8H312V144M320 144h8v8H320V144M352 144h8v8H352V144M376 144h8v8H376V144M392 144h8v8H392V144M400 144h8v8H400V144M416 144h8v8H416V144M24 152h8v8H24V152M32 152h8v8H32V152M88 152h8v8H88V152M120 152h8v8H120V152M160 152h8v8H160V152M176 152h8v8H176V152M184 152h8v8H184V152M192 152h8v8H192V152M200 152h8v8H200V152M208 152h8v8H208V152M248 152h8v8H248V152M256 152h8v8H256V152M280 152h8v8H280V152M304 152h8v8H304V152M368 152h8v8H368V152M384 152h8v8H384V152M24 160h8v8H24V160M40 160h8v8H40V160M48 160h8v8H48V160M64 160h8v8H64V160M72 160h8v8H72V160M96 160h8v8H96V160M104 160h8v8H104V160M112 160h8v8H112V160M152 160h8v8H152V160M176 160h8v8H176V160M208 160h8v8H208V160M248 160h8v8H248V160M280 160h8v8H280V160M288 160h8v8H288V160M296 160h8v8H296V160M312 160h8v8H312V160M336 160h8v8H336V160M344 160h8v8H344V160M376 160h8v8H376V160M384 160h8v8H384V160M400 160h8v8H400V160M416 160h8v8H416V160M0 168h8v8H0V168M8 168h8v8H8V168M16 168h8v8H16V168M56 168h8v8H56V168M72 168h8v8H72V168M88 168h8v8H88V168M96 168h8v8H96V168M112 168h8v8H112V168M120 168h8v8H120V168M128 168h8v8H128V168M136 168h8v8H136V168M144 168h8v8H144V168M152 168h8v8H152V168M176 168h8v8H176V168M200 168h8v8H200V168M208 168h8v8H208V168M224 168h8v8H224V168M240 168h8v8H240V168M248 168h8v8H248V168M256 168h8v8H256V168M264 168h8v8H264V168M272 168h8v8H272V168M304 168h8v8H304V168M312 168h8v8H312V168M336 168h8v8H336V168M344 168h8v8H344V168M352 168h8v8H352V168M384 168h8v8H384V168M392 168h8v8H392V168M416 168h8v8H416V168M16 176h8v8H16V176M40 176h8v8H40V176M48 176h8v8H48V176M72 176h8v8H72V176M80 176h8v8H80V176M120 176h8v8H120V176M128 176h8v8H128V176M136 176h8v8H136V176M144 176h8v8H144V176M152 176h8v8H152V176M160 176h8v8H160V176M168 176h8v8H168V176M192 176h8v8H192V176M208 176h8v8H208V176M224 176h8v8H224V176M232 176h8v8H232V176M264 176h8v8H264V176M312 176h8v8H312V176M320 176h8v8H320V176M360 176h8v8H360V176M368 176h8v8H368V176M384 176h8v8H384V176M400 176h8v8H400V176M16 184h8v8H16V184M32 184h8v8H32V184M40 184h8v8H40V184M64 184h8v8H64V184M72 184h8v8H72V184M88 184h8v8H88V184M104 184h8v8H104V184M120 184h8v8H120V184M152 184h8v8H152V184M160 184h8v8H160V184M176 184h8v8H176V184M184 184h8v8H184V184M208 184h8v8H208V184M224 184h8v8H224V184M232 184h8v8H232V184M320 184h8v8H320V184M344 184h8v8H344V184M360 184h8v8H360V184M376 184h8v8H376V184M384 184h8v8H384V184M0 192h8v8H0V192M32 192h8v8H32V192M40 192h8v8H40V192M48 192h8v8H48V192M56 192h8v8H56V192M64 192h8v8H64V192M72 192h8v8H72V192M104 192h8v8H104V192M128 192h8v8H128V192M136 192h8v8H136V192M144 192h8v8H144V192M152 192h8v8H152V192M160 192h8v8H160V192M176 192h8v8H176V192M184 192h8v8H184V192M192 192h8v8H192V192M200 192h8v8H200V192M208 192h8v8H208V192M216 192h8v8H216V192M224 192h8v8H224V192M240 192h8v8H240V192M256 192h8v8H256V192M272 192h8v8H272V192M280 192h8v8H280V192M296 192h8v8H296V192M312 192h8v8H312V192M320 192h8v8H320V192M328 192h8v8H328V192M336 192h8v8H336V192M344 192h8v8H344V192M352 192h8v8H352V192M360 192h8v8H360V192M368 192h8v8H368V192M376 192h8v8H376V192M384 192h8v8H384V192M392 192h8v8H392V192M400 192h8v8H400V192M408 192h8v8H408V192M0 200h8v8H0V200M16 200h8v8H16V200M24 200h8v8H24V200M32 200h8v8H32V200M64 200h8v8H64V200M72 200h8v8H72V200M80 200h8v8H80V200M88 200h8v8H88V200M120 200h8v8H120V200M136 200h8v8H136V200M152 200h8v8H152V200M160 200h8v8H160V200M184 200h8v8H184V200M192 200h8v8H192V200M224 200h8v8H224V200M248 200h8v8H248V200M256 200h8v8H256V200M264 200h8v8H264V200M288 200h8v8H288V200M296 200h8v8H296V200M328 200h8v8H328V200M344 200h8v8H344V200M352 200h8v8H352V200M384 200h8v8H384V200M400 200h8v8H400V200M16 208h8v8H16V208M32 208h8v8H32V208M48 208h8v8H48V208M64 208h8v8H64V208M72 208h8v8H72V208M80 208h8v8H80V208M96 208h8v8H96V208M112 208h8v8H112V208M120 208h8v8H120V208M152 208h8v8H152V208M184 208h8v8H184V208M192 208h8v8H192V208M208 208h8v8H208V208M224 208h8v8H224V208M240 208h8v8H240V208M248 208h8v8H248V208M264 208h8v8H264V208M296 208h8v8H296V208M312 208h8v8H312V208M320 208h8v8H320V208M352 208h8v8H352V208M368 208h8v8H368V208M384 208h8v8H384V208M392 208h8v8H392V208M8 216h8v8H8V216M16 216h8v8H16V216M32 216h8v8H32V216M64 216h8v8H64V216M96 216h8v8H96V216M104 216h8v8H104V216M112 216h8v8H112V216M120 216h8v8H120V216M128 216h8v8H128V216M152 216h8v8H152V216M160 216h8v8H160V216M168 216h8v8H168V216M184 216h8v8H184V216M192 216h8v8H192V216M224 216h8v8H224V216M248 216h8v8H248V216M256 216h8v8H256V216M264 216h8v8H264V216M272 216h8v8H272V216M304 216h8v8H304V216M320 216h8v8H320V216M336 216h8v8H336V216M344 216h8v8H344V216M352 216h8v8H352V216M384 216h8v8H384V216M392 216h8v8H392V216M400 216h8v8H400V216M0 224h8v8H0V224M8 224h8v8H8V224M32 224h8v8H32V224M40 224h8v8H40V224M48 224h8v8H48V224M56 224h8v8H56V224M64 224h8v8H64V224M80 224h8v8H80V224M88 224h8v8H88V224M104 224h8v8H104V224M128 224h8v8H128V224M144 224h8v8H144V224M160 224h8v8H160V224M192 224h8v8H192V224M200 224h8v8H200V224M208 224h8v8H208V224M216 224h8v8H216V224M224 224h8v8H224V224M232 224h8v8H232V224M264 224h8v8H264V224M272 224h8v8H272V224M296 224h8v8H296V224M304 224h8v8H304V224M312 224h8v8H312V224M336 224h8v8H336V224M352 224h8v8H352V224M360 224h8v8H360V224M368 224h8v8H368V224M376 224h8v8H376V224M384 224h8v8H384V224M416 224h8v8H416V224M0 232h8v8H0V232M24 232h8v8H24V232M40 232h8v8H40V232M72 232h8v8H72V232M80 232h8v8H80V232M120 232h8v8H120V232M144 232h8v8H144V232M184 232h8v8H184V232M192 232h8v8H192V232M208 232h8v8H208V232M216 232h8v8H216V232M224 232h8v8H224V232M240 232h8v8H240V232M248 232h8v8H248V232M272 232h8v8H272V232M296 232h8v8H296V232M320 232h8v8H320V232M328 232h8v8H328V232M336 232h8v8H336V232M352 232h8v8H352V232M368 232h8v8H368V232M376 232h8v8H376V232M384 232h8v8H384V232M8 240h8v8H8V240M24 240h8v8H24V240M32 240h8v8H32V240M40 240h8v8H40V240M48 240h8v8H48V240M80 240h8v8H80V240M88 240h8v8H88V240M96 240h8v8H96V240M104 240h8v8H104V240M112 240h8v8H112V240M152 240h8v8H152V240M168 240h8v8H168V240M184 240h8v8H184V240M192 240h8v8H192V240M216 240h8v8H216V240M224 240h8v8H224V240M232 240h8v8H232V240M248 240h8v8H248V240M256 240h8v8H256V240M264 240h8v8H264V240M288 240h8v8H288V240M296 240h8v8H296V240M304 240h8v8H304V240M312 240h8v8H312V240M328 240h8v8H328V240M352 240h8v8H352V240M376 240h8v8H376V240M392 240h8v8H392V240M416 240h8v8H416V240M0 248h8v8H0V248M32 248h8v8H32V248M64 248h8v8H64V248M80 248h8v8H80V248M88 248h8v8H88V248M96 248h8v8H96V248M136 248h8v8H136V248M152 248h8v8H152V248M184 248h8v8H184V248M192 248h8v8H192V248M208 248h8v8H208V248M232 248h8v8H232V248M256 248h8v8H256V248M264 248h8v8H264V248M296 248h8v8H296V248M304 248h8v8H304V248M312 248h8v8H312V248M320 248h8v8H320V248M336 248h8v8H336V248M368 248h8v8H368V248M376 248h8v8H376V248M384 248h8v8H384V248M408 248h8v8H408V248M416 248h8v8H416V248M16 256h8v8H16V256M24 256h8v8H24V256M32 256h8v8H32V256M48 256h8v8H48V256M72 256h8v8H72V256M80 256h8v8H80V256M88 256h8v8H88V256M96 256h8v8H96V256M112 256h8v8H112V256M120 256h8v8H120V256M152 256h8v8H152V256M168 256h8v8H168V256M176 256h8v8H176V256M184 256h8v8H184V256M192 256h8v8H192V256M200 256h8v8H200V256M208 256h8v8H208V256M224 256h8v8H224V256M248 256h8v8H248V256M264 256h8v8H264V256M272 256h8v8H272V256M280 256h8v8H280V256M288 256h8v8H288V256M328 256h8v8H328V256M336 256h8v8H336V256M352 256h8v8H352V256M360 256h8v8H360V256M376 256h8v8H376V256M392 256h8v8H392V256M400 256h8v8H400V256M408 256h8v8H408V256M416 256h8v8H416V256M8 264h8v8H8V264M16 264h8v8H16V264M56 264h8v8H56V264M72 264h8v8H72V264M96 264h8v8H96V264M104 264h8v8H104V264M112 264h8v8H112V264M120 264h8v8H120V264M128 264h8v8H128V264M144 264h8v8H144V264M152 264h8v8H152V264M160 264h8v8H160V264M176 264h8v8H176V264M184 264h8v8H184V264M208 264h8v8H208V264M232 264h8v8H232V264M256 264h8v8H256V264M264 264h8v8H264V264M272 264h8v8H272V264M296 264h8v8H296V264M312 264h8v8H312V264M320 264h8v8H320V264M328 264h8v8H328V264M336 264h8v8H336V264M344 264h8v8H344V264M384 264h8v8H384V264M416 264h8v8H416V264M8 272h8v8H8V272M16 272h8v8H16V272M24 272h8v8H24V272M32 272h8v8H32V272M48 272h8v8H48V272M56 272h8v8H56V272M72 272h8v8H72V272M112 272h8v8H112V272M120 272h8v8H120V272M128 272h8v8H128V272M136 272h8v8H136V272M144 272h8v8H144V272M160 272h8v8H160V272M168 272h8v8H168V272M176 272h8v8H176V272M184 272h8v8H184V272M192 272h8v8H192V272M200 272h8v8H200V272M216 272h8v8H216V272M224 272h8v8H224V272M240 272h8v8H240V272M248 272h8v8H248V272M256 272h8v8H256V272M264 272h8v8H264V272M280 272h8v8H280V272M288 272h8v8H288V272M304 272h8v8H304V272M312 272h8v8H312V272M336 272h8v8H336V272M344 272h8v8H344V272M352 272h8v8H352V272M376 272h8v8H376V272M400 272h8v8H400V272M408 272h8v8H408V272M416 272h8v8H416V272M8 280h8v8H8V280M24 280h8v8H24V280M32 280h8v8H32V280M40 280h8v8H40V280M56 280h8v8H56V280M64 280h8v8H64V280M80 280h8v8H80V280M120 280h8v8H120V280M128 280h8v8H128V280M136 280h8v8H136V280M160 280h8v8H160V280M200 280h8v8H200V280M208 280h8v8H208V280M216 280h8v8H216V280M240 280h8v8H240V280M280 280h8v8H280V280M296 280h8v8H296V280M304 280h8v8H304V280M312 280h8v8H312V280M320 280h8v8H320V280M328 280h8v8H328V280M336 280h8v8H336V280M352 280h8v8H352V280M360 280h8v8H360V280M384 280h8v8H384V280M392 280h8v8H392V280M8 288h8v8H8V288M16 288h8v8H16V288M24 288h8v8H24V288M40 288h8v8H40V288M48 288h8v8H48V288M56 288h8v8H56V288M64 288h8v8H64V288M72 288h8v8H72V288M88 288h8v8H88V288M96 288h8v8H96V288M128 288h8v8H128V288M136 288h8v8H136V288M144 288h8v8H144V288M160 288h8v8H160V288M200 288h8v8H200V288M208 288h8v8H208V288M216 288h8v8H216V288M224 288h8v8H224V288M240 288h8v8H240V288M264 288h8v8H264V288M272 288h8v8H272V288M288 288h8v8H288V288M304 288h8v8H304V288M312 288h8v8H312V288M320 288h8v8H320V288M336 288h8v8H336V288M352 288h8v8H352V288M376 288h8v8H376V288M408 288h8v8H408V288M0 296h8v8H0V296M16 296h8v8H16V296M32 296h8v8H32V296M40 296h8v8H40V296M88 296h8v8H88V296M120 296h8v8H120V296M128 296h8v8H128V296M136 296h8v8H136V296M176 296h8v8H176V296M184 296h8v8H184V296M200 296h8v8H200V296M208 296h8v8H208V296M216 296h8v8H216V296M224 296h8v8H224V296M232 296h8v8H232V296M240 296h8v8H240V296M248 296h8v8H248V296M280 296h8v8H280V296M288 296h8v8H288V296M296 296h8v8H296V296M304 296h8v8H304V296M312 296h8v8H312V296M320 296h8v8H320V296M328 296h8v8H328V296M336 296h8v8H336V296M400 296h8v8H400V296M16 304h8v8H16V304M24 304h8v8H24V304M32 304h8v8H32V304M40 304h8v8H40V304M48 304h8v8H48V304M80 304h8v8H80V304M88 304h8v8H88V304M96 304h8v8H96V304M104 304h8v8H104V304M112 304h8v8H112V304M120 304h8v8H120V304M152 304h8v8H152V304M168 304h8v8H168V304M208 304h8v8H208V304M216 304h8v8H216V304M248 304h8v8H248V304M256 304h8v8H256V304M264 304h8v8H264V304M288 304h8v8H288V304M304 304h8v8H304V304M328 304h8v8H328V304M336 304h8v8H336V304M344 304h8v8H344V304M352 304h8v8H352V304M384 304h8v8H384V304M16 312h8v8H16V312M24 312h8v8H24V312M32 312h8v8H32V312M40 312h8v8H40V312M56 312h8v8H56V312M72 312h8v8H72V312M80 312h8v8H80V312M120 312h8v8H120V312M144 312h8v8H144V312M152 312h8v8H152V312M168 312h8v8H168V312M176 312h8v8H176V312M184 312h8v8H184V312M200 312h8v8H200V312M216 312h8v8H216V312M224 312h8v8H224V312M240 312h8v8H240V312M248 312h8v8H248V312M264 312h8v8H264V312M272 312h8v8H272V312M288 312h8v8H288V312M296 312h8v8H296V312M320 312h8v8H320V312M328 312h8v8H328V312M344 312h8v8H344V312M352 312h8v8H352V312M360 312h8v8H360V312M368 312h8v8H368V312M376 312h8v8H376V312M400 312h8v8H400V312M408 312h8v8H408V312M416 312h8v8H416V312M0 320h8v8H0V320M8 320h8v8H8V320M24 320h8v8H24V320M48 320h8v8H48V320M56 320h8v8H56V320M64 320h8v8H64V320M72 320h8v8H72V320M88 320h8v8H88V320M96 320h8v8H96V320M104 320h8v8H104V320M128 320h8v8H128V320M136 320h8v8H136V320M160 320h8v8H160V320M168 320h8v8H168V320M192 320h8v8H192V320M200 320h8v8H200V320M240 320h8v8H240V320M280 320h8v8H280V320M288 320h8v8H288V320M304 320h8v8H304V320M320 320h8v8H320V320M328 320h8v8H328V320M336 320h8v8H336V320M384 320h8v8H384V320M400 320h8v8H400V320M416 320h8v8H416V320M8 328h8v8H8V328M40 328h8v8H40V328M56 328h8v8H56V328M88 328h8v8H88V328M128 328h8v8H128V328M136 328h8v8H136V328M160 328h8v8H160V328M168 328h8v8H168V328M184 328h8v8H184V328M208 328h8v8H208V328M232 328h8v8H232V328M240 328h8v8H240V328M256 328h8v8H256V328M264 328h8v8H264V328M280 328h8v8H280V328M320 328h8v8H320V328M336 328h8v8H336V328M344 328h8v8H344V328M360 328h8v8H360V328M384 328h8v8H384V328M392 328h8v8H392V328M400 328h8v8H400V328M416 328h8v8H416V328M0 336h8v8H0V336M8 336h8v8H8V336M24 336h8v8H24V336M32 336h8v8H32V336M40 336h8v8H40V336M48 336h8v8H48V336M80 336h8v8H80V336M88 336h8v8H88V336M96 336h8v8H96V336M120 336h8v8H120V336M144 336h8v8H144V336M152 336h8v8H152V336M160 336h8v8H160V336M184 336h8v8H184V336M192 336h8v8H192V336M200 336h8v8H200V336M232 336h8v8H232V336M240 336h8v8H240V336M248 336h8v8H248V336M256 336h8v8H256V336M264 336h8v8H264V336M288 336h8v8H288V336M296 336h8v8H296V336M304 336h8v8H304V336M312 336h8v8H312V336M328 336h8v8H328V336M352 336h8v8H352V336M368 336h8v8H368V336M376 336h8v8H376V336M392 336h8v8H392V336M400 336h8v8H400V336M416 336h8v8H416V336M8 344h8v8H8V344M16 344h8v8H16V344M56 344h8v8H56V344M64 344h8v8H64V344M72 344h8v8H72V344M80 344h8v8H80V344M96 344h8v8H96V344M104 344h8v8H104V344M152 344h8v8H152V344M160 344h8v8H160V344M168 344h8v8H168V344M184 344h8v8H184V344M200 344h8v8H200V344M208 344h8v8H208V344M216 344h8v8H216V344M288 344h8v8H288V344M320 344h8v8H320V344M328 344h8v8H328V344M352 344h8v8H352V344M368 344h8v8H368V344M376 344h8v8H376V344M384 344h8v8H384V344M400 344h8v8H400V344M408 344h8v8H408V344M24 352h8v8H24V352M48 352h8v8H48V352M72 352h8v8H72V352M80 352h8v8H80V352M88 352h8v8H88V352M96 352h8v8H96V352M104 352h8v8H104V352M136 352h8v8H136V352M160 352h8v8H160V352M176 352h8v8H176V352M192 352h8v8H192V352M200 352h8v8H200V352M208 352h8v8H208V352M216 352h8v8H216V352M224 352h8v8H224V352M232 352h8v8H232V352M240 352h8v8H240V352M248 352h8v8H248V352M280 352h8v8H280V352M288 352h8v8H288V352M296 352h8v8H296V352M312 352h8v8H312V352M320 352h8v8H320V352M328 352h8v8H328V352M336 352h8v8H336V352M352 352h8v8H352V352M360 352h8v8H360V352M368 352h8v8H368V352M376 352h8v8H376V352M384 352h8v8H384V352M408 352h8v8H408V352M416 352h8v8H416V352M64 360h8v8H64V360M88 360h8v8H88V360M120 360h8v8H120V360M128 360h8v8H128V360M160 360h8v8H160V360M176 360h8v8H176V360M184 360h8v8H184V360M192 360h8v8H192V360M224 360h8v8H224V360M248 360h8v8H248V360M256 360h8v8H256V360M272 360h8v8H272V360M280 360h8v8H280V360M288 360h8v8H288V360M296 360h8v8H296V360M304 360h8v8H304V360M320 360h8v8H320V360M328 360h8v8H328V360M336 360h8v8H336V360M344 360h8v8H344V360M352 360h8v8H352V360M384 360h8v8H384V360M392 360h8v8H392V360M400 360h8v8H400V360M416 360h8v8H416V360M0 368h8v8H0V368M8 368h8v8H8V368M16 368h8v8H16V368M24 368h8v8H24V368M32 368h8v8H32V368M40 368h8v8H40V368M48 368h8v8H48V368M72 368h8v8H72V368M80 368h8v8H80V368M96 368h8v8H96V368M112 368h8v8H112V368M120 368h8v8H120V368M128 368h8v8H128V368M152 368h8v8H152V368M160 368h8v8H160V368M176 368h8v8H176V368M192 368h8v8H192V368M208 368h8v8H208V368M224 368h8v8H224V368M272 368h8v8H272V368M296 368h8v8H296V368M304 368h8v8H304V368M312 368h8v8H312V368M320 368h8v8H320V368M352 368h8v8H352V368M368 368h8v8H368V368M384 368h8v8H384V368M392 368h8v8H392V368M0 376h8v8H0V376M48 376h8v8H48V376M80 376h8v8H80V376M104 376h8v8H104V376M112 376h8v8H112V376M128 376h8v8H128V376M144 376h8v8H144V376M160 376h8v8H160V376M176 376h8v8H176V376M192 376h8v8H192V376M224 376h8v8H224V376M232 376h8v8H232V376M264 376h8v8H264V376M272 376h8v8H272V376M288 376h8v8H288V376M328 376h8v8H328V376M344 376h8v8H344V376M352 376h8v8H352V376M384 376h8v8H384V376M392 376h8v8H392V376M408 376h8v8H408V376M0 384h8v8H0V384M16 384h8v8H16V384M24 384h8v8H24V384M32 384h8v8H32V384M48 384h8v8H48V384M72 384h8v8H72V384M88 384h8v8H88V384M112 384h8v8H112V384M120 384h8v8H120V384M184 384h8v8H184V384M192 384h8v8H192V384M200 384h8v8H200V384M208 384h8v8H208V384M216 384h8v8H216V384M224 384h8v8H224V384M240 384h8v8H240V384M264 384h8v8H264V384M312 384h8v8H312V384M328 384h8v8H328V384M336 384h8v8H336V384M344 384h8v8H344V384M352 384h8v8H352V384M360 384h8v8H360V384M368 384h8v8H368V384M376 384h8v8H376V384M384 384h8v8H384V384M392 384h8v8H392V384M400 384h8v8H400V384M408 384h8v8H408V384M416 384h8v8H416V384M0 392h8v8H0V392M16 392h8v8H16V392M24 392h8v8H24V392M32 392h8v8H32V392M48 392h8v8H48V392M72 392h8v8H72V392M88 392h8v8H88V392M112 392h8v8H112V392M120 392h8v8H120V392M128 392h8v8H128V392M136 392h8v8H136V392M152 392h8v8H152V392M184 392h8v8H184V392M192 392h8v8H192V392M216 392h8v8H216V392M232 392h8v8H232V392M240 392h8v8H240V392M256 392h8v8H256V392M296 392h8v8H296V392M328 392h8v8H328V392M336 392h8v8H336V392M352 392h8v8H352V392M368 392h8v8H368V392M0 400h8v8H0V400M16 400h8v8H16V400M24 400h8v8H24V400M32 400h8v8H32V400M48 400h8v8H48V400M80 400h8v8H80V400M104 400h8v8H104V400M112 400h8v8H112V400M120 400h8v8H120V400M144 400h8v8H144V400M152 400h8v8H152V400M168 400h8v8H168V400M192 400h8v8H192V400M216 400h8v8H216V400M224 400h8v8H224V400M240 400h8v8H240V400M248 400h8v8H248V400M256 400h8v8H256V400M264 400h8v8H264V400M296 400h8v8H296V400M304 400h8v8H304V400M312 400h8v8H312V400M328 400h8v8H328V400M336 400h8v8H336V400M352 400h8v8H352V400M368 400h8v8H368V400M384 400h8v8H384V400M400 400h8v8H400V400M0 408h8v8H0V408M48 408h8v8H48V408M88 408h8v8H88V408M96 408h8v8H96V408M128 408h8v8H128V408M144 408h8v8H144V408M160 408h8v8H160V408M192 408h8v8H192V408M200 408h8v8H200V408M216 408h8v8H216V408M224 408h8v8H224V408M240 408h8v8H240V408M264 408h8v8H264V408M296 408h8v8H296V408M312 408h8v8H312V408M320 408h8v8H320V408M328 408h8v8H328V408M344 408h8v8H344V408M352 408h8v8H352V408M368 408h8v8H368V408M376 408h8v8H376V408M384 408h8v8H384V408M392 408h8v8H392V408M400 408h8v8H400V408M416 408h8v8H416V408M0 416h8v8H0V416M8 416h8v8H8V416M16 416h8v8H16V416M24 416h8v8H24V416M32 416h8v8H32V416M40 416h8v8H40V416M48 416h8v8H48V416M64 416h8v8H64V416M72 416h8v8H72V416M104 416h8v8H104V416M120 416h8v8H120V416M128 416h8v8H128V416M136 416h8v8H136V416M144 416h8v8H144V416M160 416h8v8H160V416M168 416h8v8H168V416M176 416h8v8H176V416M216 416h8v8H216V416M232 416h8v8H232V416M240 416h8v8H240V416M264 416h8v8H264V416M280 416h8v8H280V416M288 416h8v8H288V416M328 416h8v8H328V416M336 416h8v8H336V416M344 416h8v8H344V416M352 416h8v8H352V416M360 416h8v8H360V416M376 416h8v8H376V416M384 416h8v8H384V416M392 416h8v8H392V416"/></svg>
