<?xml version="1.0" standalone="yes"?><svg xmlns="http://www.w3.org/2000/svg" version="1.1" width="427" height="427" viewBox="0 0 427 427" shape-rendering="crispEdges"><rect x="0" y="0" width="427" height="427" fill="#fff"/><path fill="#000" d="M0 0h7v7H0V0M7 0h7v7H7V0M14 0h7v7H14V0M21 0h7v7H21V0M28 0h7v7H28V0M35 0h7v7H35V0M42 0h7v7H42V0M56 0h7v7H56V0M63 0h7v7H63V0M77 0h7v7H77V0M98 0h7v7H98V0M105 0h7v7H105V0M119 0h7v7H119V0M140 0h7v7H140V0M161 0h7v7H161V0M175 0h7v7H175V0M182 0h7v7H182V0M203 0h7v7H203V0M210 0h7v7H210V0M224 0h7v7H224V0M231 0h7v7H231V0M245 0h7v7H245V0M252 0h7v7H252V0M259 0h7v7H259V0M266 0h7v7H266V0M287 0h7v7H287V0M308 0h7v7H308V0M315 0h7v7H315V0M357 0h7v7H357V0M364 0h7v7H364V0M378 0h7v7H378V0M385 0h7v7H385V0M392 0h7v7H392V0M399 0h7v7H399V0M406 0h7v7H406V0M413 0h7v7H413V0M420 0h7v7H420V0M0 7h7v7H0V7M42 7h7v7H42V7M63 7h7v7H63V7M70 7h7v7H70V7M98 7h7v7H98V7M105 7h7v7H105V7M112 7h7v7H112V7M126 7h7v7H126V7M147 7h7v7H147V7M154 7h7v7H154V7M168 7h7v7H168V7M175 7h7v7H175V7M196 7h7v7H196V7M210 7h7v7H210V7M231 7h7v7H231V7M238 7h7v7H238V7M259 7h7v7H259V7M294 7h7v7H294V7M308 7h7v7H308V7M315 7h7v7H315V7M336 7h7v7H336V7M357 7h7v7H357V7M364 7h7v7H364V7M378 7h7v7H378V7M420 7h7v7H420V7M0 14h7v7H0V14M14 14h7v7H14V14M21 14h7v7H21V14M28 14h7v7H28V14M42 14h7v7H42V14M56 14h7v7H56V14M63 14h7v7H63V14M84 14h7v7H84V14M91 14h7v7H91V14M98 14h7v7H98V14M112 14h7v7H112V14M119 14h7v7H119V14M133 14h7v7H133V14M147 14h7v7H147V14M161 14h7v7H161V14M168 14h7v7H168V14M182 14h7v7H182V14M210 14h7v7H210V14M224 14h7v7H224V14M245 14h7v7H245V14M252 14h7v7H252V14M266 14h7v7H266V14M280 14h7v7H280V14M294 14h7v7H294V14M308 14h7v7H308V14M315 14h7v7H315V14M322 14h7v7H322V14M336 14h7v7H336V14M350 14h7v7H350V14M357 14h7v7H357V14M364 14h7v7H364V14M378 14h7v7H378V14M392 14h7v7H392V14M399 14h7v7H399V14M406 14h7v7H406V14M420 14h7v7H420V14M0 21h7v7H0V21M14 21h7v7H14V21M21 21h7v7H21V21M28 21h7v7H28V21M42 21h7v7H42V21M63 21h7v7H63V21M70 21h7v7H70V21M77 21h7v7H77V21M91 21h7v7H91V21M112 21h7v7H112V21M154 21h7v7H154V21M161 21h7v7H161V21M168 21h7v7H168V21M196 21h7v7H196V21M210 21h7v7H210V21M238 21h7v7H238V21M259 21h7v7H259V21M273 21h7v7H273V21M294 21h7v7H294V21M301 21h7v7H301V21M322 21h7v7H322V21M350 21h7v7H350V21M364 21h7v7H364V21M378 21h7v7H378V21M392 21h7v7H392V21M399 21h7v7H399V21M406 21h7v7H406V21M420 21h7v7H420V21M0 28h7v7H0V28M14 28h7v7H14V28M21 28h7v7H21V28M28 28h7v7H28V28M42 28h7v7H42V28M77 28h7v7H77V28M91 28h7v7H91V28M98 28h7v7H98V28M112 28h7v7H112V28M126 28h7v7H126V28M133 28h7v7H133V28M140 28h7v7H140V28M147 28h7v7H147V28M154 28h7v7H154V28M161 28h7v7H161V28M175 28h7v7H175V28M182 28h7v7H182V28M189 28h7v7H189V28M196 28h7v7H196V28M203 28h7v7H203V28M210 28h7v7H210V28M217 28h7v7H217V28M224 28h7v7H224V28M245 28h7v7H245V28M252 28h7v7H252V28M259 28h7v7H259V28M266 28h7v7H266V28M287 28h7v7H287V28M315 28h7v7H315V28M322 28h7v7H322V28M329 28h7v7H329V28M350 28h7v7H350V28M357 28h7v7H357V28M378 28h7v7H378V28M392 28h7v7H392V28M399 28h7v7H399V28M406 28h7v7H406V28M420 28h7v7H420V28M0 35h7v7H0V35M42 35h7v7H42V35M56 35h7v7H56V35M63 35h7v7H63V35M119 35h7v7H119V35M126 35h7v7H126V35M182 35h7v7H182V35M196 35h7v7H196V35M224 35h7v7H224V35M252 35h7v7H252V35M266 35h7v7H266V35M280 35h7v7H280V35M287 35h7v7H287V35M308 35h7v7H308V35M315 35h7v7H315V35M322 35h7v7H322V35M350 35h7v7H350V35M378 35h7v7H378V35M420 35h7v7H420V35M0 42h7v7H0V42M7 42h7v7H7V42M14 42h7v7H14V42M21 42h7v7H21V42M28 42h7v7H28V42M35 42h7v7H35V42M42 42h7v7H42V42M56 42h7v7H56V42M70 42h7v7H70V42M84 42h7v7H84V42M98 42h7v7H98V42M112 42h7v7H112V42M126 42h7v7H126V42M140 42h7v7H140V42M154 42h7v7H154V42M168 42h7v7H168V42M182 42h7v7H182V42M196 42h7v7H196V42M210 42h7v7H210V42M224 42h7v7H224V42M238 42h7v7H238V42M252 42h7v7H252V42M266 42h7v7H266V42M280 42h7v7H280V42M294 42h7v7H294V42M308 42h7v7H308V42M322 42h7v7H322V42M336 42h7v7H336V42M350 42h7v7H350V42M364 42h7v7H364V42M378 42h7v7H378V42M385 42h7v7H385V42M392 42h7v7H392V42M399 42h7v7H399V42M406 42h7v7H406V42M413 42h7v7H413V42M420 42h7v7H420V42M70 49h7v7H70V49M91 49h7v7H91V49M119 49h7v7H119V49M126 49h7v7H126V49M140 49h7v7H140V49M154 49h7v7H154V49M175 49h7v7H175V49M182 49h7v7H182V49M189 49h7v7H189V49M196 49h7v7H196V49M224 49h7v7H224V49M231 49h7v7H231V49M245 49h7v7H245V49M259 49h7v7H259V49M266 49h7v7H266V49M273 49h7v7H273V49M301 49h7v7H301V49M329 49h7v7H329V49M350 49h7v7H350V49M364 49h7v7H364V49M0 56h7v7H0V56M14 56h7v7H14V56M42 56h7v7H42V56M49 56h7v7H49V56M63 56h7v7H63V56M70 56h7v7H70V56M77 56h7v7H77V56M126 56h7v7H126V56M140 56h7v7H140V56M154 56h7v7H154V56M161 56h7v7H161V56M168 56h7v7H168V56M175 56h7v7H175V56M182 56h7v7H182V56M196 56h7v7H196V56M203 56h7v7H203V56M210 56h7v7H210V56M217 56h7v7H217V56M224 56h7v7H224V56M231 56h7v7H231V56M245 56h7v7H245V56M280 56h7v7H280V56M294 56h7v7H294V56M315 56h7v7H315V56M329 56h7v7H329V56M336 56h7v7H336V56M350 56h7v7H350V56M357 56h7v7H357V56M385 56h7v7H385V56M406 56h7v7H406V56M420 56h7v7H420V56M7 63h7v7H7V63M21 63h7v7H21V63M28 63h7v7H28V63M49 63h7v7H49V63M56 63h7v7H56V63M63 63h7v7H63V63M70 63h7v7H70V63M77 63h7v7H77V63M91 63h7v7H91V63M98 63h7v7H98V63M112 63h7v7H112V63M140 63h7v7H140V63M147 63h7v7H147V63M154 63h7v7H154V63M196 63h7v7H196V63M224 63h7v7H224V63M231 63h7v7H231V63M259 63h7v7H259V63M280 63h7v7H280V63M301 63h7v7H301V63M308 63h7v7H308V63M315 63h7v7H315V63M336 63h7v7H336V63M343 63h7v7H343V63M364 63h7v7H364V63M371 63h7v7H371V63M378 63h7v7H378V63M392 63h7v7H392V63M413 63h7v7H413V63M0 70h7v7H0V70M7 70h7v7H7V70M21 70h7v7H21V70M28 70h7v7H28V70M35 70h7v7H35V70M42 70h7v7H42V70M56 70h7v7H56V70M70 70h7v7H70V70M84 70h7v7H84V70M91 70h7v7H91V70M98 70h7v7H98V70M105 70h7v7H105V70M112 70h7v7H112V70M133 70h7v7H133V70M140 70h7v7H140V70M147 70h7v7H147V70M161 70h7v7H161V70M175 70h7v7H175V70M189 70h7v7H189V70M217 70h7v7H217V70M224 70h7v7H224V70M231 70h7v7H231V70M238 70h7v7H238V70M259 70h7v7H259V70M273 70h7v7H273V70M280 70h7v7H280V70M301 70h7v7H301V70M315 70h7v7H315V70M329 70h7v7H329V70M350 70h7v7H350V70M357 70h7v7H357V70M378 70h7v7H378V70M385 70h7v7H385V70M392 70h7v7H392V70M406 70h7v7H406V70M0 77h7v7H0V77M14 77h7v7H14V77M21 77h7v7H21V77M35 77h7v7H35V77M56 77h7v7H56V77M63 77h7v7H63V77M91 77h7v7H91V77M112 77h7v7H112V77M126 77h7v7H126V77M140 77h7v7H140V77M147 77h7v7H147V77M154 77h7v7H154V77M161 77h7v7H161V77M175 77h7v7H175V77M210 77h7v7H210V77M217 77h7v7H217V77M231 77h7v7H231V77M238 77h7v7H238V77M266 77h7v7H266V77M287 77h7v7H287V77M301 77h7v7H301V77M308 77h7v7H308V77M322 77h7v7H322V77M329 77h7v7H329V77M343 77h7v7H343V77M364 77h7v7H364V77M378 77h7v7H378V77M413 77h7v7H413V77M420 77h7v7H420V77M0 84h7v7H0V84M14 84h7v7H14V84M28 84h7v7H28V84M35 84h7v7H35V84M42 84h7v7H42V84M56 84h7v7H56V84M98 84h7v7H98V84M105 84h7v7H105V84M112 84h7v7H112V84M126 84h7v7H126V84M140 84h7v7H140V84M147 84h7v7H147V84M161 84h7v7H161V84M168 84h7v7H168V84M175 84h7v7H175V84M182 84h7v7H182V84M196 84h7v7H196V84M210 84h7v7H210V84M231 84h7v7H231V84M252 84h7v7H252V84M280 84h7v7H280V84M287 84h7v7H287V84M294 84h7v7H294V84M308 84h7v7H308V84M336 84h7v7H336V84M350 84h7v7H350V84M364 84h7v7H364V84M392 84h7v7H392V84M406 84h7v7H406V84M413 84h7v7H413V84M0 91h7v7H0V91M28 91h7v7H28V91M35 91h7v7H35V91M56 91h7v7H56V91M63 91h7v7H63V91M70 91h7v7H70V91M91 91h7v7H91V91M105 91h7v7H105V91M112 91h7v7H112V91M133 91h7v7H133V91M147 91h7v7H147V91M161 91h7v7H161V91M182 91h7v7H182V91M196 91h7v7H196V91M203 91h7v7H203V91M210 91h7v7H210V91M231 91h7v7H231V91M245 91h7v7H245V91M252 91h7v7H252V91M266 91h7v7H266V91M273 91h7v7H273V91M280 91h7v7H280V91M301 91h7v7H301V91M308 91h7v7H308V91M329 91h7v7H329V91M343 91h7v7H343V91M357 91h7v7H357V91M364 91h7v7H364V91M378 91h7v7H378V91M385 91h7v7H385V91M399 91h7v7H399V91M406 91h7v7H406V91M413 91h7v7H413V91M14 98h7v7H14V98M21 98h7v7H21V98M28 98h7v7H28V98M42 98h7v7H42V98M56 98h7v7H56V98M70 98h7v7H70V98M98 98h7v7H98V98M105 98h7v7H105V98M175 98h7v7H175V98M182 98h7v7H182V98M196 98h7v7H196V98M203 98h7v7H203V98M217 98h7v7H217V98M231 98h7v7H231V98M238 98h7v7H238V98M245 98h7v7H245V98M266 98h7v7H266V98M280 98h7v7H280V98M294 98h7v7H294V98M308 98h7v7H308V98M322 98h7v7H322V98M336 98h7v7H336V98M350 98h7v7H350V98M357 98h7v7H357V98M378 98h7v7H378V98M385 98h7v7H385V98M399 98h7v7H399V98M406 98h7v7H406V98M413 98h7v7H413V98M0 105h7v7H0V105M21 105h7v7H21V105M28 105h7v7H28V105M49 105h7v7H49V105M77 105h7v7H77V105M84 105h7v7H84V105M91 105h7v7H91V105M98 105h7v7H98V105M112 105h7v7H112V105M126 105h7v7H126V105M147 105h7v7H147V105M154 105h7v7H154V105M161 105h7v7H161V105M168 105h7v7H168V105M182 105h7v7H182V105M203 105h7v7H203V105M217 105h7v7H217V105M224 105h7v7H224V105M231 105h7v7H231V105M245 105h7v7H245V105M259 105h7v7H259V105M280 105h7v7H280V105M294 105h7v7H294V105M301 105h7v7H301V105M308 105h7v7H308V105M315 105h7v7H315V105M336 105h7v7H336V105M364 105h7v7H364V105M371 105h7v7H371V105M378 105h7v7H378V105M385 105h7v7H385V105M392 105h7v7H392V105M406 105h7v7H406V105M0 112h7v7H0V112M7 112h7v7H7V112M14 112h7v7H14V112M42 112h7v7H42V112M49 112h7v7H49V112M56 112h7v7H56V112M70 112h7v7H70V112M77 112h7v7H77V112M84 112h7v7H84V112M105 112h7v7H105V112M112 112h7v7H112V112M133 112h7v7H133V112M140 112h7v7H140V112M147 112h7v7H147V112M161 112h7v7H161V112M175 112h7v7H175V112M196 112h7v7H196V112M217 112h7v7H217V112M231 112h7v7H231V112M238 112h7v7H238V112M245 112h7v7H245V112M252 112h7v7H252V112M266 112h7v7H266V112M273 112h7v7H273V112M294 112h7v7H294V112M301 112h7v7H301V112M315 112h7v7H315V112M322 112h7v7H322V112M329 112h7v7H329V112M336 112h7v7H336V112M343 112h7v7H343V112M364 112h7v7H364V112M371 112h7v7H371V112M378 112h7v7H378V112M385 112h7v7H385V112M413 112h7v7H413V112M420 112h7v7H420V112M21 119h7v7H21V119M28 119h7v7H28V119M49 119h7v7H49V119M98 119h7v7H98V119M105 119h7v7H105V119M112 119h7v7H112V119M126 119h7v7H126V119M133 119h7v7H133V119M161 119h7v7H161V119M168 119h7v7H168V119M175 119h7v7H175V119M182 119h7v7H182V119M203 119h7v7H203V119M217 119h7v7H217V119M245 119h7v7H245V119M266 119h7v7H266V119M273 119h7v7H273V119M308 119h7v7H308V119M322 119h7v7H322V119M336 119h7v7H336V119M343 119h7v7H343V119M378 119h7v7H378V119M7 126h7v7H7V126M14 126h7v7H14V126M21 126h7v7H21V126M35 126h7v7H35V126M42 126h7v7H42V126M49 126h7v7H49V126M63 126h7v7H63V126M112 126h7v7H112V126M119 126h7v7H119V126M133 126h7v7H133V126M147 126h7v7H147V126M161 126h7v7H161V126M175 126h7v7H175V126M182 126h7v7H182V126M189 126h7v7H189V126M196 126h7v7H196V126M203 126h7v7H203V126M210 126h7v7H210V126M245 126h7v7H245V126M252 126h7v7H252V126M266 126h7v7H266V126M280 126h7v7H280V126M294 126h7v7H294V126M301 126h7v7H301V126M308 126h7v7H308V126M322 126h7v7H322V126M329 126h7v7H329V126M336 126h7v7H336V126M350 126h7v7H350V126M357 126h7v7H357V126M371 126h7v7H371V126M420 126h7v7H420V126M7 133h7v7H7V133M21 133h7v7H21V133M28 133h7v7H28V133M35 133h7v7H35V133M49 133h7v7H49V133M56 133h7v7H56V133M70 133h7v7H70V133M77 133h7v7H77V133M98 133h7v7H98V133M112 133h7v7H112V133M126 133h7v7H126V133M133 133h7v7H133V133M154 133h7v7H154V133M168 133h7v7H168V133M175 133h7v7H175V133M196 133h7v7H196V133M231 133h7v7H231V133M252 133h7v7H252V133M259 133h7v7H259V133M266 133h7v7H266V133M280 133h7v7H280V133M294 133h7v7H294V133M301 133h7v7H301V133M315 133h7v7H315V133M322 133h7v7H322V133M329 133h7v7H329V133M336 133h7v7H336V133M343 133h7v7H343V133M350 133h7v7H350V133M357 133h7v7H357V133M364 133h7v7H364V133M371 133h7v7H371V133M385 133h7v7H385V133M392 133h7v7H392V133M399 133h7v7H399V133M35 140h7v7H35V140M42 140h7v7H42V140M98 140h7v7H98V140M105 140h7v7H105V140M112 140h7v7H112V140M126 140h7v7H126V140M133 140h7v7H133V140M147 140h7v7H147V140M161 140h7v7H161V140M175 140h7v7H175V140M182 140h7v7H182V140M189 140h7v7H189V140M196 140h7v7H196V140M203 140h7v7H203V140M217 140h7v7H217V140M231 140h7v7H231V140M238 140h7v7H238V140M245 140h7v7H245V140M252 140h7v7H252V140M259 140h7v7H259V140M266 140h7v7H266V140M273 140h7v7H273V140M301 140h7v7H301V140M308 140h7v7H308V140M315 140h7v7H315V140M322 140h7v7H322V140M329 140h7v7H329V140M336 140h7v7H336V140M350 140h7v7H350V140M385 140h7v7H385V140M392 140h7v7H392V140M399 140h7v7H399V140M413 140h7v7H413V140M7 147h7v7H7V147M21 147h7v7H21V147M28 147h7v7H28V147M56 147h7v7H56V147M63 147h7v7H63V147M84 147h7v7H84V147M98 147h7v7H98V147M105 147h7v7H105V147M126 147h7v7H126V147M133 147h7v7H133V147M161 147h7v7H161V147M168 147h7v7H168V147M175 147h7v7H175V147M189 147h7v7H189V147M203 147h7v7H203V147M210 147h7v7H210V147M238 147h7v7H238V147M245 147h7v7H245V147M266 147h7v7H266V147M273 147h7v7H273V147M322 147h7v7H322V147M329 147h7v7H329V147M357 147h7v7H357V147M378 147h7v7H378V147M399 147h7v7H399V147M406 147h7v7H406V147M413 147h7v7H413V147M420 147h7v7H420V147M21 154h7v7H21V154M28 154h7v7H28V154M35 154h7v7H35V154M42 154h7v7H42V154M63 154h7v7H63V154M91 154h7v7H91V154M98 154h7v7H98V154M112 154h7v7H112V154M126 154h7v7H126V154M133 154h7v7H133V154M140 154h7v7H140V154M147 154h7v7H147V154M161 154h7v7H161V154M168 154h7v7H168V154M175 154h7v7H175V154M182 154h7v7H182V154M196 154h7v7H196V154M203 154h7v7H203V154M224 154h7v7H224V154M231 154h7v7H231V154M245 154h7v7H245V154M252 154h7v7H252V154M280 154h7v7H280V154M308 154h7v7H308V154M315 154h7v7H315V154M329 154h7v7H329V154M336 154h7v7H336V154M357 154h7v7H357V154M371 154h7v7H371V154M385 154h7v7H385V154M406 154h7v7H406V154M413 154h7v7H413V154M7 161h7v7H7V161M14 161h7v7H14V161M56 161h7v7H56V161M70 161h7v7H70V161M84 161h7v7H84V161M98 161h7v7H98V161M105 161h7v7H105V161M112 161h7v7H112V161M119 161h7v7H119V161M126 161h7v7H126V161M133 161h7v7H133V161M140 161h7v7H140V161M154 161h7v7H154V161M168 161h7v7H168V161M203 161h7v7H203V161M210 161h7v7H210V161M224 161h7v7H224V161M259 161h7v7H259V161M273 161h7v7H273V161M294 161h7v7H294V161M301 161h7v7H301V161M315 161h7v7H315V161M322 161h7v7H322V161M329 161h7v7H329V161M343 161h7v7H343V161M371 161h7v7H371V161M378 161h7v7H378V161M385 161h7v7H385V161M399 161h7v7H399V161M420 161h7v7H420V161M7 168h7v7H7V168M14 168h7v7H14V168M35 168h7v7H35V168M42 168h7v7H42V168M63 168h7v7H63V168M91 168h7v7H91V168M105 168h7v7H105V168M112 168h7v7H112V168M119 168h7v7H119V168M133 168h7v7H133V168M140 168h7v7H140V168M154 168h7v7H154V168M168 168h7v7H168V168M175 168h7v7H175V168M182 168h7v7H182V168M196 168h7v7H196V168M203 168h7v7H203V168M210 168h7v7H210V168M224 168h7v7H224V168M238 168h7v7H238V168M245 168h7v7H245V168M252 168h7v7H252V168M259 168h7v7H259V168M301 168h7v7H301V168M315 168h7v7H315V168M322 168h7v7H322V168M336 168h7v7H336V168M343 168h7v7H343V168M385 168h7v7H385V168M392 168h7v7H392V168M406 168h7v7H406V168M413 168h7v7H413V168M420 168h7v7H420V168M7 175h7v7H7V175M21 175h7v7H21V175M35 175h7v7H35V175M56 175h7v7H56V175M63 175h7v7H63V175M70 175h7v7H70V175M84 175h7v7H84V175M91 175h7v7H91V175M98 175h7v7H98V175M105 175h7v7H105V175M112 175h7v7H112V175M119 175h7v7H119V175M126 175h7v7H126V175M147 175h7v7H147V175M175 175h7v7H175V175M210 175h7v7H210V175M266 175h7v7H266V175M294 175h7v7H294V175M336 175h7v7H336V175M350 175h7v7H350V175M371 175h7v7H371V175M385 175h7v7H385V175M392 175h7v7H392V175M399 175h7v7H399V175M413 175h7v7H413V175M420 175h7v7H420V175M0 182h7v7H0V182M14 182h7v7H14V182M21 182h7v7H21V182M35 182h7v7H35V182M42 182h7v7H42V182M56 182h7v7H56V182M63 182h7v7H63V182M77 182h7v7H77V182M84 182h7v7H84V182M91 182h7v7H91V182M98 182h7v7H98V182M140 182h7v7H140V182M147 182h7v7H147V182M168 182h7v7H168V182M196 182h7v7H196V182M203 182h7v7H203V182M210 182h7v7H210V182M238 182h7v7H238V182M266 182h7v7H266V182M273 182h7v7H273V182M287 182h7v7H287V182M301 182h7v7H301V182M308 182h7v7H308V182M315 182h7v7H315V182M329 182h7v7H329V182M336 182h7v7H336V182M357 182h7v7H357V182M378 182h7v7H378V182M385 182h7v7H385V182M406 182h7v7H406V182M413 182h7v7H413V182M21 189h7v7H21V189M49 189h7v7H49V189M63 189h7v7H63V189M70 189h7v7H70V189M84 189h7v7H84V189M91 189h7v7H91V189M98 189h7v7H98V189M119 189h7v7H119V189M126 189h7v7H126V189M140 189h7v7H140V189M154 189h7v7H154V189M175 189h7v7H175V189M224 189h7v7H224V189M259 189h7v7H259V189M266 189h7v7H266V189M273 189h7v7H273V189M287 189h7v7H287V189M329 189h7v7H329V189M343 189h7v7H343V189M364 189h7v7H364V189M385 189h7v7H385V189M399 189h7v7H399V189M413 189h7v7H413V189M420 189h7v7H420V189M7 196h7v7H7V196M21 196h7v7H21V196M28 196h7v7H28V196M35 196h7v7H35V196M42 196h7v7H42V196M49 196h7v7H49V196M56 196h7v7H56V196M63 196h7v7H63V196M70 196h7v7H70V196M91 196h7v7H91V196M98 196h7v7H98V196M126 196h7v7H126V196M133 196h7v7H133V196M140 196h7v7H140V196M154 196h7v7H154V196M161 196h7v7H161V196M196 196h7v7H196V196M203 196h7v7H203V196M210 196h7v7H210V196M217 196h7v7H217V196M224 196h7v7H224V196M238 196h7v7H238V196M245 196h7v7H245V196M259 196h7v7H259V196M266 196h7v7H266V196M287 196h7v7H287V196M294 196h7v7H294V196M301 196h7v7H301V196M329 196h7v7H329V196M336 196h7v7H336V196M350 196h7v7H350V196M364 196h7v7H364V196M371 196h7v7H371V196M378 196h7v7H378V196M385 196h7v7H385V196M392 196h7v7H392V196M406 196h7v7H406V196M420 196h7v7H420V196M0 203h7v7H0V203M14 203h7v7H14V203M28 203h7v7H28V203M56 203h7v7H56V203M63 203h7v7H63V203M70 203h7v7H70V203M77 203h7v7H77V203M84 203h7v7H84V203M91 203h7v7H91V203M98 203h7v7H98V203M105 203h7v7H105V203M112 203h7v7H112V203M133 203h7v7H133V203M140 203h7v7H140V203M168 203h7v7H168V203M175 203h7v7H175V203M196 203h7v7H196V203M224 203h7v7H224V203M231 203h7v7H231V203M259 203h7v7H259V203M280 203h7v7H280V203M287 203h7v7H287V203M308 203h7v7H308V203M315 203h7v7H315V203M329 203h7v7H329V203M336 203h7v7H336V203M343 203h7v7H343V203M357 203h7v7H357V203M364 203h7v7H364V203M392 203h7v7H392V203M406 203h7v7H406V203M413 203h7v7H413V203M0 210h7v7H0V210M7 210h7v7H7V210M21 210h7v7H21V210M28 210h7v7H28V210M42 210h7v7H42V210M56 210h7v7H56V210M63 210h7v7H63V210M77 210h7v7H77V210M91 210h7v7H91V210M98 210h7v7H98V210M112 210h7v7H112V210M175 210h7v7H175V210M189 210h7v7H189V210M196 210h7v7H196V210M210 210h7v7H210V210M224 210h7v7H224V210M231 210h7v7H231V210M252 210h7v7H252V210M266 210h7v7H266V210M273 210h7v7H273V210M280 210h7v7H280V210M287 210h7v7H287V210M301 210h7v7H301V210M308 210h7v7H308V210M315 210h7v7H315V210M329 210h7v7H329V210M343 210h7v7H343V210M350 210h7v7H350V210M357 210h7v7H357V210M364 210h7v7H364V210M378 210h7v7H378V210M392 210h7v7H392V210M399 210h7v7H399V210M413 210h7v7H413V210M0 217h7v7H0V217M21 217h7v7H21V217M28 217h7v7H28V217M56 217h7v7H56V217M70 217h7v7H70V217M77 217h7v7H77V217M84 217h7v7H84V217M98 217h7v7H98V217M112 217h7v7H112V217M133 217h7v7H133V217M161 217h7v7H161V217M182 217h7v7H182V217M189 217h7v7H189V217M196 217h7v7H196V217M224 217h7v7H224V217M238 217h7v7H238V217M252 217h7v7H252V217M259 217h7v7H259V217M273 217h7v7H273V217M280 217h7v7H280V217M287 217h7v7H287V217M294 217h7v7H294V217M301 217h7v7H301V217M308 217h7v7H308V217M322 217h7v7H322V217M350 217h7v7H350V217M364 217h7v7H364V217M392 217h7v7H392V217M406 217h7v7H406V217M0 224h7v7H0V224M7 224h7v7H7V224M28 224h7v7H28V224M35 224h7v7H35V224M42 224h7v7H42V224M49 224h7v7H49V224M56 224h7v7H56V224M63 224h7v7H63V224M70 224h7v7H70V224M77 224h7v7H77V224M91 224h7v7H91V224M112 224h7v7H112V224M119 224h7v7H119V224M126 224h7v7H126V224M140 224h7v7H140V224M147 224h7v7H147V224M175 224h7v7H175V224M182 224h7v7H182V224M196 224h7v7H196V224M203 224h7v7H203V224M210 224h7v7H210V224M217 224h7v7H217V224M224 224h7v7H224V224M252 224h7v7H252V224M259 224h7v7H259V224M266 224h7v7H266V224M280 224h7v7H280V224M294 224h7v7H294V224M308 224h7v7H308V224M336 224h7v7H336V224M357 224h7v7H357V224M364 224h7v7H364V224M371 224h7v7H371V224M378 224h7v7H378V224M385 224h7v7H385V224M392 224h7v7H392V224M399 224h7v7H399V224M420 224h7v7H420V224M0 231h7v7H0V231M14 231h7v7H14V231M49 231h7v7H49V231M70 231h7v7H70V231M98 231h7v7H98V231M112 231h7v7H112V231M140 231h7v7H140V231M147 231h7v7H147V231M168 231h7v7H168V231M175 231h7v7H175V231M182 231h7v7H182V231M189 231h7v7H189V231M203 231h7v7H203V231M217 231h7v7H217V231M224 231h7v7H224V231M231 231h7v7H231V231M238 231h7v7H238V231M245 231h7v7H245V231M266 231h7v7H266V231M273 231h7v7H273V231M280 231h7v7H280V231M287 231h7v7H287V231M301 231h7v7H301V231M308 231h7v7H308V231M315 231h7v7H315V231M329 231h7v7H329V231M350 231h7v7H350V231M357 231h7v7H357V231M406 231h7v7H406V231M413 231h7v7H413V231M0 238h7v7H0V238M7 238h7v7H7V238M21 238h7v7H21V238M28 238h7v7H28V238M35 238h7v7H35V238M42 238h7v7H42V238M49 238h7v7H49V238M63 238h7v7H63V238M70 238h7v7H70V238M91 238h7v7H91V238M98 238h7v7H98V238M105 238h7v7H105V238M112 238h7v7H112V238M133 238h7v7H133V238M140 238h7v7H140V238M168 238h7v7H168V238M175 238h7v7H175V238M196 238h7v7H196V238M210 238h7v7H210V238M217 238h7v7H217V238M238 238h7v7H238V238M245 238h7v7H245V238M266 238h7v7H266V238M273 238h7v7H273V238M294 238h7v7H294V238M301 238h7v7H301V238M322 238h7v7H322V238M329 238h7v7H329V238M350 238h7v7H350V238M385 238h7v7H385V238M392 238h7v7H392V238M399 238h7v7H399V238M420 238h7v7H420V238M0 245h7v7H0V245M21 245h7v7H21V245M56 245h7v7H56V245M70 245h7v7H70V245M77 245h7v7H77V245M84 245h7v7H84V245M91 245h7v7H91V245M105 245h7v7H105V245M112 245h7v7H112V245M119 245h7v7H119V245M147 245h7v7H147V245M168 245h7v7H168V245M175 245h7v7H175V245M196 245h7v7H196V245M203 245h7v7H203V245M224 245h7v7H224V245M280 245h7v7H280V245M287 245h7v7H287V245M308 245h7v7H308V245M322 245h7v7H322V245M329 245h7v7H329V245M336 245h7v7H336V245M371 245h7v7H371V245M385 245h7v7H385V245M392 245h7v7H392V245M413 245h7v7H413V245M420 245h7v7H420V245M0 252h7v7H0V252M7 252h7v7H7V252M14 252h7v7H14V252M21 252h7v7H21V252M35 252h7v7H35V252M42 252h7v7H42V252M56 252h7v7H56V252M70 252h7v7H70V252M84 252h7v7H84V252M91 252h7v7H91V252M112 252h7v7H112V252M119 252h7v7H119V252M147 252h7v7H147V252M154 252h7v7H154V252M168 252h7v7H168V252M175 252h7v7H175V252M182 252h7v7H182V252M210 252h7v7H210V252M238 252h7v7H238V252M259 252h7v7H259V252M266 252h7v7H266V252M273 252h7v7H273V252M287 252h7v7H287V252M301 252h7v7H301V252M308 252h7v7H308V252M329 252h7v7H329V252M336 252h7v7H336V252M350 252h7v7H350V252M371 252h7v7H371V252M413 252h7v7H413V252M0 259h7v7H0V259M21 259h7v7H21V259M28 259h7v7H28V259M35 259h7v7H35V259M49 259h7v7H49V259M84 259h7v7H84V259M91 259h7v7H91V259M98 259h7v7H98V259M126 259h7v7H126V259M154 259h7v7H154V259M182 259h7v7H182V259M203 259h7v7H203V259M217 259h7v7H217V259M252 259h7v7H252V259M259 259h7v7H259V259M273 259h7v7H273V259M308 259h7v7H308V259M315 259h7v7H315V259M322 259h7v7H322V259M343 259h7v7H343V259M350 259h7v7H350V259M364 259h7v7H364V259M406 259h7v7H406V259M420 259h7v7H420V259M35 266h7v7H35V266M42 266h7v7H42V266M56 266h7v7H56V266M63 266h7v7H63V266M70 266h7v7H70V266M84 266h7v7H84V266M98 266h7v7H98V266M119 266h7v7H119V266M126 266h7v7H126V266M133 266h7v7H133V266M140 266h7v7H140V266M147 266h7v7H147V266M154 266h7v7H154V266M168 266h7v7H168V266M189 266h7v7H189V266M196 266h7v7H196V266M203 266h7v7H203V266M210 266h7v7H210V266M217 266h7v7H217V266M224 266h7v7H224V266M266 266h7v7H266V266M273 266h7v7H273V266M294 266h7v7H294V266M301 266h7v7H301V266M322 266h7v7H322V266M350 266h7v7H350V266M357 266h7v7H357V266M364 266h7v7H364V266M371 266h7v7H371V266M392 266h7v7H392V266M413 266h7v7H413V266M420 266h7v7H420V266M0 273h7v7H0V273M7 273h7v7H7V273M14 273h7v7H14V273M35 273h7v7H35V273M56 273h7v7H56V273M63 273h7v7H63V273M70 273h7v7H70V273M77 273h7v7H77V273M105 273h7v7H105V273M126 273h7v7H126V273M133 273h7v7H133V273M140 273h7v7H140V273M147 273h7v7H147V273M168 273h7v7H168V273M182 273h7v7H182V273M189 273h7v7H189V273M210 273h7v7H210V273M224 273h7v7H224V273M252 273h7v7H252V273M259 273h7v7H259V273M280 273h7v7H280V273M301 273h7v7H301V273M308 273h7v7H308V273M315 273h7v7H315V273M322 273h7v7H322V273M336 273h7v7H336V273M350 273h7v7H350V273M364 273h7v7H364V273M371 273h7v7H371V273M385 273h7v7H385V273M399 273h7v7H399V273M0 280h7v7H0V280M28 280h7v7H28V280M42 280h7v7H42V280M49 280h7v7H49V280M70 280h7v7H70V280M84 280h7v7H84V280M91 280h7v7H91V280M105 280h7v7H105V280M119 280h7v7H119V280M126 280h7v7H126V280M147 280h7v7H147V280M161 280h7v7H161V280M168 280h7v7H168V280M196 280h7v7H196V280M203 280h7v7H203V280M210 280h7v7H210V280M217 280h7v7H217V280M224 280h7v7H224V280M231 280h7v7H231V280M245 280h7v7H245V280M259 280h7v7H259V280M273 280h7v7H273V280M280 280h7v7H280V280M294 280h7v7H294V280M301 280h7v7H301V280M308 280h7v7H308V280M315 280h7v7H315V280M322 280h7v7H322V280M329 280h7v7H329V280M336 280h7v7H336V280M343 280h7v7H343V280M371 280h7v7H371V280M385 280h7v7H385V280M399 280h7v7H399V280M406 280h7v7H406V280M413 280h7v7H413V280M420 280h7v7H420V280M7 287h7v7H7V287M14 287h7v7H14V287M28 287h7v7H28V287M35 287h7v7H35V287M63 287h7v7H63V287M70 287h7v7H70V287M77 287h7v7H77V287M84 287h7v7H84V287M91 287h7v7H91V287M98 287h7v7H98V287M105 287h7v7H105V287M119 287h7v7H119V287M133 287h7v7H133V287M140 287h7v7H140V287M154 287h7v7H154V287M161 287h7v7H161V287M168 287h7v7H168V287M196 287h7v7H196V287M224 287h7v7H224V287M238 287h7v7H238V287M245 287h7v7H245V287M273 287h7v7H273V287M294 287h7v7H294V287M301 287h7v7H301V287M308 287h7v7H308V287M329 287h7v7H329V287M350 287h7v7H350V287M357 287h7v7H357V287M413 287h7v7H413V287M420 287h7v7H420V287M7 294h7v7H7V294M28 294h7v7H28V294M42 294h7v7H42V294M84 294h7v7H84V294M91 294h7v7H91V294M105 294h7v7H105V294M126 294h7v7H126V294M147 294h7v7H147V294M154 294h7v7H154V294M161 294h7v7H161V294M182 294h7v7H182V294M189 294h7v7H189V294M196 294h7v7H196V294M203 294h7v7H203V294M210 294h7v7H210V294M224 294h7v7H224V294M231 294h7v7H231V294M245 294h7v7H245V294M252 294h7v7H252V294M280 294h7v7H280V294M287 294h7v7H287V294M301 294h7v7H301V294M308 294h7v7H308V294M343 294h7v7H343V294M357 294h7v7H357V294M371 294h7v7H371V294M392 294h7v7H392V294M406 294h7v7H406V294M413 294h7v7H413V294M420 294h7v7H420V294M0 301h7v7H0V301M7 301h7v7H7V301M28 301h7v7H28V301M35 301h7v7H35V301M63 301h7v7H63V301M77 301h7v7H77V301M84 301h7v7H84V301M91 301h7v7H91V301M112 301h7v7H112V301M161 301h7v7H161V301M168 301h7v7H168V301M175 301h7v7H175V301M196 301h7v7H196V301M203 301h7v7H203V301M210 301h7v7H210V301M217 301h7v7H217V301M231 301h7v7H231V301M238 301h7v7H238V301M245 301h7v7H245V301M259 301h7v7H259V301M266 301h7v7H266V301M273 301h7v7H273V301M294 301h7v7H294V301M301 301h7v7H301V301M322 301h7v7H322V301M329 301h7v7H329V301M357 301h7v7H357V301M371 301h7v7H371V301M378 301h7v7H378V301M413 301h7v7H413V301M0 308h7v7H0V308M14 308h7v7H14V308M21 308h7v7H21V308M35 308h7v7H35V308M42 308h7v7H42V308M63 308h7v7H63V308M98 308h7v7H98V308M105 308h7v7H105V308M147 308h7v7H147V308M189 308h7v7H189V308M196 308h7v7H196V308M203 308h7v7H203V308M210 308h7v7H210V308M224 308h7v7H224V308M231 308h7v7H231V308M252 308h7v7H252V308M259 308h7v7H259V308M280 308h7v7H280V308M287 308h7v7H287V308M294 308h7v7H294V308M315 308h7v7H315V308M336 308h7v7H336V308M357 308h7v7H357V308M371 308h7v7H371V308M378 308h7v7H378V308M406 308h7v7H406V308M413 308h7v7H413V308M420 308h7v7H420V308M7 315h7v7H7V315M28 315h7v7H28V315M35 315h7v7H35V315M77 315h7v7H77V315M91 315h7v7H91V315M98 315h7v7H98V315M105 315h7v7H105V315M112 315h7v7H112V315M119 315h7v7H119V315M133 315h7v7H133V315M175 315h7v7H175V315M196 315h7v7H196V315M210 315h7v7H210V315M224 315h7v7H224V315M231 315h7v7H231V315M238 315h7v7H238V315M245 315h7v7H245V315M266 315h7v7H266V315M294 315h7v7H294V315M322 315h7v7H322V315M329 315h7v7H329V315M350 315h7v7H350V315M357 315h7v7H357V315M364 315h7v7H364V315M392 315h7v7H392V315M399 315h7v7H399V315M413 315h7v7H413V315M420 315h7v7H420V315M0 322h7v7H0V322M7 322h7v7H7V322M21 322h7v7H21V322M35 322h7v7H35V322M42 322h7v7H42V322M77 322h7v7H77V322M84 322h7v7H84V322M91 322h7v7H91V322M126 322h7v7H126V322M133 322h7v7H133V322M147 322h7v7H147V322M154 322h7v7H154V322M161 322h7v7H161V322M168 322h7v7H168V322M196 322h7v7H196V322M203 322h7v7H203V322M210 322h7v7H210V322M231 322h7v7H231V322M238 322h7v7H238V322M252 322h7v7H252V322M259 322h7v7H259V322M266 322h7v7H266V322M287 322h7v7H287V322M308 322h7v7H308V322M343 322h7v7H343V322M357 322h7v7H357V322M364 322h7v7H364V322M371 322h7v7H371V322M406 322h7v7H406V322M413 322h7v7H413V322M420 322h7v7H420V322M7 329h7v7H7V329M21 329h7v7H21V329M63 329h7v7H63V329M70 329h7v7H70V329M84 329h7v7H84V329M91 329h7v7H91V329M98 329h7v7H98V329M105 329h7v7H105V329M126 329h7v7H126V329M133 329h7v7H133V329M154 329h7v7H154V329M161 329h7v7H161V329M189 329h7v7H189V329M196 329h7v7H196V329M203 329h7v7H203V329M231 329h7v7H231V329M238 329h7v7H238V329M245 329h7v7H245V329M266 329h7v7H266V329M273 329h7v7H273V329M287 329h7v7H287V329M294 329h7v7H294V329M301 329h7v7H301V329M322 329h7v7H322V329M329 329h7v7H329V329M343 329h7v7H343V329M357 329h7v7H357V329M371 329h7v7H371V329M378 329h7v7H378V329M392 329h7v7H392V329M399 329h7v7H399V329M420 329h7v7H420V329M21 336h7v7H21V336M35 336h7v7H35V336M42 336h7v7H42V336M70 336h7v7H70V336M77 336h7v7H77V336M84 336h7v7H84V336M91 336h7v7H91V336M112 336h7v7H112V336M140 336h7v7H140V336M147 336h7v7H147V336M154 336h7v7H154V336M168 336h7v7H168V336M175 336h7v7H175V336M182 336h7v7H182V336M203 336h7v7H203V336M210 336h7v7H210V336M217 336h7v7H217V336M224 336h7v7H224V336M231 336h7v7H231V336M252 336h7v7H252V336M259 336h7v7H259V336M273 336h7v7H273V336M280 336h7v7H280V336M287 336h7v7H287V336M315 336h7v7H315V336M329 336h7v7H329V336M336 336h7v7H336V336M364 336h7v7H364V336M371 336h7v7H371V336M378 336h7v7H378V336M392 336h7v7H392V336M399 336h7v7H399V336M406 336h7v7H406V336M413 336h7v7H413V336M28 343h7v7H28V343M35 343h7v7H35V343M63 343h7v7H63V343M70 343h7v7H70V343M84 343h7v7H84V343M98 343h7v7H98V343M112 343h7v7H112V343M119 343h7v7H119V343M126 343h7v7H126V343M133 343h7v7H133V343M175 343h7v7H175V343M203 343h7v7H203V343M217 343h7v7H217V343M224 343h7v7H224V343M231 343h7v7H231V343M245 343h7v7H245V343M259 343h7v7H259V343M280 343h7v7H280V343M336 343h7v7H336V343M343 343h7v7H343V343M357 343h7v7H357V343M364 343h7v7H364V343M392 343h7v7H392V343M399 343h7v7H399V343M413 343h7v7H413V343M14 350h7v7H14V350M21 350h7v7H21V350M28 350h7v7H28V350M35 350h7v7H35V350M42 350h7v7H42V350M49 350h7v7H49V350M56 350h7v7H56V350M91 350h7v7H91V350M98 350h7v7H98V350M126 350h7v7H126V350M147 350h7v7H147V350M154 350h7v7H154V350M175 350h7v7H175V350M203 350h7v7H203V350M210 350h7v7H210V350M224 350h7v7H224V350M231 350h7v7H231V350M245 350h7v7H245V350M259 350h7v7H259V350M280 350h7v7H280V350M357 350h7v7H357V350M378 350h7v7H378V350M385 350h7v7H385V350M392 350h7v7H392V350M399 350h7v7H399V350M406 350h7v7H406V350M413 350h7v7H413V350M420 350h7v7H420V350M0 357h7v7H0V357M7 357h7v7H7V357M14 357h7v7H14V357M28 357h7v7H28V357M49 357h7v7H49V357M56 357h7v7H56V357M63 357h7v7H63V357M70 357h7v7H70V357M77 357h7v7H77V357M91 357h7v7H91V357M105 357h7v7H105V357M112 357h7v7H112V357M119 357h7v7H119V357M140 357h7v7H140V357M147 357h7v7H147V357M175 357h7v7H175V357M189 357h7v7H189V357M196 357h7v7H196V357M238 357h7v7H238V357M245 357h7v7H245V357M252 357h7v7H252V357M259 357h7v7H259V357M266 357h7v7H266V357M280 357h7v7H280V357M287 357h7v7H287V357M308 357h7v7H308V357M329 357h7v7H329V357M336 357h7v7H336V357M350 357h7v7H350V357M357 357h7v7H357V357M371 357h7v7H371V357M385 357h7v7H385V357M392 357h7v7H392V357M406 357h7v7H406V357M420 357h7v7H420V357M0 364h7v7H0V364M7 364h7v7H7V364M14 364h7v7H14V364M21 364h7v7H21V364M42 364h7v7H42V364M49 364h7v7H49V364M56 364h7v7H56V364M70 364h7v7H70V364M91 364h7v7H91V364M98 364h7v7H98V364M126 364h7v7H126V364M147 364h7v7H147V364M168 364h7v7H168V364M175 364h7v7H175V364M189 364h7v7H189V364M196 364h7v7H196V364M203 364h7v7H203V364M210 364h7v7H210V364M217 364h7v7H217V364M224 364h7v7H224V364M231 364h7v7H231V364M252 364h7v7H252V364M259 364h7v7H259V364M266 364h7v7H266V364M280 364h7v7H280V364M294 364h7v7H294V364M308 364h7v7H308V364M315 364h7v7H315V364M336 364h7v7H336V364M343 364h7v7H343V364M357 364h7v7H357V364M364 364h7v7H364V364M371 364h7v7H371V364M378 364h7v7H378V364M385 364h7v7H385V364M392 364h7v7H392V364M413 364h7v7H413V364M420 364h7v7H420V364M56 371h7v7H56V371M84 371h7v7H84V371M91 371h7v7H91V371M98 371h7v7H98V371M105 371h7v7H105V371M112 371h7v7H112V371M133 371h7v7H133V371M140 371h7v7H140V371M168 371h7v7H168V371M175 371h7v7H175V371M182 371h7v7H182V371M196 371h7v7H196V371M224 371h7v7H224V371M245 371h7v7H245V371M266 371h7v7H266V371M280 371h7v7H280V371M301 371h7v7H301V371M343 371h7v7H343V371M364 371h7v7H364V371M392 371h7v7H392V371M399 371h7v7H399V371M406 371h7v7H406V371M413 371h7v7H413V371M0 378h7v7H0V378M7 378h7v7H7V378M14 378h7v7H14V378M21 378h7v7H21V378M28 378h7v7H28V378M35 378h7v7H35V378M42 378h7v7H42V378M56 378h7v7H56V378M77 378h7v7H77V378M84 378h7v7H84V378M98 378h7v7H98V378M112 378h7v7H112V378M126 378h7v7H126V378M154 378h7v7H154V378M161 378h7v7H161V378M175 378h7v7H175V378M182 378h7v7H182V378M196 378h7v7H196V378M210 378h7v7H210V378M224 378h7v7H224V378M238 378h7v7H238V378M245 378h7v7H245V378M252 378h7v7H252V378M266 378h7v7H266V378M273 378h7v7H273V378M280 378h7v7H280V378M294 378h7v7H294V378M301 378h7v7H301V378M322 378h7v7H322V378M329 378h7v7H329V378M336 378h7v7H336V378M350 378h7v7H350V378M357 378h7v7H357V378M364 378h7v7H364V378M378 378h7v7H378V378M392 378h7v7H392V378M399 378h7v7H399V378M406 378h7v7H406V378M413 378h7v7H413V378M420 378h7v7H420V378M0 385h7v7H0V385M42 385h7v7H42V385M84 385h7v7H84V385M91 385h7v7H91V385M98 385h7v7H98V385M105 385h7v7H105V385M112 385h7v7H112V385M119 385h7v7H119V385M126 385h7v7H126V385M140 385h7v7H140V385M147 385h7v7H147V385M154 385h7v7H154V385M161 385h7v7H161V385M168 385h7v7H168V385M182 385h7v7H182V385M196 385h7v7H196V385M224 385h7v7H224V385M231 385h7v7H231V385M273 385h7v7H273V385M287 385h7v7H287V385M301 385h7v7H301V385M308 385h7v7H308V385M315 385h7v7H315V385M329 385h7v7H329V385M336 385h7v7H336V385M350 385h7v7H350V385M364 385h7v7H364V385M392 385h7v7H392V385M406 385h7v7H406V385M0 392h7v7H0V392M14 392h7v7H14V392M21 392h7v7H21V392M28 392h7v7H28V392M42 392h7v7H42V392M77 392h7v7H77V392M91 392h7v7H91V392M105 392h7v7H105V392M133 392h7v7H133V392M154 392h7v7H154V392M168 392h7v7H168V392M175 392h7v7H175V392M189 392h7v7H189V392M196 392h7v7H196V392M203 392h7v7H203V392M210 392h7v7H210V392M217 392h7v7H217V392M224 392h7v7H224V392M238 392h7v7H238V392M245 392h7v7H245V392M252 392h7v7H252V392M259 392h7v7H259V392M266 392h7v7H266V392M273 392h7v7H273V392M280 392h7v7H280V392M287 392h7v7H287V392M294 392h7v7H294V392M301 392h7v7H301V392M308 392h7v7H308V392M315 392h7v7H315V392M329 392h7v7H329V392M336 392h7v7H336V392M364 392h7v7H364V392M371 392h7v7H371V392M378 392h7v7H378V392M385 392h7v7H385V392M392 392h7v7H392V392M399 392h7v7H399V392M0 399h7v7H0V399M14 399h7v7H14V399M21 399h7v7H21V399M28 399h7v7H28V399M42 399h7v7H42V399M70 399h7v7H70V399M84 399h7v7H84V399M91 399h7v7H91V399M112 399h7v7H112V399M140 399h7v7H140V399M161 399h7v7H161V399M168 399h7v7H168V399M182 399h7v7H182V399M217 399h7v7H217V399M259 399h7v7H259V399M294 399h7v7H294V399M301 399h7v7H301V399M322 399h7v7H322V399M336 399h7v7H336V399M357 399h7v7H357V399M371 399h7v7H371V399M399 399h7v7H399V399M0 406h7v7H0V406M14 406h7v7H14V406M21 406h7v7H21V406M28 406h7v7H28V406M42 406h7v7H42V406M56 406h7v7H56V406M84 406h7v7H84V406M98 406h7v7H98V406M105 406h7v7H105V406M112 406h7v7H112V406M119 406h7v7H119V406M126 406h7v7H126V406M133 406h7v7H133V406M140 406h7v7H140V406M161 406h7v7H161V406M168 406h7v7H168V406M175 406h7v7H175V406M182 406h7v7H182V406M189 406h7v7H189V406M196 406h7v7H196V406M203 406h7v7H203V406M210 406h7v7H210V406M217 406h7v7H217V406M224 406h7v7H224V406M231 406h7v7H231V406M245 406h7v7H245V406M252 406h7v7H252V406M266 406h7v7H266V406M280 406h7v7H280V406M287 406h7v7H287V406M294 406h7v7H294V406M301 406h7v7H301V406M308 406h7v7H308V406M322 406h7v7H322V406M329 406h7v7H329V406M336 406h7v7H336V406M350 406h7v7H350V406M364 406h7v7H364V406M371 406h7v7H371V406M385 406h7v7H385V406M392 406h7v7H392V406M406 406h7v7H406V406M413 406h7v7H413V406M420 406h7v7H420V406M0 413h7v7H0V413M42 413h7v7H42V413M63 413h7v7H63V413M91 413h7v7H91V413M112 413h7v7H112V413M119 413h7v7H119V413M133 413h7v7H133V413M140 413h7v7H140V413M154 413h7v7H154V413M161 413h7v7H161V413M168 413h7v7H168V413M175 413h7v7H175V413M189 413h7v7H189V413M203 413h7v7H203V413M210 413h7v7H210V413M217 413h7v7H217V413M224 413h7v7H224V413M252 413h7v7H252V413M259 413h7v7H259V413M280 413h7v7H280V413M287 413h7v7H287V413M308 413h7v7H308V413M336 413h7v7H336V413M350 413h7v7H350V413M357 413h7v7H357V413M364 413h7v7H364V413M371 413h7v7H371V413M385 413h7v7H385V413M392 413h7v7H392V413M399 413h7v7H399V413M0 420h7v7H0V420M7 420h7v7H7V420M14 420h7v7H14V420M21 420h7v7H21V420M28 420h7v7H28V420M35 420h7v7H35V420M42 420h7v7H42V420M56 420h7v7H56V420M77 420h7v7H77V420M84 420h7v7H84V420M91 420h7v7H91V420M98 420h7v7H98V420M105 420h7v7H105V420M112 420h7v7H112V420M126 420h7v7H126V420M133 420h7v7H133V420M140 420h7v7H140V420M147 420h7v7H147V420M168 420h7v7H168V420M175 420h7v7H175V420M182 420h7v7H182V420M196 420h7v7H196V420M203 420h7v7H203V420M217 420h7v7H217V420M231 420h7v7H231V420M238 420h7v7H238V420M245 420h7v7H245V420M266 420h7v7H266V420M273 420h7v7H273V420M280 420h7v7H280V420M287 420h7v7H287V420M301 420h7v7H301V420M308 420h7v7H308V420M315 420h7v7H315V420M329 420h7v7H329V420M336 420h7v7H336V420M343 420h7v7H343V420M357 420h7v7H357V420M378 420h7v7H378V420M385 420h7v7H385V420M399 420h7v7H399V420M406 420h7v7H406V420M420 420h7v7H420V420"/></svg>
