<?xml version="1.0" standalone="yes"?><svg xmlns="http://www.w3.org/2000/svg" version="1.1" width="456" height="456" viewBox="0 0 456 456" shape-rendering="crispEdges"><rect x="0" y="0" width="456" height="456" fill="#fff"/><path fill="#000" d="M0 0h8v8H0V0M8 0h8v8H8V0M16 0h8v8H16V0M24 0h8v8H24V0M32 0h8v8H32V0M40 0h8v8H40V0M48 0h8v8H48V0M64 0h8v8H64V0M80 0h8v8H80V0M88 0h8v8H88V0M96 0h8v8H96V0M144 0h8v8H144V0M152 0h8v8H152V0M160 0h8v8H160V0M184 0h8v8H184V0M192 0h8v8H192V0M200 0h8v8H200V0M232 0h8v8H232V0M240 0h8v8H240V0M256 0h8v8H256V0M304 0h8v8H304V0M312 0h8v8H312V0M320 0h8v8H320V0M328 0h8v8H328V0M336 0h8v8H336V0M344 0h8v8H344V0M352 0h8v8H352V0M368 0h8v8H368V0M376 0h8v8H376V0M400 0h8v8H400V0M408 0h8v8H408V0M416 0h8v8H416V0M424 0h8v8H424V0M432 0h8v8H432V0M440 0h8v8H440V0M448 0h8v8H448V0M0 8h8v8H0V8M48 8h8v8H48V8M64 8h8v8H64V8M72 8h8v8H72V8M104 8h8v8H104V8M112 8h8v8H112V8M120 8h8v8H120V8M128 8h8v8H128V8M144 8h8v8H144V8M152 8h8v8H152V8M176 8h8v8H176V8M200 8h8v8H200V8M232 8h8v8H232V8M240 8h8v8H240V8M248 8h8v8H248V8M256 8h8v8H256V8M280 8h8v8H280V8M296 8h8v8H296V8M328 8h8v8H328V8M336 8h8v8H336V8M360 8h8v8H360V8M376 8h8v8H376V8M400 8h8v8H400V8M448 8h8v8H448V8M0 16h8v8H0V16M16 16h8v8H16V16M24 16h8v8H24V16M32 16h8v8H32V16M48 16h8v8H48V16M72 16h8v8H72V16M104 16h8v8H104V16M120 16h8v8H120V16M128 16h8v8H128V16M144 16h8v8H144V16M152 16h8v8H152V16M160 16h8v8H160V16M184 16h8v8H184V16M192 16h8v8H192V16M224 16h8v8H224V16M232 16h8v8H232V16M248 16h8v8H248V16M272 16h8v8H272V16M280 16h8v8H280V16M288 16h8v8H288V16M296 16h8v8H296V16M312 16h8v8H312V16M320 16h8v8H320V16M328 16h8v8H328V16M352 16h8v8H352V16M368 16h8v8H368V16M376 16h8v8H376V16M400 16h8v8H400V16M416 16h8v8H416V16M424 16h8v8H424V16M432 16h8v8H432V16M448 16h8v8H448V16M0 24h8v8H0V24M16 24h8v8H16V24M24 24h8v8H24V24M32 24h8v8H32V24M48 24h8v8H48V24M64 24h8v8H64V24M80 24h8v8H80V24M88 24h8v8H88V24M120 24h8v8H120V24M176 24h8v8H176V24M232 24h8v8H232V24M256 24h8v8H256V24M272 24h8v8H272V24M280 24h8v8H280V24M288 24h8v8H288V24M296 24h8v8H296V24M336 24h8v8H336V24M376 24h8v8H376V24M400 24h8v8H400V24M416 24h8v8H416V24M424 24h8v8H424V24M432 24h8v8H432V24M448 24h8v8H448V24M0 32h8v8H0V32M16 32h8v8H16V32M24 32h8v8H24V32M32 32h8v8H32V32M48 32h8v8H48V32M88 32h8v8H88V32M112 32h8v8H112V32M128 32h8v8H128V32M136 32h8v8H136V32M160 32h8v8H160V32M208 32h8v8H208V32M216 32h8v8H216V32M224 32h8v8H224V32M232 32h8v8H232V32M240 32h8v8H240V32M248 32h8v8H248V32M256 32h8v8H256V32M264 32h8v8H264V32M280 32h8v8H280V32M296 32h8v8H296V32M304 32h8v8H304V32M312 32h8v8H312V32M320 32h8v8H320V32M360 32h8v8H360V32M376 32h8v8H376V32M400 32h8v8H400V32M416 32h8v8H416V32M424 32h8v8H424V32M432 32h8v8H432V32M448 32h8v8H448V32M0 40h8v8H0V40M48 40h8v8H48V40M80 40h8v8H80V40M96 40h8v8H96V40M104 40h8v8H104V40M120 40h8v8H120V40M152 40h8v8H152V40M176 40h8v8H176V40M192 40h8v8H192V40M208 40h8v8H208V40M240 40h8v8H240V40M248 40h8v8H248V40M272 40h8v8H272V40M288 40h8v8H288V40M296 40h8v8H296V40M320 40h8v8H320V40M336 40h8v8H336V40M344 40h8v8H344V40M360 40h8v8H360V40M368 40h8v8H368V40M400 40h8v8H400V40M448 40h8v8H448V40M0 48h8v8H0V48M8 48h8v8H8V48M16 48h8v8H16V48M24 48h8v8H24V48M32 48h8v8H32V48M40 48h8v8H40V48M48 48h8v8H48V48M64 48h8v8H64V48M80 48h8v8H80V48M96 48h8v8H96V48M112 48h8v8H112V48M128 48h8v8H128V48M144 48h8v8H144V48M160 48h8v8H160V48M176 48h8v8H176V48M192 48h8v8H192V48M208 48h8v8H208V48M224 48h8v8H224V48M240 48h8v8H240V48M256 48h8v8H256V48M272 48h8v8H272V48M288 48h8v8H288V48M304 48h8v8H304V48M320 48h8v8H320V48M336 48h8v8H336V48M352 48h8v8H352V48M368 48h8v8H368V48M384 48h8v8H384V48M400 48h8v8H400V48M408 48h8v8H408V48M416 48h8v8H416V48M424 48h8v8H424V48M432 48h8v8H432V48M440 48h8v8H440V48M448 48h8v8H448V48M64 56h8v8H64V56M80 56h8v8H80V56M96 56h8v8H96V56M104 56h8v8H104V56M112 56h8v8H112V56M120 56h8v8H120V56M144 56h8v8H144V56M168 56h8v8H168V56M208 56h8v8H208V56M240 56h8v8H240V56M272 56h8v8H272V56M280 56h8v8H280V56M288 56h8v8H288V56M328 56h8v8H328V56M336 56h8v8H336V56M360 56h8v8H360V56M376 56h8v8H376V56M0 64h8v8H0V64M16 64h8v8H16V64M24 64h8v8H24V64M40 64h8v8H40V64M48 64h8v8H48V64M56 64h8v8H56V64M120 64h8v8H120V64M136 64h8v8H136V64M160 64h8v8H160V64M176 64h8v8H176V64M184 64h8v8H184V64M200 64h8v8H200V64M208 64h8v8H208V64M216 64h8v8H216V64M224 64h8v8H224V64M232 64h8v8H232V64M240 64h8v8H240V64M264 64h8v8H264V64M280 64h8v8H280V64M296 64h8v8H296V64M312 64h8v8H312V64M320 64h8v8H320V64M328 64h8v8H328V64M336 64h8v8H336V64M360 64h8v8H360V64M376 64h8v8H376V64M400 64h8v8H400V64M424 64h8v8H424V64M440 64h8v8H440V64M448 64h8v8H448V64M32 72h8v8H32V72M80 72h8v8H80V72M96 72h8v8H96V72M128 72h8v8H128V72M144 72h8v8H144V72M152 72h8v8H152V72M160 72h8v8H160V72M184 72h8v8H184V72M192 72h8v8H192V72M232 72h8v8H232V72M240 72h8v8H240V72M248 72h8v8H248V72M256 72h8v8H256V72M288 72h8v8H288V72M296 72h8v8H296V72M328 72h8v8H328V72M336 72h8v8H336V72M344 72h8v8H344V72M352 72h8v8H352V72M376 72h8v8H376V72M384 72h8v8H384V72M392 72h8v8H392V72M408 72h8v8H408V72M416 72h8v8H416V72M424 72h8v8H424V72M440 72h8v8H440V72M448 72h8v8H448V72M32 80h8v8H32V80M48 80h8v8H48V80M56 80h8v8H56V80M64 80h8v8H64V80M72 80h8v8H72V80M80 80h8v8H80V80M104 80h8v8H104V80M120 80h8v8H120V80M144 80h8v8H144V80M160 80h8v8H160V80M168 80h8v8H168V80M176 80h8v8H176V80M184 80h8v8H184V80M192 80h8v8H192V80M232 80h8v8H232V80M256 80h8v8H256V80M280 80h8v8H280V80M288 80h8v8H288V80M304 80h8v8H304V80M336 80h8v8H336V80M352 80h8v8H352V80M360 80h8v8H360V80M368 80h8v8H368V80M384 80h8v8H384V80M392 80h8v8H392V80M416 80h8v8H416V80M432 80h8v8H432V80M448 80h8v8H448V80M0 88h8v8H0V88M8 88h8v8H8V88M40 88h8v8H40V88M88 88h8v8H88V88M104 88h8v8H104V88M112 88h8v8H112V88M136 88h8v8H136V88M144 88h8v8H144V88M152 88h8v8H152V88M160 88h8v8H160V88M184 88h8v8H184V88M200 88h8v8H200V88M224 88h8v8H224V88M256 88h8v8H256V88M272 88h8v8H272V88M288 88h8v8H288V88M296 88h8v8H296V88M312 88h8v8H312V88M336 88h8v8H336V88M344 88h8v8H344V88M352 88h8v8H352V88M360 88h8v8H360V88M368 88h8v8H368V88M384 88h8v8H384V88M392 88h8v8H392V88M416 88h8v8H416V88M440 88h8v8H440V88M448 88h8v8H448V88M0 96h8v8H0V96M8 96h8v8H8V96M24 96h8v8H24V96M32 96h8v8H32V96M48 96h8v8H48V96M64 96h8v8H64V96M72 96h8v8H72V96M88 96h8v8H88V96M96 96h8v8H96V96M128 96h8v8H128V96M144 96h8v8H144V96M152 96h8v8H152V96M160 96h8v8H160V96M176 96h8v8H176V96M192 96h8v8H192V96M216 96h8v8H216V96M296 96h8v8H296V96M328 96h8v8H328V96M360 96h8v8H360V96M384 96h8v8H384V96M400 96h8v8H400V96M424 96h8v8H424V96M448 96h8v8H448V96M0 104h8v8H0V104M24 104h8v8H24V104M56 104h8v8H56V104M64 104h8v8H64V104M72 104h8v8H72V104M80 104h8v8H80V104M88 104h8v8H88V104M96 104h8v8H96V104M104 104h8v8H104V104M152 104h8v8H152V104M160 104h8v8H160V104M192 104h8v8H192V104M200 104h8v8H200V104M232 104h8v8H232V104M248 104h8v8H248V104M256 104h8v8H256V104M264 104h8v8H264V104M288 104h8v8H288V104M296 104h8v8H296V104M304 104h8v8H304V104M312 104h8v8H312V104M360 104h8v8H360V104M416 104h8v8H416V104M432 104h8v8H432V104M448 104h8v8H448V104M0 112h8v8H0V112M8 112h8v8H8V112M16 112h8v8H16V112M24 112h8v8H24V112M48 112h8v8H48V112M56 112h8v8H56V112M64 112h8v8H64V112M72 112h8v8H72V112M120 112h8v8H120V112M128 112h8v8H128V112M136 112h8v8H136V112M152 112h8v8H152V112M168 112h8v8H168V112M192 112h8v8H192V112M200 112h8v8H200V112M208 112h8v8H208V112M224 112h8v8H224V112M232 112h8v8H232V112M240 112h8v8H240V112M248 112h8v8H248V112M288 112h8v8H288V112M296 112h8v8H296V112M320 112h8v8H320V112M344 112h8v8H344V112M352 112h8v8H352V112M368 112h8v8H368V112M376 112h8v8H376V112M392 112h8v8H392V112M400 112h8v8H400V112M416 112h8v8H416V112M432 112h8v8H432V112M8 120h8v8H8V120M40 120h8v8H40V120M72 120h8v8H72V120M88 120h8v8H88V120M96 120h8v8H96V120M104 120h8v8H104V120M128 120h8v8H128V120M144 120h8v8H144V120M152 120h8v8H152V120M168 120h8v8H168V120M176 120h8v8H176V120M184 120h8v8H184V120M200 120h8v8H200V120M208 120h8v8H208V120M216 120h8v8H216V120M240 120h8v8H240V120M248 120h8v8H248V120M256 120h8v8H256V120M264 120h8v8H264V120M280 120h8v8H280V120M312 120h8v8H312V120M336 120h8v8H336V120M360 120h8v8H360V120M368 120h8v8H368V120M416 120h8v8H416V120M424 120h8v8H424V120M432 120h8v8H432V120M440 120h8v8H440V120M0 128h8v8H0V128M40 128h8v8H40V128M48 128h8v8H48V128M56 128h8v8H56V128M72 128h8v8H72V128M80 128h8v8H80V128M96 128h8v8H96V128M104 128h8v8H104V128M128 128h8v8H128V128M152 128h8v8H152V128M160 128h8v8H160V128M168 128h8v8H168V128M176 128h8v8H176V128M208 128h8v8H208V128M216 128h8v8H216V128M256 128h8v8H256V128M264 128h8v8H264V128M272 128h8v8H272V128M296 128h8v8H296V128M304 128h8v8H304V128M312 128h8v8H312V128M328 128h8v8H328V128M336 128h8v8H336V128M344 128h8v8H344V128M352 128h8v8H352V128M360 128h8v8H360V128M368 128h8v8H368V128M384 128h8v8H384V128M408 128h8v8H408V128M424 128h8v8H424V128M432 128h8v8H432V128M440 128h8v8H440V128M0 136h8v8H0V136M8 136h8v8H8V136M40 136h8v8H40V136M72 136h8v8H72V136M80 136h8v8H80V136M104 136h8v8H104V136M128 136h8v8H128V136M152 136h8v8H152V136M160 136h8v8H160V136M192 136h8v8H192V136M208 136h8v8H208V136M224 136h8v8H224V136M232 136h8v8H232V136M248 136h8v8H248V136M256 136h8v8H256V136M272 136h8v8H272V136M280 136h8v8H280V136M288 136h8v8H288V136M296 136h8v8H296V136M320 136h8v8H320V136M328 136h8v8H328V136M352 136h8v8H352V136M360 136h8v8H360V136M368 136h8v8H368V136M408 136h8v8H408V136M440 136h8v8H440V136M448 136h8v8H448V136M16 144h8v8H16V144M40 144h8v8H40V144M48 144h8v8H48V144M72 144h8v8H72V144M80 144h8v8H80V144M96 144h8v8H96V144M104 144h8v8H104V144M128 144h8v8H128V144M144 144h8v8H144V144M152 144h8v8H152V144M160 144h8v8H160V144M168 144h8v8H168V144M176 144h8v8H176V144M184 144h8v8H184V144M208 144h8v8H208V144M224 144h8v8H224V144M232 144h8v8H232V144M240 144h8v8H240V144M256 144h8v8H256V144M272 144h8v8H272V144M280 144h8v8H280V144M288 144h8v8H288V144M296 144h8v8H296V144M304 144h8v8H304V144M312 144h8v8H312V144M320 144h8v8H320V144M328 144h8v8H328V144M336 144h8v8H336V144M344 144h8v8H344V144M352 144h8v8H352V144M368 144h8v8H368V144M392 144h8v8H392V144M416 144h8v8H416V144M448 144h8v8H448V144M0 152h8v8H0V152M16 152h8v8H16V152M24 152h8v8H24V152M72 152h8v8H72V152M80 152h8v8H80V152M88 152h8v8H88V152M120 152h8v8H120V152M144 152h8v8H144V152M160 152h8v8H160V152M168 152h8v8H168V152M184 152h8v8H184V152M200 152h8v8H200V152M208 152h8v8H208V152M216 152h8v8H216V152M224 152h8v8H224V152M232 152h8v8H232V152M240 152h8v8H240V152M248 152h8v8H248V152M264 152h8v8H264V152M280 152h8v8H280V152M328 152h8v8H328V152M360 152h8v8H360V152M384 152h8v8H384V152M400 152h8v8H400V152M408 152h8v8H408V152M416 152h8v8H416V152M424 152h8v8H424V152M440 152h8v8H440V152M448 152h8v8H448V152M0 160h8v8H0V160M8 160h8v8H8V160M24 160h8v8H24V160M40 160h8v8H40V160M48 160h8v8H48V160M64 160h8v8H64V160M80 160h8v8H80V160M96 160h8v8H96V160M112 160h8v8H112V160M144 160h8v8H144V160M152 160h8v8H152V160M160 160h8v8H160V160M168 160h8v8H168V160M192 160h8v8H192V160M200 160h8v8H200V160M224 160h8v8H224V160M232 160h8v8H232V160M248 160h8v8H248V160M280 160h8v8H280V160M304 160h8v8H304V160M312 160h8v8H312V160M320 160h8v8H320V160M328 160h8v8H328V160M336 160h8v8H336V160M376 160h8v8H376V160M392 160h8v8H392V160M416 160h8v8H416V160M432 160h8v8H432V160M440 160h8v8H440V160M448 160h8v8H448V160M8 168h8v8H8V168M16 168h8v8H16V168M32 168h8v8H32V168M56 168h8v8H56V168M64 168h8v8H64V168M72 168h8v8H72V168M80 168h8v8H80V168M88 168h8v8H88V168M96 168h8v8H96V168M104 168h8v8H104V168M120 168h8v8H120V168M144 168h8v8H144V168M176 168h8v8H176V168M184 168h8v8H184V168M192 168h8v8H192V168M216 168h8v8H216V168M224 168h8v8H224V168M232 168h8v8H232V168M248 168h8v8H248V168M256 168h8v8H256V168M312 168h8v8H312V168M320 168h8v8H320V168M328 168h8v8H328V168M336 168h8v8H336V168M344 168h8v8H344V168M376 168h8v8H376V168M384 168h8v8H384V168M392 168h8v8H392V168M432 168h8v8H432V168M0 176h8v8H0V176M24 176h8v8H24V176M48 176h8v8H48V176M64 176h8v8H64V176M80 176h8v8H80V176M88 176h8v8H88V176M128 176h8v8H128V176M136 176h8v8H136V176M144 176h8v8H144V176M168 176h8v8H168V176M184 176h8v8H184V176M192 176h8v8H192V176M216 176h8v8H216V176M232 176h8v8H232V176M248 176h8v8H248V176M256 176h8v8H256V176M280 176h8v8H280V176M288 176h8v8H288V176M296 176h8v8H296V176M328 176h8v8H328V176M352 176h8v8H352V176M368 176h8v8H368V176M376 176h8v8H376V176M408 176h8v8H408V176M432 176h8v8H432V176M440 176h8v8H440V176M448 176h8v8H448V176M8 184h8v8H8V184M24 184h8v8H24V184M32 184h8v8H32V184M40 184h8v8H40V184M72 184h8v8H72V184M80 184h8v8H80V184M96 184h8v8H96V184M104 184h8v8H104V184M128 184h8v8H128V184M144 184h8v8H144V184M152 184h8v8H152V184M160 184h8v8H160V184M184 184h8v8H184V184M216 184h8v8H216V184M240 184h8v8H240V184M256 184h8v8H256V184M272 184h8v8H272V184M280 184h8v8H280V184M288 184h8v8H288V184M312 184h8v8H312V184M352 184h8v8H352V184M376 184h8v8H376V184M408 184h8v8H408V184M424 184h8v8H424V184M440 184h8v8H440V184M0 192h8v8H0V192M8 192h8v8H8V192M16 192h8v8H16V192M24 192h8v8H24V192M40 192h8v8H40V192M48 192h8v8H48V192M80 192h8v8H80V192M88 192h8v8H88V192M104 192h8v8H104V192M120 192h8v8H120V192M128 192h8v8H128V192M160 192h8v8H160V192M176 192h8v8H176V192M192 192h8v8H192V192M200 192h8v8H200V192M208 192h8v8H208V192M256 192h8v8H256V192M264 192h8v8H264V192M272 192h8v8H272V192M280 192h8v8H280V192M288 192h8v8H288V192M296 192h8v8H296V192M312 192h8v8H312V192M368 192h8v8H368V192M376 192h8v8H376V192M408 192h8v8H408V192M416 192h8v8H416V192M8 200h8v8H8V200M16 200h8v8H16V200M32 200h8v8H32V200M72 200h8v8H72V200M80 200h8v8H80V200M88 200h8v8H88V200M128 200h8v8H128V200M136 200h8v8H136V200M200 200h8v8H200V200M224 200h8v8H224V200M248 200h8v8H248V200M256 200h8v8H256V200M280 200h8v8H280V200M288 200h8v8H288V200M296 200h8v8H296V200M304 200h8v8H304V200M312 200h8v8H312V200M320 200h8v8H320V200M344 200h8v8H344V200M352 200h8v8H352V200M360 200h8v8H360V200M392 200h8v8H392V200M400 200h8v8H400V200M408 200h8v8H408V200M416 200h8v8H416V200M424 200h8v8H424V200M448 200h8v8H448V200M16 208h8v8H16V208M24 208h8v8H24V208M32 208h8v8H32V208M40 208h8v8H40V208M48 208h8v8H48V208M56 208h8v8H56V208M64 208h8v8H64V208M88 208h8v8H88V208M96 208h8v8H96V208M104 208h8v8H104V208M152 208h8v8H152V208M168 208h8v8H168V208M208 208h8v8H208V208M216 208h8v8H216V208M224 208h8v8H224V208M232 208h8v8H232V208M240 208h8v8H240V208M248 208h8v8H248V208M256 208h8v8H256V208M288 208h8v8H288V208M296 208h8v8H296V208M304 208h8v8H304V208M312 208h8v8H312V208M328 208h8v8H328V208M344 208h8v8H344V208M360 208h8v8H360V208M384 208h8v8H384V208M392 208h8v8H392V208M400 208h8v8H400V208M408 208h8v8H408V208M416 208h8v8H416V208M424 208h8v8H424V208M24 216h8v8H24V216M32 216h8v8H32V216M64 216h8v8H64V216M88 216h8v8H88V216M112 216h8v8H112V216M120 216h8v8H120V216M128 216h8v8H128V216M168 216h8v8H168V216M176 216h8v8H176V216M184 216h8v8H184V216M200 216h8v8H200V216M208 216h8v8H208V216M240 216h8v8H240V216M248 216h8v8H248V216M264 216h8v8H264V216M272 216h8v8H272V216M304 216h8v8H304V216M328 216h8v8H328V216M336 216h8v8H336V216M344 216h8v8H344V216M352 216h8v8H352V216M360 216h8v8H360V216M376 216h8v8H376V216M384 216h8v8H384V216M416 216h8v8H416V216M432 216h8v8H432V216M440 216h8v8H440V216M16 224h8v8H16V224M24 224h8v8H24V224M32 224h8v8H32V224M48 224h8v8H48V224M64 224h8v8H64V224M72 224h8v8H72V224M80 224h8v8H80V224M88 224h8v8H88V224M96 224h8v8H96V224M120 224h8v8H120V224M152 224h8v8H152V224M160 224h8v8H160V224M168 224h8v8H168V224M208 224h8v8H208V224M224 224h8v8H224V224M240 224h8v8H240V224M256 224h8v8H256V224M264 224h8v8H264V224M296 224h8v8H296V224M312 224h8v8H312V224M328 224h8v8H328V224M344 224h8v8H344V224M352 224h8v8H352V224M376 224h8v8H376V224M384 224h8v8H384V224M400 224h8v8H400V224M416 224h8v8H416V224M432 224h8v8H432V224M440 224h8v8H440V224M448 224h8v8H448V224M16 232h8v8H16V232M24 232h8v8H24V232M32 232h8v8H32V232M64 232h8v8H64V232M80 232h8v8H80V232M88 232h8v8H88V232M104 232h8v8H104V232M136 232h8v8H136V232M144 232h8v8H144V232M168 232h8v8H168V232M176 232h8v8H176V232M184 232h8v8H184V232M208 232h8v8H208V232M240 232h8v8H240V232M248 232h8v8H248V232M280 232h8v8H280V232M288 232h8v8H288V232M328 232h8v8H328V232M352 232h8v8H352V232M360 232h8v8H360V232M368 232h8v8H368V232M384 232h8v8H384V232M416 232h8v8H416V232M16 240h8v8H16V240M24 240h8v8H24V240M32 240h8v8H32V240M40 240h8v8H40V240M48 240h8v8H48V240M56 240h8v8H56V240M64 240h8v8H64V240M88 240h8v8H88V240M104 240h8v8H104V240M112 240h8v8H112V240M128 240h8v8H128V240M152 240h8v8H152V240M160 240h8v8H160V240M200 240h8v8H200V240M208 240h8v8H208V240M216 240h8v8H216V240M224 240h8v8H224V240M232 240h8v8H232V240M240 240h8v8H240V240M288 240h8v8H288V240M296 240h8v8H296V240M320 240h8v8H320V240M328 240h8v8H328V240M336 240h8v8H336V240M352 240h8v8H352V240M360 240h8v8H360V240M368 240h8v8H368V240M384 240h8v8H384V240M392 240h8v8H392V240M400 240h8v8H400V240M408 240h8v8H408V240M416 240h8v8H416V240M424 240h8v8H424V240M432 240h8v8H432V240M440 240h8v8H440V240M8 248h8v8H8V248M24 248h8v8H24V248M32 248h8v8H32V248M104 248h8v8H104V248M120 248h8v8H120V248M144 248h8v8H144V248M152 248h8v8H152V248M160 248h8v8H160V248M184 248h8v8H184V248M208 248h8v8H208V248M232 248h8v8H232V248M240 248h8v8H240V248M256 248h8v8H256V248M272 248h8v8H272V248M288 248h8v8H288V248M296 248h8v8H296V248M304 248h8v8H304V248M320 248h8v8H320V248M328 248h8v8H328V248M336 248h8v8H336V248M344 248h8v8H344V248M360 248h8v8H360V248M368 248h8v8H368V248M384 248h8v8H384V248M392 248h8v8H392V248M416 248h8v8H416V248M424 248h8v8H424V248M448 248h8v8H448V248M0 256h8v8H0V256M24 256h8v8H24V256M32 256h8v8H32V256M40 256h8v8H40V256M48 256h8v8H48V256M56 256h8v8H56V256M64 256h8v8H64V256M72 256h8v8H72V256M80 256h8v8H80V256M96 256h8v8H96V256M104 256h8v8H104V256M152 256h8v8H152V256M184 256h8v8H184V256M200 256h8v8H200V256M224 256h8v8H224V256M232 256h8v8H232V256M240 256h8v8H240V256M264 256h8v8H264V256M272 256h8v8H272V256M296 256h8v8H296V256M304 256h8v8H304V256M312 256h8v8H312V256M320 256h8v8H320V256M336 256h8v8H336V256M360 256h8v8H360V256M368 256h8v8H368V256M408 256h8v8H408V256M424 256h8v8H424V256M432 256h8v8H432V256M448 256h8v8H448V256M0 264h8v8H0V264M72 264h8v8H72V264M104 264h8v8H104V264M112 264h8v8H112V264M136 264h8v8H136V264M144 264h8v8H144V264M160 264h8v8H160V264M168 264h8v8H168V264M192 264h8v8H192V264M200 264h8v8H200V264M208 264h8v8H208V264M232 264h8v8H232V264M240 264h8v8H240V264M248 264h8v8H248V264M296 264h8v8H296V264M336 264h8v8H336V264M400 264h8v8H400V264M424 264h8v8H424V264M432 264h8v8H432V264M440 264h8v8H440V264M16 272h8v8H16V272M24 272h8v8H24V272M32 272h8v8H32V272M40 272h8v8H40V272M48 272h8v8H48V272M64 272h8v8H64V272M72 272h8v8H72V272M80 272h8v8H80V272M88 272h8v8H88V272M120 272h8v8H120V272M136 272h8v8H136V272M144 272h8v8H144V272M152 272h8v8H152V272M176 272h8v8H176V272M200 272h8v8H200V272M208 272h8v8H208V272M224 272h8v8H224V272M248 272h8v8H248V272M256 272h8v8H256V272M264 272h8v8H264V272M272 272h8v8H272V272M280 272h8v8H280V272M304 272h8v8H304V272M320 272h8v8H320V272M336 272h8v8H336V272M344 272h8v8H344V272M352 272h8v8H352V272M360 272h8v8H360V272M368 272h8v8H368V272M376 272h8v8H376V272M392 272h8v8H392V272M400 272h8v8H400V272M424 272h8v8H424V272M432 272h8v8H432V272M0 280h8v8H0V280M24 280h8v8H24V280M32 280h8v8H32V280M64 280h8v8H64V280M80 280h8v8H80V280M88 280h8v8H88V280M104 280h8v8H104V280M112 280h8v8H112V280M120 280h8v8H120V280M128 280h8v8H128V280M136 280h8v8H136V280M152 280h8v8H152V280M176 280h8v8H176V280M200 280h8v8H200V280M224 280h8v8H224V280M232 280h8v8H232V280M256 280h8v8H256V280M272 280h8v8H272V280M280 280h8v8H280V280M312 280h8v8H312V280M344 280h8v8H344V280M352 280h8v8H352V280M368 280h8v8H368V280M384 280h8v8H384V280M400 280h8v8H400V280M424 280h8v8H424V280M440 280h8v8H440V280M0 288h8v8H0V288M8 288h8v8H8V288M24 288h8v8H24V288M48 288h8v8H48V288M64 288h8v8H64V288M72 288h8v8H72V288M88 288h8v8H88V288M104 288h8v8H104V288M112 288h8v8H112V288M152 288h8v8H152V288M160 288h8v8H160V288M184 288h8v8H184V288M232 288h8v8H232V288M240 288h8v8H240V288M248 288h8v8H248V288M264 288h8v8H264V288M280 288h8v8H280V288M288 288h8v8H288V288M304 288h8v8H304V288M328 288h8v8H328V288M336 288h8v8H336V288M344 288h8v8H344V288M360 288h8v8H360V288M368 288h8v8H368V288M384 288h8v8H384V288M400 288h8v8H400V288M408 288h8v8H408V288M8 296h8v8H8V296M56 296h8v8H56V296M72 296h8v8H72V296M96 296h8v8H96V296M104 296h8v8H104V296M112 296h8v8H112V296M120 296h8v8H120V296M128 296h8v8H128V296M136 296h8v8H136V296M144 296h8v8H144V296M152 296h8v8H152V296M168 296h8v8H168V296M176 296h8v8H176V296M184 296h8v8H184V296M216 296h8v8H216V296M224 296h8v8H224V296M256 296h8v8H256V296M264 296h8v8H264V296M280 296h8v8H280V296M288 296h8v8H288V296M296 296h8v8H296V296M304 296h8v8H304V296M320 296h8v8H320V296M352 296h8v8H352V296M360 296h8v8H360V296M376 296h8v8H376V296M408 296h8v8H408V296M424 296h8v8H424V296M432 296h8v8H432V296M440 296h8v8H440V296M448 296h8v8H448V296M8 304h8v8H8V304M16 304h8v8H16V304M40 304h8v8H40V304M48 304h8v8H48V304M56 304h8v8H56V304M88 304h8v8H88V304M112 304h8v8H112V304M128 304h8v8H128V304M144 304h8v8H144V304M152 304h8v8H152V304M160 304h8v8H160V304M176 304h8v8H176V304M184 304h8v8H184V304M200 304h8v8H200V304M232 304h8v8H232V304M248 304h8v8H248V304M256 304h8v8H256V304M304 304h8v8H304V304M328 304h8v8H328V304M336 304h8v8H336V304M344 304h8v8H344V304M352 304h8v8H352V304M368 304h8v8H368V304M392 304h8v8H392V304M400 304h8v8H400V304M408 304h8v8H408V304M432 304h8v8H432V304M0 312h8v8H0V312M8 312h8v8H8V312M56 312h8v8H56V312M64 312h8v8H64V312M96 312h8v8H96V312M104 312h8v8H104V312M120 312h8v8H120V312M168 312h8v8H168V312M176 312h8v8H176V312M192 312h8v8H192V312M208 312h8v8H208V312M216 312h8v8H216V312M224 312h8v8H224V312M240 312h8v8H240V312M264 312h8v8H264V312M280 312h8v8H280V312M328 312h8v8H328V312M352 312h8v8H352V312M360 312h8v8H360V312M368 312h8v8H368V312M424 312h8v8H424V312M432 312h8v8H432V312M440 312h8v8H440V312M448 312h8v8H448V312M0 320h8v8H0V320M8 320h8v8H8V320M16 320h8v8H16V320M48 320h8v8H48V320M64 320h8v8H64V320M88 320h8v8H88V320M96 320h8v8H96V320M112 320h8v8H112V320M152 320h8v8H152V320M160 320h8v8H160V320M192 320h8v8H192V320M200 320h8v8H200V320M208 320h8v8H208V320M224 320h8v8H224V320M232 320h8v8H232V320M248 320h8v8H248V320M256 320h8v8H256V320M264 320h8v8H264V320M312 320h8v8H312V320M328 320h8v8H328V320M336 320h8v8H336V320M344 320h8v8H344V320M352 320h8v8H352V320M360 320h8v8H360V320M376 320h8v8H376V320M400 320h8v8H400V320M424 320h8v8H424V320M32 328h8v8H32V328M40 328h8v8H40V328M56 328h8v8H56V328M64 328h8v8H64V328M104 328h8v8H104V328M120 328h8v8H120V328M152 328h8v8H152V328M168 328h8v8H168V328M184 328h8v8H184V328M200 328h8v8H200V328M216 328h8v8H216V328M224 328h8v8H224V328M232 328h8v8H232V328M248 328h8v8H248V328M256 328h8v8H256V328M264 328h8v8H264V328M272 328h8v8H272V328M288 328h8v8H288V328M304 328h8v8H304V328M328 328h8v8H328V328M352 328h8v8H352V328M360 328h8v8H360V328M368 328h8v8H368V328M376 328h8v8H376V328M392 328h8v8H392V328M400 328h8v8H400V328M408 328h8v8H408V328M416 328h8v8H416V328M432 328h8v8H432V328M448 328h8v8H448V328M8 336h8v8H8V336M24 336h8v8H24V336M32 336h8v8H32V336M40 336h8v8H40V336M48 336h8v8H48V336M88 336h8v8H88V336M128 336h8v8H128V336M144 336h8v8H144V336M160 336h8v8H160V336M184 336h8v8H184V336M192 336h8v8H192V336M200 336h8v8H200V336M208 336h8v8H208V336M216 336h8v8H216V336M224 336h8v8H224V336M232 336h8v8H232V336M240 336h8v8H240V336M248 336h8v8H248V336M264 336h8v8H264V336M272 336h8v8H272V336M288 336h8v8H288V336M296 336h8v8H296V336M312 336h8v8H312V336M320 336h8v8H320V336M344 336h8v8H344V336M352 336h8v8H352V336M360 336h8v8H360V336M376 336h8v8H376V336M384 336h8v8H384V336M392 336h8v8H392V336M424 336h8v8H424V336M440 336h8v8H440V336M8 344h8v8H8V344M24 344h8v8H24V344M32 344h8v8H32V344M56 344h8v8H56V344M72 344h8v8H72V344M80 344h8v8H80V344M88 344h8v8H88V344M96 344h8v8H96V344M112 344h8v8H112V344M160 344h8v8H160V344M184 344h8v8H184V344M240 344h8v8H240V344M248 344h8v8H248V344M256 344h8v8H256V344M272 344h8v8H272V344M288 344h8v8H288V344M304 344h8v8H304V344M328 344h8v8H328V344M336 344h8v8H336V344M344 344h8v8H344V344M368 344h8v8H368V344M376 344h8v8H376V344M384 344h8v8H384V344M392 344h8v8H392V344M400 344h8v8H400V344M448 344h8v8H448V344M24 352h8v8H24V352M40 352h8v8H40V352M48 352h8v8H48V352M56 352h8v8H56V352M96 352h8v8H96V352M112 352h8v8H112V352M128 352h8v8H128V352M152 352h8v8H152V352M160 352h8v8H160V352M168 352h8v8H168V352M192 352h8v8H192V352M200 352h8v8H200V352M208 352h8v8H208V352M216 352h8v8H216V352M240 352h8v8H240V352M248 352h8v8H248V352M264 352h8v8H264V352M280 352h8v8H280V352M312 352h8v8H312V352M320 352h8v8H320V352M344 352h8v8H344V352M360 352h8v8H360V352M368 352h8v8H368V352M384 352h8v8H384V352M392 352h8v8H392V352M416 352h8v8H416V352M0 360h8v8H0V360M16 360h8v8H16V360M40 360h8v8H40V360M56 360h8v8H56V360M72 360h8v8H72V360M88 360h8v8H88V360M96 360h8v8H96V360M104 360h8v8H104V360M112 360h8v8H112V360M120 360h8v8H120V360M144 360h8v8H144V360M152 360h8v8H152V360M184 360h8v8H184V360M192 360h8v8H192V360M208 360h8v8H208V360M232 360h8v8H232V360M248 360h8v8H248V360M256 360h8v8H256V360M296 360h8v8H296V360M312 360h8v8H312V360M320 360h8v8H320V360M328 360h8v8H328V360M336 360h8v8H336V360M344 360h8v8H344V360M352 360h8v8H352V360M368 360h8v8H368V360M392 360h8v8H392V360M400 360h8v8H400V360M0 368h8v8H0V368M16 368h8v8H16V368M40 368h8v8H40V368M48 368h8v8H48V368M56 368h8v8H56V368M64 368h8v8H64V368M72 368h8v8H72V368M80 368h8v8H80V368M88 368h8v8H88V368M112 368h8v8H112V368M136 368h8v8H136V368M152 368h8v8H152V368M160 368h8v8H160V368M176 368h8v8H176V368M192 368h8v8H192V368M216 368h8v8H216V368M232 368h8v8H232V368M240 368h8v8H240V368M272 368h8v8H272V368M304 368h8v8H304V368M312 368h8v8H312V368M328 368h8v8H328V368M344 368h8v8H344V368M352 368h8v8H352V368M376 368h8v8H376V368M392 368h8v8H392V368M400 368h8v8H400V368M408 368h8v8H408V368M424 368h8v8H424V368M440 368h8v8H440V368M448 368h8v8H448V368M0 376h8v8H0V376M8 376h8v8H8V376M16 376h8v8H16V376M24 376h8v8H24V376M32 376h8v8H32V376M56 376h8v8H56V376M64 376h8v8H64V376M104 376h8v8H104V376M136 376h8v8H136V376M144 376h8v8H144V376M152 376h8v8H152V376M168 376h8v8H168V376M176 376h8v8H176V376M184 376h8v8H184V376M192 376h8v8H192V376M200 376h8v8H200V376M216 376h8v8H216V376M248 376h8v8H248V376M256 376h8v8H256V376M272 376h8v8H272V376M296 376h8v8H296V376M304 376h8v8H304V376M328 376h8v8H328V376M344 376h8v8H344V376M352 376h8v8H352V376M360 376h8v8H360V376M384 376h8v8H384V376M392 376h8v8H392V376M400 376h8v8H400V376M408 376h8v8H408V376M416 376h8v8H416V376M424 376h8v8H424V376M48 384h8v8H48V384M64 384h8v8H64V384M72 384h8v8H72V384M88 384h8v8H88V384M96 384h8v8H96V384M104 384h8v8H104V384M136 384h8v8H136V384M168 384h8v8H168V384M184 384h8v8H184V384M200 384h8v8H200V384M208 384h8v8H208V384M216 384h8v8H216V384M224 384h8v8H224V384M232 384h8v8H232V384M240 384h8v8H240V384M264 384h8v8H264V384M272 384h8v8H272V384M280 384h8v8H280V384M288 384h8v8H288V384M296 384h8v8H296V384M328 384h8v8H328V384M344 384h8v8H344V384M360 384h8v8H360V384M384 384h8v8H384V384M392 384h8v8H392V384M400 384h8v8H400V384M408 384h8v8H408V384M416 384h8v8H416V384M432 384h8v8H432V384M440 384h8v8H440V384M448 384h8v8H448V384M64 392h8v8H64V392M104 392h8v8H104V392M112 392h8v8H112V392M120 392h8v8H120V392M144 392h8v8H144V392M152 392h8v8H152V392M160 392h8v8H160V392M176 392h8v8H176V392M184 392h8v8H184V392M200 392h8v8H200V392M208 392h8v8H208V392M240 392h8v8H240V392M264 392h8v8H264V392M288 392h8v8H288V392M296 392h8v8H296V392M304 392h8v8H304V392M320 392h8v8H320V392M344 392h8v8H344V392M360 392h8v8H360V392M376 392h8v8H376V392M384 392h8v8H384V392M416 392h8v8H416V392M448 392h8v8H448V392M0 400h8v8H0V400M8 400h8v8H8V400M16 400h8v8H16V400M24 400h8v8H24V400M32 400h8v8H32V400M40 400h8v8H40V400M48 400h8v8H48V400M64 400h8v8H64V400M96 400h8v8H96V400M112 400h8v8H112V400M128 400h8v8H128V400M144 400h8v8H144V400M152 400h8v8H152V400M168 400h8v8H168V400M192 400h8v8H192V400M200 400h8v8H200V400M208 400h8v8H208V400M224 400h8v8H224V400M240 400h8v8H240V400M264 400h8v8H264V400M280 400h8v8H280V400M296 400h8v8H296V400M304 400h8v8H304V400M312 400h8v8H312V400M344 400h8v8H344V400M352 400h8v8H352V400M360 400h8v8H360V400M368 400h8v8H368V400M376 400h8v8H376V400M384 400h8v8H384V400M400 400h8v8H400V400M416 400h8v8H416V400M432 400h8v8H432V400M0 408h8v8H0V408M48 408h8v8H48V408M64 408h8v8H64V408M72 408h8v8H72V408M96 408h8v8H96V408M136 408h8v8H136V408M160 408h8v8H160V408M176 408h8v8H176V408M192 408h8v8H192V408M208 408h8v8H208V408M240 408h8v8H240V408M288 408h8v8H288V408M304 408h8v8H304V408M320 408h8v8H320V408M336 408h8v8H336V408M384 408h8v8H384V408M416 408h8v8H416V408M424 408h8v8H424V408M432 408h8v8H432V408M0 416h8v8H0V416M16 416h8v8H16V416M24 416h8v8H24V416M32 416h8v8H32V416M48 416h8v8H48V416M72 416h8v8H72V416M80 416h8v8H80V416M88 416h8v8H88V416M120 416h8v8H120V416M136 416h8v8H136V416M160 416h8v8H160V416M168 416h8v8H168V416M176 416h8v8H176V416M184 416h8v8H184V416M200 416h8v8H200V416M208 416h8v8H208V416M216 416h8v8H216V416M224 416h8v8H224V416M232 416h8v8H232V416M240 416h8v8H240V416M248 416h8v8H248V416M256 416h8v8H256V416M288 416h8v8H288V416M296 416h8v8H296V416M312 416h8v8H312V416M336 416h8v8H336V416M344 416h8v8H344V416M352 416h8v8H352V416M376 416h8v8H376V416M384 416h8v8H384V416M392 416h8v8H392V416M400 416h8v8H400V416M408 416h8v8H408V416M416 416h8v8H416V416M424 416h8v8H424V416M432 416h8v8H432V416M440 416h8v8H440V416M448 416h8v8H448V416M0 424h8v8H0V424M16 424h8v8H16V424M24 424h8v8H24V424M32 424h8v8H32V424M48 424h8v8H48V424M64 424h8v8H64V424M72 424h8v8H72V424M104 424h8v8H104V424M120 424h8v8H120V424M128 424h8v8H128V424M144 424h8v8H144V424M168 424h8v8H168V424M176 424h8v8H176V424M184 424h8v8H184V424M192 424h8v8H192V424M200 424h8v8H200V424M216 424h8v8H216V424M224 424h8v8H224V424M232 424h8v8H232V424M264 424h8v8H264V424M272 424h8v8H272V424M280 424h8v8H280V424M328 424h8v8H328V424M344 424h8v8H344V424M352 424h8v8H352V424M360 424h8v8H360V424M368 424h8v8H368V424M392 424h8v8H392V424M416 424h8v8H416V424M424 424h8v8H424V424M432 424h8v8H432V424M440 424h8v8H440V424M0 432h8v8H0V432M16 432h8v8H16V432M24 432h8v8H24V432M32 432h8v8H32V432M48 432h8v8H48V432M64 432h8v8H64V432M72 432h8v8H72V432M88 432h8v8H88V432M96 432h8v8H96V432M112 432h8v8H112V432M120 432h8v8H120V432M136 432h8v8H136V432M144 432h8v8H144V432M160 432h8v8H160V432M240 432h8v8H240V432M256 432h8v8H256V432M288 432h8v8H288V432M296 432h8v8H296V432M320 432h8v8H320V432M328 432h8v8H328V432M336 432h8v8H336V432M344 432h8v8H344V432M352 432h8v8H352V432M360 432h8v8H360V432M368 432h8v8H368V432M376 432h8v8H376V432M384 432h8v8H384V432M392 432h8v8H392V432M400 432h8v8H400V432M408 432h8v8H408V432M416 432h8v8H416V432M432 432h8v8H432V432M0 440h8v8H0V440M48 440h8v8H48V440M88 440h8v8H88V440M104 440h8v8H104V440M120 440h8v8H120V440M136 440h8v8H136V440M144 440h8v8H144V440M152 440h8v8H152V440M192 440h8v8H192V440M208 440h8v8H208V440M216 440h8v8H216V440M224 440h8v8H224V440M256 440h8v8H256V440M264 440h8v8H264V440M280 440h8v8H280V440M304 440h8v8H304V440M384 440h8v8H384V440M400 440h8v8H400V440M408 440h8v8H408V440M448 440h8v8H448V440M0 448h8v8H0V448M8 448h8v8H8V448M16 448h8v8H16V448M24 448h8v8H24V448M32 448h8v8H32V448M40 448h8v8H40V448M48 448h8v8H48V448M64 448h8v8H64V448M72 448h8v8H72V448M80 448h8v8H80V448M88 448h8v8H88V448M96 448h8v8H96V448M136 448h8v8H136V448M144 448h8v8H144V448M152 448h8v8H152V448M160 448h8v8H160V448M168 448h8v8H168V448M176 448h8v8H176V448M200 448h8v8H200V448M216 448h8v8H216V448M224 448h8v8H224V448M232 448h8v8H232V448M264 448h8v8H264V448M280 448h8v8H280V448M296 448h8v8H296V448M312 448h8v8H312V448M320 448h8v8H320V448M328 448h8v8H328V448M336 448h8v8H336V448M376 448h8v8H376V448M400 448h8v8H400V448"/></svg>
